<svg width="62" height="96" viewBox="0 0 62 96" fill="none" xmlns="http://www.w3.org/2000/svg">
<path d="M25.3214 81.2235C25.1036 78.1916 30.0843 73.7286 30.0714 71.3019C30.0553 68.2686 22.0815 66.3246 20.3566 63.8435C18.2835 60.8613 19.4756 59.898 17.6128 57.3774C15.4009 54.3844 16.0419 55.385 11.862 51.9201C10.2224 50.561 7.58897 48.6339 6.52781 47.1523C3.62783 43.1033 5.07419 44.934 2.0129 43.0645C0.911827 42.392 0.562109 41.0004 3.56918 39.9913C6.47498 39.0162 11.0918 41.3862 13.9272 43.6994C15.5095 44.9904 17.3932 45.6336 20.0509 47.5136C21.482 48.5259 22.1522 48.803 23.4916 48.1276C24.8997 47.4175 25.0643 46.3693 25.4644 45.7442C25.4569 44.3442 25.3325 39.7724 25.3246 38.2791C25.3146 36.4124 25.2918 31.8114 25.6815 29.2418C25.9933 27.1862 25.0674 20.5476 25.4704 17.9702C25.8734 15.3927 25.5281 10.8788 25.7908 9.32657C26.0535 7.77431 25.9093 3.95567 28.1012 3.43379C30.2931 2.91192 31.3568 8.01164 31.529 10.0638C31.7013 12.116 32.2621 14.8528 32.2733 16.9528C32.7154 20.676 32.9707 22.9804 32.9707 26.4249C32.9707 29.725 32.9372 28.9584 33.762 32.4526C34.9863 35.0108 33.803 20.5478 34.2707 20M34.2707 20L34.2707 31.2538M34.2707 20C34.2707 15 34.7224 11 34.7224 10C34.7224 9.06659 34.7224 6.00001 35.1545 4.50001C35.1545 4.50001 35.5147 1.00001 37.7476 1.00001C39.9805 1.00001 41.0049 3.55484 41.1022 4.50001C41.2051 5.5 41.205 13.5 41.1022 15C40.858 18.5608 41.6248 29.0436 41.6248 32.4526C41.6379 33.1525 42.9213 21 42.9213 20C42.9213 18.3225 43.3535 15.5 43.3535 13.5C43.3535 12.5667 43.3535 10.0638 43.7857 8.00001C44.3337 5.38313 44.2178 5.00001 45.0822 4.00001C45.9466 3.00001 46.4988 3.00001 47.2431 3.00001C47.9874 3.00001 48.4901 5.48598 48.6833 8.00001C49.1444 14 48.5396 15.5 48.4674 18.5C48.3327 24.0904 48.0062 29.5 48.0062 31C48.0062 32.0703 48.5396 36.5 48.5396 38C48.5952 39.8122 48.5704 40.769 48.6003 42.3635C48.6396 44.4631 48.6571 45.3961 48.6833 46.7959C48.7095 48.1957 48.3667 50.4894 49.3924 51.3973C50.0332 51.9645 50.881 52.2584 51.6253 52.2584C53.1784 52.2584 53.2967 51.3262 53.9998 49.675C54.7028 48.0238 53.8888 44.5497 53.8582 42.9168C53.8338 41.6104 54.5062 36.6918 54.7288 35.6749C54.9962 35.5904 55.1008 38.3729 55.1112 38.9328C55.1462 40.7991 55.4177 40.2589 55.2554 42.3635C55.0931 44.4681 55.2243 44.969 55.2554 46.6312C55.2729 47.5643 55.902 49.6491 57.2264 50.5495C58.286 51.2698 58.6554 51.4472 59.8347 49.7839L60.6182 47.197M48.0062 30.4907C50.0156 29.0763 50.2156 29.5341 51.2979 29.5264C52.7097 29.5163 54.5785 34.0374 54.5373 31.8366C54.5308 31.4929 56.6872 28.7919 58.7665 30.6398C60.5897 32.2603 60.7504 32.0923 60.7649 34.8234C60.791 39.7235 60.7781 35.5232 60.896 41.8219C60.9397 44.1548 60.9397 44.1548 60.6182 47.197M60.6182 47.197C60.2968 50.2392 60.7056 51.8626 60.3428 55.3726C59.98 58.8826 60.0085 60.0489 59.3699 62.8656C58.7313 65.6824 58.5492 67.3207 55.9672 69.4859C54.6608 70.5815 55.7862 72.2912 50.9786 72.4117C49.5845 73.3802 45.8162 74.8029 49.8648 77.5743C56.0422 77.4194 55.3332 81.7147 51.1315 80.5766C47.6516 80.8788 45.8587 80.4621 45.8706 82.7021C45.8825 84.9421 51.9806 82.0571 55.0112 83.0467C60.9386 86.6081 43.4926 85.5175 41.5624 86.6513C39.1497 88.0685 26.1574 80.8074 30.4498 91.5107C33.8838 100.073 51.8259 90.8918 54.8388 88.537" stroke="black" stroke-width="0.5"/>
<path d="M56.0913 47.0918C56.0913 47.6833 56.1088 48.016 56.8531 48.8771C56.8507 48.8139 57.8779 50.858 59.0686 49.675C59.6055 49.1415 59.8274 47.8311 59.8274 47.0917L59.8129 46.2305C58.7358 45.1177 59.0682 45.5553 58.3243 45.5553C57.5804 45.5552 56.3416 45.4355 56.0912 46.2307C55.921 46.7712 56.0913 46.2307 56.0913 47.0918Z" stroke="black" stroke-width="0.2"/>
<path d="M49.393 48.8149C49.393 49.4059 49.393 49.8064 50.1369 50.667C50.1344 50.6038 51.4145 51.85 52.6052 50.667C53.1421 50.1336 53.1141 49.675 53.1141 48.8139V47.0917C53.1141 47.0917 53.0418 46.2306 51.6257 46.2306C50.8818 46.2306 49.393 46.3523 49.3927 47.0917C49.3923 48.1374 49.393 48.0745 49.393 48.8139L49.393 48.8149Z" stroke="black" stroke-width="0.2"/>
</svg>
