<svg width="111" height="104" viewBox="0 0 111 104" fill="none" xmlns="http://www.w3.org/2000/svg">
<path d="M73.5459 87.279C73.3735 84.2471 77.3154 79.7841 77.3052 77.3574C77.2924 74.3241 70.9818 72.3801 69.6167 69.8989C67.9759 66.9167 68.9194 65.9535 67.4451 63.4328C65.6945 60.4398 66.2019 61.4404 62.8938 57.9755C61.5962 56.6164 59.512 54.6894 58.6722 53.2078C56.3771 49.1588 57.5217 50.9895 55.099 49.1199C54.2275 48.4475 53.9508 47.0559 56.3306 46.0468C58.6304 45.0717 62.2842 47.4416 64.5282 49.7549C65.7805 51.0458 67.2713 51.689 69.3747 53.569C70.5073 54.5814 71.0377 54.8584 72.0978 54.183C73.2121 53.473 73.3424 52.4247 73.659 51.7996C73.6531 50.3996 73.5547 45.8279 73.5484 44.3345C73.5405 42.4679 73.5224 37.8668 73.8309 35.2973C74.0776 33.2416 73.3449 26.6031 73.6638 24.0256C73.9828 21.4482 73.7095 16.9343 73.9174 15.382C74.1253 13.8298 74.0112 10.0111 75.7459 9.48926C77.4806 8.96738 78.3224 14.0671 78.4588 16.1193C78.5951 18.1715 79.039 20.9083 79.0478 23.0083C79.3977 26.7315 79.5997 29.0359 79.5997 32.4803C79.5997 35.7804 79.5732 35.0139 80.226 38.5081C81.1949 41.0663 80.3425 42.5549 80.7126 42.0071M80.7126 42.0071L80.6286 37.3093C80.626 36.687 81.4364 34.1313 82.6484 33.5436C84.2969 32.7442 85.0696 33.9793 86.0352 35.8374C87.1447 33.9606 91.1692 33.9823 91.4993 36.5462C93.0895 35.1318 93.2478 35.5895 94.1044 35.5818C95.2217 35.5718 96.7007 40.0929 96.6681 37.8921C96.663 37.5484 98.3696 34.8474 100.015 36.6953C101.458 38.3157 101.585 38.1478 101.597 40.8789C101.617 45.7789 101.607 41.5787 101.701 47.8774C101.735 50.2102 101.735 50.2103 101.481 53.2525M80.7126 42.0071C80.7783 46.4394 80.9304 46.9013 80.9443 47.8345C80.9581 48.7677 81.0829 50.0085 81.3326 52.4901C81.3326 52.4901 81.4041 55.7305 83.1713 55.7305C84.9384 55.7305 85.399 55.3955 85.5129 54.4583C85.6552 53.2868 85.9744 53.2768 86.2659 51.4004C86.4991 49.8992 86.509 46.2579 86.634 43.9201L86.5959 41.354C86.8272 42.5914 86.9739 45.3096 86.9739 45.3096C86.9843 46.0095 87.0043 47.3626 87.0154 48.1091C87.043 49.9754 86.7377 50.9187 86.7515 51.8517C86.7653 52.7848 86.6058 52.7899 86.793 54.6511C86.9428 56.14 86.9005 56.5149 87.1467 56.9739C87.393 57.4328 87.8838 58.3138 88.4728 58.3138C89.0619 58.3138 89.3326 58.9243 90.3384 56.8728C91.2683 54.9762 90.9744 52.8496 91.206 50.7771C91.6511 46.7953 91.4042 42.602 91.8691 41.6536C92.2411 40.8949 92.2298 44.4431 92.2194 43.7432C92.0667 44.2148 91.9458 46.8244 91.9694 48.419C92.0005 50.5185 92.0143 51.4516 92.0351 52.8514C92.0558 54.2512 91.7845 56.5449 92.5963 57.4527C93.1035 58.02 93.7744 58.3138 94.3635 58.3138C95.5926 58.3138 95.6863 57.3817 96.2427 55.7305C96.7991 54.0793 96.1549 50.6052 96.1307 48.9722C96.1113 47.6659 96.6435 42.7473 96.8197 41.7303C97.0313 41.6459 97.114 44.4284 97.1223 44.9883C97.15 46.8545 97.3649 46.3143 97.2364 48.419C97.108 50.5236 97.2118 51.0244 97.2364 52.6866C97.2503 53.6198 97.7481 55.7046 98.7964 56.6049C99.6349 57.3252 99.9273 57.5027 100.861 55.8394L101.481 53.2525M101.481 53.2525C101.226 56.2947 101.55 57.9181 101.263 61.4281C100.976 64.9381 100.998 66.1043 100.493 68.9211C99.9874 71.7378 99.8432 73.3761 97.7997 75.5414C96.7658 76.6369 97.6565 78.3467 93.8516 78.4672C92.7484 79.4357 89.766 80.8584 92.9702 83.6297C97.8591 83.4749 97.298 87.7702 93.9726 86.6321C91.2186 86.9343 89.7996 86.5175 89.8091 88.7576C89.8185 90.9976 94.6447 88.1126 97.0432 89.1022C101.734 92.6636 87.9271 91.573 86.3995 92.7068C84.4899 94.124 74.2075 86.8629 77.6047 97.5661C80.3224 106.129 94.5222 96.9473 96.9067 94.5924" stroke="url(#paint0_linear_866_3548)" stroke-width="0.5"/>
<path d="M81.9932 51.4248C81.9932 52.1137 81.9935 53.147 82.5828 54.0081C83.1719 54.8692 83.9964 55.3859 84.9389 54.0082C85.3639 53.3869 85.528 52.2859 85.528 51.4248L85.5275 50.5639C85.5275 49.703 84.9388 49.7028 83.7618 49.7023L83.7609 49.7023C83.1721 49.7021 82.6889 49.5467 82.5822 49.7023C81.9932 50.5615 81.9932 50.5637 81.9932 51.4218V51.4248Z" stroke="black" stroke-width="0.2"/>
<path d="M87.2968 54.5675C87.2968 55.159 87.2968 55.7937 87.8859 56.6548C87.884 56.5917 88.8259 57.9056 89.7682 56.7225C90.1931 56.1891 90.2398 55.6089 90.2398 54.8695L90.4918 53.399C90.4923 52.6596 90.24 52.2861 88.4729 52.2861C87.8841 52.2861 87.2952 52.2861 87.295 53.0255C87.2946 54.0712 87.2968 53.8281 87.2968 54.5675Z" stroke="url(#paint1_linear_866_3548)" stroke-width="0.2"/>
<path d="M97.8977 53.1472C97.8977 53.7387 97.9117 54.0714 98.5007 54.9325C98.4988 54.8693 99.3117 56.9134 100.254 55.7304C100.679 55.197 100.855 53.8865 100.855 53.1471L100.843 52.2859C99.9907 51.1731 100.254 51.6107 99.665 51.6107C99.0763 51.6106 98.0958 51.4909 97.8977 52.2861C97.763 52.8266 97.8977 52.2862 97.8977 53.1472Z" stroke="url(#paint2_linear_866_3548)" stroke-width="0.2"/>
<path d="M92.5965 54.8705C92.5965 55.4614 92.5965 55.8619 93.1853 56.7225C93.1833 56.6594 94.1964 57.9056 95.1388 56.7225C95.5637 56.1891 95.5415 55.7306 95.5415 54.8695V53.1472C95.5415 53.1472 95.4843 52.2861 94.3636 52.2861C93.7748 52.2861 92.5965 52.4079 92.5963 53.1472C92.596 54.1929 92.5965 54.1301 92.5965 54.8695L92.5965 54.8705Z" stroke="url(#paint3_linear_866_3548)" stroke-width="0.2"/>
<path d="M21.548 84.054C21.3597 81.0221 25.6717 76.5584 25.6607 74.1317C25.647 71.0984 18.7445 69.1555 17.2515 66.6745C15.4571 63.6925 16.4891 62.7291 14.8767 60.2087C12.9622 57.216 13.5171 58.2165 9.89889 54.7521C8.47969 53.3932 6.20012 51.4665 5.28162 49.985C2.77151 45.9364 4.02344 47.7669 1.37352 45.8977C0.420407 45.2254 0.117777 43.8339 2.72099 42.8244C5.23654 41.8489 9.233 44.2183 11.6873 46.5312C13.057 47.822 14.6876 48.4649 16.9881 50.3446C18.2269 51.3568 18.8071 51.6337 19.9666 50.9582C21.1856 50.248 21.3282 49.1997 21.6745 48.5745C21.6682 47.1745 21.5609 42.6028 21.5541 41.1095C21.5457 39.2428 21.5263 34.6417 21.8638 32.0721C22.1339 30.0164 21.3329 23.378 21.682 20.8005C22.0311 18.223 21.7325 13.7091 21.96 12.1568C22.1876 10.6045 22.0631 6.78591 23.9606 6.26377C25.858 5.74162 26.7784 10.8412 26.9274 12.8934C27.0763 14.9456 27.5616 17.6823 27.5711 19.7823C27.9535 23.5054 28.1743 25.8098 28.1741 29.2542C28.1738 32.5544 28.1449 31.7878 28.8586 35.2819C29.9183 37.8399 28.8951 23.3771 29.3 22.8292M29.3 22.8292L29.2991 34.083M29.3 22.8292C29.3004 17.8292 29.6917 13.8292 29.6918 12.8292C29.6919 11.8957 29.6921 8.82915 30.0663 7.3291C30.0663 7.3291 30.3784 3.82905 32.3114 3.82877C34.2443 3.82849 35.1309 6.3832 35.215 7.32836C35.304 8.32834 35.3034 16.3284 35.2142 17.8284C35.0026 21.3892 35.6655 31.8719 35.6652 35.281C35.6765 35.9808 36.7885 23.8282 36.7886 22.8282C36.7887 21.1506 37.1631 18.3281 37.1632 16.3281C37.1633 15.3948 37.1635 12.8919 37.5378 10.828C38.0124 8.21108 37.9121 7.82797 38.6605 6.82786C39.4088 5.82775 39.8868 5.82768 40.5312 5.82759C41.1755 5.82749 41.6104 8.31341 41.7775 10.8274C42.1762 16.8274 41.6525 18.3274 41.5898 21.3275C41.4728 26.9179 40.1972 32.8625 41.1896 33.8275C42.0498 34.664 43.782 23.3272 44.04 22.3271C44.4753 20.6396 44.6483 15.4219 44.6484 13.827C44.6485 12.8908 45.5167 7.39311 47.0112 7.32665C48.2224 7.2728 48.014 8.10116 48.5443 9.32646C48.9771 10.3264 49.1239 11.2626 49.3531 13.3263C49.5241 14.8665 49.3528 16.3263 48.9764 18.8264C48.675 20.8281 48.4597 25.0013 48.1101 26.8265C47.8657 28.1028 46.3783 32.8268 47.2517 34.8267C48.5422 35.8265 48.486 31.3265 48.9757 28.3264C49.4653 25.3263 49.4088 23.8263 49.8419 21.3263C50.2749 18.8262 50.7083 13.9127 51.1411 12.3261C51.6867 10.326 52.6935 9.41186 53.3054 10.8258C54.1709 12.8257 52.9615 24.3258 52.8713 26.8258C52.8713 26.8258 52.8699 43.8259 52.8699 44.8259C52.8698 45.8259 52.1814 54.6886 51.867 58.1986C51.5527 61.7087 51.5773 62.8749 51.0242 65.6918C50.4712 68.5086 50.3134 70.1469 48.0781 72.3125C46.9471 73.4082 47.9212 75.1178 43.7593 75.2389C42.5525 76.2076 39.2903 77.6308 42.7948 80.4016C48.1424 80.246 47.5283 84.5414 43.8911 83.4038C40.8786 83.7064 39.3266 83.2899 39.3367 85.5299C39.3469 87.7699 44.626 84.8842 47.2495 85.8734C52.3803 89.4341 37.278 88.3457 35.6069 89.4797C33.5182 90.8972 22.2717 83.6377 25.9867 94.3405C28.9587 102.903 44.4914 93.719 47.0997 91.3637" stroke="black" stroke-width="0.5"/>
<defs>
<linearGradient id="paint0_linear_866_3548" x1="64.3976" y1="26.0555" x2="99.2699" y2="46.3397" gradientUnits="userSpaceOnUse">
<stop/>
<stop offset="1" stop-opacity="0"/>
</linearGradient>
<linearGradient id="paint1_linear_866_3548" x1="80.139" y1="47.5555" x2="90.489" y2="54.9998" gradientUnits="userSpaceOnUse">
<stop/>
<stop offset="1" stop-opacity="0"/>
</linearGradient>
<linearGradient id="paint2_linear_866_3548" x1="89.4218" y1="49.5555" x2="100.173" y2="54.1751" gradientUnits="userSpaceOnUse">
<stop/>
<stop offset="1" stop-opacity="0"/>
</linearGradient>
<linearGradient id="paint3_linear_866_3548" x1="84.5786" y1="48.5555" x2="95.3985" y2="55.0034" gradientUnits="userSpaceOnUse">
<stop/>
<stop offset="1" stop-opacity="0"/>
</linearGradient>
</defs>
</svg>
