<svg width="131" height="147" viewBox="0 0 131 147" fill="none" xmlns="http://www.w3.org/2000/svg">
<g filter="url(#filter0_f_222_1686)">
<ellipse cx="65.5553" cy="73.3687" rx="24.9093" ry="32.9089" fill="#FCE308"/>
</g>
<path d="M52.6173 52.208C52.0705 52.4711 50.6345 53.0158 46.9923 56.5164C44.9611 58.4687 45.0393 61.3634 44.4142 64.0562C43.8564 66.459 43.4886 67.1976 44.961 71.5959C46.1329 75.0965 46.0416 78.477 53.5548 81.9631C54.5704 82.4343 57.6174 83.7134 61.2893 83.9827C64.9612 84.2519 73.2425 82.5016 75.0393 81.0206C81.5436 75.6597 82.4613 75.9717 83.7113 71.5959C84.2463 69.7229 83.3268 62.2386 82.4613 60.2863C80.5511 55.9779 82.0706 55.9106 72.1487 51.3329C62.2268 46.7552 58.633 49.3133 52.6173 52.208Z" stroke="black" stroke-width="0.5"/>
<path d="M53.2424 64.46C51.3673 63.0598 50.4819 61.7672 50.2736 61.296L53.8674 58.334L55.0392 59.4784C55.8726 60.0843 57.0124 61.958 58.0861 62.7097C59.3362 63.5849 60.7164 65.9635 61.758 66.5469L64.1799 69.9129C64.4664 69.6211 66.2756 67.5566 66.5237 67.1528C67.2268 66.0084 68.0862 64.6395 68.6331 63.5849L72.93 57.7954L77.0707 58.8725L76.1331 61.296L71.9144 66.5469L64.1799 75.1638C62.7997 73.8847 59.8987 71.1785 59.3362 70.5861C58.633 69.8455 55.5861 66.2103 53.2424 64.46Z" stroke="black" stroke-width="0.5"/>
<path d="M55.4686 96.1434L50.3688 94.1479L48.1407 98.1388C47.596 100.672 45.3679 103.106 44.5262 104.72C43.3314 107.01 41.0438 109.475 40.6642 110.281L47.1009 106.715L51.7551 104.125L53.2405 102.809C54.4784 104.974 54.2803 104.55 55.0725 105.738C55.9878 107.112 56.5579 108.031 57.3006 109.39L59.4297 113.805C59.4297 112.772 59.7268 105.127 59.7268 104.72C59.7268 104.21 58.5385 96.9501 59.4297 96.9501C59.7268 96.9501 57.1026 96.7802 55.4686 96.1434Z" stroke="black" stroke-width="0.5"/>
<path d="M78.415 95.4682L73.2821 96.7767L74.5928 100.869C76.0514 102.998 76.2245 105.963 76.7969 107.586C77.6094 109.889 77.7621 112.909 78.0781 113.698L80.1102 107.641L81.5715 103.253L81.6801 101.498C84.1542 102.397 83.7013 102.197 85.1408 102.63C86.8039 103.13 87.8864 103.488 89.4143 104.071L94.1748 106.119C93.4199 105.371 88.0478 99.6744 87.7499 99.3793C87.3777 99.0104 81.2165 94.3949 81.8587 93.9138C82.0727 93.7534 80.0577 95.0472 78.415 95.4682Z" stroke="black" stroke-width="0.5"/>
<path d="M69.9612 41.9082C65.9768 43.3892 69.0238 47.6303 62.5393 46.8898L59.258 43.0526C55.9768 39.0808 53.7111 40.4945 51.0548 40.4945C47.3821 40.4945 44.4923 43.9277 44.4923 46.8898C44.4923 49.8518 47.1486 50.9963 45.7424 53.3524C44.3361 55.7086 41.5235 53.2178 37.6954 54.6988C33.8672 56.1798 32.6438 59.7124 33.086 61.9693C34.1016 67.1529 38.4766 66.345 40.4298 68.2973C42.3829 70.2495 40.5079 73.9521 38.2423 75.2985C35.9766 76.6449 36.5473 81.1266 37.6954 83.0402C39.336 85.7748 41.2888 89.4456 47.2267 87.5506C51.4455 86.2042 50.8986 86.1623 55.508 87.5506C60.1174 88.9388 58.9052 89.8135 59.258 91.4551C60.0393 95.0903 71.9126 94.9178 73.8676 91.4551C75.2738 88.9643 73.1644 89.3682 73.8676 87.5506C74.4301 86.0965 77.9561 84.3193 79.102 84.9251C81.1853 85.7105 85.9685 88.0043 90.0395 86.1623C92.7739 84.9251 93.8677 82.9055 93.8677 79.001C93.8677 77.5063 92.1489 75.7697 90.0395 73.6828C87.9302 71.5959 88.0864 70.2495 88.477 68.2973C88.8677 66.345 90.3944 66.2501 93.8677 64.6621C97.341 63.074 96.0029 55.2395 93.8677 54.0929C88.477 51.1982 85.4301 55.9106 82.6176 52.006C81.8624 50.5026 81.8363 51.1309 82.6176 49.044C83.347 47.0954 83.0082 44.5336 81.4457 43.0526C79.8832 41.5716 73.9456 40.4271 69.9612 41.9082Z" stroke="black" stroke-width="0.5"/>
<defs>
<filter id="filter0_f_222_1686" x="0.645905" y="0.459839" width="129.819" height="145.818" filterUnits="userSpaceOnUse" color-interpolation-filters="sRGB">
<feFlood flood-opacity="0" result="BackgroundImageFix"/>
<feBlend mode="normal" in="SourceGraphic" in2="BackgroundImageFix" result="shape"/>
<feGaussianBlur stdDeviation="20" result="effect1_foregroundBlur_222_1686"/>
</filter>
</defs>
</svg>
