<svg width="62" height="96" viewBox="0 0 62 96" fill="none" xmlns="http://www.w3.org/2000/svg">
<path d="M25.3214 81.2791C25.1036 78.2472 30.0843 73.7842 30.0714 71.3575C30.0553 68.3241 22.0815 66.3802 20.3566 63.899C18.2835 60.9168 19.4756 59.9536 17.6128 57.4329C15.4009 54.4399 16.0419 55.4405 11.862 51.9756C10.2224 50.6165 7.58897 48.6894 6.52781 47.2078C3.62783 43.1589 5.07419 44.9895 2.0129 43.12C0.911827 42.4476 0.562109 41.056 3.56918 40.0469C6.47498 39.0717 11.0918 41.4417 13.9272 43.7549C15.5095 45.0459 17.3932 45.6891 20.0509 47.5691C21.482 48.5815 22.1522 48.8585 23.4916 48.1831C24.8997 47.4731 25.0643 46.4248 25.4644 45.7997C25.4569 44.3997 25.3325 39.828 25.3246 38.3346C25.3146 36.4679 25.2918 31.8669 25.6815 29.2974C25.9933 27.2417 25.0674 20.6031 25.4704 18.0257C25.8734 15.4483 25.5281 10.9343 25.7908 9.38209C26.0535 7.82983 25.9093 4.01119 28.1012 3.48931C30.2931 2.96744 31.3567 8.06716 31.529 10.1194C31.7013 12.1716 32.2621 14.9083 32.2733 17.0083C32.7154 20.7315 32.9706 23.0359 32.9706 26.4804C32.9706 29.7805 32.9372 29.014 33.762 32.5082C34.9863 35.0663 33.803 20.6033 34.2707 20.0555M34.2707 20.0555L34.2707 31.3093M34.2707 20.0555C34.2707 15.0555 34.7224 11.0555 34.7224 10.0555C34.7224 9.12211 34.7224 6.05553 35.1545 4.55553C35.1545 4.55553 35.5147 1.05553 37.7476 1.05553C39.9805 1.05553 41.0049 3.61036 41.1022 4.55553C41.2051 5.55552 41.205 13.5555 41.1022 15.0555C40.858 18.6163 41.6248 29.0991 41.6248 32.5082C41.6379 33.208 42.9213 21.0555 42.9213 20.0555C42.9213 18.378 43.3535 15.5555 43.3535 13.5555C43.3535 12.6222 43.3535 10.1194 43.7857 8.05553C44.3337 5.43865 44.2178 5.05553 45.0822 4.05553C45.9466 3.05553 46.4988 3.05553 47.2431 3.05553C47.9874 3.05553 48.49 5.5415 48.6833 8.05553C49.1444 14.0555 48.5396 15.5555 48.4674 18.5555C48.3327 24.146 46.8598 30.0903 48.0062 31.0555C49 31.8922 51 20.5555 51.2979 19.5555C51.8006 17.8681 52 12.6504 52 11.0555C52 10.1194 53.0024 4.62176 54.7288 4.55553C56.1279 4.50185 55.8873 5.33018 56.5 6.55555C57 7.55555 57.1697 8.49174 57.4346 10.5555C57.6323 12.0957 57.4346 13.5555 57 16.0555C56.652 18.0572 56.4036 22.2304 56 24.0556C55.7178 25.3318 54.5964 33.3807 54.8252 36.0556C55.0091 37.5555 54.9742 37.6893 55.0091 39.5555C55.0441 41.4218 55.2554 40.2471 55.2554 42.419C55.2554 44.5296 55.2243 45.0245 55.2554 46.6867C55.2729 47.6199 55.902 49.7046 57.2264 50.605C58.286 51.3253 58.6554 51.5028 59.8347 49.8394L60.6182 47.2526M55.0091 31.5555C55.0027 31.2118 56.6872 28.8474 58.7665 30.6954C60.5897 32.3158 60.7504 32.1478 60.7649 34.879C60.791 39.779 60.778 35.5788 60.896 41.8775C60.9397 44.2103 60.9397 44.2104 60.6182 47.2526M60.6182 47.2526C60.2968 50.2947 60.7056 51.9182 60.3428 55.4282C59.98 58.9382 60.0085 60.1044 59.3699 62.9212C58.7313 65.7379 58.5492 67.3762 55.9672 69.5415C54.6608 70.637 55.7862 72.3467 50.9786 72.4672C49.5845 73.4357 45.8162 74.8585 49.8648 77.6298C56.0422 77.475 55.3332 81.7703 51.1315 80.6322C47.6516 80.9344 45.8587 80.5176 45.8706 82.7576C45.8825 84.9976 51.9806 82.1127 55.0112 83.1023C60.9386 86.6637 43.4926 85.5731 41.5624 86.7069C39.1497 88.1241 26.1574 80.863 30.4498 91.5662C33.8838 100.129 51.8259 90.9474 54.8388 88.5925" stroke="black" stroke-width="0.5"/>
<path d="M56.0913 47.1473C56.0913 47.7388 56.1088 48.0715 56.8531 48.9326C56.8507 48.8695 57.8779 50.9135 59.0686 49.7305C59.6055 49.1971 59.8274 47.8866 59.8274 47.1472L59.8129 46.2861C58.7358 45.1732 59.0682 45.6108 58.3243 45.6108C57.5804 45.6108 56.3416 45.491 56.0912 46.2862C55.921 46.8267 56.0913 46.2863 56.0913 47.1473Z" stroke="black" stroke-width="0.2"/>
</svg>
