<svg width="54" height="96" viewBox="0 0 54 96" fill="none" xmlns="http://www.w3.org/2000/svg">
<path d="M21.548 81.165C21.3597 78.1331 25.6717 73.6695 25.6607 71.2428C25.647 68.2095 18.7445 66.2665 17.2515 63.7856C15.4571 60.8036 16.4891 59.8402 14.8767 57.3198C12.9622 54.3271 13.5171 55.3276 9.89889 51.8632C8.47969 50.5043 6.20012 48.5776 5.28162 47.0961C2.77151 43.0475 4.02344 44.878 1.37352 43.0088C0.420407 42.3365 0.117777 40.945 2.72099 39.9355C5.23654 38.96 9.233 41.3294 11.6873 43.6423C13.057 44.933 14.6876 45.576 16.9881 47.4557C18.2269 48.4679 18.8071 48.7448 19.9666 48.0692C21.1856 47.359 21.3282 46.3108 21.6745 45.6856C21.6682 44.2856 21.5609 39.7139 21.5541 38.2205C21.5457 36.3539 21.5263 31.7528 21.8638 29.1832C22.1339 27.1275 21.3329 20.4891 21.682 17.9116C22.0311 15.3341 21.7325 10.8202 21.96 9.26792C22.1876 7.71562 22.0631 3.897 23.9606 3.37485C25.858 2.8527 26.7784 7.95229 26.9274 10.0045C27.0763 12.0566 27.5616 14.7934 27.5711 16.8934C27.9535 20.6165 28.1743 22.9209 28.1741 26.3653C28.1738 29.6654 28.1449 28.8989 28.8586 32.393C29.9183 34.951 28.8951 20.4882 29.3 19.9403M29.3 19.9403L29.2991 31.1941M29.3 19.9403C29.3004 14.9403 29.6917 10.9402 29.6918 9.94024C29.6919 9.00682 29.6921 5.94024 30.0663 4.44018C30.0663 4.44018 30.3784 0.940133 32.3114 0.939856C34.2443 0.939578 35.1309 3.49428 35.215 4.43944C35.304 5.43942 35.3034 13.4394 35.2142 14.9395C35.0026 18.5003 35.6655 28.983 35.6652 32.392C35.6765 33.0919 36.7885 20.9392 36.7886 19.9392C36.7887 18.2617 37.1631 15.4392 37.1632 13.4392C37.1633 12.5059 37.1635 10.003 37.5378 7.93911C38.0124 5.32216 37.9121 4.93905 38.6605 3.93894C39.4088 2.93883 39.8868 2.93877 40.5312 2.93867C41.1755 2.93858 41.6104 5.42449 41.7775 7.9385C42.1762 13.9384 41.6525 15.4385 41.5898 18.4385C41.4728 24.029 40.1972 29.9736 41.1896 30.9386C42.0498 31.7751 43.782 20.4382 44.04 19.4382C44.4753 17.7507 44.6483 12.533 44.6484 10.9381C44.6485 10.0019 45.5167 4.50419 47.0112 4.43774C48.2224 4.38389 48.014 5.21225 48.5443 6.43754C48.9771 7.43748 49.1239 8.37366 49.3531 10.4374C49.5241 11.9776 49.3528 13.4374 48.9764 15.9375C48.675 17.9392 48.4597 22.1124 48.1101 23.9376C47.8657 25.2139 46.3783 29.9379 47.2517 31.9378C48.5422 32.9376 48.486 28.4376 48.9757 25.4375C49.4653 22.4374 49.4088 20.9374 49.8419 18.4373C50.2749 15.9373 50.7083 11.0238 51.1411 9.43717C51.6867 7.43709 52.6935 6.52294 53.3054 7.93684C54.1709 9.93673 52.9615 21.4369 52.8713 23.9369C52.8713 23.9369 52.8699 40.937 52.8699 41.937C52.8698 42.937 52.1814 51.7997 51.867 55.3097C51.5527 58.8198 51.5773 59.986 51.0242 62.8029C50.4712 65.6197 50.3134 67.258 48.0781 69.4236C46.9471 70.5193 47.9212 72.2289 43.7593 72.35C42.5525 73.3187 39.2903 74.7419 42.7948 77.5127C48.1424 77.3571 47.5283 81.6525 43.8911 80.5149C40.8786 80.8175 39.3266 80.401 39.3367 82.641C39.3469 84.881 44.626 81.9953 47.2495 82.9845C52.3803 86.5452 37.278 85.4568 35.6069 86.5908C33.5182 88.0083 22.2717 80.7488 25.9867 91.4515C28.9587 100.014 44.4914 90.83 47.0997 88.4748" stroke="black" stroke-width="0.5"/>
</svg>
