<svg width="63" height="28" viewBox="0 0 63 28" fill="none" xmlns="http://www.w3.org/2000/svg">
<path d="M2.53149 12.0177C1.02653 12.1861 0.730941 12.6708 11.5882 13.2625C25.1599 14.0021 25.1707 14.9041 35.7072 13.8758C44.1364 13.0531 57.3005 13.3164 62.8289 13.5509" stroke="black"/>
<path d="M21.1905 26.75C19.0873 25.9087 14.3762 23.9738 12.3571 22.9643C9.83333 21.7024 8.57143 20.4405 7.30952 19.1786C6.3 18.169 1.42063 14.9722 0.999997 12.869C1.42063 12.0278 3.77619 11.3548 4.78571 10.3452C6.04762 9.08333 8.57143 9.08333 11.0952 6.55952C13.619 4.03572 22.4524 1.51191 22.4524 0.250001" stroke="black"/>
</svg>
