<svg width="63" height="28" viewBox="0 0 63 28" fill="none" xmlns="http://www.w3.org/2000/svg">
<path d="M60.4685 15.9823C61.9735 15.8139 62.2691 15.3292 51.4118 14.7375C37.8402 13.9979 37.8293 13.0959 27.2928 14.1242C18.8636 14.9469 5.69954 14.6836 0.171159 14.4491" stroke="black"/>
<path d="M41.8095 1.25C43.9127 2.09127 48.6238 4.02619 50.6428 5.03571C53.1667 6.29762 54.4286 7.55952 55.6905 8.82143C56.7 9.83095 61.5794 13.0278 62 15.131C61.5794 15.9722 59.2238 16.6452 58.2143 17.6548C56.9524 18.9167 54.4286 18.9167 51.9047 21.4405C49.3809 23.9643 40.5476 26.4881 40.5476 27.75" stroke="black"/>
</svg>
