<svg width="93" height="60" viewBox="0 0 93 60" fill="none" xmlns="http://www.w3.org/2000/svg">
<path d="M14.7209 24.5272C17.7528 24.3136 22.2158 29.1968 24.6425 29.1841C27.6759 29.1683 29.6198 21.3507 32.101 19.6597C35.0832 17.6271 36.0464 18.7959 38.5671 16.9695C41.5601 14.801 40.5595 15.4295 44.0244 11.3314C45.3835 9.72397 47.3106 7.14209 48.7922 6.10171C52.8411 3.25854 51.0105 4.67657 52.88 1.67525C53.5524 0.595743 54.944 0.252876 55.9531 3.20104C56.9283 6.04992 54.5583 10.5763 52.245 13.3562C50.9541 14.9075 50.3109 16.7542 48.4309 19.3599C47.4185 20.763 47.1415 21.4201 47.8169 22.7332C48.5269 24.1137 49.5752 24.2751 50.2003 24.6673C51.6003 24.66 56.172 24.538 57.6654 24.5303C59.532 24.5205 64.1331 24.4981 66.7026 24.8802C68.7583 25.1859 75.3969 24.2782 77.9743 24.6733C80.5517 25.0683 85.0656 24.7298 86.6179 24.9874C88.1702 25.245 91.9888 25.1036 92.5107 27.2525C93.0325 29.4014 87.9328 30.4443 85.8806 30.6132C83.8284 30.7821 81.0917 31.3319 78.9916 31.3429C75.2684 31.7763 72.964 32.0266 69.5196 32.0266C66.2195 32.0266 66.986 31.9938 63.4918 32.8024C60.9337 34.0027 59.4451 32.9467 59.9929 33.4053M59.9929 33.4053L64.6907 33.3012C65.3129 33.2979 67.8686 34.3018 68.4563 35.8032C69.2558 37.8454 68.0206 38.8027 66.1625 39.9988C68.0394 41.3732 68.0176 46.3588 65.4538 46.7676C66.8681 48.7377 66.4104 48.9337 66.4181 49.9948C66.4281 51.3789 61.907 53.2111 64.1078 53.1707C64.4515 53.1644 67.1526 55.2785 65.3046 57.3171C63.6842 59.1046 63.8521 59.2622 61.121 59.2764C56.221 59.3019 60.4212 59.2892 54.1225 59.4049C51.7897 59.4477 51.7896 59.4477 48.7474 59.1326M59.9929 33.4053C55.5605 33.4866 55.0986 33.6751 54.1654 33.6922C53.2322 33.7093 51.9914 33.864 49.5098 34.1732C49.5098 34.1732 46.2694 34.2618 46.2694 36.451C46.2694 38.6401 46.6045 39.2107 47.5416 39.3518C48.7131 39.528 48.7231 39.9234 50.5995 40.2845C52.1007 40.5734 55.742 40.5857 58.0798 40.7406L60.646 40.6934C59.4085 40.9799 56.6903 41.1616 56.6903 41.1616C55.9904 41.1745 54.6373 41.1993 53.8908 41.213C52.0245 41.2473 51.0813 40.869 50.1482 40.8862C49.2151 40.9033 49.21 40.7056 47.3488 40.9376C45.8599 41.1231 45.485 41.0707 45.0261 41.3758C44.5671 41.6809 43.6861 42.2888 43.6861 43.0185C43.6861 43.7482 43.0757 44.0836 45.1271 45.3296C47.0237 46.4815 49.1503 46.1174 51.2228 46.4044C55.2046 46.9558 59.3979 46.6499 60.3463 47.2258C61.105 47.6866 57.5569 47.6726 58.2567 47.6597C57.7851 47.4706 55.1755 47.3207 53.581 47.35C51.4814 47.3886 50.5483 47.4057 49.1486 47.4314C47.7488 47.4571 45.4551 47.121 44.5472 48.1266C43.9799 48.7549 43.6861 49.5861 43.6861 50.3158C43.6861 51.8385 44.6182 51.9545 46.2694 52.6437C47.9206 53.333 51.3948 52.5349 53.0277 52.505C54.334 52.481 59.2526 53.1403 60.2696 53.3585C60.3541 53.6207 57.5715 53.7232 57.0117 53.7335C55.1454 53.7677 55.6856 54.0339 53.581 53.8748C51.4763 53.7156 50.9755 53.8443 49.3133 53.8748C48.3801 53.8919 46.2954 54.5087 45.395 55.8072C44.6747 56.846 44.4972 57.2082 46.1605 58.3644L48.7474 59.1326M48.7474 59.1326C45.7053 58.8174 44.0818 59.2182 40.5718 58.8625C37.0618 58.5068 35.8956 58.5348 33.0788 57.9087C30.2621 57.2826 28.6238 57.104 26.4585 54.5726C25.363 53.2918 23.6533 54.3952 23.5328 49.6817C22.5642 48.315 21.1415 44.6205 18.3702 48.5898C18.525 54.6462 14.2297 53.951 15.3678 49.8316C15.0656 46.4199 15.4824 44.6622 13.2424 44.6738C11.0024 44.6855 13.8873 50.6641 12.8977 53.6354C9.33631 59.4466 10.4269 42.3424 9.29314 40.45C7.87591 38.0845 15.137 25.3468 4.43378 29.5551C-4.12882 32.9218 5.05261 50.5125 7.40749 53.4663" stroke="black" stroke-width="0.5"/>
<path d="M50.5751 34.9917C49.8862 34.9917 48.853 34.9921 47.9919 35.7221C47.1308 36.4519 46.614 37.4733 47.9918 38.6409C48.6131 39.1674 49.714 39.3706 50.5751 39.3706L51.4361 39.3701C52.297 39.3701 52.2972 38.6407 52.2976 37.1827L52.2976 37.1816C52.2979 36.4521 52.4532 35.8536 52.2976 35.7214C51.4385 34.9917 51.4363 34.9917 50.5781 34.9917H50.5751Z" stroke="black" stroke-width="0.2"/>
<path d="M47.4325 41.5615C46.841 41.5615 46.2063 41.5615 45.3452 42.2912C45.4083 42.2888 44.0944 43.4556 45.2775 44.623C45.8109 45.1494 46.3911 45.2072 47.1305 45.2072L48.601 45.5193C49.3404 45.5199 49.7139 45.2074 49.7139 43.0183C49.7139 42.289 49.7139 41.5594 48.9745 41.5591C47.9288 41.5587 48.1719 41.5615 47.4325 41.5615Z" stroke="black" stroke-width="0.2"/>
<path d="M48.8527 54.6943C48.2612 54.6943 47.9286 54.7115 47.0675 55.4412C47.1306 55.4388 45.0865 56.4459 46.2695 57.6133C46.803 58.1397 48.1134 58.3572 48.8528 58.3572L49.714 58.343C50.8269 57.287 50.3892 57.6129 50.3893 56.8836C50.3893 56.1542 50.509 54.9397 49.7139 54.6942C49.1733 54.5274 49.7138 54.6943 48.8527 54.6943Z" stroke="black" stroke-width="0.2"/>
<path d="M47.1295 48.1269C46.5386 48.1269 46.1381 48.1269 45.2775 48.8562C45.3406 48.8538 44.0944 50.1088 45.2775 51.2762C45.8109 51.8026 46.2694 51.7751 47.1305 51.7751H48.8528C48.8528 51.7751 49.7139 51.7042 49.7139 50.3159C49.7139 49.5865 49.5921 48.1268 48.8528 48.1266C47.8071 48.1262 47.8699 48.1269 47.1305 48.1269L47.1295 48.1269Z" stroke="black" stroke-width="0.2"/>
</svg>
