<svg width="24" height="24" viewBox="0 0 24 24" fill="none" xmlns="http://www.w3.org/2000/svg">
<path d="M19.4349 4.06494H4.56494C3.9019 4.06494 3.26602 4.32833 2.79717 4.79717C2.32833 5.26602 2.06494 5.9019 2.06494 6.56494V17.4349C2.06494 18.098 2.32833 18.7339 2.79717 19.2027C3.26602 19.6715 3.9019 19.9349 4.56494 19.9349H19.4349C20.098 19.9349 20.7339 19.6715 21.2027 19.2027C21.6715 18.7339 21.9349 18.098 21.9349 17.4349V6.56494C21.9349 5.9019 21.6715 5.26602 21.2027 4.79717C20.7339 4.32833 20.098 4.06494 19.4349 4.06494ZM4.56494 5.06494H19.4349C19.8135 5.06385 20.1782 5.20695 20.4549 5.46515C20.7317 5.72335 20.8998 6.07727 20.9249 6.45494C18.4549 7.77494 15.9749 9.08494 13.4949 10.4049C13.1594 10.6152 12.8045 10.7927 12.4349 10.9349C12.1448 10.9922 11.8459 10.987 11.5579 10.9198C11.27 10.8525 10.9997 10.7248 10.7649 10.5449C9.34494 9.79494 7.92494 9.03494 6.51494 8.28494C5.37494 7.68494 4.21494 7.07494 3.07494 6.46494C3.09813 6.08566 3.26526 5.72954 3.54219 5.46934C3.81912 5.20914 4.18495 5.06449 4.56494 5.06494ZM20.9349 17.4349C20.9349 17.8328 20.7769 18.2143 20.4956 18.4956C20.2143 18.7769 19.8328 18.9349 19.4349 18.9349H4.56494C4.16712 18.9349 3.78559 18.7769 3.50428 18.4956C3.22298 18.2143 3.06494 17.8328 3.06494 17.4349V7.59994C5.42494 8.83994 7.77494 10.0999 10.1349 11.3499C10.5566 11.6085 11.0105 11.8102 11.4849 11.9499C12.1793 12.0628 12.891 11.9169 13.4849 11.5399C14.9349 10.7799 16.3749 10.0099 17.8249 9.24994C18.8649 8.68994 19.8949 8.14994 20.9349 7.59994V17.4349Z" fill="black"/>
</svg>
