<svg width="20" height="19" viewBox="0 0 20 19" fill="none" xmlns="http://www.w3.org/2000/svg">
<path fill-rule="evenodd" clip-rule="evenodd" d="M0.698152 2.65304C0.474446 1.17519 1.66063 0 3.05588 0H6.338C6.6504 0 6.93009 0.193645 7.04003 0.486061L8.31315 3.87231C8.36131 4.00039 8.3735 4.1392 8.34842 4.27371L7.71546 7.66868C8.48665 9.4656 9.75332 10.6817 11.8608 11.7771L15.2104 11.1279C15.3476 11.1014 15.4895 11.1136 15.6201 11.1634L19.0169 12.4575C19.3077 12.5683 19.4999 12.8472 19.4999 13.1584V16.2944C19.4999 17.7719 18.197 18.9765 16.6675 18.6443L16.667 18.6442C13.9909 18.0612 9.01824 16.579 5.53205 13.0928C2.19026 9.75104 1.07329 5.13879 0.698152 2.65304ZM3.05588 1.5C2.47728 1.5 2.10957 1.95556 2.18129 2.42873L2.18136 2.4292C2.54122 4.81371 3.59425 9.03371 6.59271 12.0322C9.76508 15.2045 14.3838 16.6116 16.9858 17.1785C17.495 17.289 17.9999 16.9046 17.9999 16.2944V13.6752L15.2859 12.6412L11.8926 13.2988C11.73 13.3303 11.5615 13.3071 11.4135 13.2328C8.86661 11.9548 7.20273 10.4328 6.24102 8.02854C6.18823 7.89656 6.17403 7.75228 6.20008 7.61254L6.8355 4.20441L5.81873 1.5H3.05588Z" fill="black"/>
</svg>
