<svg viewBox="0 0 252 163" fill="none" preserveAspectRatio="none" xmlns="http://www.w3.org/2000/svg">
<path d="M1.01775 20.1094C1.01775 17.6134 0.768195 7.62978 2.14073 5.28985C3.51327 2.94993 6.25834 2.94994 8.5043 1.77998C9.5255 1.24802 12.6031 1 13.7449 1H20.1085C20.1085 1 146.097 2.55995 228.983 2.55995C233.954 2.55995 241.804 0.149156 246.203 2.55995C249.501 4.3677 249.451 11.1587 249.572 15.0395C250.32 39.2187 252.566 116.436 249.197 153.485C248.862 157.168 248.074 158.945 244.705 160.505C240.068 162.652 235.924 161.933 230.855 161.675C161.979 158.165 37.2028 161.675 33.9586 161.675C30.7144 161.675 21.1566 162.299 11.8733 160.115C2.58992 157.931 7.75567 156.215 2.14072 147.635C2.14072 147.635 1.39207 136.325 2.14072 129.696C2.88938 123.066 1.01775 44.6005 1.01775 41.1687V20.1094Z" stroke="black"/>
</svg>
