<svg width="25" height="42" viewBox="0 0 25 42" fill="none" xmlns="http://www.w3.org/2000/svg">
<g id="&#208;&#155;&#208;&#176;&#208;&#188;&#208;&#191;&#208;&#190;&#209;&#135;&#208;&#186;&#208;&#176;">
<path id="Vector 8" d="M11.2243 33.7704C12.7256 31.9196 11.8917 30.7082 10.5572 27.2085C8.88922 22.8338 8.05493 23.5067 6.55391 20.9829C5.43838 19.1072 4.71906 15.2623 7.05429 12.4019C8.70385 10.3814 9.55643 9.87793 11.3911 9.37323C14.1457 8.61548 15.0608 9.03667 17.5628 9.87789C18.5636 10.2144 20.2317 11.3922 21.2325 13.9161C21.8997 15.5986 21.4577 17.9962 21.2325 19.132C20.8989 20.8147 20.7321 20.6465 19.5645 22.8337C18.7736 24.3151 16.2284 25.5258 16.2284 28.0497C16.8956 31.2465 15.8948 31.4148 17.2292 33.7704M13.8932 32.9291C14.2267 32.0878 14.7273 29.564 14.7273 27.5449C14.7273 25.5258 10.5232 20.3098 14.2268 20.3098C18.3968 20.3098 11.0574 18.2908 13.5596 18.2908C15.0974 18.2908 18.7304 17.2188 16.2284 16.7141C12.751 16.0125 12.0585 17.4496 12.0585 15.9353C12.0585 14.421 13.7264 14.7574 15.8948 14.7574" stroke="black" stroke-width="0.5"/>
<path id="Vector 9" d="M11.225 33.7702C11.8366 33.7702 12.9598 32.929 13.8939 32.929C15.0615 32.929 16.2292 33.7702 17.23 33.7702C17.8972 33.9385 19.0648 34.275 17.5636 34.948C17.23 35.0976 15.2283 34.6115 14.0607 34.4433C13.7305 34.3957 9.89067 33.602 9.72387 35.2846C10.3911 37.3036 10.7247 35.7893 12.3927 35.7893C14.0607 35.7893 14.7279 36.1258 15.7287 36.1258C16.7295 36.1258 18.2656 35.3023 18.564 35.4528C19.2312 35.7893 19.2312 35.7893 18.8976 36.1258C18.564 36.4624 17.3968 37.4719 15.3951 37.1354C13.3935 36.7989 12.3923 36.6306 11.7251 36.7989C11.0579 36.9671 10.3907 37.8084 11.5583 37.9767C12.8896 38.1685 13.2264 37.4719 14.7275 37.8084C16.2287 38.1449 17.8968 36.7989 18.8976 37.4719C19.1752 37.6586 18.0636 38.818 16.2288 38.818C12.5591 38.818 14.2271 39.491 12.8927 40.3323C12.3269 40.689 8.94506 41.1735 8.72266 41.0053" stroke="black" stroke-width="0.5"/>
<path id="Vector 10" d="M11.5586 1.04556C11.6142 0.877304 11.7921 0.843652 12.059 2.0551C12.3926 3.56942 12.7262 3.56942 12.3926 4.74722C12.1257 5.68946 12.2814 7.1589 12.3926 7.77585" stroke="black" stroke-width="0.5"/>
<path id="Vector 11" d="M18.1985 3.37549C18.3128 3.2857 18.4808 3.35065 18.2384 4.32881C17.9353 5.55151 18.2256 5.71733 17.4739 6.37352C16.8724 6.89847 16.4322 8.00142 16.2872 8.48727" stroke="black" stroke-width="0.5"/>
<path id="Vector 13" d="M8.84633 9.35695C8.89414 9.49491 8.77942 9.63472 7.9381 9.09033C6.88644 8.40983 6.63788 8.63428 6.2618 7.70598C5.96095 6.96334 5.06565 6.18996 4.65561 5.89609" stroke="black" stroke-width="0.5"/>
<path id="Vector 12" d="M20.6803 9.85527C20.5307 9.85173 20.376 9.64286 20.9539 8.83568C21.6763 7.8267 21.4268 7.41037 22.4322 7.36574C23.2366 7.33004 24.0632 6.56066 24.376 6.18044" stroke="black" stroke-width="0.5"/>
<path id="Vector 14" d="M0.939711 11.3357C0.86438 11.2053 0.959804 10.9631 1.94414 11.0371C3.17457 11.1295 3.39555 10.6971 3.9597 11.5378C4.41101 12.2103 5.49367 12.5179 5.97859 12.5876" stroke="black" stroke-width="0.5"/>
</g>
</svg>
