<svg width="25" height="25" viewBox="0 0 25 25" fill="none" xmlns="http://www.w3.org/2000/svg">
<g clip-path="url(#clip0_426_396)">
<rect width="25" height="25" rx="12.5" fill="#BDA9E0"/>
<path fill-rule="evenodd" clip-rule="evenodd" d="M4.83441 17.753C8.14636 17.6353 11.0618 16.3971 13.6054 14.2138L13.5877 14.1948C15.2271 12.5889 17.4322 11.6834 19.6824 11.3894C21.9909 11.0878 24.2883 11.5932 26.1693 12.8166C28.0502 14.04 29.394 15.9028 29.9635 18.0764C30.533 20.2499 30.2917 22.5947 29.2821 24.6971C28.2725 26.7996 26.5596 28.5246 24.4454 29.568C22.3311 30.6114 19.9514 30.9061 17.7259 30.4001C15.5005 29.8942 13.5722 28.6201 12.2812 26.8026C10.9902 24.9851 10.1052 17.5869 10.1052 17.5869L5.93849 18.5455C5.93849 18.5455 7.09308 26.6399 8.91656 29.2071C10.74 31.7743 13.4637 33.5739 16.607 34.2885C19.7504 35.0031 23.1117 34.5868 26.0979 33.1131C29.0842 31.6393 31.5037 29.2028 32.9296 26.2332C34.3556 23.2636 34.6964 19.9517 33.892 16.8817C33.0876 13.8116 31.1897 11.1805 28.5329 9.45251C25.8761 7.72451 22.6312 7.01059 19.3704 7.43664C16.2581 7.8433 13.3221 9.26357 11.033 11.4615L11.0208 11.4484C9.2199 12.9941 7.21949 13.6968 4.87468 13.7802C2.52986 13.8635 0.269811 13.1301 -1.501 11.7113C-3.2718 10.2925 -4.4378 8.28082 -4.7903 6.03636C-5.14281 3.79189 -4.65882 1.4611 -3.42495 -0.538897C-2.19109 -2.53889 -0.287876 -4.07755 1.94407 -4.87951C4.17603 -5.68147 6.59104 -5.69439 8.75692 -4.91596C10.9228 -4.13752 12.6982 -2.61854 13.7653 -0.630852C14.8325 1.35683 14.4768 8.42371 14.4768 8.42371L18.5492 6.81689C18.5492 6.81689 18.8994 0.205595 17.3921 -2.60193C15.8848 -5.40945 13.3771 -7.55495 10.3179 -8.65446C7.25869 -9.75397 3.84759 -9.73572 0.695054 -8.60298C-2.45748 -7.47025 -5.14569 -5.29696 -6.88847 -2.47205C-8.63125 0.352863 -9.31487 3.64501 -8.81697 6.81522C-8.31907 9.98543 -6.67216 12.8268 -4.17096 14.8308C-1.66977 16.8348 1.52245 17.8707 4.83441 17.753Z" fill="#F1F0F2"/>
</g>
<defs>
<clipPath id="clip0_426_396">
<rect width="25" height="25" rx="12.5" fill="white"/>
</clipPath>
</defs>
</svg>
