<svg width="26" height="26" viewBox="0 0 26 26" fill="none" xmlns="http://www.w3.org/2000/svg">
<g clip-path="url(#clip0_445_32)">
<rect x="0.5" y="25.5" width="25" height="25" rx="12.5" transform="rotate(-90 0.5 25.5)" fill="#B0637D"/>
<path fill-rule="evenodd" clip-rule="evenodd" d="M18.253 20.6657C18.1353 17.3537 16.8971 14.4383 14.7138 11.8946L14.6948 11.9124C13.0889 10.273 12.1834 8.06791 11.8894 5.8177C11.5878 3.50912 12.0932 1.21176 13.3166 -0.669204C14.54 -2.55017 16.4028 -3.8939 18.5764 -4.4634C20.7499 -5.0329 23.0947 -4.7916 25.1971 -3.78204C27.2996 -2.77249 29.0246 -1.05954 30.068 1.0547C31.1114 3.16894 31.4061 5.54865 30.9001 7.77413C30.3942 9.9996 29.1201 11.9279 27.3026 13.2189C25.4851 14.5099 18.0869 15.3948 18.0869 15.3948L19.0455 19.5616C19.0455 19.5616 27.1399 18.407 29.7071 16.5835C32.2743 14.76 34.0739 12.0364 34.7885 8.89302C35.5031 5.74963 35.0868 2.38839 33.6131 -0.597888C32.1393 -3.58416 29.7028 -6.00363 26.7332 -7.42959C23.7636 -8.85554 20.4517 -9.19637 17.3817 -8.39197C14.3116 -7.58757 11.6805 -5.68961 9.95251 -3.03283C8.22451 -0.376056 7.51059 2.86887 7.93664 6.12965C8.3433 9.24198 9.76357 12.1779 11.9615 14.4671L11.9484 14.4793C13.4941 16.2802 14.1968 18.2806 14.2802 20.6254C14.3635 22.9702 13.6301 25.2302 12.2113 27.0011C10.7925 28.7719 8.78082 29.9379 6.53636 30.2904C4.29189 30.6429 1.9611 30.1589 -0.0388965 28.925C-2.03889 27.6911 -3.57755 25.7879 -4.37951 23.556C-5.18147 21.324 -5.19439 18.909 -4.41596 16.7431C-3.63752 14.5773 -2.11854 12.8019 -0.130852 11.7347C1.85683 10.6676 8.92371 11.0233 8.92371 11.0233L7.31689 6.95084C7.31689 6.95084 0.705595 6.60069 -2.10193 8.10799C-4.90945 9.6153 -7.05495 12.1229 -8.15446 15.1822C-9.25397 18.2414 -9.23572 21.6525 -8.10298 24.805C-6.97025 27.9575 -4.79696 30.6457 -1.97205 32.3885C0.852863 34.1313 4.14501 34.8149 7.31522 34.317C10.4854 33.8191 13.3268 32.1722 15.3308 29.671C17.3348 27.1698 18.3707 23.9776 18.253 20.6657Z" fill="#E58A4D"/>
</g>
<defs>
<clipPath id="clip0_445_32">
<rect x="0.5" y="25.5" width="25" height="25" rx="12.5" transform="rotate(-90 0.5 25.5)" fill="white"/>
</clipPath>
</defs>
</svg>
