<svg width="60" height="93" viewBox="0 0 60 93" fill="none" xmlns="http://www.w3.org/2000/svg">
<path d="M24.8328 78.3347C24.6193 75.3028 29.5024 70.8398 29.4898 68.4131C29.474 65.3797 21.6564 63.4358 19.9653 60.9546C17.9328 57.9724 19.1015 57.0091 17.2752 54.4885C15.1066 51.4955 15.7351 52.4961 11.6371 49.0312C10.0296 47.6721 7.44776 45.745 6.40737 44.2634C3.5642 40.2145 4.98224 42.0451 1.98092 40.1756C0.901407 39.5032 0.55854 38.1116 3.50671 37.1025C6.35559 36.1273 10.882 38.4973 13.6618 40.8105C15.2132 42.1015 17.0599 42.7447 19.6655 44.6247C21.0687 45.637 21.7257 45.9141 23.0389 45.2387C24.4194 44.5287 24.5807 43.4804 24.973 42.8553C24.9657 41.4553 24.8437 36.8836 24.8359 35.3902C24.8262 33.5235 24.8038 28.9225 25.1859 26.353C25.4915 24.2973 24.5838 17.6587 24.9789 15.0813C25.374 12.5039 25.0354 7.98995 25.293 6.43769C25.5506 4.88543 25.4092 1.0668 27.5582 0.544922C29.7071 0.0230483 30.7499 5.12276 30.9188 7.17496C31.0877 9.22716 31.6376 11.9639 31.6485 14.0639C32.082 17.7872 32.3322 20.0915 32.3322 23.536C32.3322 26.8361 32.2994 26.0696 33.108 29.5638C34.3084 32.1219 33.2524 33.6105 33.7109 33.0627M33.7109 33.0627L33.6069 28.3649C33.6036 27.7427 34.6075 25.187 36.1089 24.5993C38.1511 23.7998 39.1083 25.035 40.3045 26.893C41.6789 25.0162 46.6644 25.038 47.0733 27.6018C49.0433 26.1875 49.2393 26.6452 50.3005 26.6375C51.6846 26.6274 53.5168 31.1486 53.4764 28.9478C53.4701 28.6041 55.5842 25.903 57.6227 27.751C59.4103 29.3714 59.5678 29.2034 59.5821 31.9346C59.6076 36.8346 59.5949 32.6344 59.7105 38.933C59.7534 41.2659 59.7534 41.266 59.4382 44.3081M33.7109 33.0627C33.7923 37.4951 33.9807 37.957 33.9979 38.8902C34.015 39.8234 34.1696 41.0642 34.4789 43.5458C34.4789 43.5458 34.5674 46.7862 36.7566 46.7862C38.9458 46.7862 39.5164 46.4511 39.6574 45.5139C39.8337 44.3425 40.2291 44.3325 40.5902 42.4561C40.8791 40.9549 40.8914 37.3136 41.0462 34.9758L40.9991 32.4096C41.2855 33.6471 41.4673 36.3653 41.4673 36.3653C41.4801 37.0652 41.505 38.4183 41.5187 39.1648C41.553 41.0311 41.1747 41.9743 41.1918 42.9074C41.209 43.8404 41.0113 43.8456 41.2432 45.7068C41.4288 47.1956 41.3763 47.5705 41.6814 48.0295C41.9865 48.4885 42.5944 49.3695 43.3242 49.3695C44.0539 49.3695 44.3893 49.9799 45.6353 47.9285C46.7871 46.0319 46.423 43.9053 46.7101 41.8327C47.2614 37.8509 46.9555 33.6577 47.5315 32.7093C47.9922 31.9506 47.9783 35.4987 47.9654 34.7989C47.7763 35.2705 47.6264 37.8801 47.6557 39.4746C47.6942 41.5742 47.7114 42.5072 47.7371 43.907C47.7628 45.3068 47.4267 47.6005 48.4323 48.5084C49.0606 49.0756 49.8917 49.3695 50.6214 49.3695C52.1441 49.3695 52.2602 48.4374 52.9494 46.7862C53.6387 45.135 52.8406 41.6608 52.8106 40.0279C52.7866 38.7216 53.4459 33.803 53.6642 32.786C53.9263 32.7015 54.0288 35.484 54.0391 36.0439C54.0734 37.9102 54.3396 37.37 54.1804 39.4746C54.0213 41.5792 54.1499 42.0801 54.1805 43.7423C54.1976 44.6755 54.8143 46.7602 56.1129 47.6606C57.1517 48.3809 57.5138 48.5584 58.67 46.895L59.4382 44.3081M59.4382 44.3081C59.1231 47.3503 59.5239 48.9738 59.1682 52.4838C58.8125 55.9938 58.8404 57.16 58.2144 59.9768C57.5883 62.7935 57.4097 64.4318 54.8783 66.5971C53.5975 67.6926 54.7008 69.4023 49.9874 69.5228C48.6207 70.4913 44.9262 71.9141 48.8955 74.6854C54.9518 74.5306 54.2567 78.8259 50.1373 77.6878C46.7256 77.99 44.9678 77.5732 44.9795 79.8132C44.9912 82.0532 50.9698 79.1683 53.9411 80.1579C59.7523 83.7193 42.6481 82.6287 40.7557 83.7624C38.3902 85.1797 25.6524 77.9186 29.8608 88.6218C33.2275 97.1844 50.8181 88.003 53.772 85.6481" stroke="black" stroke-width="0.5"/>
<path d="M35.2974 42.4804C35.2974 43.1693 35.2978 44.2025 36.0278 45.0636C36.7575 45.9247 37.779 46.4415 38.9465 45.0637C39.473 44.4424 39.6763 43.3415 39.6763 42.4804L39.6757 41.6194C39.6757 40.7585 38.9464 40.7583 37.4884 40.7579L37.4873 40.7579C36.7578 40.7576 36.1593 40.6023 36.0271 40.7579C35.2974 41.617 35.2974 41.6193 35.2974 42.4774V42.4804Z" stroke="black" stroke-width="0.2"/>
<path d="M41.8671 45.6231C41.8671 46.2146 41.8671 46.8493 42.5969 47.7104C42.5945 47.6472 43.7613 48.9611 44.9286 47.7781C45.455 47.2446 45.5129 46.6644 45.5129 45.925L45.825 44.4545C45.8256 43.7151 45.5131 43.3417 43.324 43.3417C42.5947 43.3417 41.8651 43.3417 41.8648 44.0811C41.8644 45.1267 41.8671 44.8837 41.8671 45.6231Z" stroke="black" stroke-width="0.2"/>
<path d="M54.9999 44.2029C54.9999 44.7944 55.0172 45.127 55.7469 45.9881C55.7445 45.925 56.7516 47.9691 57.9189 46.7861C58.4453 46.2526 58.6629 44.9422 58.6629 44.2028L58.6487 43.3416C57.5926 42.2287 57.9186 42.6664 57.1892 42.6663C56.4599 42.6663 55.2453 42.5466 54.9999 43.3417C54.8331 43.8823 54.9999 43.3418 54.9999 44.2029Z" stroke="black" stroke-width="0.2"/>
<path d="M48.4325 45.926C48.4325 46.517 48.4325 46.9175 49.1619 47.7781C49.1595 47.7149 50.4145 48.9611 51.5818 47.7781C52.1082 47.2446 52.0808 46.7861 52.0808 45.925V44.2028C52.0808 44.2028 52.0099 43.3417 50.6215 43.3417C49.8922 43.3417 48.4325 43.4634 48.4322 44.2028C48.4319 45.2484 48.4325 45.1856 48.4325 45.925L48.4325 45.926Z" stroke="black" stroke-width="0.2"/>
</svg>
