<svg width="64" height="96" viewBox="0 0 64 96" fill="none" xmlns="http://www.w3.org/2000/svg">
<path d="M25.9083 81.3346C25.6807 78.3027 30.8855 73.8397 30.872 71.413C30.8552 68.3797 22.5227 66.4357 20.7202 63.9545C18.5538 60.9724 19.7995 60.0091 17.8529 57.4885C15.5415 54.4955 16.2114 55.496 11.8434 52.0311C10.13 50.6721 7.37809 48.745 6.26918 47.2634C3.23873 43.2144 4.75017 45.0451 1.55115 43.1755C0.400536 42.5031 0.0350833 41.1115 3.17745 40.1024C6.21399 39.1273 11.0385 41.4972 14.0015 43.8105C15.655 45.1014 17.6234 45.7447 20.4006 47.6246C21.8962 48.637 22.5966 48.914 23.9962 48.2386C25.4676 47.5286 25.6396 46.4804 26.0577 45.8553C26.0499 44.4552 25.9199 39.8835 25.9116 38.3902C25.9013 36.5235 25.8774 31.9225 26.2846 29.3529C26.6104 27.2973 25.6429 20.6587 26.064 18.0813C26.4852 15.5038 26.1243 10.9899 26.3988 9.43765C26.6734 7.88539 26.5227 4.06675 28.8132 3.54488C31.1037 3.023 32.2152 8.12272 32.3952 10.1749C32.5752 12.2271 33.1613 14.9639 33.173 17.0639C33.635 20.7871 33.9017 23.0915 33.9017 26.5359C33.9017 29.836 33.8667 29.0695 34.7286 32.5637C36.008 35.1219 34.7716 20.6589 35.2603 20.1111M35.2603 20.1111L35.2603 31.3649M35.2603 20.1111C35.2603 15.1111 35.7323 11.1111 35.7323 10.1111C35.7323 9.17767 35.7322 6.11109 36.1839 4.61109C36.1839 4.61109 36.5602 1.11109 38.8936 1.11109C41.227 1.11109 42.2975 3.66592 42.3991 4.61109C42.5066 5.61108 42.5066 13.6111 42.3991 15.1111C42.1439 18.6719 42.7036 19.7021 42.7036 23.1111L43.1395 35.4096C43.4448 36.647 43.6385 39.3653 43.6385 39.3653C43.6522 40.0651 43.6787 41.4183 43.6933 42.1648C43.7298 44.031 43.3266 44.9743 43.3449 45.9073C43.3632 46.8404 43.1524 46.8455 43.3997 48.7068C43.5975 50.1956 43.5416 50.5705 43.8668 51.0295C44.192 51.4885 44.8399 52.3695 45.6177 52.3695C46.3955 52.3695 46.753 52.9799 48.081 50.9284C49.3088 49.0318 48.9207 46.9052 49.2266 44.8327C49.8143 40.8509 49.4883 36.6576 50.1021 35.7092C50.5932 34.9505 50.5784 38.4987 50.5647 37.7989C50.3631 38.2705 50.2033 40.88 50.2345 42.4746C50.2756 44.5741 50.2939 45.5072 50.3213 46.907C50.3487 48.3068 49.9904 50.6005 51.0623 51.5083C51.732 52.0756 52.6179 52.3695 53.3957 52.3695C55.0186 52.3695 55.1423 51.4373 55.877 49.7861C56.6116 48.1349 55.761 44.6608 55.729 43.0279C55.7035 41.7215 56.4062 36.8029 56.6388 35.7859C56.9182 35.7015 57.0275 38.484 57.0384 39.0439C57.075 40.9101 57.3587 40.37 57.1891 42.4746C57.0195 44.5792 57.1566 45.08 57.1891 46.7423C57.2073 47.6754 57.8647 49.7602 59.2488 50.6605C60.3561 51.3808 60.7421 51.5583 61.9744 49.895L62.7932 47.3081M42.9583 30.2958C44.4232 28.419 49.178 28.038 49.6138 30.6018C51.7136 29.1874 51.9225 29.6452 53.0535 29.6374C54.5288 29.6274 56.4817 34.1485 56.4386 31.9477C56.4319 31.604 58.6853 28.903 60.8581 30.7509C62.7634 32.3713 62.9313 32.2034 62.9465 34.9345C62.9737 39.8345 62.9602 35.6343 63.0835 41.933C63.1291 44.2658 63.1291 44.2659 62.7932 47.3081M62.7932 47.3081C62.4573 50.3503 62.8845 51.9737 62.5054 55.4837C62.1262 58.9937 62.156 60.16 61.4887 62.9767C60.8214 65.7934 60.6311 67.4317 57.9329 69.597C56.5677 70.6925 57.7438 72.4023 52.7198 72.5228C51.2631 73.4913 47.3252 74.914 51.556 77.6853C58.0113 77.5305 57.2704 81.8258 52.8796 80.6877C49.2431 80.9899 47.3696 80.5731 47.3821 82.8132C47.3945 85.0532 53.7669 82.1682 56.9339 83.1578C63.128 86.7192 44.8971 85.6286 42.88 86.7624C40.3587 88.1796 26.7819 80.9185 31.2675 91.6217C34.8559 100.184 53.6053 91.0029 56.7537 88.648" stroke="black" stroke-width="0.5"/>
<path d="M44.0646 48.6231C44.0646 49.2146 44.0646 49.8493 44.8424 50.7104C44.8398 50.6472 46.0834 51.9611 47.3277 50.7781C47.8888 50.2446 47.9504 49.6644 47.9504 48.925L48.2831 47.4545C48.2838 46.7151 47.9507 46.3417 45.6174 46.3417C44.84 46.3417 44.0623 46.3417 44.0621 47.0811C44.0616 48.1267 44.0646 47.8837 44.0646 48.6231Z" stroke="black" stroke-width="0.2"/>
<path d="M58.0624 47.2029C58.0624 47.7944 58.0808 48.127 58.8586 48.9881C58.856 48.925 59.9295 50.9691 61.1737 49.7861C61.7348 49.2526 61.9667 47.9422 61.9667 47.2028L61.9515 46.3416C60.8259 45.2287 61.1733 45.6664 60.3959 45.6663C59.6186 45.6663 58.324 45.5466 58.0624 46.3417C57.8846 46.8823 58.0624 46.3418 58.0624 47.2029Z" stroke="black" stroke-width="0.2"/>
<path d="M51.0629 48.926C51.0629 49.517 51.0629 49.9175 51.8403 50.7781C51.8377 50.7149 53.1754 51.9611 54.4197 50.7781C54.9807 50.2446 54.9515 49.7861 54.9515 48.925V47.2028C54.9515 47.2028 54.8759 46.3417 53.3961 46.3417C52.6187 46.3417 51.0629 46.4634 51.0626 47.2028C51.0622 48.2484 51.0629 48.1856 51.0629 48.925L51.0629 48.926Z" stroke="black" stroke-width="0.2"/>
</svg>
