<svg width="221" height="336" viewBox="0 0 221 336" fill="none" xmlns="http://www.w3.org/2000/svg">
<path fill-rule="evenodd" clip-rule="evenodd" d="M173.486 164.923C154.052 153.925 132.999 150.856 110.797 154.608L110.832 154.779C95.831 158.356 80.0157 155.855 66.0672 149.629C51.7572 143.243 40.3178 132.192 33.7667 118.425C27.2155 104.658 25.9734 89.0599 30.2594 74.3816C34.5454 59.7033 44.0842 46.8877 57.1934 38.195C70.3026 29.5023 86.1402 25.491 101.913 26.8686C117.686 28.2461 132.38 34.9239 143.405 45.7243C154.43 56.5247 161.076 70.7539 162.173 85.9023C163.269 101.051 142.63 147.295 142.63 147.295L169.898 156.407C169.898 156.407 191.409 105.154 189.861 83.7577C188.312 62.3612 178.924 42.2631 163.352 27.008C147.78 11.7528 127.024 2.32068 104.746 0.375C82.4677 -1.57068 60.0978 4.09512 41.5816 16.3732C23.0653 28.6512 9.5922 46.7527 3.5384 67.4852C-2.51539 88.2177 -0.760946 110.249 8.4923 129.694C17.7456 149.139 33.9032 164.749 54.1155 173.77C73.408 182.38 95.2116 184.459 116.004 179.724L116.029 179.845C131.748 177.189 145.682 180.151 159.441 187.938C173.2 195.725 183.633 207.973 188.872 222.49C194.111 237.007 193.814 252.846 188.035 267.172C182.256 281.498 171.372 293.376 157.33 300.68C143.289 307.984 127.006 310.238 111.397 307.038C95.7874 303.838 81.8699 295.393 72.135 283.215C62.4001 271.036 57.4831 255.919 58.2642 240.569C59.0452 225.218 85.6597 185.283 85.6597 185.283L56.6793 180.281C56.6793 180.281 31.6808 217.58 30.5776 239.262C29.4745 260.944 36.4194 282.297 50.1696 299.498C63.9198 316.7 83.5777 328.628 105.625 333.148C127.673 337.668 150.671 334.484 170.505 324.167C190.338 313.85 205.711 297.073 213.874 276.838C222.036 256.604 222.455 234.232 215.055 213.727C207.656 193.222 192.92 175.922 173.486 164.923Z" fill="url(#paint0_linear_124_874)"/>
<defs>
<linearGradient id="paint0_linear_124_874" x1="55.4984" y1="239.499" x2="172.737" y2="127.671" gradientUnits="userSpaceOnUse">
<stop stop-color="#431B36" stop-opacity="0"/>
<stop offset="0.532391" stop-color="#E90442"/>
<stop offset="1" stop-color="#572545"/>
</linearGradient>
</defs>
</svg>
