<svg width="226" height="338" viewBox="0 0 226 338" fill="none" xmlns="http://www.w3.org/2000/svg">
<path fill-rule="evenodd" clip-rule="evenodd" d="M177.284 166.095C157.424 155.018 135.911 151.928 113.222 155.706L113.259 155.879C97.929 159.481 81.7675 156.962 67.5136 150.692C52.8903 144.26 41.2005 133.131 34.5059 119.266C27.8113 105.401 26.542 89.6926 30.9218 74.91C35.3017 60.1274 45.0493 47.2208 58.4455 38.4664C71.8418 29.712 88.026 25.6721 104.144 27.0594C120.262 28.4467 135.278 35.172 146.544 46.0492C157.81 56.9263 164.603 71.2566 165.723 86.5125C166.844 101.769 145.752 148.341 145.752 148.341L173.617 157.518C173.617 157.518 195.6 105.901 194.017 84.3527C192.434 62.8043 182.841 42.5634 166.928 27.1999C151.015 11.8364 129.805 2.33722 107.039 0.377716C84.2732 -1.58179 61.4135 4.1243 42.4919 16.4895C23.5703 28.8548 9.80219 47.0849 3.61587 67.9646C-2.57045 88.8444 -0.777606 111.032 8.67822 130.616C18.134 150.199 34.6454 165.919 55.3002 175.004C75.0151 183.675 97.2961 185.77 118.543 181.001L118.569 181.123C134.632 178.448 148.872 181.431 162.932 189.273C176.992 197.115 187.653 209.45 193.007 224.07C198.36 238.691 198.057 254.642 192.152 269.07C186.246 283.498 175.124 295.46 160.775 302.816C146.426 310.172 129.787 312.442 113.836 309.219C97.8845 305.997 83.6623 297.492 73.7142 285.227C63.7662 272.962 58.7416 257.737 59.5397 242.278C60.3378 226.818 87.535 186.599 87.535 186.599L57.9201 181.561C57.9201 181.561 32.3744 219.126 31.247 240.962C30.1197 262.798 37.2167 284.302 51.2679 301.626C65.3191 318.949 85.4074 330.962 107.938 335.514C130.468 340.066 153.97 336.86 174.237 326.47C194.505 316.08 210.215 299.183 218.556 278.805C226.897 258.426 227.325 235.896 219.764 215.245C212.202 194.595 197.144 177.172 177.284 166.095Z" fill="url(#paint0_linear_123_227)"/>
<defs>
<linearGradient id="paint0_linear_123_227" x1="49.3073" y1="208.659" x2="171.519" y2="69.0483" gradientUnits="userSpaceOnUse">
<stop stop-color="#0795D3"/>
<stop offset="1" stop-color="#0C69B7" stop-opacity="0.13"/>
</linearGradient>
</defs>
</svg>
