<svg width="271" height="194" viewBox="0 0 271 194" fill="none" xmlns="http://www.w3.org/2000/svg">
<path fill-rule="evenodd" clip-rule="evenodd" d="M82.0729 140.405C85.0998 162.529 95.4161 181.136 111.854 196.524L111.969 196.392C123.905 206.158 131.498 220.255 134.998 235.123C138.589 250.377 136.73 266.173 129.748 279.727C122.766 293.28 111.111 303.72 96.8372 309.205C82.5635 314.69 66.5887 314.868 51.73 309.707C36.8713 304.546 24.0834 294.378 15.6216 280.996C7.15978 267.615 3.56763 251.879 5.47872 236.564C7.38984 221.249 14.6814 207.339 26.0674 197.288C37.4534 187.236 86.7471 175.633 86.7471 175.633L77.4727 148.419C77.4727 148.419 23.6659 162.364 7.58365 176.562C-8.49861 190.759 -18.7976 210.406 -21.497 232.038C-24.1963 253.669 -19.1226 275.896 -7.17061 294.797C4.78135 313.698 22.8437 328.06 43.831 335.349C64.8182 342.639 87.3821 342.388 107.543 334.641C127.704 326.893 144.167 312.147 154.028 293.003C163.889 273.86 166.516 251.548 161.444 230.003C156.603 209.438 145.045 190.833 128.679 177.163L128.76 177.069C117.122 166.174 111.034 153.295 108.891 137.631C106.748 121.967 110.17 106.246 118.544 93.282C126.917 80.3176 139.697 70.9557 154.595 66.8719C169.493 62.7881 185.537 64.2489 199.856 70.9928C214.175 77.7367 225.835 89.3236 232.748 103.68C239.661 118.036 241.377 134.225 237.588 149.349C233.799 164.472 224.753 177.544 212.068 186.225C199.384 194.905 151.488 197.933 151.488 197.933L165.07 224.018C165.07 224.018 209.89 221.302 227.806 209.041C245.722 196.78 258.5 178.316 263.851 156.955C269.203 135.593 266.78 112.727 257.015 92.4498C247.251 72.1722 230.782 55.8061 210.557 46.2806C190.332 36.7551 167.67 34.6919 146.627 40.4601C125.584 46.2283 107.534 59.4515 95.7064 77.7632C83.8788 96.0749 79.046 118.28 82.0729 140.405Z" fill="url(#paint0_linear_519_663)"/>
<path fill-rule="evenodd" clip-rule="evenodd" d="M36.3658 188.824C38.6964 205.859 46.6397 220.186 59.2965 232.034L59.3848 231.933C68.5749 239.452 74.4215 250.306 77.1165 261.754C79.8814 273.499 78.4497 285.662 73.0741 296.098C67.6984 306.533 58.7241 314.572 47.7338 318.795C36.7436 323.018 24.4435 323.155 13.0028 319.181C1.56213 315.208 -8.28415 307.379 -14.7995 297.075C-21.3148 286.772 -24.0806 274.655 -22.6091 262.864C-21.1377 251.072 -15.5234 240.362 -6.75654 232.622C2.01032 224.883 39.9648 215.949 39.9648 215.949L32.8238 194.995C32.8238 194.995 -8.6056 205.732 -20.9884 216.664C-33.3712 227.596 -41.3011 242.723 -43.3795 259.379C-45.4579 276.034 -41.5513 293.148 -32.3487 307.701C-23.1461 322.254 -9.23865 333.312 6.92082 338.925C23.0803 344.538 40.4537 344.345 55.9769 338.379C71.5002 332.414 84.1761 321.06 91.769 306.32C99.3619 291.58 101.384 274.401 97.4788 257.812C93.7512 241.978 84.8521 227.653 72.2509 217.127L72.3133 217.055C63.3525 208.666 58.6651 198.749 57.0151 186.689C55.3651 174.628 57.9996 162.523 64.4471 152.541C70.8946 142.559 80.7343 135.351 92.2053 132.206C103.676 129.062 116.03 130.187 127.055 135.379C138.08 140.572 147.058 149.493 152.381 160.547C157.704 171.601 159.025 184.066 156.107 195.711C153.19 207.355 146.225 217.42 136.458 224.104C126.691 230.788 89.813 233.119 89.813 233.119L100.271 253.203C100.271 253.203 134.78 251.112 148.575 241.672C162.37 232.231 172.209 218.015 176.329 201.567C180.45 185.119 178.584 167.514 171.066 151.9C163.547 136.287 150.867 123.686 135.294 116.352C119.722 109.017 102.273 107.429 86.0705 111.87C69.8682 116.311 55.97 126.493 46.8632 140.592C37.7563 154.692 34.0352 171.789 36.3658 188.824Z" fill="url(#paint1_linear_519_663)"/>
<defs>
<linearGradient id="paint0_linear_519_663" x1="255.863" y1="87.63" x2="83" y2="118.5" gradientUnits="userSpaceOnUse">
<stop stop-color="#E90442"/>
<stop offset="1" stop-color="#5E2143" stop-opacity="0"/>
</linearGradient>
<linearGradient id="paint1_linear_519_663" x1="170.178" y1="148.189" x2="28.5" y2="155" gradientUnits="userSpaceOnUse">
<stop stop-color="#E90442"/>
<stop offset="1" stop-color="#592243" stop-opacity="0.41"/>
</linearGradient>
</defs>
</svg>
