<svg width="270" height="194" viewBox="0 0 270 194" fill="none" xmlns="http://www.w3.org/2000/svg">
<path fill-rule="evenodd" clip-rule="evenodd" d="M81.5729 140.405C84.5997 162.529 94.9161 181.136 111.354 196.524L111.469 196.392C123.405 206.158 130.998 220.255 134.498 235.123C138.089 250.377 136.23 266.173 129.248 279.727C122.266 293.28 110.611 303.72 96.3372 309.205C82.0635 314.69 66.0886 314.868 51.23 309.707C36.3713 304.546 23.5834 294.378 15.1216 280.996C6.65974 267.615 3.0676 251.879 4.97868 236.564C6.8898 221.249 14.1814 207.339 25.5674 197.288C36.9534 187.236 86.247 175.633 86.247 175.633L76.9726 148.419C76.9726 148.419 23.1659 162.364 7.08361 176.562C-8.99865 190.759 -19.2977 210.406 -21.997 232.038C-24.6964 253.669 -19.6226 275.896 -7.67065 294.797C4.28131 313.698 22.3437 328.06 43.331 335.349C64.3182 342.639 86.882 342.388 107.043 334.641C127.204 326.893 143.667 312.147 153.528 293.003C163.389 273.86 166.016 251.548 160.944 230.003C156.103 209.438 144.545 190.833 128.179 177.163L128.26 177.069C116.622 166.174 110.534 153.295 108.391 137.631C106.248 121.967 109.67 106.246 118.044 93.282C126.417 80.3176 139.197 70.9557 154.095 66.8719C168.993 62.7881 185.037 64.2489 199.356 70.9928C213.675 77.7367 225.335 89.3236 232.248 103.68C239.161 118.036 240.877 134.225 237.088 149.349C233.299 164.472 224.253 177.544 211.568 186.225C198.884 194.905 150.988 197.933 150.988 197.933L164.57 224.018C164.57 224.018 209.39 221.302 227.306 209.041C245.222 196.78 258 178.316 263.351 156.955C268.703 135.593 266.28 112.727 256.515 92.4498C246.751 72.1721 230.282 55.8061 210.057 46.2806C189.832 36.7551 167.17 34.6918 146.127 40.4601C125.084 46.2283 107.034 59.4515 95.2064 77.7632C83.3788 96.0749 78.546 118.28 81.5729 140.405Z" fill="url(#paint0_linear_519_662)"/>
<path fill-rule="evenodd" clip-rule="evenodd" d="M35.8658 188.824C38.1964 205.859 46.1397 220.185 58.7965 232.034L58.8849 231.933C68.0749 239.452 73.9215 250.306 76.6165 261.754C79.3814 273.499 77.9497 285.662 72.5741 296.097C67.1984 306.533 58.2241 314.572 47.2339 318.795C36.2436 323.018 23.9435 323.155 12.5028 319.181C1.06215 315.208 -8.78413 307.379 -15.2994 297.075C-21.8148 286.772 -24.5806 274.655 -23.1091 262.864C-21.6376 251.072 -16.0234 240.362 -7.25651 232.622C1.51035 224.883 39.4648 215.949 39.4648 215.949L32.3238 194.995C32.3238 194.995 -9.10557 205.732 -21.4884 216.664C-33.8712 227.596 -41.8011 242.723 -43.8795 259.379C-45.9579 276.034 -42.0513 293.148 -32.8487 307.701C-23.6461 322.254 -9.73862 333.312 6.42085 338.925C22.5803 344.538 39.9537 344.344 55.477 338.379C71.0002 332.414 83.6761 321.06 91.269 306.32C98.8619 291.58 100.884 274.4 96.9788 257.812C93.2513 241.978 84.3521 227.652 71.7509 217.126L71.8134 217.055C62.8525 208.666 58.1651 198.749 56.5151 186.689C54.8651 174.628 57.4996 162.523 63.9471 152.541C70.3946 142.559 80.2343 135.351 91.7053 132.206C103.176 129.062 115.53 130.187 126.555 135.379C137.58 140.572 146.558 149.493 151.881 160.547C157.204 171.601 158.525 184.066 155.607 195.711C152.69 207.355 145.725 217.42 135.958 224.104C126.191 230.788 89.3131 233.119 89.3131 233.119L99.7706 253.203C99.7706 253.203 134.28 251.112 148.075 241.672C161.87 232.231 171.709 218.015 175.829 201.567C179.95 185.119 178.084 167.514 170.566 151.9C163.047 136.287 150.367 123.686 134.794 116.352C119.222 109.017 101.773 107.429 85.5705 111.87C69.3682 116.311 55.47 126.493 46.3632 140.592C37.2563 154.692 33.5353 171.789 35.8658 188.824Z" fill="url(#paint1_linear_519_662)"/>
<defs>
<linearGradient id="paint0_linear_519_662" x1="255.363" y1="87.63" x2="82.5" y2="118.5" gradientUnits="userSpaceOnUse">
<stop stop-color="#06A0D9"/>
<stop offset="1" stop-color="#02C2F4" stop-opacity="0.05"/>
</linearGradient>
<linearGradient id="paint1_linear_519_662" x1="169.678" y1="148.189" x2="6.77622" y2="282.76" gradientUnits="userSpaceOnUse">
<stop stop-color="#079AD7"/>
<stop offset="1" stop-color="#05A9E0" stop-opacity="0.05"/>
</linearGradient>
</defs>
</svg>
