<svg width="251" height="380" viewBox="0 0 251 380" fill="none" xmlns="http://www.w3.org/2000/svg">
<path opacity="0.05" fill-rule="evenodd" clip-rule="evenodd" d="M197.085 186.664C175.039 174.234 151.158 170.766 125.971 175.006L126.011 175.199C108.994 179.242 91.0534 176.415 75.2302 169.379C58.997 162.161 46.0203 149.672 38.5888 134.113C31.1572 118.554 29.7481 100.926 34.6101 84.3366C39.4721 67.7477 50.2928 53.2639 65.1638 43.4397C80.0348 33.6155 98.0008 29.0821 115.893 30.6388C133.785 32.1957 150.455 39.7428 162.961 51.9491C175.468 64.1554 183.008 80.2367 184.251 97.357C185.495 114.477 162.082 166.741 162.082 166.741L193.015 177.039C193.015 177.039 217.417 119.115 215.66 94.9332C213.903 70.7516 203.253 48.0373 185.589 30.7964C167.924 13.5556 144.379 2.89562 119.107 0.696671C93.8348 -1.50227 68.4586 4.90105 47.4539 18.7773C26.4493 32.6536 11.1655 53.1113 4.29811 76.5425C-2.56925 99.9737 -0.579031 124.873 9.91776 146.849C20.4146 168.826 38.7436 186.467 61.6723 196.662C83.5576 206.393 108.292 208.743 131.878 203.392L131.906 203.528C149.738 200.527 165.545 203.874 181.153 212.674C196.761 221.475 208.596 235.317 214.539 251.724C220.482 268.131 220.145 286.032 213.59 302.222C207.034 318.413 194.687 331.837 178.759 340.092C162.83 348.347 144.359 350.894 126.652 347.278C108.945 343.661 93.157 334.117 82.1138 320.353C71.0705 306.59 65.4928 289.505 66.3788 272.156C67.2648 254.807 97.456 209.673 97.456 209.673L64.581 204.02C64.581 204.02 36.2229 246.175 34.9715 270.68C33.7201 295.184 41.5984 319.316 57.1964 338.756C72.7945 358.197 95.0943 371.678 120.105 376.786C145.116 381.894 171.205 378.296 193.703 366.636C216.202 354.976 233.641 336.016 242.901 313.147C252.16 290.278 252.636 264.994 244.241 241.82C235.847 218.646 219.131 199.094 197.085 186.664Z" fill="url(#paint0_linear_124_3629)"/>
<defs>
<linearGradient id="paint0_linear_124_3629" x1="63.2412" y1="270.946" x2="195.763" y2="144.069" gradientUnits="userSpaceOnUse">
<stop stop-color="#431B36" stop-opacity="0"/>
<stop offset="0.532391" stop-color="#E90442"/>
<stop offset="1" stop-color="#572545"/>
</linearGradient>
</defs>
</svg>
