<svg width="269" height="390" viewBox="0 0 269 390" fill="none" xmlns="http://www.w3.org/2000/svg">
<path opacity="0.1" fill-rule="evenodd" clip-rule="evenodd" d="M211.377 191.696C187.749 178.914 162.154 175.348 135.16 179.708L135.204 179.906C116.965 184.064 97.7373 181.156 80.779 173.922C63.3811 166.5 49.4734 153.656 41.5086 137.657C33.5438 121.658 32.0337 103.531 37.2445 86.473C42.4554 69.4148 54.0524 54.5212 69.9903 44.4191C85.9283 34.317 105.183 29.6552 124.359 31.2561C143.535 32.857 161.401 40.6176 174.804 53.1692C188.208 65.7208 196.289 82.2571 197.622 99.8617C198.955 117.466 173.862 171.208 173.862 171.208L207.014 181.799C207.014 181.799 233.167 122.235 231.284 97.3693C229.401 72.5036 217.987 49.1468 199.055 31.4181C180.123 13.6895 154.889 2.72797 127.804 0.466826C100.718 -1.79431 73.5215 4.79016 51.0098 19.059C28.4982 33.3278 12.1178 54.3643 4.75773 78.4584C-2.60234 102.553 -0.469339 128.156 10.7806 150.754C22.0305 173.352 41.6746 191.493 66.2483 201.976C89.7038 211.982 116.212 214.399 141.491 208.896L141.522 209.037C160.632 205.95 177.573 209.392 194.301 218.442C211.029 227.491 223.713 241.725 230.082 258.596C236.452 275.467 236.091 293.874 229.065 310.523C222.039 327.172 208.807 340.976 191.735 349.464C174.664 357.953 154.868 360.572 135.89 356.853C116.913 353.134 99.9919 343.32 88.1563 329.167C76.3208 315.014 70.3429 297.446 71.2925 279.606C72.242 261.767 104.599 215.356 104.599 215.356L69.3656 209.543C69.3656 209.543 38.973 252.891 37.6318 278.088C36.2906 303.286 44.7341 328.1 61.4513 348.091C78.1684 368.081 102.068 381.944 128.873 387.196C155.678 392.449 183.639 388.749 207.752 376.76C231.865 364.77 250.556 345.272 260.479 321.757C270.403 298.241 270.913 272.242 261.916 248.412C252.919 224.583 235.004 204.478 211.377 191.696Z" fill="url(#paint0_linear_124_3602)"/>
<defs>
<linearGradient id="paint0_linear_124_3602" x1="105.914" y1="246.633" x2="202.056" y2="63.0608" gradientUnits="userSpaceOnUse">
<stop stop-color="#0976CB" stop-opacity="0.1"/>
<stop offset="0.510417" stop-color="#00D1FF"/>
<stop offset="0.958333" stop-color="#0879D0" stop-opacity="0.1"/>
</linearGradient>
</defs>
</svg>
