<svg width="26" height="25" viewBox="0 0 26 25" fill="none" xmlns="http://www.w3.org/2000/svg">
<g clip-path="url(#clip0_142_1289)">
<rect x="0.5" width="25" height="25" rx="12.5" fill="#E90442"/>
<path fill-rule="evenodd" clip-rule="evenodd" d="M5.33441 17.753C8.64636 17.6353 11.5618 16.3971 14.1054 14.2138L14.0877 14.1948C15.7271 12.5889 17.9322 11.6834 20.1824 11.3894C22.4909 11.0878 24.7883 11.5932 26.6693 12.8166C28.5502 14.04 29.894 15.9028 30.4635 18.0764C31.033 20.2499 30.7917 22.5947 29.7821 24.6971C28.7725 26.7996 27.0596 28.5246 24.9454 29.568C22.8311 30.6114 20.4514 30.9061 18.2259 30.4001C16.0005 29.8942 14.0722 28.6201 12.7812 26.8026C11.4902 24.9851 10.6052 17.5869 10.6052 17.5869L6.43849 18.5455C6.43849 18.5455 7.59308 26.6399 9.41656 29.2071C11.24 31.7743 13.9637 33.5739 17.107 34.2885C20.2504 35.0031 23.6117 34.5868 26.5979 33.1131C29.5842 31.6393 32.0037 29.2028 33.4296 26.2332C34.8556 23.2636 35.1964 19.9517 34.392 16.8817C33.5876 13.8116 31.6897 11.1805 29.0329 9.45251C26.3761 7.72451 23.1312 7.01059 19.8704 7.43664C16.7581 7.8433 13.8221 9.26357 11.533 11.4615L11.5208 11.4484C9.7199 12.9941 7.71949 13.6968 5.37468 13.7802C3.02986 13.8635 0.769811 13.1301 -1.001 11.7113C-2.7718 10.2925 -3.9378 8.28082 -4.2903 6.03636C-4.64281 3.79189 -4.15882 1.4611 -2.92495 -0.538897C-1.69109 -2.53889 0.212124 -4.07755 2.44407 -4.87951C4.67603 -5.68147 7.09104 -5.69439 9.25692 -4.91596C11.4228 -4.13752 13.1982 -2.61854 14.2653 -0.630852C15.3325 1.35683 14.9768 8.42371 14.9768 8.42371L19.0492 6.81689C19.0492 6.81689 19.3994 0.205595 17.8921 -2.60193C16.3848 -5.40945 13.8771 -7.55495 10.8179 -8.65446C7.75869 -9.75397 4.34759 -9.73572 1.19505 -8.60298C-1.95748 -7.47025 -4.64569 -5.29696 -6.38847 -2.47205C-8.13125 0.352863 -8.81487 3.64501 -8.31697 6.81522C-7.81907 9.98543 -6.17216 12.8268 -3.67096 14.8308C-1.16977 16.8348 2.02245 17.8707 5.33441 17.753Z" fill="white"/>
</g>
<defs>
<clipPath id="clip0_142_1289">
<rect x="0.5" width="25" height="25" rx="12.5" fill="white"/>
</clipPath>
</defs>
</svg>
