<svg width="232" height="143" viewBox="0 0 232 143" fill="none" xmlns="http://www.w3.org/2000/svg">
<path d="M1.85938 105.621C6.85938 61.2731 12.3594 20.2509 21.8594 22.4683C34.8594 22.4683 29.3594 32.4467 24.8594 45.7512C20.3594 59.0557 12.8594 69.0341 12.8594 83.4473C12.8594 97.8605 27.9012 58.9564 30.3594 57.947C43.8594 52.4034 9.35938 114.491 12.8594 122.252C20.875 140.026 34.0309 67.4172 44.3594 53.5121C58.3594 34.6641 34.6272 96.7518 43.3594 96.7518C48.3594 96.7518 83.8594 -36.3063 83.8594 11.3812C83.8594 31.3378 30.3594 124.469 37.8594 141.101C41.1189 148.329 64.3594 71.2513 70.3594 67.9252C76.5333 64.5026 54.1396 119.995 56.3594 124.469C61.8594 135.556 77.3594 55.7295 87.8594 55.7295C98.3594 55.7295 64.8594 115.6 71.8594 127.795C75.5684 134.258 111.378 10.0672 120.859 11.3812C136.859 13.5986 92.6584 76.3147 99.3594 83.4473C111.859 96.7523 130.859 5.83726 139.359 28.0116C144.884 42.4249 89.1342 120.502 96.3594 141.101C99.8594 151.079 153.545 9.14507 160.359 18.0333C177.359 40.2074 119.359 84.5556 129.859 98.969C135.513 106.73 170.859 25.7942 176.859 31.3378C184.706 38.587 139.859 93.4255 145.359 115.6C147.581 124.556 158.859 82.3386 172.359 74.5776C185.859 66.8166 160.98 111.14 165.359 117.817C173.359 130.013 190.359 24.6855 202.859 31.3378C217.359 31.3378 167.859 121.143 182.359 127.795C199.359 143.317 216.066 8.90359 221.359 13.5985C228.859 20.2507 202.88 87.2353 209.859 93.4255C212.359 95.643 223.359 45.7512 229.859 53.5121C235.359 57.947 208.561 125.064 211.359 133.339C217.359 151.078 227.859 99.3386 229.859 93.4255" stroke="#747260" stroke-opacity="0.49" stroke-width="2"/>
</svg>
