<svg width="140" height="97" viewBox="0 0 140 97" fill="none" xmlns="http://www.w3.org/2000/svg">
<path d="M1.44141 71.6046C4.443 41.8678 7.74475 14.3613 13.4478 15.8482C21.2519 15.8482 17.9502 22.5389 15.2487 31.4599C12.5473 40.381 8.04491 47.0718 8.04491 56.7362C8.04491 66.4007 17.0748 40.3144 18.5505 39.6376C26.6548 35.9205 5.94379 77.5519 8.04491 82.7559C12.8568 94.6738 20.7546 45.9876 26.9549 36.6639C35.3594 24.0258 21.1126 65.6572 26.3546 65.6572C29.3562 65.6572 50.6675 -23.5618 50.6675 8.41398C50.6675 21.7954 18.5505 84.2425 23.0529 95.3942C25.0096 100.241 38.9613 48.5585 42.5632 46.3282C46.2695 44.0333 32.8262 81.2421 34.1588 84.2426C37.4605 91.6768 46.7654 38.1507 53.0688 38.1507C59.3721 38.1507 39.2615 78.2952 43.4637 86.4729C45.6903 90.8059 67.1874 7.53289 72.8793 8.41398C82.4844 9.90082 55.9497 51.9537 59.9724 56.7362C67.4764 65.6576 78.8825 4.69661 83.9852 19.5651C87.3019 29.2296 53.834 81.5821 58.1715 95.3942C60.2726 102.085 92.5012 6.91459 96.5919 12.8744C106.797 27.7427 71.9788 57.4794 78.2821 67.144C81.6762 72.3479 102.895 18.0783 106.497 21.7954C111.207 26.6562 84.2853 63.4269 87.5871 78.2952C88.9207 84.3008 95.6914 55.9928 103.796 50.7889C111.9 45.5849 96.9641 75.305 99.5934 79.7821C104.396 87.9597 114.601 17.3349 122.105 21.7954C130.81 21.7954 101.094 82.0123 109.799 86.4729C120.004 96.8807 130.034 6.75267 133.211 9.9007C137.714 14.3612 122.118 59.2761 126.308 63.4269C127.808 64.9137 134.412 31.4599 138.314 36.6639C141.616 39.6376 125.528 84.6414 127.208 90.19C130.81 102.085 137.113 67.3918 138.314 63.4269" stroke="#747260" stroke-opacity="0.49" stroke-width="2"/>
</svg>
