<svg width="93" height="93" viewBox="0 0 93 93" fill="none" xmlns="http://www.w3.org/2000/svg">
<g filter="url(#filter0_f_159_3143)">
<ellipse cx="46.69" cy="46.3875" rx="26.1878" ry="24.4649" transform="rotate(-59.2571 46.69 46.3875)" fill="#6AA5FF" fill-opacity="0.5"/>
</g>
<path d="M58.914 21.0339C62.5505 28.8418 64.0275 30.1632 67.6641 37.971C70.1435 43.2945 75.7188 53.1917 73.2973 57.4657C70.8758 61.7397 60.7494 63.3099 51.3482 67.6885C47.1001 69.6671 35.9099 77.0909 31.531 71.3888C28.0076 66.8008 26.0383 62.7308 23.5588 57.4073C18.9028 47.4107 18.35 39.9266 20.2569 37.9326C25.6695 32.2726 38.107 28.594 48.863 23.5034C51.3444 22.329 56.3666 21.1145 58.914 21.0339ZM58.914 21.0339C60.7534 21.2832 61.9372 23.5142 63.5777 25.4973C66.279 28.7626 68.5849 32.7736 70.4962 36.6519M27.7914 66.4951C29.1459 69.4032 33.0343 75.8497 34.0706 76.8416C35.107 77.8335 36.9602 78.3589 38.8807 77.9191C43.5522 76.8493 45.2157 76.0743 49.9244 73.8813C57.7128 70.2538 56.3851 70.994 64.0851 67.2859C67.1082 65.8301 72.2888 64.5502 74.7056 62.3394C76.173 60.9971 78.2253 58.8081 77.9688 56.3959C77.5683 52.6287 75.1521 46.6486 75.1521 46.6486C75.1521 46.6486 72.1491 40.2009 70.4962 36.6519M70.4962 36.6519C69.6697 34.8774 71.3614 38.4075 70.4962 36.6519Z" stroke="black" stroke-width="0.5"/>
<path d="M53.1825 53.8023C52.876 53.0202 52.3951 52.4783 51.7399 52.1766C51.0773 51.8563 50.3193 51.6485 49.4657 51.5534C48.6235 51.4323 47.727 51.3647 46.7763 51.3506C45.8257 51.3365 44.9053 51.2353 44.0153 51.0471C43.1366 50.8329 42.3294 50.4726 41.5939 49.966C40.8511 49.4408 40.2681 48.6382 39.8448 47.5582C39.2465 46.0312 39.3029 44.6129 40.014 43.3031C40.7252 41.9934 42.0584 40.9554 44.0136 40.1892C45.1495 39.7441 46.2158 39.4229 47.2126 39.2256C48.2093 39.0284 49.0195 38.9579 49.643 39.0143L49.7437 41.327C49.2352 41.29 48.5254 41.3426 47.6145 41.4847C46.7222 41.6196 45.7547 41.8913 44.7119 42.2999C43.4829 42.7816 42.6706 43.4221 42.275 44.2215C41.8721 45.0023 41.8166 45.7652 42.1085 46.51C42.393 47.2363 42.863 47.7502 43.5182 48.052C44.1735 48.3537 44.9222 48.5651 45.7644 48.6861C46.618 48.7813 47.5274 48.8545 48.4927 48.9059C49.458 48.9572 50.3836 49.0993 51.2696 49.3321C52.167 49.539 52.9834 49.8957 53.7189 50.4022C54.4544 50.9088 55.0229 51.6742 55.4242 52.6983C55.7526 53.5363 55.8991 54.3488 55.8639 55.136C55.8286 55.9231 55.6172 56.6718 55.2297 57.3822C54.8422 58.0925 54.2898 58.7386 53.5726 59.3204C52.8554 59.9021 51.9755 60.3973 50.9327 60.806C49.5361 61.3533 48.3378 61.6939 47.3378 61.828C46.345 61.9808 45.5462 62.0253 44.9413 61.9616L44.9025 59.5602C45.4256 59.6345 46.1536 59.6285 47.0864 59.5422C48.012 59.4373 48.9961 59.1805 50.0389 58.7719C50.6534 58.531 51.2088 58.249 51.705 57.9256C52.1939 57.5837 52.5829 57.2057 52.8718 56.7918C53.1533 56.3592 53.3256 55.8943 53.3885 55.3971C53.4701 54.8926 53.4014 54.361 53.1825 53.8023Z" fill="black"/>
<defs>
<filter id="filter0_f_159_3143" x="9.76025" y="8.63416" width="73.8594" height="75.5067" filterUnits="userSpaceOnUse" color-interpolation-filters="sRGB">
<feFlood flood-opacity="0" result="BackgroundImageFix"/>
<feBlend mode="normal" in="SourceGraphic" in2="BackgroundImageFix" result="shape"/>
<feGaussianBlur stdDeviation="6" result="effect1_foregroundBlur_159_3143"/>
</filter>
</defs>
</svg>
