<svg width="92" height="92" viewBox="0 0 92 92" fill="none" xmlns="http://www.w3.org/2000/svg">
<g filter="url(#filter0_f_159_3147)">
<ellipse cx="45.9732" cy="45.7982" rx="26.1878" ry="24.4649" transform="rotate(-16.9396 45.9732 45.7982)" fill="#FF0000" fill-opacity="0.5"/>
</g>
<path d="M72.0807 35.2807C69.5131 43.5023 69.7156 45.4738 67.148 53.6953C65.3974 59.3009 62.8567 70.3727 58.1888 71.9027C53.5209 73.4327 44.976 67.7763 35.0767 64.6848C30.6034 63.2878 17.3312 61.2435 17.9321 54.0792C18.4157 48.3146 19.6996 43.9793 21.4502 38.3736C24.7375 27.8474 29.3674 21.9412 32.1198 21.7506C39.9325 21.2095 51.6057 26.8628 62.9862 30.34C65.6116 31.1422 70.1429 33.6253 72.0807 35.2807ZM72.0807 35.2807C73.2729 36.7034 72.6462 39.15 72.5242 41.7209C72.3233 45.9539 71.328 50.4722 70.1302 54.6266M18.4617 47.943C17.5053 51.0052 16.0404 58.3897 16.139 59.8209C16.2376 61.252 17.2542 62.8882 18.9703 63.8559C23.1447 66.2099 24.8965 66.7568 29.8547 68.3053C38.0558 70.8665 36.5757 70.5199 44.7657 72.962C47.9812 73.9208 52.6735 76.4622 55.949 76.4546C57.9377 76.4499 60.9289 76.213 62.3633 74.2567C64.6033 71.2015 66.8428 65.153 66.8428 65.153C66.8428 65.153 68.9631 58.3637 70.1302 54.6266M70.1302 54.6266C70.7137 52.7581 69.588 56.5073 70.1302 54.6266Z" stroke="black" stroke-width="0.5"/>
<path d="M53.7831 41.9452L56.0249 42.8021L51.0227 55.8887C50.5728 57.0656 50.0248 58.0231 49.3787 58.7611C48.7513 59.5062 48.041 60.0483 47.2476 60.3873C46.4801 60.7149 45.6446 60.8559 44.7414 60.8104C43.8381 60.7649 42.9007 60.5564 41.9292 60.1851C39.6127 59.2996 38.0659 58.1089 37.2889 56.6128C36.5118 55.1168 36.5303 53.3039 37.3444 51.1742L42.518 37.6392L44.8439 38.5283L40.088 50.9703C39.7095 51.9605 39.4816 52.8368 39.4042 53.5995C39.3526 54.3506 39.4409 55.0159 39.6689 55.5956C39.9042 56.1565 40.2756 56.6411 40.7834 57.0493C41.3098 57.4646 41.9653 57.8222 42.7499 58.1222C44.2631 58.7006 45.5038 58.7037 46.4718 58.1317C47.447 57.5409 48.2988 56.2928 49.0272 54.3873L53.7831 41.9452Z" fill="black"/>
<defs>
<filter id="filter0_f_159_3147" x="7.92041" y="9.17569" width="76.1055" height="73.245" filterUnits="userSpaceOnUse" color-interpolation-filters="sRGB">
<feFlood flood-opacity="0" result="BackgroundImageFix"/>
<feBlend mode="normal" in="SourceGraphic" in2="BackgroundImageFix" result="shape"/>
<feGaussianBlur stdDeviation="6" result="effect1_foregroundBlur_159_3147"/>
</filter>
</defs>
</svg>
