<svg width="428" height="310" viewBox="0 0 428 310" fill="none" xmlns="http://www.w3.org/2000/svg">

<path d="M82.6281 117.457C109.865 82.1031 135.808 49.8535 142.788 56.6688C153.91 63.399 144.039 69.0887 133.301 78.1418C122.563 87.195 110.981 91.8493 103.519 104.181C96.0572 116.512 129.067 91.0144 131.693 91.4234C146.113 93.6696 84.453 128.929 83.4295 137.381C81.0857 156.737 129.931 101.427 145.967 94.877C167.702 85.9993 115.255 126.833 122.726 131.353C127.004 133.942 226.261 38.4814 201.573 79.2809C191.241 96.3549 97.254 148.337 95.0606 166.449C94.1074 174.321 153.894 120.408 160.75 120.669C167.804 120.937 119.916 156.82 119.498 161.798C118.464 174.131 173.052 113.858 182.036 119.294C191.019 124.73 131.363 158.61 131.038 172.668C130.866 180.117 225.797 92.4031 233.228 98.4359C245.769 108.616 175.484 139.391 177.525 148.962C181.331 166.817 244.654 98.8698 240.447 122.242C237.712 137.433 149.593 175.371 145.111 196.735C142.939 207.084 262.351 113.444 263.579 124.576C266.644 152.349 194.062 160.264 195.584 178.032C196.403 187.599 268.545 136.652 270.808 144.501C273.768 154.766 207.009 178.466 200.235 200.285C197.499 209.098 229.005 178.817 244.573 179.166C260.141 179.515 215.908 204.556 216.198 212.536C216.729 227.112 285.802 145.799 293.053 157.962C305.458 165.468 216.615 216.676 225.577 229.874C232.086 251.955 315.966 145.605 318.064 152.362C321.037 161.936 264.132 205.796 266.898 214.705C267.889 217.897 303.13 180.906 304.673 190.911C307.083 197.553 249.408 241.102 247.518 249.63C243.468 267.914 279.237 229.083 284.01 225.06" stroke="#747260" stroke-opacity="0.49" stroke-width="2"/>
<path d="M259.519 104.585C278.865 81.802 297.191 61.0261 301.044 65.4865C307.47 69.9148 300.955 73.5506 293.668 79.3635C286.382 85.1764 278.878 88.1309 273.394 96.0888C267.91 104.047 290.147 87.6906 291.747 87.9706C300.529 89.5085 259.852 112.037 258.629 117.514C255.829 130.058 289.958 94.45 300.354 90.291C314.446 84.6535 279.092 110.85 283.408 113.824C285.88 115.527 354.054 54.1552 335.91 80.4847C328.317 91.5032 266.436 124.699 263.816 136.437C262.677 141.538 303.491 106.898 307.723 107.105C312.077 107.319 279.894 130.329 279.288 133.556C277.789 141.551 315.823 102.756 321.013 106.333C326.204 109.91 286.865 131.554 285.685 140.672C285.059 145.504 350.012 89.1331 354.199 93.0884C361.265 99.7629 315.553 119.333 316.152 125.554C317.269 137.158 361.252 93.4338 357.017 108.572C354.264 118.412 296.999 142.53 292.733 156.364C290.667 163.066 371.207 102.988 371.194 110.216C371.16 128.25 325.616 132.979 325.323 144.514C325.165 150.725 373.431 118.078 374.288 123.183C375.408 129.858 332.375 144.859 326.657 158.976C324.347 164.678 345.985 145.21 355.612 145.524C365.238 145.837 336.075 161.834 335.7 167.013C335.014 176.472 383.492 124.108 387.14 132.039C394.308 136.979 335.67 169.701 340.306 178.313C342.804 192.674 402.204 124.152 403.034 128.547C404.21 134.775 365.883 162.909 366.977 168.704C367.369 170.78 391.789 146.98 392.05 153.48C393.081 157.802 354.297 185.73 352.532 191.252C348.749 203.09 373.625 178.1 376.863 175.517" stroke="#747260" stroke-opacity="0.49" stroke-width="2"/>
<path d="M109.69 211.73C129.036 188.948 147.362 168.172 151.215 172.632C157.641 177.06 151.125 180.696 143.839 186.509C136.552 192.322 129.049 195.276 123.565 203.234C118.081 211.192 140.318 194.836 141.917 195.116C150.7 196.654 110.023 219.182 108.8 224.659C106 237.203 140.129 201.596 150.525 197.436C164.617 191.799 129.263 217.995 133.579 220.97C136.051 222.673 204.225 161.301 186.08 187.63C178.487 198.649 116.607 231.845 113.987 243.582C112.848 248.683 153.662 214.044 157.893 214.251C162.248 214.464 130.065 237.475 129.459 240.701C127.96 248.696 165.994 209.902 171.184 213.479C176.374 217.055 137.036 238.7 135.856 247.818C135.23 252.649 200.183 196.279 204.37 200.234C211.435 206.908 165.724 226.479 166.323 232.7C167.439 244.304 211.423 200.579 207.187 215.718C204.435 225.558 147.17 249.675 142.904 263.51C140.838 270.211 221.378 210.133 221.365 217.362C221.331 235.396 175.787 240.124 175.494 251.659C175.336 257.87 223.602 225.224 224.459 230.328C225.579 237.003 182.546 252.005 176.828 266.121C174.518 271.823 196.156 252.356 205.782 252.669C215.409 252.983 186.246 268.98 185.871 274.158C185.185 283.617 233.663 231.254 237.311 239.185C244.478 244.124 185.841 276.846 190.477 285.459C192.975 299.819 252.375 231.297 253.205 235.692C254.381 241.92 216.053 270.054 217.148 275.85C217.54 277.925 241.96 254.126 242.22 260.625C243.252 264.947 204.468 292.876 202.703 298.398C198.92 310.236 223.796 285.246 227.034 282.662" stroke="#747260" stroke-opacity="0.49" stroke-width="2"/>

<g filter="url(#filter0_f_159_3130)">
<ellipse cx="163.608" cy="47.4685" rx="26.1878" ry="24.4649" transform="rotate(-11.8004 163.608 47.4685)" fill="#FCE308" fill-opacity="0.5"/>
</g>
<path d="M190.553 39.332C187.259 47.2906 187.284 49.2722 183.99 57.2307C181.744 62.657 178.222 73.4567 173.436 74.5624C168.65 75.6682 160.646 69.2691 151.063 65.3032C146.733 63.5111 133.698 60.2861 134.938 53.2045C135.936 47.5064 137.603 43.3035 139.849 37.8772C144.066 27.6877 149.206 22.2201 151.964 22.2768C159.794 22.4376 170.914 29.1138 181.937 33.5965C184.48 34.6307 188.771 37.5097 190.553 39.332ZM190.553 39.332C191.613 40.8557 190.769 43.2365 190.417 45.786C189.838 49.984 188.442 54.395 186.877 58.4255M136.015 47.1404C134.788 50.1046 132.668 57.3283 132.638 58.7625C132.608 60.1967 133.473 61.9173 135.096 63.0349C139.043 65.7533 140.739 66.455 145.538 68.4414C153.477 71.7269 152.034 71.2492 159.972 74.4151C163.089 75.658 167.535 78.6096 170.798 78.8953C172.779 79.0688 175.779 79.1009 177.383 77.2809C179.888 74.4386 182.66 68.615 182.66 68.615C182.66 68.615 185.38 62.043 186.877 58.4255M186.877 58.4255C187.626 56.6167 186.169 60.2499 186.877 58.4255Z" stroke="black" stroke-width="0.5"/>
<path d="M163.204 57.0583L156.25 53.6582L151.807 57.9641L149.597 56.8835L166.109 41.214L167.133 41.7148L164.932 64.3821L162.587 63.2355L163.204 57.0583ZM157.927 52.0736L163.479 54.7884L164.184 48.02L164.907 44.8338L164.88 44.8207L162.783 47.4018L157.927 52.0736Z" fill="black"/>
<g filter="url(#filter1_f_159_3130)">
<ellipse cx="208.69" cy="137.388" rx="26.1878" ry="24.4649" transform="rotate(-37.8586 208.69 137.388)" fill="#FF0000" fill-opacity="0.5"/>
</g>
<path d="M229.322 118.242C229.859 126.838 230.752 128.607 231.289 137.204C231.656 143.065 233.236 154.314 229.422 157.41C225.608 160.506 215.606 158.273 205.256 158.92C200.579 159.212 187.451 162.041 185.455 155.135C183.848 149.577 183.499 145.069 183.133 139.208C182.445 128.202 184.661 121.032 187.164 119.871C194.269 116.576 207.191 117.689 219.063 116.874C221.802 116.686 226.921 117.387 229.322 118.242ZM229.322 118.242C230.944 119.145 231.232 121.654 232.036 124.099C233.36 128.125 234.043 132.701 234.408 137.009M183.758 149.214C183.958 152.416 185.227 159.836 185.83 161.138C186.433 162.44 187.967 163.605 189.915 163.896C194.655 164.605 196.486 164.49 201.671 164.166C210.246 163.63 208.739 163.835 217.262 163.192C220.607 162.939 225.898 163.638 228.955 162.461C230.811 161.747 233.52 160.458 234.161 158.118C235.163 154.464 235.095 148.015 235.095 148.015C235.095 148.015 234.652 140.916 234.408 137.009M234.408 137.009C234.286 135.055 234.573 138.959 234.408 137.009Z" stroke="black" stroke-width="0.5"/>
<path d="M209.63 141.53H216.68V150.77C216.36 151.01 215.97 151.23 215.51 151.43C215.07 151.63 214.59 151.8 214.07 151.94C213.57 152.08 213.04 152.18 212.48 152.24C211.94 152.32 211.41 152.36 210.89 152.36C209.55 152.36 208.32 152.15 207.2 151.73C206.08 151.29 205.11 150.63 204.29 149.75C203.47 148.85 202.83 147.72 202.37 146.36C201.91 144.98 201.68 143.36 201.68 141.5C201.68 139.56 201.96 137.9 202.52 136.52C203.08 135.14 203.81 134.02 204.71 133.16C205.61 132.28 206.62 131.64 207.74 131.24C208.86 130.84 209.98 130.64 211.1 130.64C212.3 130.64 213.29 130.71 214.07 130.85C214.85 130.97 215.51 131.14 216.05 131.36L215.42 133.55C214.46 133.09 213.09 132.86 211.31 132.86C210.47 132.86 209.63 133.01 208.79 133.31C207.97 133.59 207.23 134.07 206.57 134.75C205.91 135.43 205.37 136.32 204.95 137.42C204.53 138.52 204.32 139.88 204.32 141.5C204.32 142.98 204.49 144.26 204.83 145.34C205.17 146.42 205.64 147.32 206.24 148.04C206.86 148.74 207.6 149.27 208.46 149.63C209.32 149.97 210.26 150.14 211.28 150.14C212.56 150.14 213.65 149.89 214.55 149.39V143.54L209.63 142.94V141.53Z" fill="black"/>
<g filter="url(#filter2_f_159_3130)">
<ellipse cx="205.69" cy="75.3875" rx="26.1878" ry="24.4649" transform="rotate(-59.2571 205.69 75.3875)" fill="#6AA5FF" fill-opacity="0.5"/>
</g>
<path d="M217.914 50.0339C221.551 57.8418 223.028 59.1632 226.664 66.971C229.143 72.2945 234.719 82.1917 232.297 86.4657C229.876 90.7397 219.749 92.3099 210.348 96.6885C206.1 98.6671 194.91 106.091 190.531 100.389C187.008 95.8008 185.038 91.7308 182.559 86.4073C177.903 76.4107 177.35 68.9266 179.257 66.9326C184.67 61.2726 197.107 57.594 207.863 52.5034C210.344 51.329 215.367 50.1145 217.914 50.0339ZM217.914 50.0339C219.753 50.2832 220.937 52.5142 222.578 54.4973C225.279 57.7626 227.585 61.7736 229.496 65.6519M186.791 95.4951C188.146 98.4032 192.034 104.85 193.071 105.842C194.107 106.833 195.96 107.359 197.881 106.919C202.552 105.849 204.216 105.074 208.924 102.881C216.713 99.2538 215.385 99.994 223.085 96.2859C226.108 94.8301 231.289 93.5502 233.706 91.3394C235.173 89.9971 237.225 87.8081 236.969 85.3959C236.568 81.6287 234.152 75.6486 234.152 75.6486C234.152 75.6486 231.149 69.2009 229.496 65.6519M229.496 65.6519C228.67 63.8774 230.361 67.4075 229.496 65.6519Z" stroke="black" stroke-width="0.5"/>
<path d="M212.182 82.8023C211.876 82.0202 211.395 81.4783 210.74 81.1766C210.077 80.8563 209.319 80.6485 208.466 80.5534C207.623 80.4323 206.727 80.3647 205.776 80.3506C204.826 80.3365 203.905 80.2353 203.015 80.0471C202.137 79.8329 201.329 79.4726 200.594 78.966C199.851 78.4408 199.268 77.6382 198.845 76.5582C198.246 75.0312 198.303 73.6129 199.014 72.3031C199.725 70.9934 201.058 69.9554 203.014 69.1892C204.15 68.7441 205.216 68.4229 206.213 68.2256C207.209 68.0284 208.019 67.9579 208.643 68.0143L208.744 70.327C208.235 70.29 207.525 70.3426 206.615 70.4847C205.722 70.6196 204.755 70.8913 203.712 71.2999C202.483 71.7816 201.671 72.4221 201.275 73.2215C200.872 74.0023 200.817 74.7652 201.108 75.51C201.393 76.2363 201.863 76.7502 202.518 77.052C203.173 77.3537 203.922 77.5651 204.764 77.6861C205.618 77.7813 206.527 77.8545 207.493 77.9059C208.458 77.9572 209.384 78.0993 210.27 78.3321C211.167 78.539 211.983 78.8957 212.719 79.4022C213.454 79.9088 214.023 80.6742 214.424 81.6983C214.753 82.5363 214.899 83.3488 214.864 84.136C214.829 84.9231 214.617 85.6718 214.23 86.3822C213.842 87.0925 213.29 87.7386 212.573 88.3204C211.855 88.9021 210.975 89.3973 209.933 89.806C208.536 90.3533 207.338 90.6939 206.338 90.828C205.345 90.9808 204.546 91.0253 203.941 90.9616L203.902 88.5602C204.426 88.6345 205.154 88.6285 206.086 88.5422C207.012 88.4373 207.996 88.1805 209.039 87.7719C209.653 87.531 210.209 87.249 210.705 86.9256C211.194 86.5837 211.583 86.2057 211.872 85.7918C212.153 85.3592 212.326 84.8943 212.389 84.3971C212.47 83.8926 212.401 83.361 212.182 82.8023Z" fill="black"/>
<g filter="url(#filter3_f_159_3130)">
<ellipse cx="271.973" cy="84.7982" rx="26.1878" ry="24.4649" transform="rotate(-16.9396 271.973 84.7982)" fill="#FF0000" fill-opacity="0.5"/>
</g>
<path d="M298.081 74.2807C295.513 82.5023 295.716 84.4738 293.148 92.6953C291.397 98.3009 288.857 109.373 284.189 110.903C279.521 112.433 270.976 106.776 261.077 103.685C256.603 102.288 243.331 100.243 243.932 93.0792C244.416 87.3146 245.7 82.9793 247.45 77.3736C250.737 66.8474 255.367 60.9412 258.12 60.7506C265.933 60.2095 277.606 65.8628 288.986 69.34C291.612 70.1422 296.143 72.6253 298.081 74.2807ZM298.081 74.2807C299.273 75.7034 298.646 78.15 298.524 80.7209C298.323 84.9539 297.328 89.4722 296.13 93.6266M244.462 86.943C243.505 90.0052 242.04 97.3897 242.139 98.8209C242.238 100.252 243.254 101.888 244.97 102.856C249.145 105.21 250.897 105.757 255.855 107.305C264.056 109.866 262.576 109.52 270.766 111.962C273.981 112.921 278.674 115.462 281.949 115.455C283.938 115.45 286.929 115.213 288.363 113.257C290.603 110.201 292.843 104.153 292.843 104.153C292.843 104.153 294.963 97.3637 296.13 93.6266M296.13 93.6266C296.714 91.7581 295.588 95.5073 296.13 93.6266Z" stroke="black" stroke-width="0.5"/>
<path d="M279.783 80.9452L282.025 81.8021L277.023 94.8887C276.573 96.0656 276.025 97.0231 275.379 97.7611C274.751 98.5062 274.041 99.0483 273.248 99.3873C272.48 99.7149 271.645 99.8559 270.741 99.8104C269.838 99.7649 268.901 99.5564 267.929 99.1851C265.613 98.2996 264.066 97.1089 263.289 95.6128C262.512 94.1168 262.53 92.3039 263.344 90.1742L268.518 76.6392L270.844 77.5283L266.088 89.9703C265.71 90.9605 265.482 91.8368 265.404 92.5995C265.353 93.3506 265.441 94.0159 265.669 94.5956C265.904 95.1565 266.276 95.6411 266.783 96.0493C267.31 96.4646 267.965 96.8222 268.75 97.1222C270.263 97.7006 271.504 97.7037 272.472 97.1317C273.447 96.5409 274.299 95.2928 275.027 93.3873L279.783 80.9452Z" fill="black"/>
<g filter="url(#filter4_f_159_3130)">
<ellipse cx="158.691" cy="172.388" rx="26.1878" ry="24.4649" transform="rotate(-59.2174 158.691 172.388)" fill="#6AA5FF" fill-opacity="0.5"/>
</g>
<path d="M170.932 147.042C174.563 154.853 176.039 156.175 179.67 163.986C182.146 169.311 187.715 179.212 185.29 183.484C182.866 187.756 172.738 189.32 163.334 193.692C159.084 195.667 147.889 203.083 143.514 197.378C139.994 192.788 138.028 188.716 135.552 183.391C130.903 173.391 130.355 165.907 132.263 163.914C137.68 158.258 150.12 154.588 160.879 149.505C163.362 148.332 168.385 147.121 170.932 147.042ZM170.932 147.042C172.771 147.293 173.954 149.525 175.593 151.509C178.292 154.776 180.595 158.789 182.503 162.668M139.778 192.482C141.13 195.391 145.014 201.84 146.05 202.833C147.086 203.825 148.939 204.352 150.859 203.914C155.532 202.847 157.196 202.073 161.906 199.883C169.697 196.261 168.369 197.001 176.071 193.298C179.095 191.844 184.277 190.568 186.695 188.359C188.163 187.017 190.217 184.83 189.962 182.418C189.564 178.65 187.153 172.668 187.153 172.668C187.153 172.668 184.154 166.219 182.503 162.668M182.503 162.668C181.678 160.893 183.367 164.425 182.503 162.668Z" stroke="black" stroke-width="0.5"/>
<path d="M150.645 168.675C150.977 168.481 151.354 168.291 151.775 168.104C152.208 167.892 152.657 167.695 153.122 167.513C153.599 167.305 154.061 167.114 154.508 166.939C154.967 166.738 155.391 166.561 155.783 166.408C157.347 165.796 158.792 165.511 160.118 165.55C161.462 165.583 162.678 165.892 163.765 166.476C164.846 167.041 165.799 167.86 166.627 168.932C167.473 169.997 168.18 171.256 168.748 172.709C169.265 174.032 169.587 175.377 169.714 176.744C169.852 178.086 169.734 179.378 169.361 180.619C168.98 181.842 168.306 182.975 167.34 184.019C166.367 185.043 165.032 185.887 163.337 186.55C163.039 186.667 162.645 186.81 162.153 186.981C161.687 187.163 161.196 187.334 160.678 187.494C160.168 187.672 159.695 187.835 159.259 187.984C158.824 188.133 158.505 188.225 158.305 188.261L150.645 168.675ZM156.647 168.454C156.405 168.549 156.135 168.654 155.837 168.771C155.557 168.88 155.282 168.999 155.01 169.127C154.737 169.254 154.484 169.375 154.249 169.488C154.033 169.594 153.863 169.682 153.74 169.752L159.859 185.398C159.959 185.38 160.143 185.33 160.411 185.246C160.672 185.144 160.946 185.048 161.233 184.957C161.512 184.848 161.786 184.752 162.054 184.668C162.315 184.566 162.492 184.497 162.585 184.461C163.889 183.951 164.891 183.301 165.591 182.512C166.311 181.715 166.785 180.842 167.016 179.893C167.257 178.919 167.3 177.903 167.145 176.847C166.982 175.772 166.697 174.714 166.289 173.671C165.932 172.758 165.473 171.885 164.911 171.053C164.342 170.201 163.66 169.502 162.866 168.953C162.072 168.405 161.155 168.065 160.116 167.935C159.089 167.778 157.932 167.951 156.647 168.454Z" fill="black"/>
<g filter="url(#filter5_f_159_3130)">
<ellipse cx="154.69" cy="243.388" rx="26.1878" ry="24.4649" transform="rotate(-37.8586 154.69 243.388)" fill="#FCE308" fill-opacity="0.5"/>
</g>
<path d="M175.322 224.242C175.859 232.838 176.752 234.607 177.289 243.204C177.656 249.065 179.236 260.314 175.422 263.41C171.608 266.506 161.606 264.273 151.256 264.92C146.579 265.212 133.451 268.041 131.455 261.135C129.848 255.577 129.499 251.069 129.133 245.208C128.445 234.202 130.661 227.032 133.164 225.871C140.269 222.576 153.191 223.689 165.063 222.874C167.802 222.686 172.921 223.387 175.322 224.242ZM175.322 224.242C176.944 225.145 177.232 227.654 178.036 230.099C179.36 234.125 180.043 238.701 180.408 243.009M129.758 255.214C129.958 258.416 131.227 265.836 131.83 267.138C132.433 268.44 133.967 269.605 135.915 269.896C140.655 270.605 142.486 270.49 147.671 270.166C156.246 269.63 154.739 269.835 163.262 269.192C166.607 268.939 171.898 269.638 174.955 268.461C176.811 267.747 179.52 266.458 180.161 264.118C181.163 260.464 181.095 254.015 181.095 254.015C181.095 254.015 180.652 246.916 180.408 243.009M180.408 243.009C180.286 241.055 180.573 244.959 180.408 243.009Z" stroke="black" stroke-width="0.5"/>
<path d="M153.17 249.66L146.24 237H149.15L154.07 246.18L154.58 248.01H154.61L155.15 246.12L159.86 237H162.53L155.66 249.63V258H153.17V249.66Z" fill="black"/>
<g filter="url(#filter6_f_159_3130)">
<ellipse cx="241.36" cy="190.157" rx="26.1878" ry="24.4649" transform="rotate(-21.1447 241.36 190.157)" fill="#277DFF" fill-opacity="0.72"/>
</g>
<path d="M266.626 177.753C264.668 186.141 265.015 188.092 263.057 196.48C261.722 202.199 260 213.427 255.457 215.295C250.914 217.164 241.977 212.149 231.878 209.792C227.314 208.726 213.928 207.661 214.002 200.472C214.061 194.687 215.024 190.269 216.359 184.55C218.865 173.811 223.05 167.582 225.781 167.19C233.533 166.077 245.589 170.859 257.194 173.493C259.871 174.1 264.572 176.244 266.626 177.753ZM266.626 177.753C267.92 179.085 267.474 181.571 267.541 184.144C267.651 188.38 266.989 192.959 266.099 197.19M214.08 194.313C213.351 197.437 212.431 204.909 212.635 206.329C212.838 207.749 213.972 209.307 215.754 210.146C220.09 212.187 221.877 212.605 226.935 213.785C235.302 215.738 233.801 215.501 242.148 217.336C245.425 218.056 250.291 220.247 253.557 219.999C255.54 219.849 258.506 219.393 259.793 217.337C261.803 214.126 263.593 207.929 263.593 207.929C263.593 207.929 265.21 201.003 266.099 197.19M266.099 197.19C266.544 195.284 265.697 199.105 266.099 197.19Z" stroke="black" stroke-width="0.5"/>
<path d="M237.206 196.931L236.665 200.402L236.693 200.41L238.2 197.167L246.367 184.991L247.516 185.336L247.636 200.063L247.123 203.542L247.152 203.551L248.687 200.316L256.107 187.916L258.434 188.615L246.697 207.361L245.375 206.964L245.342 192.263L245.739 189.063L245.595 189.019L244.155 191.938L236.037 204.16L234.716 203.763L235.103 181.609L237.632 182.368L237.206 196.931Z" fill="black"/>
<g filter="url(#filter7_f_159_3130)">
<ellipse cx="99.6901" cy="212.388" rx="26.1878" ry="24.4649" transform="rotate(-18.8121 99.6901 212.388)" fill="#A6FEEE" fill-opacity="0.5"/>
</g>
<path d="M125.441 201.023C123.143 209.324 123.41 211.288 121.112 219.589C119.546 225.248 117.368 236.397 112.753 238.079C108.137 239.761 99.4121 234.387 89.4171 231.62C84.9006 230.37 71.5687 228.76 71.9352 221.58C72.2301 215.803 73.3717 211.428 74.9382 205.768C77.8798 195.14 82.3142 189.086 85.0589 188.805C92.8498 188.009 104.701 193.278 116.19 196.382C118.84 197.098 123.45 199.431 125.441 201.023ZM125.441 201.023C126.679 202.406 126.132 204.871 126.094 207.445C126.032 211.682 125.185 216.231 124.123 220.422M72.264 215.43C71.4082 218.522 70.1854 225.95 70.3306 227.378C70.4759 228.805 71.5454 230.407 73.2922 231.318C77.5414 233.534 79.3101 234.024 84.3162 235.409C92.5966 237.701 91.106 237.403 99.3715 239.576C102.617 240.43 107.389 242.816 110.663 242.702C112.65 242.632 115.632 242.297 117.002 240.295C119.141 237.169 121.182 231.05 121.182 231.05C121.182 231.05 123.079 224.195 124.123 220.422M124.123 220.422C124.645 218.535 123.643 222.319 124.123 220.422Z" stroke="black" stroke-width="0.5"/>
<path d="M102.105 227.76C101.388 227.999 100.565 228.053 99.6369 227.923C98.7085 227.793 97.7528 227.558 96.7698 227.219C95.5787 226.808 94.5319 226.224 93.6292 225.468C92.733 224.693 92.0409 223.756 91.553 222.657C91.065 221.557 90.8161 220.287 90.8062 218.844C90.8028 217.383 91.1079 215.764 91.7214 213.987C92.361 212.134 93.1485 210.65 94.0838 209.534C95.0446 208.406 96.0718 207.576 97.1654 207.044C98.2844 206.499 99.4196 206.214 100.571 206.188C101.722 206.162 102.827 206.332 103.886 206.698C105.02 207.089 105.924 207.475 106.597 207.856C107.276 208.217 107.835 208.59 108.273 208.974L106.992 210.848C106.234 210.1 105.014 209.436 103.332 208.855C102.557 208.587 101.742 208.465 100.888 208.487C100.034 208.51 99.1934 208.738 98.3665 209.172C97.5586 209.612 96.7955 210.291 96.0773 211.206C95.3592 212.122 94.739 213.336 94.2169 214.849C93.7469 216.21 93.5059 217.46 93.4938 218.598C93.4816 219.736 93.6511 220.747 94.0022 221.63C94.3722 222.519 94.8954 223.271 95.572 223.886C96.2674 224.507 97.0878 224.98 98.033 225.307C98.8837 225.6 99.6504 225.77 100.333 225.815C101.035 225.867 101.648 225.835 102.175 225.721L102.105 227.76Z" fill="black"/>
<g filter="url(#filter8_f_159_3130)">
<ellipse cx="51.6904" cy="141.388" rx="26.1878" ry="24.4649" transform="rotate(-37.8586 51.6904 141.388)" fill="#277DFF" fill-opacity="0.72"/>
</g>
<path d="M72.3221 122.242C72.8592 130.838 73.7523 132.607 74.2894 141.204C74.6557 147.065 76.2356 158.314 72.4217 161.41C68.6077 164.506 58.6064 162.273 48.2558 162.92C43.5786 163.212 30.4513 166.041 28.4546 159.135C26.8481 153.577 26.4995 149.069 26.1332 143.208C25.4454 132.202 27.6614 125.032 30.1643 123.871C37.2688 120.576 50.1911 121.689 62.063 120.874C64.8018 120.686 69.921 121.387 72.3221 122.242ZM72.3221 122.242C73.9437 123.145 74.2319 125.654 75.0359 128.099C76.3596 132.125 77.0431 136.701 77.4076 141.009M26.7583 153.214C26.9584 156.416 28.2267 163.836 28.8297 165.138C29.4328 166.44 30.9666 167.605 32.9151 167.896C37.6548 168.605 39.4865 168.49 44.6707 168.166C53.2457 167.63 51.7394 167.835 60.2616 167.192C63.6075 166.939 68.8979 167.638 71.9547 166.461C73.8107 165.747 76.5202 164.458 77.1615 162.118C78.163 158.464 78.0953 152.015 78.0953 152.015C78.0953 152.015 77.6518 144.916 77.4076 141.009M77.4076 141.009C77.2855 139.055 77.5726 142.959 77.4076 141.009Z" stroke="black" stroke-width="0.5"/>
<path d="M64.12 161.13C63.64 161.27 63.17 161.36 62.71 161.4C62.25 161.46 61.79 161.49 61.33 161.49C60.33 161.49 59.35 161.38 58.39 161.16C57.45 160.96 56.53 160.73 55.63 160.47C54.75 160.23 53.9 160 53.08 159.78C52.26 159.58 51.48 159.48 50.74 159.48C50.26 159.48 49.8 159.54 49.36 159.66V157.47C49.64 157.41 49.91 157.36 50.17 157.32C50.43 157.28 50.7 157.26 50.98 157.26C51.82 157.26 52.65 157.36 53.47 157.56C54.31 157.78 55.16 158.01 56.02 158.25C56.88 158.51 57.76 158.74 58.66 158.94C59.56 159.16 60.51 159.27 61.51 159.27C62.39 159.27 63.26 159.17 64.12 158.97V161.13ZM44.68 145.5C44.68 142 45.42 139.32 46.9 137.46C48.38 135.58 50.49 134.64 53.23 134.64C54.71 134.64 55.99 134.9 57.07 135.42C58.15 135.94 59.04 136.68 59.74 137.64C60.46 138.58 60.99 139.72 61.33 141.06C61.67 142.38 61.84 143.86 61.84 145.5C61.84 149 61.09 151.69 59.59 153.57C58.11 155.43 55.99 156.36 53.23 156.36C51.77 156.36 50.5 156.1 49.42 155.58C48.36 155.06 47.47 154.33 46.75 153.39C46.05 152.43 45.53 151.29 45.19 149.97C44.85 148.63 44.68 147.14 44.68 145.5ZM47.32 145.5C47.32 146.66 47.43 147.76 47.65 148.8C47.89 149.84 48.25 150.76 48.73 151.56C49.21 152.34 49.82 152.97 50.56 153.45C51.32 153.91 52.21 154.14 53.23 154.14C55.09 154.14 56.55 153.44 57.61 152.04C58.67 150.62 59.2 148.44 59.2 145.5C59.2 144.36 59.08 143.27 58.84 142.23C58.62 141.17 58.26 140.25 57.76 139.47C57.28 138.67 56.66 138.04 55.9 137.58C55.16 137.1 54.27 136.86 53.23 136.86C51.39 136.86 49.94 137.57 48.88 138.99C47.84 140.39 47.32 142.56 47.32 145.5Z" fill="black"/>
<g filter="url(#filter9_f_159_3130)">
<ellipse cx="37.6904" cy="204.388" rx="26.1878" ry="24.4649" transform="rotate(-37.8586 37.6904 204.388)" fill="#FF0000" fill-opacity="0.5"/>
</g>
<path d="M58.3221 185.242C58.8592 193.838 59.7523 195.607 60.2894 204.204C60.6557 210.065 62.2356 221.314 58.4217 224.41C54.6077 227.506 44.6064 225.273 34.2558 225.92C29.5786 226.212 16.4513 229.041 14.4546 222.135C12.8481 216.577 12.4995 212.069 12.1332 206.208C11.4454 195.202 13.6614 188.032 16.1643 186.871C23.2688 183.576 36.1911 184.689 48.063 183.874C50.8018 183.686 55.921 184.387 58.3221 185.242ZM58.3221 185.242C59.9437 186.145 60.2319 188.654 61.0359 191.099C62.3596 195.125 63.0431 199.701 63.4076 204.009M12.7583 216.214C12.9584 219.416 14.2267 226.836 14.8297 228.138C15.4328 229.44 16.9666 230.605 18.9151 230.896C23.6548 231.605 25.4865 231.49 30.6707 231.166C39.2457 230.63 37.7394 230.835 46.2616 230.192C49.6075 229.939 54.8979 230.638 57.9547 229.461C59.8107 228.747 62.5202 227.458 63.1615 225.118C64.163 221.464 64.0953 215.015 64.0953 215.015C64.0953 215.015 63.6518 207.916 63.4076 204.009M63.4076 204.009C63.2855 202.055 63.5726 205.959 63.4076 204.009Z" stroke="black" stroke-width="0.5"/>
<path d="M35.45 209.28H34.04V219H31.55V198H34.04V207.78L35.39 207.36L42.44 198H45.32L38.3 207.03L37.04 208.02L38.57 209.22L46.25 219H43.1L35.45 209.28Z" fill="black"/>
<g filter="url(#filter10_f_159_3130)">
<ellipse cx="108.69" cy="163.388" rx="26.1878" ry="24.4649" transform="rotate(-37.8586 108.69 163.388)" fill="#FCE308" fill-opacity="0.5"/>
</g>
<path d="M129.322 144.242C129.859 152.838 130.752 154.607 131.289 163.204C131.656 169.065 133.236 180.314 129.422 183.41C125.608 186.506 115.606 184.273 105.256 184.92C100.579 185.212 87.4513 188.041 85.4546 181.135C83.8481 175.577 83.4995 171.069 83.1332 165.208C82.4454 154.202 84.6614 147.032 87.1643 145.871C94.2688 142.576 107.191 143.689 119.063 142.874C121.802 142.686 126.921 143.387 129.322 144.242ZM129.322 144.242C130.944 145.145 131.232 147.654 132.036 150.099C133.36 154.125 134.043 158.701 134.408 163.009M83.7583 175.214C83.9584 178.416 85.2267 185.836 85.8297 187.138C86.4328 188.44 87.9666 189.605 89.9151 189.896C94.6548 190.605 96.4865 190.49 101.671 190.166C110.246 189.63 108.739 189.835 117.262 189.192C120.607 188.939 125.898 189.638 128.955 188.461C130.811 187.747 133.52 186.458 134.161 184.118C135.163 180.464 135.095 174.015 135.095 174.015C135.095 174.015 134.652 166.916 134.408 163.009M134.408 163.009C134.286 161.055 134.573 164.959 134.408 163.009Z" stroke="black" stroke-width="0.5"/>
<path d="M115.12 168.37H105.04V178H102.55V157H105.04V166.15H115.12V157H117.61V178H115.12V168.37Z" fill="black"/>
<g filter="url(#filter11_f_159_3130)">
<ellipse cx="345.69" cy="79.3875" rx="26.1878" ry="24.4649" transform="rotate(-37.8586 345.69 79.3875)" fill="#A6FEEE" fill-opacity="0.5"/>
</g>
<path d="M366.322 60.2417C366.859 68.838 367.752 70.6072 368.289 79.2036C368.656 85.0648 370.236 96.3139 366.422 99.4098C362.608 102.506 352.606 100.273 342.256 100.92C337.579 101.212 324.451 104.041 322.455 97.1346C320.848 91.5773 320.499 87.0693 320.133 81.2081C319.445 70.202 321.661 63.0321 324.164 61.8713C331.269 58.5763 344.191 59.6891 356.063 58.8737C358.802 58.6856 363.921 59.3872 366.322 60.2417ZM366.322 60.2417C367.944 61.1448 368.232 63.654 369.036 66.0989C370.36 70.1246 371.043 74.7005 371.408 79.0088M320.758 91.2138C320.958 94.4156 322.227 101.836 322.83 103.138C323.433 104.44 324.967 105.605 326.915 105.896C331.655 106.605 333.486 106.49 338.671 106.166C347.246 105.63 345.739 105.835 354.262 105.192C357.607 104.939 362.898 105.638 365.955 104.461C367.811 103.747 370.52 102.458 371.161 100.118C372.163 96.4645 372.095 90.0151 372.095 90.0151C372.095 90.0151 371.652 82.9163 371.408 79.0088M371.408 79.0088C371.286 77.0551 371.573 80.9591 371.408 79.0088Z" stroke="black" stroke-width="0.5"/>
<path d="M339.55 73.21C340.31 73.03 341.13 72.91 342.01 72.85C342.89 72.79 343.76 72.76 344.62 72.76C345.54 72.76 346.47 72.85 347.41 73.03C348.37 73.21 349.24 73.54 350.02 74.02C350.8 74.5 351.43 75.16 351.91 76C352.41 76.84 352.66 77.91 352.66 79.21C352.66 80.49 352.43 81.57 351.97 82.45C351.51 83.33 350.9 84.05 350.14 84.61C349.38 85.15 348.51 85.54 347.53 85.78C346.55 86.02 345.54 86.14 344.5 86.14C344.4 86.14 344.23 86.14 343.99 86.14C343.77 86.14 343.53 86.14 343.27 86.14C343.03 86.12 342.79 86.1 342.55 86.08C342.31 86.06 342.14 86.04 342.04 86.02V94H339.55V73.21ZM344.68 74.92C344.16 74.92 343.66 74.93 343.18 74.95C342.7 74.97 342.32 75.02 342.04 75.1V83.8C342.14 83.84 342.3 83.87 342.52 83.89C342.74 83.89 342.97 83.9 343.21 83.92C343.45 83.92 343.68 83.92 343.9 83.92C344.12 83.92 344.28 83.92 344.38 83.92C345.06 83.92 345.73 83.86 346.39 83.74C347.07 83.6 347.68 83.36 348.22 83.02C348.76 82.68 349.19 82.2 349.51 81.58C349.85 80.96 350.02 80.17 350.02 79.21C350.02 78.39 349.86 77.71 349.54 77.17C349.24 76.61 348.83 76.17 348.31 75.85C347.81 75.51 347.24 75.27 346.6 75.13C345.96 74.99 345.32 74.92 344.68 74.92Z" fill="black"/>
<g filter="url(#filter12_f_159_3130)">
<ellipse cx="385.691" cy="146.388" rx="26.1878" ry="24.4649" transform="rotate(-48.2126 385.691 146.388)" fill="#FF0000" fill-opacity="0.5"/>
</g>
<path d="M402.545 123.845C404.619 132.205 405.815 133.785 407.889 142.145C409.302 147.845 412.878 158.627 409.683 162.358C406.488 166.089 396.248 165.69 386.182 168.186C381.633 169.315 369.228 174.457 366.023 168.022C363.444 162.844 362.291 158.472 360.877 152.772C358.222 142.069 359.113 134.617 361.367 133.025C367.764 128.507 380.675 127.279 392.207 124.344C394.868 123.666 400.03 123.436 402.545 123.845ZM402.545 123.845C404.303 124.442 405.037 126.859 406.268 129.119C408.293 132.842 409.788 137.22 410.921 141.393M363.29 162.502C364.062 165.616 366.644 172.688 367.471 173.86C368.298 175.032 370.016 175.903 371.985 175.839C376.775 175.684 378.557 175.242 383.598 173.992C391.937 171.923 390.492 172.396 398.76 170.231C402.006 169.382 407.336 169.118 410.132 167.411C411.829 166.375 414.263 164.619 414.473 162.203C414.801 158.429 413.576 152.096 413.576 152.096C413.576 152.096 411.864 145.193 410.921 141.393M410.921 141.393C410.45 139.493 411.434 143.282 410.921 141.393Z" stroke="black" stroke-width="0.5"/>
<path d="M379.533 151.693C378.904 148.25 379.151 145.481 380.272 143.385C381.39 141.27 383.297 139.966 385.992 139.473C387.448 139.207 388.754 139.233 389.91 139.55C391.066 139.868 392.074 140.436 392.935 141.254C393.813 142.05 394.539 143.076 395.114 144.333C395.686 145.57 396.119 146.996 396.414 148.609C397.043 152.052 396.789 154.833 395.651 156.952C394.529 159.048 392.611 160.343 389.896 160.84C388.46 161.102 387.164 161.074 386.008 160.757C384.872 160.436 383.865 159.878 382.988 159.083C382.127 158.264 381.41 157.236 380.838 155.999C380.263 154.742 379.828 153.306 379.533 151.693ZM382.13 151.219C382.339 152.36 382.645 153.422 383.048 154.405C383.471 155.385 383.991 156.226 384.607 156.926C385.219 157.607 385.932 158.118 386.746 158.457C387.577 158.773 388.494 158.839 389.497 158.656C391.327 158.321 392.637 157.37 393.428 155.803C394.216 154.215 394.345 151.975 393.817 149.083C393.612 147.962 393.298 146.911 392.875 145.931C392.468 144.928 391.949 144.088 391.317 143.41C390.701 142.71 389.978 142.201 389.147 141.885C388.333 141.546 387.414 141.47 386.391 141.657C384.581 141.988 383.282 142.947 382.495 144.534C381.724 146.098 381.602 148.326 382.13 151.219Z" fill="black"/>
<g filter="url(#filter13_f_159_3130)">
<ellipse cx="367.69" cy="204.388" rx="26.1878" ry="24.4649" transform="rotate(-46.423 367.69 204.388)" fill="#277DFF" fill-opacity="0.72"/>
</g>
<path d="M385.241 182.383C387.052 190.803 388.199 192.42 390.01 200.84C391.245 206.582 394.482 217.47 391.172 221.099C387.862 224.729 377.639 224.01 367.5 226.191C362.919 227.177 350.359 231.929 347.356 225.397C344.94 220.141 343.924 215.735 342.689 209.994C340.37 199.213 341.493 191.793 343.796 190.272C350.33 185.956 363.274 185.132 374.892 182.558C377.572 181.964 382.739 181.895 385.241 182.383ZM385.241 182.383C386.979 183.034 387.637 185.473 388.796 187.771C390.705 191.554 392.062 195.977 393.064 200.183M344.797 219.795C345.472 222.931 347.831 230.08 348.621 231.278C349.412 232.475 351.102 233.399 353.072 233.397C357.864 233.391 359.658 233.005 364.737 231.913C373.136 230.106 371.677 230.533 380.009 228.628C383.28 227.88 388.615 227.783 391.463 226.164C393.191 225.181 395.679 223.503 395.964 221.094C396.411 217.332 395.383 210.964 395.383 210.964C395.383 210.964 393.888 204.011 393.064 200.183M393.064 200.183C392.653 198.269 393.518 202.087 393.064 200.183Z" stroke="black" stroke-width="0.5"/>
<path d="M362.065 217.737L370.254 201L371.321 199.626L359.603 201.391L359.273 199.196L373.216 197.096L373.551 199.321L365.316 216.155L364.235 217.44L376.012 215.666L376.343 217.862L362.4 219.961L362.065 217.737Z" fill="black"/>
<g filter="url(#filter14_f_159_3130)">
<ellipse cx="213.691" cy="233.388" rx="26.1878" ry="24.4649" transform="rotate(-23.3893 213.691 233.388)" fill="#A6FEEE" fill-opacity="0.5"/>
</g>
<path d="M238.452 220.004C236.824 228.462 237.246 230.398 235.619 238.856C234.509 244.623 233.228 255.91 228.761 257.955C224.295 259.999 215.169 255.339 204.985 253.379C200.383 252.493 186.965 251.952 186.757 244.766C186.59 238.984 187.379 234.531 188.489 228.765C190.573 217.936 194.51 211.547 197.224 211.048C204.926 209.633 217.161 213.939 228.86 216.116C231.559 216.618 236.34 218.577 238.452 220.004ZM238.452 220.004C239.796 221.284 239.448 223.785 239.616 226.354C239.892 230.582 239.41 235.184 238.687 239.447M186.594 238.609C185.988 241.759 185.362 249.262 185.621 250.673C185.879 252.084 187.073 253.595 188.887 254.364C193.3 256.234 195.102 256.581 200.202 257.563C208.639 259.187 207.13 259.008 215.542 260.515C218.845 261.107 223.793 263.105 227.047 262.729C229.023 262.501 231.968 261.93 233.174 259.825C235.056 256.537 236.602 250.276 236.602 250.276C236.602 250.276 237.947 243.291 238.687 239.447M238.687 239.447C239.056 237.524 238.359 241.376 238.687 239.447Z" stroke="black" stroke-width="0.5"/>
<path d="M216.12 249.106L204.094 246.002L209.341 225.668L211.752 226.291L207.059 244.475L216.674 246.956L216.12 249.106Z" fill="black"/>
<g filter="url(#filter15_f_159_3130)">
<ellipse cx="274.69" cy="243.388" rx="26.1878" ry="24.4649" transform="rotate(-37.8586 274.69 243.388)" fill="#FF0000" fill-opacity="0.5"/>
</g>
<path d="M295.322 224.242C295.859 232.838 296.752 234.607 297.289 243.204C297.656 249.065 299.236 260.314 295.422 263.41C291.608 266.506 281.606 264.273 271.256 264.92C266.579 265.212 253.451 268.041 251.455 261.135C249.848 255.577 249.499 251.069 249.133 245.208C248.445 234.202 250.661 227.032 253.164 225.871C260.269 222.576 273.191 223.689 285.063 222.874C287.802 222.686 292.921 223.387 295.322 224.242ZM295.322 224.242C296.944 225.145 297.232 227.654 298.036 230.099C299.36 234.125 300.043 238.701 300.408 243.009M249.758 255.214C249.958 258.416 251.227 265.836 251.83 267.138C252.433 268.44 253.967 269.605 255.915 269.896C260.655 270.605 262.486 270.49 267.671 270.166C276.246 269.63 274.739 269.835 283.262 269.192C286.607 268.939 291.898 269.638 294.955 268.461C296.811 267.747 299.52 266.458 300.161 264.118C301.163 260.464 301.095 254.015 301.095 254.015C301.095 254.015 300.652 246.916 300.408 243.009M300.408 243.009C300.286 241.055 300.573 244.959 300.408 243.009Z" stroke="black" stroke-width="0.5"/>
<path d="M268.55 237H279.98V239.22H271.04V246.09H279.23V248.31H271.04V255.78H280.13V258H268.55V237Z" fill="black"/>
<g filter="url(#filter16_f_159_3130)">
<ellipse cx="341.69" cy="261.388" rx="26.1878" ry="24.4649" transform="rotate(-20.3738 341.69 261.388)" fill="#FCE308" fill-opacity="0.5"/>
</g>
<path d="M367.121 249.325C365.051 257.686 365.371 259.641 363.3 268.002C361.889 273.702 360.016 284.907 355.448 286.713C350.88 288.52 342.012 283.386 331.945 280.893C327.396 279.766 314.025 278.521 314.196 271.333C314.333 265.55 315.355 261.146 316.767 255.445C319.418 244.741 323.685 238.568 326.422 238.213C334.188 237.205 346.179 242.149 357.747 244.938C360.416 245.581 365.088 247.789 367.121 249.325ZM367.121 249.325C368.396 250.674 367.917 253.154 367.95 255.727C368.003 259.965 367.28 264.534 366.333 268.753M314.357 265.176C313.586 268.29 312.566 275.749 312.75 277.172C312.934 278.595 314.047 280.167 315.818 281.03C320.126 283.13 321.907 283.571 326.949 284.82C335.289 286.885 333.791 286.628 342.112 288.575C345.38 289.339 350.216 291.595 353.485 291.391C355.47 291.268 358.441 290.852 359.756 288.813C361.809 285.629 363.682 279.457 363.682 279.457C363.682 279.457 365.392 272.553 366.333 268.753M366.333 268.753C366.804 266.853 365.904 270.663 366.333 268.753Z" stroke="black" stroke-width="0.5"/>
<path d="M337.753 253.45L348.655 256.884L347.988 259.002L339.461 256.316L337.307 263.154L345.261 265.66L344.594 267.778L336.64 265.272L333.818 274.228L331.443 273.48L337.753 253.45Z" fill="black"/>
<g filter="url(#filter17_f_159_3130)">
<ellipse cx="151.69" cy="112.388" rx="26.1878" ry="24.4649" transform="rotate(-37.8586 151.69 112.388)" fill="#0066FF" fill-opacity="0.5"/>
</g>
<path d="M172.322 93.2417C172.859 101.838 173.752 103.607 174.289 112.204C174.656 118.065 176.236 129.314 172.422 132.41C168.608 135.506 158.606 133.273 148.256 133.92C143.579 134.212 130.451 137.041 128.455 130.135C126.848 124.577 126.499 120.069 126.133 114.208C125.445 103.202 127.661 96.0321 130.164 94.8713C137.269 91.5763 150.191 92.6891 162.063 91.8737C164.802 91.6856 169.921 92.3872 172.322 93.2417ZM172.322 93.2417C173.944 94.1448 174.232 96.654 175.036 99.0989C176.36 103.125 177.043 107.701 177.408 112.009M126.758 124.214C126.958 127.416 128.227 134.836 128.83 136.138C129.433 137.44 130.967 138.605 132.915 138.896C137.655 139.605 139.486 139.49 144.671 139.166C153.246 138.63 151.739 138.835 160.262 138.192C163.607 137.939 168.898 138.638 171.955 137.461C173.811 136.747 176.52 135.458 177.161 133.118C178.163 129.464 178.095 123.015 178.095 123.015C178.095 123.015 177.652 115.916 177.408 112.009M177.408 112.009C177.286 110.055 177.573 113.959 177.408 112.009Z" stroke="black" stroke-width="0.5"/>
<path d="M150.77 116.32L144.38 106H147.38L151.64 113.11L152.39 114.82L153.11 113.11L157.61 106H160.37L153.77 116.11L160.67 127H157.76L153.02 119.47L152.21 117.67L151.43 119.47L146.57 127H143.78L150.77 116.32Z" fill="black"/>
<g filter="url(#filter18_f_159_3130)">
<ellipse cx="319.511" cy="202.31" rx="26.1878" ry="24.4649" transform="rotate(-20.776 319.511 202.31)" fill="#6AA5FF" fill-opacity="0.5"/>
</g>
<path d="M344.856 190.07C342.844 198.445 343.178 200.398 341.167 208.773C339.795 214.483 338.001 225.7 333.446 227.539C328.891 229.378 319.986 224.306 309.902 221.884C305.346 220.789 291.967 219.637 292.087 212.449C292.184 206.665 293.175 202.253 294.546 196.543C297.122 185.821 301.346 179.618 304.08 179.244C311.839 178.181 323.864 183.041 335.452 185.749C338.125 186.373 342.812 188.548 344.856 190.07ZM344.856 190.07C346.141 191.409 345.679 193.892 345.73 196.466C345.812 200.703 345.122 205.277 344.204 209.503M292.205 206.291C291.455 209.41 290.488 216.876 290.682 218.298C290.876 219.719 292 221.284 293.777 222.134C298.099 224.204 299.884 224.632 304.934 225.846C313.288 227.852 311.789 227.605 320.124 229.494C323.396 230.236 328.248 232.457 331.516 232.231C333.499 232.093 336.468 231.656 337.768 229.609C339.799 226.41 341.629 220.225 341.629 220.225C341.629 220.225 343.29 213.31 344.204 209.503M344.204 209.503C344.662 207.599 343.789 211.415 344.204 209.503Z" stroke="black" stroke-width="0.5"/>
<path d="M315.932 206.329L314.584 205.915L311.729 215.206L309.349 214.474L315.518 194.401L317.898 195.132L315.025 204.481L316.439 204.476L325.927 197.6L328.68 198.446L319.317 205.015L317.822 205.591L318.932 207.188L323.4 218.793L320.389 217.867L315.932 206.329Z" fill="black"/>
<g filter="url(#filter19_f_159_3130)">
<ellipse cx="331.69" cy="140.388" rx="26.1878" ry="24.4649" transform="rotate(-37.8586 331.69 140.388)" fill="#FCE308" fill-opacity="0.5"/>
</g>
<path d="M352.322 121.242C352.859 129.838 353.752 131.607 354.289 140.204C354.656 146.065 356.236 157.314 352.422 160.41C348.608 163.506 338.606 161.273 328.256 161.92C323.579 162.212 310.451 165.041 308.455 158.135C306.848 152.577 306.499 148.069 306.133 142.208C305.445 131.202 307.661 124.032 310.164 122.871C317.269 119.576 330.191 120.689 342.063 119.874C344.802 119.686 349.921 120.387 352.322 121.242ZM352.322 121.242C353.944 122.145 354.232 124.654 355.036 127.099C356.36 131.125 357.043 135.701 357.408 140.009M306.758 152.214C306.958 155.416 308.227 162.836 308.83 164.138C309.433 165.44 310.967 166.605 312.915 166.896C317.655 167.605 319.486 167.49 324.671 167.166C333.246 166.63 331.739 166.835 340.262 166.192C343.607 165.939 348.898 166.638 351.955 165.461C353.811 164.747 356.52 163.458 357.161 161.118C358.163 157.464 358.095 151.015 358.095 151.015C358.095 151.015 357.652 143.916 357.408 140.009M357.408 140.009C357.286 138.055 357.573 141.959 357.408 140.009Z" stroke="black" stroke-width="0.5"/>
<path d="M335.03 149.66C335.03 148.82 334.78 148.14 334.28 147.62C333.78 147.08 333.15 146.61 332.39 146.21C331.65 145.79 330.84 145.4 329.96 145.04C329.08 144.68 328.26 144.25 327.5 143.75C326.76 143.23 326.14 142.6 325.64 141.86C325.14 141.1 324.89 140.14 324.89 138.98C324.89 137.34 325.46 136.04 326.6 135.08C327.74 134.12 329.36 133.64 331.46 133.64C332.68 133.64 333.79 133.73 334.79 133.91C335.79 134.09 336.57 134.32 337.13 134.6L336.38 136.79C335.92 136.57 335.24 136.36 334.34 136.16C333.46 135.96 332.46 135.86 331.34 135.86C330.02 135.86 329.03 136.16 328.37 136.76C327.71 137.34 327.38 138.03 327.38 138.83C327.38 139.61 327.63 140.26 328.13 140.78C328.63 141.3 329.25 141.77 329.99 142.19C330.75 142.59 331.57 142.99 332.45 143.39C333.33 143.79 334.14 144.26 334.88 144.8C335.64 145.32 336.27 145.95 336.77 146.69C337.27 147.43 337.52 148.35 337.52 149.45C337.52 150.35 337.36 151.16 337.04 151.88C336.72 152.6 336.25 153.22 335.63 153.74C335.01 154.26 334.26 154.66 333.38 154.94C332.5 155.22 331.5 155.36 330.38 155.36C328.88 155.36 327.64 155.24 326.66 155C325.68 154.78 324.92 154.53 324.38 154.25L325.22 152C325.68 152.26 326.36 152.52 327.26 152.78C328.16 153.02 329.17 153.14 330.29 153.14C330.95 153.14 331.57 153.08 332.15 152.96C332.73 152.82 333.23 152.61 333.65 152.33C334.07 152.03 334.4 151.66 334.64 151.22C334.9 150.78 335.03 150.26 335.03 149.66Z" fill="black"/>
<g filter="url(#filter20_f_159_3130)">
<ellipse cx="96.6904" cy="85.3875" rx="26.1878" ry="24.4649" transform="rotate(-37.8586 96.6904 85.3875)" fill="#FF0000" fill-opacity="0.5"/>
</g>
<path d="M117.322 66.2417C117.859 74.838 118.752 76.6072 119.289 85.2036C119.656 91.0648 121.236 102.314 117.422 105.41C113.608 108.506 103.606 106.273 93.2558 106.92C88.5786 107.212 75.4513 110.041 73.4546 103.135C71.8481 97.5773 71.4995 93.0693 71.1332 87.2081C70.4454 76.202 72.6614 69.0321 75.1643 67.8713C82.2688 64.5763 95.1911 65.6891 107.063 64.8737C109.802 64.6856 114.921 65.3872 117.322 66.2417ZM117.322 66.2417C118.944 67.1448 119.232 69.654 120.036 72.0989C121.36 76.1246 122.043 80.7005 122.408 85.0088M71.7583 97.2138C71.9584 100.416 73.2267 107.836 73.8297 109.138C74.4328 110.44 75.9666 111.605 77.9151 111.896C82.6548 112.605 84.4865 112.49 89.6707 112.166C98.2457 111.63 96.7394 111.835 105.262 111.192C108.607 110.939 113.898 111.638 116.955 110.461C118.811 109.747 121.52 108.458 122.161 106.118C123.163 102.464 123.095 96.0151 123.095 96.0151C123.095 96.0151 122.652 88.9163 122.408 85.0088M122.408 85.0088C122.286 83.0551 122.573 86.9591 122.408 85.0088Z" stroke="black" stroke-width="0.5"/>
<path d="M96.3088 90.6285L97.0288 93.8085H97.0588L97.8388 90.5685L102.909 76.1985H105.399L97.4488 97.5285H96.3388L88.2388 76.1985H90.9688L96.3088 90.6285Z" fill="black"/>
<defs>
<filter id="filter0_f_159_3130" x="125.485" y="10.9239" width="76.2456" height="73.0893" filterUnits="userSpaceOnUse" color-interpolation-filters="sRGB">
<feFlood flood-opacity="0" result="BackgroundImageFix"/>
<feBlend mode="normal" in="SourceGraphic" in2="BackgroundImageFix" result="shape"/>
<feGaussianBlur stdDeviation="6" result="effect1_foregroundBlur_159_3130"/>
</filter>
<filter id="filter1_f_159_3130" x="171.136" y="100.259" width="75.1084" height="74.2566" filterUnits="userSpaceOnUse" color-interpolation-filters="sRGB">
<feFlood flood-opacity="0" result="BackgroundImageFix"/>
<feBlend mode="normal" in="SourceGraphic" in2="BackgroundImageFix" result="shape"/>
<feGaussianBlur stdDeviation="6" result="effect1_foregroundBlur_159_3130"/>
</filter>
<filter id="filter2_f_159_3130" x="168.76" y="37.6342" width="73.8594" height="75.5067" filterUnits="userSpaceOnUse" color-interpolation-filters="sRGB">
<feFlood flood-opacity="0" result="BackgroundImageFix"/>
<feBlend mode="normal" in="SourceGraphic" in2="BackgroundImageFix" result="shape"/>
<feGaussianBlur stdDeviation="6" result="effect1_foregroundBlur_159_3130"/>
</filter>
<filter id="filter3_f_159_3130" x="233.92" y="48.1757" width="76.1055" height="73.245" filterUnits="userSpaceOnUse" color-interpolation-filters="sRGB">
<feFlood flood-opacity="0" result="BackgroundImageFix"/>
<feBlend mode="normal" in="SourceGraphic" in2="BackgroundImageFix" result="shape"/>
<feGaussianBlur stdDeviation="6" result="effect1_foregroundBlur_159_3130"/>
</filter>
<filter id="filter4_f_159_3130" x="121.76" y="134.635" width="73.8618" height="75.5046" filterUnits="userSpaceOnUse" color-interpolation-filters="sRGB">
<feFlood flood-opacity="0" result="BackgroundImageFix"/>
<feBlend mode="normal" in="SourceGraphic" in2="BackgroundImageFix" result="shape"/>
<feGaussianBlur stdDeviation="6" result="effect1_foregroundBlur_159_3130"/>
</filter>
<filter id="filter5_f_159_3130" x="117.136" y="206.259" width="75.1084" height="74.2566" filterUnits="userSpaceOnUse" color-interpolation-filters="sRGB">
<feFlood flood-opacity="0" result="BackgroundImageFix"/>
<feBlend mode="normal" in="SourceGraphic" in2="BackgroundImageFix" result="shape"/>
<feGaussianBlur stdDeviation="6" result="effect1_foregroundBlur_159_3130"/>
</filter>
<filter id="filter6_f_159_3130" x="203.383" y="153.454" width="75.9541" height="73.4047" filterUnits="userSpaceOnUse" color-interpolation-filters="sRGB">
<feFlood flood-opacity="0" result="BackgroundImageFix"/>
<feBlend mode="normal" in="SourceGraphic" in2="BackgroundImageFix" result="shape"/>
<feGaussianBlur stdDeviation="6" result="effect1_foregroundBlur_159_3130"/>
</filter>
<filter id="filter7_f_159_3130" x="61.6694" y="175.731" width="76.0415" height="73.3127" filterUnits="userSpaceOnUse" color-interpolation-filters="sRGB">
<feFlood flood-opacity="0" result="BackgroundImageFix"/>
<feBlend mode="normal" in="SourceGraphic" in2="BackgroundImageFix" result="shape"/>
<feGaussianBlur stdDeviation="6" result="effect1_foregroundBlur_159_3130"/>
</filter>
<filter id="filter8_f_159_3130" x="14.1362" y="104.259" width="75.1084" height="74.2566" filterUnits="userSpaceOnUse" color-interpolation-filters="sRGB">
<feFlood flood-opacity="0" result="BackgroundImageFix"/>
<feBlend mode="normal" in="SourceGraphic" in2="BackgroundImageFix" result="shape"/>
<feGaussianBlur stdDeviation="6" result="effect1_foregroundBlur_159_3130"/>
</filter>
<filter id="filter9_f_159_3130" x="0.13623" y="167.259" width="75.1084" height="74.2566" filterUnits="userSpaceOnUse" color-interpolation-filters="sRGB">
<feFlood flood-opacity="0" result="BackgroundImageFix"/>
<feBlend mode="normal" in="SourceGraphic" in2="BackgroundImageFix" result="shape"/>
<feGaussianBlur stdDeviation="6" result="effect1_foregroundBlur_159_3130"/>
</filter>
<filter id="filter10_f_159_3130" x="71.1362" y="126.259" width="75.1084" height="74.2566" filterUnits="userSpaceOnUse" color-interpolation-filters="sRGB">
<feFlood flood-opacity="0" result="BackgroundImageFix"/>
<feBlend mode="normal" in="SourceGraphic" in2="BackgroundImageFix" result="shape"/>
<feGaussianBlur stdDeviation="6" result="effect1_foregroundBlur_159_3130"/>
</filter>
<filter id="filter11_f_159_3130" x="308.136" y="42.2592" width="75.1084" height="74.2566" filterUnits="userSpaceOnUse" color-interpolation-filters="sRGB">
<feFlood flood-opacity="0" result="BackgroundImageFix"/>
<feBlend mode="normal" in="SourceGraphic" in2="BackgroundImageFix" result="shape"/>
<feGaussianBlur stdDeviation="6" result="effect1_foregroundBlur_159_3130"/>
</filter>
<filter id="filter12_f_159_3130" x="348.446" y="108.95" width="74.4888" height="74.8755" filterUnits="userSpaceOnUse" color-interpolation-filters="sRGB">
<feFlood flood-opacity="0" result="BackgroundImageFix"/>
<feBlend mode="normal" in="SourceGraphic" in2="BackgroundImageFix" result="shape"/>
<feGaussianBlur stdDeviation="6" result="effect1_foregroundBlur_159_3130"/>
</filter>
<filter id="filter13_f_159_3130" x="330.392" y="167.004" width="74.5962" height="74.7679" filterUnits="userSpaceOnUse" color-interpolation-filters="sRGB">
<feFlood flood-opacity="0" result="BackgroundImageFix"/>
<feBlend mode="normal" in="SourceGraphic" in2="BackgroundImageFix" result="shape"/>
<feGaussianBlur stdDeviation="6" result="effect1_foregroundBlur_159_3130"/>
</filter>
<filter id="filter14_f_159_3130" x="175.76" y="196.637" width="75.8618" height="73.5006" filterUnits="userSpaceOnUse" color-interpolation-filters="sRGB">
<feFlood flood-opacity="0" result="BackgroundImageFix"/>
<feBlend mode="normal" in="SourceGraphic" in2="BackgroundImageFix" result="shape"/>
<feGaussianBlur stdDeviation="6" result="effect1_foregroundBlur_159_3130"/>
</filter>
<filter id="filter15_f_159_3130" x="237.136" y="206.259" width="75.1084" height="74.2566" filterUnits="userSpaceOnUse" color-interpolation-filters="sRGB">
<feFlood flood-opacity="0" result="BackgroundImageFix"/>
<feBlend mode="normal" in="SourceGraphic" in2="BackgroundImageFix" result="shape"/>
<feGaussianBlur stdDeviation="6" result="effect1_foregroundBlur_159_3130"/>
</filter>
<filter id="filter16_f_159_3130" x="303.698" y="224.701" width="75.9844" height="73.3734" filterUnits="userSpaceOnUse" color-interpolation-filters="sRGB">
<feFlood flood-opacity="0" result="BackgroundImageFix"/>
<feBlend mode="normal" in="SourceGraphic" in2="BackgroundImageFix" result="shape"/>
<feGaussianBlur stdDeviation="6" result="effect1_foregroundBlur_159_3130"/>
</filter>
<filter id="filter17_f_159_3130" x="114.136" y="75.2592" width="75.1084" height="74.2566" filterUnits="userSpaceOnUse" color-interpolation-filters="sRGB">
<feFlood flood-opacity="0" result="BackgroundImageFix"/>
<feBlend mode="normal" in="SourceGraphic" in2="BackgroundImageFix" result="shape"/>
<feGaussianBlur stdDeviation="6" result="effect1_foregroundBlur_159_3130"/>
</filter>
<filter id="filter18_f_159_3130" x="281.526" y="165.616" width="75.9688" height="73.3896" filterUnits="userSpaceOnUse" color-interpolation-filters="sRGB">
<feFlood flood-opacity="0" result="BackgroundImageFix"/>
<feBlend mode="normal" in="SourceGraphic" in2="BackgroundImageFix" result="shape"/>
<feGaussianBlur stdDeviation="6" result="effect1_foregroundBlur_159_3130"/>
</filter>
<filter id="filter19_f_159_3130" x="294.136" y="103.259" width="75.1084" height="74.2566" filterUnits="userSpaceOnUse" color-interpolation-filters="sRGB">
<feFlood flood-opacity="0" result="BackgroundImageFix"/>
<feBlend mode="normal" in="SourceGraphic" in2="BackgroundImageFix" result="shape"/>
<feGaussianBlur stdDeviation="6" result="effect1_foregroundBlur_159_3130"/>
</filter>
<filter id="filter20_f_159_3130" x="59.1362" y="48.2592" width="75.1084" height="74.2566" filterUnits="userSpaceOnUse" color-interpolation-filters="sRGB">
<feFlood flood-opacity="0" result="BackgroundImageFix"/>
<feBlend mode="normal" in="SourceGraphic" in2="BackgroundImageFix" result="shape"/>
<feGaussianBlur stdDeviation="6" result="effect1_foregroundBlur_159_3130"/>
</filter>
</defs>
</svg>
