<svg width="52" height="30" viewBox="0 0 52 30" fill="none" xmlns="http://www.w3.org/2000/svg">
<g id="Flash-drive-2">
<path id="Vector 137" d="M26.5498 10.627L26.5498 11.1953L26.6907 11.6214C26.8315 11.9056 26.8326 11.9782 26.9723 12.1897C27.254 12.6159 27.9209 13.0943 28.099 13.1841C28.3807 13.3262 29.3666 13.7523 29.6482 13.7523C29.9299 13.7523 31.1975 13.6103 31.9016 13.3262C32.2939 13.1679 32.7467 12.9 33.1692 12.7579C33.6509 12.5959 34.0142 12.3317 34.7184 12.0476C35.4987 11.7328 36.6798 11.2461 36.8309 11.1953C37.2535 11.0532 38.521 10.485 38.8027 10.3429C39.0843 10.2008 39.9294 9.91673 40.211 9.77467C40.4927 9.63261 41.0561 9.06437 41.0561 8.78025C41.0561 8.49613 41.0561 8.21201 40.9152 7.92789C40.8648 7.82624 40.258 7.12288 39.9294 6.79141C39.9294 6.79141 39.1431 6.05149 38.521 5.79699C38.0012 5.58437 37.1126 5.51287 37.1126 5.51287C36.6901 5.51287 36.2676 5.51287 35.7042 5.65493C35.511 5.70366 34.7184 6.08111 34.4367 6.22317C34.3107 6.2867 33.4508 6.64935 33.1692 6.79141C33.0267 6.86329 32.0425 7.3123 31.4791 7.50171L30.3524 7.92789L28.099 8.92231C27.7704 9.11172 27.254 9.34849 26.9723 9.63261C26.8927 9.71297 26.8315 9.86937 26.6907 10.0588C26.5498 10.3429 26.5498 10.3997 26.5498 10.627Z" stroke="#F18200" stroke-width="0.5"/>
<path id="Vector 138" d="M26.8315 10.627C26.8315 10.627 27.2361 10.1668 27.5357 9.91672C28.1613 9.39447 29.3666 8.9223 29.3666 8.9223C29.8361 8.73289 30.6681 8.39 30.775 8.35406C31.1975 8.212 31.9017 7.97523 32.3242 7.78582C32.7113 7.6123 33.3664 7.33123 33.5917 7.21758C33.8171 7.10393 34.7184 6.64934 35.8451 6.36522H36.6901C37.5352 6.36522 38.3785 6.71953 38.521 6.7914C38.8027 6.93346 39.7302 7.58492 39.9294 7.78582C40.2111 8.06994 40.3519 8.49612 40.3519 8.78024C40.3519 8.9223 40.0702 9.34848 39.9294 9.49054C39.8167 9.60419 39.5069 9.82201 39.366 9.91672L38.2393 10.627" stroke="#F18200" stroke-width="0.5"/>
<path id="Vector 139" d="M26.8312 10.7691C26.7374 11.0532 26.8312 11.1953 26.9721 11.4794C26.9721 11.4794 27.0244 11.6345 27.1129 11.7635C27.2015 11.8925 27.2846 12.0787 27.3946 12.1897L27.8171 12.6159C28.0988 12.9 28.9156 13.3546 29.3663 13.4682C29.9297 13.6103 30.1589 13.659 30.3522 13.6103C30.9155 13.4682 32.2866 13.1319 32.4647 13.042C32.7464 12.9 33.0281 12.7579 33.3098 12.4738C33.4506 12.3317 33.4506 11.7351 33.4506 11.6214C33.4506 11.4794 33.3098 11.1953 33.0281 10.9111L32.1831 10.0588C31.9014 9.77467 31.4789 9.49055 31.1972 9.34848C30.9155 9.20642 30.5263 9.06437 30.2113 9.06437C29.7888 9.06437 29.5072 9.20643 29.2255 9.34848C29.0473 9.43833 27.6763 10.0588 27.3946 10.2008C27.2165 10.2907 26.9721 10.3429 26.8312 10.7691Z" stroke="#F18200" stroke-width="0.5"/>
<path id="Vector 140" d="M27.1133 10.7691L27.2541 10.485C27.395 10.3429 27.2541 10.3429 27.5358 10.2008C27.7139 10.111 28.114 9.98025 28.24 9.91672C28.5216 9.77466 29.0266 9.49054 29.2258 9.49054L29.93 9.49055H29.93C30.0427 9.49055 30.3525 9.49055 30.775 9.77466L31.4792 10.3429C31.7609 10.627 32.2116 11.2237 32.3242 11.3373C32.4651 11.4794 32.4651 11.7635 32.3242 12.0476C32.2352 12.2273 31.9017 12.4738 31.62 12.7579C31.3974 12.9825 30.9159 13.042 30.6342 13.1841C30.456 13.2739 29.6411 13.229 29.5075 13.1841C29.085 13.042 28.6476 12.8214 28.5216 12.7579C28.24 12.6159 27.9915 12.3653 27.6766 12.0476C27.5358 11.9056 27.395 11.7635 27.2541 11.4794C27.1414 11.2521 27.1133 11.0532 27.1133 10.7691Z" stroke="#F18200" stroke-width="0.5"/>
<path id="Vector 124" d="M14.8602 27.5321C14.3372 27.3211 13.6396 26.2536 13.5927 25.9695L11.4801 26.6797C11.4801 26.6797 6.55084 29.0948 6.41 29.2368C6.13771 29.5113 5.98749 29.2368 5.98749 29.2368L0.354004 24.6909L0.354004 22.2759L7.5367 19.1505C7.5367 19.1505 7.47447 18.3114 7.5367 17.872C7.67584 16.8896 8.05505 16.6631 8.66339 15.8832C9.46601 14.8541 10.776 14.1784 11.4801 13.7523C12.1843 13.3261 35.2816 3.23984 35.2816 3.23984C35.2816 3.23984 38.8026 1.53523 41.7601 0.682819C42.2529 0.540794 45.1872 0.966927 46.8303 2.1034C48.4734 3.23988 48.9363 3.65943 49.3653 4.0922L49.3655 4.0924C49.9288 4.66063 50.492 5.22882 50.7737 5.93904C50.7737 5.93904 51.337 7.50175 51.337 8.35405C51.337 9.20636 50.8582 10.8543 50.6329 11.1952C50.4075 11.5361 47.6283 12.9947 47.1119 13.1841C45.6097 13.9417 44.0135 14.4626 43.0277 14.8888C41.3686 15.606 39.4128 16.5935 39.0842 16.7356L19.6487 26.6797C19.0384 26.9638 17.666 27.5627 17.1136 27.6742C16.4094 27.8162 15.5644 27.8162 14.8602 27.5321Z" stroke="#F18200" stroke-width="0.5"/>
<path id="Vector 125" d="M9.08566 15.4571C9.08566 15.5991 8.94482 15.9685 8.94482 16.3094C8.94482 16.6504 8.96811 16.8761 9.08566 17.3038C9.25319 17.9134 9.78985 18.4403 9.78985 18.4403C10.2124 18.8665 11.0574 19.5768 11.7616 20.145C12.2282 20.5215 12.8883 20.8553 13.3108 21.2815C13.4889 21.4612 14.3905 22.0392 14.86 22.2759C15.3294 22.5127 16.55 22.418 16.55 22.418C17.5359 22.418 18.5499 21.935 19.2259 21.7077C19.9019 21.4804 22.2774 20.145 23.3102 19.5768C25.5167 18.393 30.0898 16.2286 30.4929 16.0253C31.0562 15.7412 33.7791 14.6047 35.1405 13.8944L39.2248 11.9056L42.6049 10.3429L45.8442 8.92231L48.2384 7.78583L49.2242 7.07553C49.2242 7.07553 49.7919 6.59048 49.9284 6.22317C50.0443 5.9115 49.9284 5.37081 49.9284 5.37081C49.9284 5.37081 49.8896 4.87895 49.7091 4.51845C49.4804 4.06192 48.8017 3.52404 48.8017 3.52404" stroke="#F18200" stroke-width="0.5"/>
<path id="Vector 126" d="M14.0151 24.833C14.0151 24.833 14.4165 25.2947 14.7193 25.4012C14.8751 25.4561 14.9853 25.4907 15.1418 25.5433C15.5643 25.6854 15.571 25.6854 15.846 25.6854C16.286 25.6854 16.4298 25.7236 16.8319 25.5433C17.1873 25.384 17.6107 25.1505 17.9586 24.9751C18.8036 24.5489 19.6486 24.1227 19.6486 24.1227C19.6486 24.1227 21.6769 23.0842 22.8879 22.418C24.4371 21.5656 26.5496 20.4291 26.5496 20.4291C26.5496 20.4291 28.2531 19.5561 29.2255 19.0085C30.9914 18.0143 33.8732 16.8777 33.8732 16.8777L38.0983 15.0309L41.1967 13.7523L45.1401 11.9056L48.9427 10.0588C48.9427 10.0588 49.9358 9.45264 50.3511 9.06436C50.6094 8.82289 50.9145 8.49612 50.9145 8.49612C50.9145 8.49612 51.1883 8.01584 51.1961 7.64377C51.201 7.41508 51.0553 7.07553 51.0553 7.07553" stroke="#F18200" stroke-width="0.5"/>
<path id="Vector 127" d="M8.1001 18.5824L8.66345 19.0086C9.22679 19.5768 10.0345 20.3915 10.2127 20.5712C10.4943 20.8553 11.3394 21.7077 11.621 21.9918C11.8437 22.2164 12.3252 22.56 12.8886 22.8442C13.1736 22.9879 13.7805 23.3177 14.1561 23.4124V24.2648L14.0153 25.2592V26.2536" stroke="#F18200" stroke-width="0.5"/>
<path id="Vector 128" d="M6.26904 29.3789V28.5266V27.3901V27.106V26.9639C6.31599 26.8692 6.59078 26.7306 6.69155 26.6798C6.97323 26.5377 7.07676 26.4855 7.2549 26.3957C7.81825 26.1115 9.27357 25.4012 10.2125 24.9751C10.635 24.7856 11.5201 24.4576 11.6209 24.4068C12.1842 24.1227 12.6216 24.0442 12.7476 23.9806C13.0292 23.8386 13.1217 23.792 13.3109 23.6965C13.5001 23.6011 13.7334 23.6018 13.8742 23.5545L14.1559 23.4124" stroke="#F18200" stroke-width="0.5"/>
<path id="Vector 129" d="M7.53662 19.1506C7.53662 19.1506 7.61606 19.0567 7.67746 19.0085C7.77454 18.9324 7.95913 18.8665 7.95913 18.8665L8.24081 18.7244" stroke="#F18200" stroke-width="0.5"/>
<path id="Vector 130" d="M0.354004 22.2759L1.05819 22.56C1.33986 22.7021 1.61986 22.9143 1.76238 22.9862C2.04405 23.1283 2.18489 23.1756 2.46656 23.4124C2.74824 23.6965 2.94806 23.756 3.17075 23.9806C3.45242 24.2648 3.40774 24.2197 3.68942 24.5038C3.9085 24.7248 3.97109 24.6459 4.25276 24.93C4.3936 25.0721 4.71996 25.4012 5.00163 25.6854C5.2833 25.9695 5.56498 26.2536 5.70582 26.3957C5.81848 26.5093 6.03444 26.7271 6.12833 26.8218L6.26916 26.9639" stroke="#F18200" stroke-width="0.5"/>
<path id="Vector 131" d="M0.776367 24.6909L0.776367 23.9806V23.1283L1.19888 23.4124L1.76223 23.8386L2.60725 24.5489L3.73395 25.5433L4.43813 26.1115C4.67286 26.2536 5.14064 26.6079 5.28316 26.6798C5.56483 26.8218 5.61178 26.9165 5.70567 26.9639V27.1059V27.3901V28.1004V28.5265L5.28316 28.2424L4.43813 27.5321C4.01562 27.248 3.56494 26.9355 3.45227 26.8218C3.1706 26.5377 2.60725 26.1115 2.18474 25.8274C1.90306 25.638 1.76223 25.4012 1.33972 25.1171C1.17399 25.0057 0.776367 24.833 0.776367 24.6909Z" stroke="#F18200" stroke-width="0.5"/>
<path id="Vector 132" d="M5.00183 21.9918L4.43848 21.2815C4.67321 21.1868 5.18272 21.0482 5.2835 20.9974C5.56517 20.8553 5.7999 20.7133 5.98768 20.5712L7.39606 21.7077C7.34911 21.755 7.24035 21.7862 7.11438 21.8497C6.83271 21.9918 6.69187 22.0392 6.55103 22.1339L5.98768 22.56L5.70601 22.7021L5.42434 22.418L5.00183 21.9918Z" stroke="#F18200" stroke-width="0.5"/>
<path id="Vector 133" d="M7.81823 24.5489L7.25488 23.9806C7.48961 23.8859 7.99913 23.4632 8.09991 23.4124C8.38158 23.2703 8.61631 23.1283 8.80409 22.9862L10.2125 24.1227C10.1655 24.1701 10.0568 24.2012 9.93079 24.2648C9.64911 24.4068 9.50828 24.4542 9.36744 24.5489L8.80409 24.9751L8.52242 25.2592L8.24074 24.9751L7.81823 24.5489Z" stroke="#F18200" stroke-width="0.5"/>
<path id="Vector 134" d="M0.776367 24.6909C0.776367 24.4068 0.917212 24.4068 0.917208 24.2648C0.917204 24.1227 0.884119 23.8386 1.05805 23.8386C1.23197 23.8386 1.19888 24.0091 1.19888 24.1227C1.19888 24.2364 1.05804 24.4068 1.05805 24.5489V24.833C1.10499 24.8804 1.11921 24.9134 1.19888 24.833C1.33972 24.6909 1.33972 24.6909 1.33972 24.5489C1.33972 24.4352 1.33972 24.3121 1.33972 24.2648C1.33972 24.0505 1.50872 24.0091 1.62139 24.1227C1.76223 24.2648 1.62139 24.2648 1.62139 24.4068C1.62139 24.5205 1.62139 24.6909 1.48055 24.833C1.43361 24.8804 1.36789 25.1171 1.48056 25.1171C1.62139 24.9751 1.76223 25.0339 1.76223 24.833C1.76223 24.6909 1.79306 24.3514 1.90306 24.4068C2.00145 24.4564 1.90307 24.7194 1.90307 24.833C1.90307 24.9467 1.90307 25.0698 1.90307 25.1171C1.90307 25.1171 1.90307 25.1455 1.90307 25.2592C1.90307 25.3728 1.76223 25.4012 1.90307 25.5433C2.04391 25.6854 2.18474 24.9751 2.18474 24.9751C2.18474 24.9751 2.23168 24.8804 2.32558 24.833C2.41947 24.7857 2.60725 24.7194 2.60725 24.833C2.60725 24.9751 2.5513 24.9744 2.46641 25.1171C2.42639 25.1844 2.46641 25.1171 2.32558 25.2592C2.32558 25.2592 2.18474 25.4297 2.18474 25.5433C2.18474 25.657 2.27863 25.8274 2.32558 25.8274C2.37252 25.8274 2.41866 25.4632 2.46641 25.4012C2.54192 25.3033 2.60725 25.1171 2.74809 25.2592C2.88893 25.4012 2.74809 25.5433 2.60725 25.6854C2.44791 25.8461 2.45072 26.1642 2.60725 26.1115C2.72392 26.0723 2.74808 25.8274 2.88892 25.6854C2.98851 25.5849 3.02976 25.4012 3.1706 25.5433C3.31144 25.6854 3.02976 25.6854 3.02976 25.9695C3.02976 26.2536 3.02976 25.9695 3.02976 26.1115C3.02976 26.3388 3.02976 26.5377 3.1706 26.3957C3.1706 26.3957 3.19877 26.1968 3.31144 25.9695C3.42411 25.7422 3.37311 25.5744 3.59311 25.6854C3.78988 25.7846 3.70578 25.9979 3.59311 26.1115C3.45227 26.2536 3.31144 26.3957 3.31144 26.5377C3.31144 26.6514 3.35838 26.6798 3.45227 26.6798C3.59311 26.6798 3.73395 26.5377 3.73395 26.5377C3.73395 26.5377 3.87478 26.3957 3.87478 26.2536C3.87478 26.14 3.87479 25.9695 4.01562 25.9695C4.15645 25.9695 4.15646 26.2536 4.15646 26.2536C4.15646 26.301 4.01562 26.5377 4.01562 26.5377C3.90295 26.8787 3.87478 26.8218 3.87478 26.9639C3.87478 27.106 4.01562 27.106 4.01562 27.106C4.01562 27.106 4.07679 27.0443 4.15646 26.9639C4.2973 26.8218 4.2973 26.6324 4.2973 26.5377C4.2973 26.5377 4.31638 26.2361 4.43813 26.2536C4.51513 26.2647 4.57897 26.2536 4.57897 26.5377C4.57897 26.8218 4.43813 26.9639 4.43813 27.106C4.43813 27.248 4.43813 27.5321 4.57897 27.5321C4.7198 27.5321 4.71981 27.3617 4.71981 27.248C4.71981 27.106 4.86064 27.106 4.86064 26.8218C4.86064 26.8218 4.86064 26.5377 5.00148 26.6798C5.14232 26.8218 5.14232 26.9639 5.00148 27.106C4.90189 27.2064 4.86065 27.248 4.86065 27.3901C4.86065 27.5321 4.86065 27.6742 4.86065 27.8163C4.86065 27.9299 4.95454 27.7216 5.00148 27.6742C5.14232 27.5321 5.28315 27.3901 5.28316 27.248C5.28316 27.0873 5.30224 26.9464 5.42399 26.9639C5.50099 26.975 5.56483 27.1344 5.56483 27.248C5.56483 27.3901 5.49441 27.3901 5.42399 27.5321C5.31132 27.7594 5.28316 27.7689 5.28316 27.8163C5.28316 27.8163 5.24427 28.0612 5.28316 28.1004C5.33816 28.1559 5.42399 28.1004 5.42399 28.1004L5.56483 27.9583C5.70567 27.8163 5.70567 27.5795 5.70567 27.5321" stroke="#F18200" stroke-width="0.5"/>
<path id="Vector 135" d="M7.93305 23.6474C7.93305 23.6474 8.00445 23.6238 8.09743 23.593C8.26181 23.5386 8.33544 23.3918 8.37225 23.3184C8.37225 23.3184 8.5043 23.0921 8.59185 23.1539C8.64722 23.1929 8.70101 23.2096 8.59058 23.4298C8.48014 23.65 8.31576 23.7044 8.26054 23.8145C8.20532 23.9247 8.09489 24.1449 8.20405 24.2006C8.31321 24.2563 8.37948 24.1241 8.42365 24.036C8.47886 23.9259 8.58803 23.9816 8.69846 23.7614C8.69846 23.7614 8.8089 23.5412 8.86284 23.707C8.91679 23.8728 8.86157 23.9829 8.69719 24.0373C8.58095 24.0758 8.53281 24.0917 8.47759 24.2019C8.42237 24.312 8.36716 24.4221 8.31194 24.5322C8.26776 24.6203 8.42152 24.4959 8.47632 24.4778C8.6407 24.4234 8.80507 24.3689 8.86029 24.2588C8.92277 24.1343 8.99235 24.0326 9.07989 24.0943C9.13526 24.1334 9.12279 24.2821 9.07862 24.3702C9.0234 24.4803 8.96882 24.4525 8.85902 24.5348C8.68334 24.6664 8.65783 24.6626 8.63942 24.6993C8.63942 24.6993 8.51409 24.8737 8.52899 24.9195C8.55006 24.9842 8.63815 24.9752 8.63815 24.9752L8.80253 24.9208C8.96691 24.8664 9.05894 24.6829 9.07734 24.6461" stroke="#F18200" stroke-width="0.5"/>
<path id="Vector 136" d="M4.91429 21.2104C4.91429 21.2104 4.9875 21.2012 5.08286 21.1892C5.25144 21.168 5.30852 21.0542 5.33707 20.9973C5.33707 20.9973 5.44502 20.8247 5.54845 20.8907C5.61387 20.9324 5.67422 20.9548 5.5886 21.1256C5.50297 21.2963 5.33439 21.3175 5.29158 21.4029C5.24876 21.4883 5.16314 21.659 5.2889 21.7232C5.41466 21.7874 5.46605 21.6849 5.50029 21.6166C5.5431 21.5312 5.66887 21.5954 5.75449 21.4247C5.75449 21.4247 5.84012 21.2539 5.92307 21.4035C6.00602 21.553 5.96321 21.6384 5.79463 21.6596C5.67543 21.6746 5.62606 21.6808 5.58324 21.7662C5.54043 21.8515 5.49762 21.9369 5.45481 22.0223C5.42056 22.0906 5.56719 22.0081 5.62338 22.0011C5.79195 21.9799 5.96053 21.9587 6.00334 21.8733C6.05178 21.7767 6.1113 21.7007 6.21473 21.7667C6.28015 21.8085 6.28912 21.9333 6.25487 22.0016C6.21206 22.087 6.14918 22.0549 6.04348 22.1082C5.87437 22.1935 5.84636 22.1863 5.83209 22.2148C5.83209 22.2148 5.72356 22.3442 5.74647 22.3855C5.77886 22.4439 5.87223 22.4497 5.87223 22.4497L6.04081 22.4285C6.20938 22.4073 6.28074 22.265 6.29501 22.2365" stroke="#F18200" stroke-width="0.5"/>
</g>
</svg>
