<svg width="43" height="47" viewBox="0 0 43 47" fill="none" xmlns="http://www.w3.org/2000/svg">
<path d="M18.5305 25.432L18.8902 25.1657L19.0934 24.8761C19.2067 24.653 19.2522 24.6183 19.32 24.43C19.4567 24.0504 19.4444 23.4004 19.417 23.2446C19.3738 22.9982 19.1777 22.169 19.0446 21.9891C18.9114 21.8092 18.2224 21.0664 17.7097 20.7499C17.4241 20.5736 17.0406 20.41 16.751 20.2068C16.4207 19.9751 16.0818 19.8669 15.5691 19.5504C15.001 19.1997 14.1347 18.6735 14.0311 18.6008C13.7415 18.3976 12.7827 17.8545 12.5596 17.7412C12.3365 17.6279 11.7573 17.2214 11.5342 17.1081C11.3112 16.9949 10.6852 16.9014 10.5054 17.0345C10.3255 17.1676 10.1456 17.3008 10.0323 17.5238C9.99181 17.6036 9.83337 18.3207 9.77885 18.6858C9.77885 18.6858 9.68203 19.5346 9.81497 20.0511C9.92604 20.4826 10.3007 21.0835 10.3007 21.0835C10.5004 21.3533 10.7001 21.6231 11.0563 21.9162C11.1785 22.0168 11.792 22.3461 12.0151 22.4594C12.1149 22.51 12.7508 22.8892 12.9739 23.0025C13.0868 23.0598 13.8361 23.4778 14.2223 23.7488L15.0246 24.2686L16.7191 25.2415C16.9944 25.3626 17.3883 25.5814 17.7013 25.6281C17.7898 25.6413 17.9177 25.6071 18.1042 25.6083C18.3506 25.5651 18.3866 25.5385 18.5305 25.432Z" stroke="#9747FF" stroke-width="0.5"/>
<path d="M18.3974 25.2521C18.3974 25.2521 17.9149 25.2094 17.6149 25.1353C16.9886 24.9805 16.1201 24.4321 16.1201 24.4321C15.7783 24.2211 15.168 23.8505 15.0947 23.7991C14.8051 23.5959 14.3224 23.2572 14.0028 23.0761C13.71 22.9103 13.2225 22.6237 13.044 22.533C12.8656 22.4424 12.1518 22.0798 11.4394 21.4935L11.04 20.9539C10.6407 20.4144 10.4664 19.7098 10.4445 19.5852C10.4013 19.3387 10.3753 18.4412 10.4084 18.2199C10.4551 17.9069 10.6583 17.6173 10.8382 17.4842C10.9281 17.4176 11.331 17.3978 11.4875 17.4212C11.6127 17.4398 11.8971 17.5356 12.0236 17.5812L13.0057 17.9678" stroke="#9747FF" stroke-width="0.5"/>
<path d="M18.4873 25.1856C18.7116 25.1124 18.7571 24.9859 18.8704 24.7628C18.8704 24.7628 18.9439 24.6567 18.9837 24.5398C19.0235 24.4228 19.1021 24.2824 19.1204 24.1602L19.1905 23.6907C19.2372 23.3777 19.1389 22.6431 18.9978 22.3021C18.8215 21.8758 18.744 21.7066 18.6218 21.606C18.2656 21.3129 17.4047 20.595 17.2637 20.5233C17.0406 20.41 16.8175 20.2968 16.5046 20.25C16.3481 20.2267 15.9704 20.5062 15.8984 20.5595C15.8085 20.626 15.6952 20.8491 15.6485 21.1621L15.5083 22.101C15.4615 22.414 15.4814 22.8169 15.5246 23.0634C15.5677 23.3098 15.6618 23.6249 15.8106 23.826C16.0103 24.0958 16.2334 24.2091 16.4564 24.3224C16.5975 24.394 17.6383 24.9788 17.8613 25.0921C18.0024 25.1637 18.151 25.2953 18.4873 25.1856Z" stroke="#9747FF" stroke-width="0.5"/>
<path d="M18.3542 25.0057L18.1078 25.0489C17.9513 25.0255 18.0178 25.1155 17.7948 25.0022C17.6537 24.9305 17.3819 24.7363 17.2821 24.6857C17.0591 24.5724 16.6405 24.383 16.5464 24.2558L16.2136 23.8062L16.2136 23.8062C16.1603 23.7342 16.0139 23.5364 15.994 23.1335L16.0209 22.4176C16.0677 22.1046 16.2324 21.5373 16.2511 21.4121C16.2744 21.2556 16.4543 21.1224 16.7007 21.0792C16.8566 21.0519 17.1702 21.1493 17.4832 21.1961C17.7306 21.233 17.9959 21.5126 18.2189 21.6259C18.36 21.6975 18.7167 22.239 18.7514 22.3453C18.8612 22.6817 18.9283 23.0643 18.9476 23.1745C18.9908 23.421 18.9496 23.697 18.8973 24.0469C18.874 24.2034 18.8506 24.3599 18.7373 24.583C18.6466 24.7614 18.5341 24.8726 18.3542 25.0057Z" stroke="#9747FF" stroke-width="0.5"/>
<path d="M34.7569 24.9751C34.8706 25.408 34.5245 26.3536 34.3668 26.5167L35.8148 27.5328C35.8148 27.5328 39.6734 29.5488 39.8299 29.5722C40.1324 29.6174 40.0296 29.8419 40.0296 29.8419L39.8144 35.5692L38.2855 36.7008L32.9123 33.5787C32.9123 33.5787 32.4105 34.0117 32.103 34.1778C31.4153 34.5493 31.0927 34.4132 30.3114 34.3903C29.2807 34.3599 28.2338 33.8401 27.6312 33.5901C27.0286 33.3402 9.72717 23.3177 9.72717 23.3177C9.72717 23.3177 6.98398 21.8681 5.04654 20.379C4.72373 20.1309 3.60668 18.0576 3.54954 16.4759C3.49241 14.8942 3.53919 14.402 3.61039 13.9253L3.61042 13.9251C3.70391 13.2991 3.79739 12.6733 4.11388 12.1606C4.11388 12.1606 4.83689 11.0687 5.37643 10.6693C5.91598 10.27 7.18548 9.80362 7.50781 9.78775C7.83015 9.77188 10.067 10.8631 10.431 11.1041C11.6206 11.7083 12.7047 12.4835 13.4405 12.9133C14.6786 13.6366 16.2281 14.4227 16.4733 14.566L31.9542 22.3169C32.4225 22.5735 33.4502 23.1691 33.7818 23.4697C34.2046 23.8527 34.604 24.3923 34.7569 24.9751Z" stroke="#9747FF" stroke-width="0.5"/>
<path d="M29.842 34.3201C29.9319 34.2536 30.2323 34.1704 30.4482 34.0107C30.664 33.8509 30.7959 33.7303 31.0111 33.4548C31.3178 33.0622 31.3977 32.4726 31.3977 32.4726C31.4678 32.0032 31.5181 31.1308 31.545 30.4149C31.5628 29.9405 31.4621 29.3626 31.5322 28.8931C31.5618 28.6952 31.5015 27.8487 31.4295 27.4379C31.3575 27.0272 30.7207 26.2922 30.7207 26.2922C30.2548 25.6627 29.4697 25.2415 29.0064 24.9164C28.543 24.5912 26.5749 23.7001 25.7271 23.3069C23.9348 22.4527 20.4033 20.5467 20.0841 20.3845C19.638 20.1579 17.6316 18.9518 16.5385 18.4153L13.3492 16.7392L10.7624 15.3131L8.33214 13.9103L6.48112 12.9141L5.56553 12.6174C5.56553 12.6174 4.99019 12.4822 4.69312 12.5671C4.44106 12.6391 4.15355 12.9665 4.15355 12.9665C4.15355 12.9665 3.86052 13.2217 3.71764 13.5059C3.5367 13.8658 3.51697 14.5512 3.51697 14.5512" stroke="#9747FF" stroke-width="0.5"/>
<path d="M33.4477 26.7794C33.4477 26.7794 33.5502 26.3068 33.4746 26.0635C33.4356 25.9383 33.4055 25.8517 33.3648 25.7271C33.255 25.3908 33.2519 25.3865 33.1219 25.2109C32.914 24.93 32.8702 24.8203 32.566 24.648C32.2972 24.4957 31.9493 24.3347 31.6738 24.1948C31.0046 23.8549 30.3355 23.515 30.3355 23.515C30.3355 23.515 28.7195 22.7065 27.7253 22.2454C26.4536 21.6555 24.7357 20.8391 24.7357 20.8391C24.7357 20.8391 23.3779 20.1604 22.5717 19.7961C21.1077 19.1344 19.0261 17.8268 19.0261 17.8268L15.8601 15.9943L13.5864 14.6149L10.5535 12.9622L7.58718 11.3994C7.58718 11.3994 6.73411 11.0493 6.29203 10.966C6.01709 10.9143 5.66606 10.8726 5.66606 10.8726C5.66606 10.8726 5.2326 10.9228 4.99335 11.0921C4.8463 11.1962 4.7002 11.4483 4.7002 11.4483" stroke="#9747FF" stroke-width="0.5"/>
<path d="M32.2864 33.4852L32.2899 32.9258C32.3834 32.2999 32.5174 31.4024 32.547 31.2044C32.5937 30.8914 32.7339 29.9525 32.7806 29.6395C32.8176 29.392 32.8075 28.9236 32.7211 28.4307C32.6774 28.1814 32.5993 27.6393 32.4818 27.3551L33.0214 26.9557L33.7174 26.5797L34.347 26.1138" stroke="#9747FF" stroke-width="0.5"/>
<path d="M39.9864 29.5955L39.4468 29.9949L38.7274 30.5274L38.5475 30.6605L38.4576 30.7271C38.3755 30.7415 38.1579 30.6309 38.078 30.5904C37.855 30.4771 37.773 30.4355 37.6319 30.3638C37.1858 30.1372 36.0483 29.5408 35.3348 29.1409C35.0152 28.9599 34.3892 28.5484 34.3094 28.5079C33.8633 28.2813 33.6069 28.0388 33.5071 27.9881C33.2841 27.8748 33.2109 27.8377 33.061 27.7615C32.9112 27.6854 32.8014 27.5361 32.7048 27.4684L32.4818 27.3551" stroke="#9747FF" stroke-width="0.5"/>
<path d="M32.9124 33.5787C32.9124 33.5787 32.8154 33.572 32.7559 33.5553C32.6618 33.529 32.5328 33.442 32.5328 33.442L32.3098 33.3287" stroke="#9747FF" stroke-width="0.5"/>
<path d="M38.2856 36.7007L38.1326 36.118C38.0894 35.8715 38.0915 35.5933 38.0696 35.4686C38.0264 35.2222 37.9898 35.1101 38.0066 34.8193C38.0533 34.5063 37.9965 34.3508 38.0335 34.1034C38.0802 33.7904 38.0728 33.84 38.1195 33.527C38.1559 33.2836 38.0763 33.2806 38.1231 32.9676C38.1464 32.8111 38.2006 32.4485 38.2473 32.1355C38.294 31.8225 38.3408 31.5095 38.3641 31.353C38.3828 31.2279 38.4187 30.9879 38.4342 30.8836L38.4576 30.7271" stroke="#9747FF" stroke-width="0.5"/>
<path d="M39.6147 35.2994L39.165 35.6322L38.6255 36.0316L38.6056 35.6286L38.6092 35.0692L38.6594 34.1968L38.7564 33.0115L38.7833 32.2955C38.7623 32.0791 38.7655 31.6144 38.7437 31.4897C38.7005 31.2433 38.7382 31.1689 38.7238 31.0868L38.8138 31.0202L38.9936 30.8871L39.4433 30.5543L39.7131 30.3546L39.7329 30.7575L39.6826 31.6299C39.7025 32.0328 39.7176 32.467 39.6989 32.5922C39.6522 32.9052 39.6487 33.4646 39.6685 33.8676C39.6817 34.1362 39.5984 34.337 39.6182 34.7399C39.626 34.898 39.7046 35.2328 39.6147 35.2994Z" stroke="#9747FF" stroke-width="0.5"/>
<path d="M35.9091 33.8662L35.7257 34.5587C35.5548 34.4532 35.2263 34.1928 35.1465 34.1523C34.9234 34.039 34.7226 33.9556 34.5439 33.9023L34.5977 32.4705C34.6499 32.4783 34.721 32.5331 34.8208 32.5838C35.0438 32.6971 35.1404 32.7648 35.2669 32.8104L35.8029 32.9704L36.026 33.0837L35.9792 33.3967L35.9091 33.8662Z" stroke="#9747FF" stroke-width="0.5"/>
<path d="M36.1966 30.8694L36.1031 31.4954C35.9322 31.3899 35.4238 31.2626 35.344 31.2221C35.121 31.1088 34.9201 31.0255 34.7414 30.9721L34.7952 29.5403C34.8474 29.5481 34.9185 29.6029 35.0183 29.6536C35.2414 29.7669 35.3379 29.8346 35.4644 29.8802L36.0005 30.0402L36.3134 30.087L36.2667 30.3999L36.1966 30.8694Z" stroke="#9747FF" stroke-width="0.5"/>
<path d="M39.6147 35.2994C39.4349 35.4325 39.3683 35.3425 39.2784 35.4091C39.1884 35.4757 39.0242 35.6299 38.942 35.5189C38.8598 35.4078 38.9834 35.3491 39.0553 35.2958C39.1272 35.2426 39.3017 35.2526 39.3917 35.1861L39.5715 35.0529C39.5793 35.0008 39.5935 34.9762 39.505 34.963C39.3485 34.9396 39.3485 34.9396 39.2585 35.0062C39.1866 35.0594 39.1086 35.1171 39.0787 35.1393C38.943 35.2397 38.8369 35.1512 38.8556 35.026C38.879 34.8695 38.9455 34.9595 39.0355 34.8929C39.1074 34.8397 39.2153 34.7598 39.3718 34.7831C39.424 34.7909 39.6049 34.722 39.5517 34.65C39.3952 34.6266 39.3659 34.5091 39.2387 34.6033C39.1488 34.6698 38.9192 34.8093 38.9023 34.713C38.8873 34.627 39.1002 34.5666 39.1721 34.5133C39.2441 34.4601 39.322 34.4024 39.352 34.3802C39.352 34.3802 39.37 34.3669 39.4419 34.3137C39.5139 34.2604 39.5984 34.337 39.6218 34.1805C39.6451 34.024 39.1289 34.2669 39.1289 34.2669C39.1289 34.2669 39.0468 34.2813 38.9724 34.2436C38.8981 34.2058 38.7674 34.117 38.8393 34.0637C38.9292 33.9971 38.9553 34.0332 39.0857 34.0205C39.1472 34.0145 39.0857 34.0205 39.2422 34.0439C39.2422 34.0439 39.4167 34.0539 39.4887 34.0007C39.5606 33.9474 39.6241 33.8076 39.602 33.7776C39.5798 33.7476 39.3274 33.8889 39.2656 33.8874C39.1679 33.885 39.0192 33.9306 39.0425 33.7741C39.0659 33.6176 39.2224 33.641 39.3789 33.6643C39.5559 33.6908 39.756 33.5399 39.6487 33.4646C39.5687 33.4085 39.4023 33.5078 39.2458 33.4845C39.1351 33.4679 38.9993 33.5277 39.0227 33.3712C39.0461 33.2147 39.1792 33.3945 39.3591 33.2614C39.5389 33.1283 39.3591 33.2614 39.449 33.1948C39.5929 33.0883 39.7188 32.9951 39.5623 32.9718C39.5623 32.9718 39.4231 33.047 39.2259 33.0815C39.0288 33.1161 38.9467 33.2273 38.913 33.0348C38.8828 32.8627 39.0575 32.8164 39.1827 32.8351C39.3392 32.8585 39.4957 32.8819 39.5857 32.8153C39.6576 32.762 39.6534 32.7187 39.609 32.6588C39.5425 32.5689 39.386 32.5455 39.386 32.5455C39.386 32.5455 39.2295 32.5221 39.1395 32.5887C39.0676 32.6419 38.9597 32.7218 38.8931 32.6319C38.8266 32.542 39.0064 32.4088 39.0064 32.4088C39.0364 32.3866 39.2528 32.3656 39.2528 32.3656C39.5219 32.2778 39.4993 32.3224 39.5892 32.2559C39.6791 32.1893 39.6126 32.0994 39.6126 32.0994C39.6126 32.0994 39.5446 32.0892 39.4561 32.076C39.2996 32.0527 39.1797 32.1414 39.1197 32.1858C39.1197 32.1858 38.9197 32.3149 38.8733 32.229C38.8439 32.1746 38.8067 32.139 38.9866 32.0059C39.1664 31.8728 39.3229 31.8962 39.4129 31.8296C39.5028 31.763 39.6827 31.6299 39.6161 31.54C39.5495 31.45 39.4416 31.5299 39.3697 31.5832C39.2797 31.6497 39.2132 31.5598 39.0333 31.6929C39.0333 31.6929 38.8535 31.8261 38.8768 31.6696C38.9002 31.5131 38.9901 31.4465 39.1466 31.4699C39.2573 31.4864 39.3031 31.4932 39.393 31.4267C39.483 31.3601 39.5729 31.2936 39.6628 31.227C39.7348 31.1737 39.5585 31.2114 39.5063 31.2036C39.3498 31.1803 39.1933 31.1569 39.1034 31.2235C39.0017 31.2988 38.9034 31.3526 38.857 31.2667C38.8276 31.2123 38.8983 31.0968 38.9703 31.0436C39.0602 30.977 39.0935 31.022 39.2167 31.0004C39.4139 30.9658 39.4332 30.9794 39.4631 30.9572C39.4631 30.9572 39.6365 30.8673 39.643 30.8241C39.6521 30.763 39.5764 30.7341 39.5764 30.7341L39.4199 30.7108C39.2634 30.6874 39.1136 30.7983 39.0836 30.8205" stroke="#9747FF" stroke-width="0.5"/>
<path d="M35.5719 31.2187C35.5719 31.2187 35.5232 31.1842 35.4597 31.1393C35.3476 31.0598 35.2199 31.0816 35.156 31.0925C35.156 31.0925 34.9503 31.1142 34.948 31.0293C34.9466 30.9757 34.9317 30.9335 35.1233 30.9009C35.3149 30.8682 35.4271 30.9477 35.5229 30.9313C35.6187 30.915 35.8103 30.8823 35.7939 30.7865C35.7776 30.6907 35.6626 30.7103 35.586 30.7234C35.4902 30.7397 35.4739 30.6439 35.2823 30.6766C35.2823 30.6766 35.0906 30.7093 35.1701 30.5971C35.2496 30.485 35.3454 30.4686 35.4575 30.5481C35.5368 30.6043 35.5697 30.6276 35.6655 30.6112C35.7613 30.5949 35.8571 30.5786 35.9529 30.5622C36.0295 30.5492 35.8781 30.5093 35.8407 30.4828C35.7286 30.4033 35.6165 30.3238 35.5207 30.3402C35.4123 30.3587 35.315 30.3619 35.3127 30.277C35.3113 30.2234 35.4113 30.1616 35.488 30.1486C35.5838 30.1322 35.592 30.1801 35.6959 30.2117C35.8623 30.2622 35.8719 30.2803 35.9039 30.2748C35.9039 30.2748 36.0735 30.2731 36.0955 30.2422C36.1265 30.1984 36.0791 30.1464 36.0791 30.1464L35.967 30.0669C35.8549 29.9874 35.6952 30.0147 35.6633 30.0201" stroke="#9747FF" stroke-width="0.5"/>
<path d="M35.4556 34.2879C35.4556 34.2879 35.4152 34.2455 35.3625 34.1902C35.2694 34.0925 35.1704 34.1094 35.1209 34.1178C35.1209 34.1178 34.9606 34.1298 34.9535 34.0328C34.949 33.9715 34.9347 33.9224 35.0833 33.8971C35.2318 33.8718 35.3249 33.9695 35.3992 33.9568C35.4735 33.9441 35.622 33.9188 35.6032 33.8084C35.5844 33.6981 35.4953 33.7133 35.4358 33.7234C35.3615 33.7361 35.3427 33.6257 35.1942 33.651C35.1942 33.651 35.0456 33.6764 35.1011 33.5533C35.1565 33.4303 35.2308 33.4176 35.3239 33.5153C35.3897 33.5844 35.417 33.613 35.4913 33.6004C35.5656 33.5877 35.6398 33.575 35.7141 33.5624C35.7735 33.5522 35.6521 33.4972 35.621 33.4647C35.5279 33.367 35.4348 33.2693 35.3606 33.2819C35.2765 33.2962 35.2003 33.2938 35.1932 33.1969C35.1887 33.1355 35.2635 33.0713 35.3229 33.0612C35.3972 33.0485 35.4066 33.1037 35.4903 33.1462C35.6242 33.2142 35.6329 33.2355 35.6577 33.2313C35.6577 33.2313 35.7909 33.2399 35.8062 33.2059C35.8279 33.1579 35.7874 33.0956 35.7874 33.0956L35.6943 32.9978C35.6012 32.9001 35.4774 32.9213 35.4527 32.9255" stroke="#9747FF" stroke-width="0.5"/>
</svg>
