<svg width="191" height="237" viewBox="0 0 191 237" fill="none" xmlns="http://www.w3.org/2000/svg">
<path d="M30.1562 210.232C30.1709 210.287 30.1911 210.342 30.2162 210.398M30.2162 210.398C30.657 211.37 30.9738 211.261 32.0638 212.547C32.3361 212.868 33.2446 213.747 33.6988 213.833L34.5163 212.547L37.2413 212.804C37.7863 213.061 39.8088 212.492 40.7838 212.032C42.4188 211.261 44.0538 210.232 44.8713 209.717C45.6888 209.203 47.0513 208.688 48.9588 207.402C50.7465 206.196 53.0463 203.801 53.8638 203.029C54.6813 202.257 55.4988 201.228 55.7713 200.456C55.9893 199.839 56.1346 198.141 56.0438 197.627L56.5888 197.37L57.4063 198.141C57.4063 198.141 58.2192 196.951 59.0413 196.598C60.0101 196.182 61.7663 196.598 61.7663 196.598C61.403 195.826 60.6763 194.54 60.1313 194.025C59.7866 193.7 58.4963 192.911 57.9513 192.482C57.9513 192.482 57.2428 192.894 56.5888 193.511C55.9348 194.128 55.2263 194.025 54.9538 194.025C54.2271 194.025 52.5558 194.025 51.6838 194.025C50.5938 194.025 47.3238 194.54 45.6888 195.054C45.1107 195.236 42.4188 196.598 41.3288 197.37C40.5428 197.926 36.9688 200.199 35.6063 201.485C34.4827 202.546 32.3363 205.344 31.7913 207.145C31.6715 207.54 31.2463 210.398 30.2162 210.398Z" stroke="#0038FF" stroke-width="0.5"/>
<path d="M99.644 116.081C99.9165 116.596 101.279 117.368 102.369 117.368C105.203 117.368 106.638 116.853 107.002 116.853" stroke="#0038FF" stroke-width="0.5"/>
<path d="M99.2266 109.908C99.3269 110.475 100.389 111.591 101.431 111.893C104.14 112.679 105.672 112.586 106.019 112.686" stroke="#0038FF" stroke-width="0.5"/>
<path d="M101.006 115.052C101.228 115.464 102.339 116.081 103.227 116.081C105.536 116.081 106.705 115.67 107.001 115.67" stroke="#0038FF" stroke-width="0.5"/>
<path d="M98.8267 107.849C99.0487 108.261 100.159 108.878 101.047 108.878C103.356 108.878 104.526 108.467 104.822 108.467" stroke="#0038FF" stroke-width="0.5"/>
<path d="M100.461 105.792C100.603 105.998 101.309 106.306 101.874 106.306C103.344 106.306 104.088 106.101 104.276 106.101" stroke="#0038FF" stroke-width="0.5"/>
<path d="M100.461 104.248C100.603 104.454 101.309 104.763 101.874 104.763C103.344 104.763 104.088 104.557 104.276 104.557" stroke="#0038FF" stroke-width="0.5"/>
<path d="M99.9165 101.676C100.058 101.882 100.764 102.19 101.329 102.19C102.799 102.19 103.543 101.984 103.732 101.984" stroke="#0038FF" stroke-width="0.5"/>
<path d="M99.9165 100.132C100.058 100.338 100.764 100.647 101.329 100.647C102.799 100.647 103.543 100.441 103.732 100.441" stroke="#0038FF" stroke-width="0.5"/>
<path d="M100.461 98.0745C100.583 98.2803 101.188 98.5889 101.673 98.5889C102.932 98.5889 103.57 98.3831 103.731 98.3831" stroke="#0038FF" stroke-width="0.5"/>
<path d="M100.461 96.0167C100.583 96.2225 101.188 96.5312 101.673 96.5312C102.932 96.5312 103.57 96.3254 103.731 96.3254" stroke="#0038FF" stroke-width="0.5"/>
<path d="M101.006 93.444C101.107 93.8556 101.612 94.4729 102.016 94.4729C103.065 94.4729 103.597 94.0613 103.731 94.0613" stroke="#0038FF" stroke-width="0.5"/>
<path d="M101.006 91.3862C101.107 91.7978 101.612 92.4152 102.016 92.4152C103.065 92.4152 103.597 92.0036 103.731 92.0036" stroke="#0038FF" stroke-width="0.5"/>
<path d="M102.097 88.8136C102.177 89.2252 102.581 89.8426 102.904 89.8426C103.744 89.8426 104.169 89.431 104.277 89.431" stroke="#0038FF" stroke-width="0.5"/>
<path d="M102.097 86.2412C102.177 86.6528 102.581 87.2702 102.904 87.2702C103.744 87.2702 104.169 86.8586 104.277 86.8586" stroke="#0038FF" stroke-width="0.5"/>
<path d="M102.096 83.6692C102.177 84.0808 102.581 84.6982 102.904 84.6982C103.743 84.6982 104.169 84.2866 104.276 84.2866" stroke="#0038FF" stroke-width="0.5"/>
<path d="M102.641 81.6112C102.722 82.0228 103.126 82.6402 103.449 82.6402C104.288 82.6402 104.713 82.2286 104.821 82.2286" stroke="#0038FF" stroke-width="0.5"/>
<path d="M102.756 79.3782C102.758 79.7968 103.039 80.4721 103.356 80.5264C104.183 80.6675 104.679 80.3339 104.785 80.352" stroke="#0038FF" stroke-width="0.5"/>
<path d="M103.38 77.4951C103.382 77.9137 103.663 78.589 103.981 78.6433C104.807 78.7844 105.303 78.4508 105.409 78.4689" stroke="#0038FF" stroke-width="0.5"/>
<path d="M103.925 74.9227C103.927 75.3413 104.208 76.0167 104.526 76.0709C105.352 76.212 105.848 75.8784 105.954 75.8965" stroke="#0038FF" stroke-width="0.5"/>
<path d="M104.47 72.3505C104.472 72.769 104.753 73.4444 105.071 73.4987C105.897 73.6397 106.393 73.3062 106.499 73.3243" stroke="#0038FF" stroke-width="0.5"/>
<path d="M105.149 70.4324C105.162 70.6374 105.359 70.9751 105.561 71.0097C106.088 71.0996 106.392 70.9488 106.459 70.9603" stroke="#0038FF" stroke-width="0.5"/>
<path d="M106.005 68.2345C106.018 68.4395 106.215 68.7772 106.418 68.8118C106.944 68.9017 107.248 68.7509 107.316 68.7624" stroke="#0038FF" stroke-width="0.5"/>
<path d="M106.54 66.2322C106.562 66.3926 106.771 66.6634 106.974 66.698C107.5 66.7879 107.796 66.6816 107.863 66.6932" stroke="#0038FF" stroke-width="0.5"/>
<path d="M107.074 64.6331C107.096 64.7934 107.305 65.0643 107.508 65.0988C108.034 65.1887 108.33 65.0825 108.398 65.0941" stroke="#0038FF" stroke-width="0.5"/>
<path d="M107.619 63.0895C107.641 63.2499 107.85 63.5207 108.053 63.5553C108.579 63.6452 108.875 63.5389 108.942 63.5505" stroke="#0038FF" stroke-width="0.5"/>
<path d="M108.164 61.5463C108.186 61.7066 108.395 61.9775 108.598 62.0121C109.124 62.102 109.42 61.9957 109.487 62.0073" stroke="#0038FF" stroke-width="0.5"/>
<path d="M109.254 60.0028C109.275 60.1632 109.485 60.434 109.687 60.4686C110.214 60.5585 110.51 60.4523 110.577 60.4638" stroke="#0038FF" stroke-width="0.5"/>
<path d="M102.097 118.654C102.319 119.065 103.429 119.683 104.317 119.683C106.626 119.683 107.796 119.271 108.092 119.271" stroke="#0038FF" stroke-width="0.5"/>
<path d="M99.9165 112.48C100.139 112.892 101.249 113.509 102.137 113.509C104.446 113.509 105.615 113.097 105.912 113.097" stroke="#0038FF" stroke-width="0.5"/>
<path d="M71.5767 134.86L73.2117 137.175L75.3917 138.461L79.2067 139.233H87.3817C90.1067 139.233 94.6831 139.504 95.2842 139.747C97.1917 140.519 99.9167 141.034 101.552 142.577C103.187 144.12 107.819 149.265 108.364 150.809C109.454 153.896 111.362 164.957 111.362 165.986C111.362 167.015 111.362 170.873 109.999 173.703C109.278 175.202 107.183 179.877 106.184 181.678L104.549 183.736" stroke="#0038FF" stroke-width="0.5"/>
<path d="M141.609 75.4374C141.881 76.7236 142.971 79.0388 142.971 80.5822C142.971 82.1256 142.971 83.1546 142.971 84.4408C142.971 85.727 142.971 87.1418 142.154 89.0712C141.609 90.3574 140.519 93.9587 140.519 94.7305C140.519 95.5022 139.429 97.0456 138.884 98.0746C138.339 99.1036 137.249 100.904 136.704 101.676C136.268 102.293 135.614 103.134 135.341 103.477" stroke="#0038FF" stroke-width="0.5"/>
<path d="M141.881 86.7557C141.336 87.5275 140.246 89.1738 140.246 89.5854C140.246 90.0999 138.611 93.7012 138.611 94.2157C138.611 94.6273 138.066 95.7592 137.794 96.2737L140.519 94.9875" stroke="#0038FF" stroke-width="0.5"/>
<path d="M108.091 91.1291C108.273 91.2148 108.909 91.3863 110.271 91.8774C111.41 92.2877 113.541 92.4153 115.176 92.4153C116.484 92.4153 119.264 92.4153 121.989 92.4153C123.805 92.4153 127.439 92.158 128.529 92.158C129.891 92.158 131.799 91.8774 133.161 91.1291C134.215 90.5506 134.524 88.5567 134.796 87.7849C135.069 87.0132 135.614 84.1836 135.886 83.4118C136.159 82.6401 137.249 80.3249 137.521 78.5243C137.56 78.2696 138.066 77.2381 138.611 76.4663C139.156 75.6946 139.429 75.4374 139.974 75.1801C140.519 74.8371 142.426 75.9518 142.971 76.9808C144.068 79.0516 143.789 83.1546 143.789 84.1836C143.789 85.2125 144.334 90.6146 144.334 91.3863C144.334 94.4732 142.699 98.3318 141.064 99.618C139.429 100.904 139.156 101.676 137.794 102.705C137.368 103.026 134.524 105.277 133.434 106.564C132.344 107.85 131.799 108.364 129.346 109.65C128.538 110.074 127.166 110.615 125.259 111.966C124.169 112.737 124.223 112.789 122.261 114.024C119.809 115.567 118.719 116.339 117.084 116.853C115.791 117.26 115.176 117.625 113.814 118.139C112.724 118.551 111.18 118.825 110.544 118.911" stroke="#0038FF" stroke-width="0.5"/>
<path d="M128.256 93.7012C128.166 93.7869 127.929 94.2157 127.711 95.2446C127.439 96.5308 127.439 96.5308 127.166 98.0743C126.894 99.6177 126.621 99.6177 126.349 101.418C126.118 102.946 126.076 103.476 126.349 105.534C126.531 106.909 126.621 107.592 127.711 108.878C128.052 109.28 129.074 110.165 129.891 110.679C130.073 110.793 130.8 111.279 131.254 111.451" stroke="#0038FF" stroke-width="0.5"/>
<path d="M130.821 91.9005C130.733 91.9776 130.506 92.3628 130.296 93.2874C130.033 94.4431 130.033 94.4431 129.771 95.83C129.509 97.2168 129.246 97.2168 128.984 98.8348C128.761 100.208 128.722 100.684 128.984 102.533C129.159 103.768 129.246 104.382 130.296 105.538C130.624 105.899 131.608 106.694 132.395 107.156C132.57 107.259 133.269 107.695 133.707 107.849" stroke="#0038FF" stroke-width="0.5"/>
<path d="M130.665 91.7828C130.614 91.8598 130.507 92.2256 130.484 93.0725C130.455 94.1311 130.455 94.1311 130.457 95.3966C130.458 96.6622 130.276 96.6864 130.308 98.1588C130.336 99.4081 130.372 99.8381 130.8 101.469C131.087 102.558 131.229 103.1 132.114 104.037C132.39 104.33 133.181 104.951 133.791 105.292C133.926 105.368 134.471 105.694 134.796 105.792" stroke="#0038FF" stroke-width="0.5"/>
<path d="M133.357 90.9902C133.339 91.0562 133.315 91.3777 133.362 92.1354C133.42 93.0826 133.42 93.0826 133.505 94.2171C133.591 95.3516 133.51 95.3624 133.624 96.6842C133.72 97.8057 133.765 98.1933 134.069 99.6808C134.272 100.674 134.373 101.168 134.837 102.062C134.982 102.341 135.383 102.944 135.682 103.287C135.749 103.363 136.018 103.688 136.172 103.795" stroke="#0038FF" stroke-width="0.5"/>
<path d="M118.719 56.6586C118.719 56.6586 117.629 55.3724 115.994 55.8869C114.359 56.4013 113.541 57.6875 113.541 57.6875C113.087 58.1163 111.361 61.2889 111.089 62.3179C110.816 63.3469 109.181 66.4337 108.636 68.2344C108.262 69.4711 107.274 74.151 107.001 75.6944C106.901 76.2618 106.184 80.0675 105.911 82.1254C105.693 83.7718 105.821 88.4707 105.911 90.6144V99.8751C106.093 102.276 105.911 105.02 106.729 108.364C106.982 109.398 108.091 112.994 108.636 114.281C109.181 115.567 110.816 119.425 111.634 120.197C112.451 120.969 114.904 123.027 115.721 123.799" stroke="#0038FF" stroke-width="0.5"/>
<path d="M118.174 56.916C117.902 57.6877 116.896 60.7746 116.896 60.7746C116.896 60.7746 115.722 65.9195 115.533 67.9774C115.439 69.0025 114.359 73.3794 114.087 75.4374C113.935 76.5789 113.269 81.6112 112.996 83.9263C112.777 85.7876 113.542 86.4987 114.087 87.0132C114.523 87.4248 115.722 87.8707 116.267 88.0422C116.812 88.2137 119.311 88.1098 120.627 87.0132C121.697 86.1211 122.807 83.4119 122.807 83.4119C123.17 82.0399 123.624 80.325 123.693 78.5243C123.724 77.7113 124.335 71.826 124.442 71.3215C124.714 70.0353 125.532 67.4629 126.349 66.1767C127.167 64.8905 128.257 64.1188 129.892 63.6043C131.527 63.0898 132.889 62.5753 133.434 62.5753C133.979 62.5753 134.252 62.8326 134.252 63.6043C134.252 64.376 133.434 64.376 133.434 64.376C132.253 64.4618 131.15 64.7294 129.892 65.405C127.579 66.6467 126.852 67.0271 125.804 69.0063C125.259 70.0353 124.886 71.836 124.714 72.6077C124.577 73.2251 124.657 74.2369 124.714 74.6657" stroke="#0038FF" stroke-width="0.5"/>
<path d="M119.809 54.3436C120.263 54.6866 120.081 55.3726 118.991 56.4016C117.629 57.6878 116.811 58.7167 115.994 59.7457C115.176 60.7747 113.541 63.6043 112.724 65.6622C112.379 66.5307 110.271 71.836 109.726 76.2091C109.625 77.0267 108.818 88.2137 108.364 93.7015C108.364 97.3029 108.364 104.66 108.364 105.277C108.364 106.049 107.819 109.65 108.909 113.766C109.247 115.045 110.271 117.625 112.451 119.426L117.356 121.226C118.174 121.569 119.516 122.989 119.809 123.541C120.354 124.57 121.716 128.172 119.809 131.773C118.956 133.384 115.994 136.918 114.086 138.719C113.392 139.375 106.184 143.092 104.549 143.606C102.914 144.121 99.5009 145.486 98.0089 146.693C96.1014 148.237 95.8289 152.61 95.8289 153.381C95.8289 154.153 97.4408 161.901 97.7364 163.157C98.2814 165.472 103.731 177.048 104.549 179.106C104.932 180.069 104.276 184.765 103.459 187.337C102.894 189.114 101.279 191.453 100.461 192.739C99.8074 193.768 98.3722 195.569 97.7364 196.341C93.7397 200.714 85.6374 209.563 85.2014 209.974C84.7654 210.386 80.4272 214.605 75.3914 218.206C72.1541 220.521 67.4889 224.38 65.3089 225.923C63.7674 227.015 53.5914 233.126 50.0489 234.412C49.2858 234.689 44.5988 236.47 39.6938 236.728C34.7888 236.985 28.6122 231.583 27.7039 230.297C27.1589 229.525 25.7964 224.964 25.7964 223.678C25.7964 222.392 26.6139 216.475 27.4314 215.189C28.62 213.319 30.7013 211.947 31.7913 211.003L34.7888 208.174C37.2413 206.116 40.4541 202.979 41.6013 202.257C44.0538 200.714 49.2313 196.341 54.4089 195.826C57.3899 195.53 60.1314 194.026 62.3114 193.511C64.4914 192.997 74.7248 190.44 75.6639 190.167C79.2064 189.138 94.4664 185.537 98.0089 185.022C99.5172 184.803 106.366 183.393 108.909 182.707C123.079 178.334 139.314 173.448 141.609 172.675C145.424 171.388 155.234 168.559 159.049 166.758C162.864 164.957 168.314 162.385 171.584 160.841C174.854 159.298 176.761 157.755 179.759 155.954C182.45 154.337 184.664 153.381 186.027 152.352C187.117 151.529 189.569 150.037 190.659 149.523" stroke="#0038FF" stroke-width="0.5"/>
<path d="M128.802 48.1697C128.166 48.9414 127.235 49.7131 126.894 50.9993C126.622 52.0283 125.804 54.8579 125.804 55.8869C125.804 56.9159 126.349 60.0028 126.894 60.7745C127.439 61.5462 130.709 63.6041 130.982 63.8614" stroke="#0038FF" stroke-width="0.5"/>
<path d="M113.542 55.6294C113.542 55.6294 112.457 54.8306 111.634 54.6005C110.614 54.3151 108.364 55.115 108.364 55.115C107.365 55.6294 106.22 56.3674 105.912 56.6584C105.367 57.1729 102.642 60.517 101.824 62.8322C101.393 64.0524 99.0992 71.0639 98.8267 72.3501C98.5542 73.6363 95.2661 85.442 94.7392 94.2156C94.5042 98.1272 94.7392 101.247 94.7392 104.248C95.1025 106.992 95.5022 112.068 96.3742 113.509C97.4642 115.309 98.0322 117.132 98.8267 117.882C99.3717 118.396 101.915 120.111 102.914 120.711C102.914 120.711 104.706 120.843 105.912 120.969C106.758 121.057 108.092 120.969 108.092 120.969" stroke="#0038FF" stroke-width="0.5"/>
<path d="M121.444 48.1698C122.08 48.2555 123.46 48.427 123.896 48.427C124.441 48.427 125.259 48.427 126.076 48.427C126.894 48.427 127.984 48.427 128.529 48.427C128.965 48.427 129.619 48.2555 129.891 48.1698" stroke="#0038FF" stroke-width="0.5"/>
<path d="M93.6489 22.1881C93.8306 22.2739 94.7389 22.8055 95.8289 23.2171C97.1914 23.7316 98.5539 24.5033 99.3714 25.5322C100.189 26.5612 101.824 28.8764 102.369 29.9053C102.914 30.9343 104.276 33.764 104.549 34.5357C104.767 35.1531 105.003 35.9934 105.094 36.3364L106.184 34.7929L107.546 33.764L108.636 33.2495L110.816 35.0502C111.361 35.7361 112.288 37.3139 112.724 38.1371C113.269 39.166 113.541 40.195 113.814 41.4812C114.086 42.7674 114.808 44.679 115.449 45.0826C116.266 45.597 117.901 46.626 118.991 46.8833C119.59 47.0244 120.808 47.9122 121.444 48.1695L120.626 51.5136L119.809 54.6005C119.809 54.6005 117.356 53.8288 115.721 54.6005C114.086 55.3722 112.397 57.533 112.179 57.9446C111.634 58.9736 110.544 60.2598 109.999 61.546C109.797 62.0237 107.546 68.2343 107.274 69.006C107.001 69.7777 106.125 74.6853 105.911 75.6943C105.639 76.9805 105.094 78.7811 104.821 80.3246C104.538 81.9294 104.276 85.2122 104.004 87.2701C103.786 88.9164 103.046 96.2985 103.731 102.19C104.459 108.44 107.001 117.162 107.001 117.367C107.001 117.573 109.215 122.621 111.906 123.027C112.537 123.122 113.323 123.027 113.541 123.027C113.814 123.027 115.176 122.769 115.449 122.255C115.667 121.843 116.176 121.054 116.266 120.711C116.993 120.711 118.617 120.799 119.264 120.711C121.171 120.454 124.056 118.246 124.441 117.882C125.804 116.596 128.148 114.987 128.529 114.538C129.619 113.251 131.526 110.422 132.071 109.393C132.244 109.067 134.038 106.609 134.251 106.306C134.796 105.534 136.431 103.991 136.431 103.991C136.431 103.991 139.066 102.019 139.974 100.904C140.791 100.132 141.969 98.5643 142.154 98.3315C142.971 97.3025 143.572 96.233 144.061 94.7301C144.938 92.0416 144.061 89.7568 144.061 87.5273C143.971 84.5262 144.826 81.3694 143.516 77.7522C143.024 76.3912 142.336 75.2655 141.881 74.4081C141.427 73.4648 140.657 71.4544 140.519 71.0639C139.974 69.5205 138.611 66.9481 138.611 66.9481C137.976 65.7476 136.303 65.3709 135.069 64.1184C134.503 63.544 134.191 63.2128 133.706 62.575C133.483 62.2805 133.161 61.8032 133.161 61.8032H134.251L132.344 60.0025C131.708 59.2308 130.808 58.4348 130.436 57.1729C130.094 56.0115 129.891 54.6862 129.891 53.8288C129.891 53.8288 130.164 51.7708 131.254 50.2274C131.782 49.4798 132.344 48.1695 132.344 48.1695H129.619L130.436 44.5681C130.709 43.3676 130.981 41.2239 130.981 40.4522C130.981 38.8253 129.165 37.3029 128.256 36.2739C126.894 35.4165 123.351 34.2784 123.351 34.2784C123.351 34.2784 119.264 32.4778 118.446 31.9633C117.629 31.4488 117.356 30.6771 117.084 29.9053C116.811 29.1336 117.286 27.2103 117.084 26.304C116.594 24.1057 116.176 22.9598 115.449 21.9309C114.722 20.9019 113.069 18.9121 112.724 18.5867C112.179 18.0722 110.726 17.129 109.999 16.5288C109.272 15.9286 107.546 15.7571 107.546 15.7571" stroke="#0038FF" stroke-width="0.5"/>
<path d="M102.369 18.5869C103.005 18.9299 104.44 19.7188 105.094 20.1304C105.912 20.6448 108.909 23.4745 109.454 24.2462C109.999 25.0179 112.452 28.1048 112.724 29.391C112.997 30.6772 112.724 32.9924 112.724 33.7641" stroke="#0038FF" stroke-width="0.5"/>
<path d="M108.636 33.2496C108.727 33.0781 109.134 32.8647 110.271 32.2206C111.634 31.4489 111.361 31.1916 113.269 30.9344C114.795 30.7286 115.721 30.4199 116.539 30.4199H117.356" stroke="#0038FF" stroke-width="0.5"/>
<path d="M112.997 33.764C112.906 33.8498 112.888 34.1756 113.542 34.793C114.359 35.5647 114.632 35.822 115.449 36.3364C116.267 36.8509 118.447 38.1371 118.992 38.3944C119.537 38.6516 121.172 39.6806 121.989 40.1951C122.807 40.7095 122.807 40.9668 123.352 42.253C123.897 43.5392 123.897 44.8254 124.169 45.5971C124.387 46.2145 124.26 47.5693 124.169 48.1695V48.684" stroke="#0038FF" stroke-width="0.5"/>
<path d="M122.534 40.7095C122.625 40.7095 123.204 40.9133 124.714 40.7095C126.622 40.4523 127.119 40.1396 127.439 39.9378C128.257 39.4233 128.802 38.8231 129.347 38.3944L129.892 37.8799" stroke="#0038FF" stroke-width="0.5"/>
<path d="M123.896 43.958C123.984 43.958 124.541 44.1733 125.996 43.958C127.833 43.6861 128.311 43.3555 128.62 43.1422C129.407 42.5983 129.932 41.9639 130.457 41.5106L130.981 40.9668" stroke="#0038FF" stroke-width="0.5"/>
<path d="M124.116 46.5774C124.192 46.5857 124.654 46.8406 125.949 46.7755C127.584 46.6934 128.04 46.4279 128.333 46.2565C129.083 45.8197 129.613 45.2729 130.123 44.8965L130.644 44.4349" stroke="#0038FF" stroke-width="0.5"/>
<path d="M32.336 89.843C32.0635 90.6147 32.0635 90.6147 32.0635 91.3865C32.0635 92.0038 32.0635 94.2161 32.0635 95.2451V96.7885" stroke="#0038FF" stroke-width="0.5"/>
<path d="M33.1538 90.8716C32.8813 91.6433 32.8813 91.6433 32.8813 92.415C32.8813 93.0324 32.8813 95.2447 32.8813 96.2736V97.8171" stroke="#0038FF" stroke-width="0.5"/>
<path d="M34.5161 94.9877C34.5161 95.605 34.5161 97.8173 34.5161 98.8463V100.39" stroke="#0038FF" stroke-width="0.5"/>
<path d="M37.7861 98.589C37.7861 99.2064 37.7861 101.419 37.7861 102.448V103.991" stroke="#0038FF" stroke-width="0.5"/>
<path d="M41.6011 102.705C41.6011 103.322 41.6011 105.535 41.6011 106.564V108.107" stroke="#0038FF" stroke-width="0.5"/>
<path d="M43.7812 104.763C43.7812 105.38 43.7812 107.592 43.7812 108.621V110.165" stroke="#0038FF" stroke-width="0.5"/>
<path d="M36.1514 98.589V101.933" stroke="#0038FF" stroke-width="0.5"/>
<path d="M39.4214 102.19V105.534" stroke="#0038FF" stroke-width="0.5"/>
<path d="M45.9614 108.879V112.223" stroke="#0038FF" stroke-width="0.5"/>
<path d="M48.1416 110.936V114.281" stroke="#0038FF" stroke-width="0.5"/>
<path d="M50.3213 112.994V116.339" stroke="#0038FF" stroke-width="0.5"/>
<path d="M53.0464 114.538V117.882" stroke="#0038FF" stroke-width="0.5"/>
<path d="M56.8613 118.139V121.484" stroke="#0038FF" stroke-width="0.5"/>
<path d="M59.0415 119.683V123.027" stroke="#0038FF" stroke-width="0.5"/>
<path d="M61.2212 120.712V124.056" stroke="#0038FF" stroke-width="0.5"/>
<path d="M62.8564 121.74V125.085" stroke="#0038FF" stroke-width="0.5"/>
<path d="M63.9463 122.77V126.114" stroke="#0038FF" stroke-width="0.5"/>
<path d="M65.0366 123.798V127.143" stroke="#0038FF" stroke-width="0.5"/>
<path d="M67.2163 124.827V128.172" stroke="#0038FF" stroke-width="0.5"/>
<path d="M68.8516 126.371V129.715" stroke="#0038FF" stroke-width="0.5"/>
<path d="M70.4863 126.371V129.715" stroke="#0038FF" stroke-width="0.5"/>
<path d="M72.1211 127.915V131.259" stroke="#0038FF" stroke-width="0.5"/>
<path d="M74.8467 128.943V132.287" stroke="#0038FF" stroke-width="0.5"/>
<path d="M78.6611 129.458V132.802" stroke="#0038FF" stroke-width="0.5"/>
<path d="M80.2964 129.973V133.317" stroke="#0038FF" stroke-width="0.5"/>
<path d="M35.6065 124.57C35.5156 124.484 35.7155 124.159 36.1515 123.541C36.6965 122.769 36.969 122.769 37.7865 121.483C38.604 120.197 39.694 118.654 39.9665 118.396C40.239 118.139 41.329 116.081 41.6015 115.824C41.8195 115.618 42.419 114.881 42.6915 114.538" stroke="#0038FF" stroke-width="0.5"/>
<path d="M24.9791 103.476C24.7975 103.905 24.1616 105.791 24.1616 106.82C24.1616 108.107 24.6116 110.197 25.2516 111.708C25.7966 112.994 28.5216 116.338 30.1566 118.911C30.9741 120.197 35.3341 124.313 35.8791 124.827C36.4241 125.342 39.6941 127.914 40.5116 128.429C41.3291 128.943 43.7816 130.744 45.9616 132.03C48.1417 133.316 50.0492 134.345 51.4117 135.117C52.7742 135.889 55.1103 137.012 56.3167 137.175C58.2242 137.432 61.2379 136.785 61.7667 136.66C62.8567 136.403 65.4908 135.288 66.3992 134.86L67.7617 134.088" stroke="#0038FF" stroke-width="0.5"/>
<path d="M27.9761 115.824C27.6128 116.339 27.4311 117.3 27.4312 117.882C27.4312 118.911 28.2766 119.993 28.7937 120.969C29.3387 121.998 31.5187 123.799 32.0637 124.313C32.3888 124.62 33.1017 125.293 33.9712 126.005M54.1362 136.146C53.5912 136.318 52.3922 136.661 51.9562 136.661C51.4112 136.661 50.5937 136.918 49.7762 136.661C48.9587 136.404 47.3237 135.632 46.7787 135.375C46.2337 135.117 44.0537 133.059 43.2362 132.545C42.2222 131.907 41.3287 131.259 40.2387 130.487C39.1487 129.715 37.5137 128.429 35.8786 127.4C35.219 126.985 34.5593 126.486 33.9712 126.005M33.9712 126.005C33.8803 126.298 33.4262 126.114 33.1537 126.886C32.8951 127.618 33.4262 128.172 33.6987 128.429C33.9712 128.686 35.3337 129.715 35.6062 129.972C35.8787 130.23 37.2412 131.259 37.7862 131.516C38.3312 131.773 39.4212 132.288 40.2387 132.802C40.88 133.206 41.0562 133.468 42.4187 133.983C43.7812 134.497 45.1437 135.269 45.6887 135.526C46.2337 135.783 46.5062 135.889 47.0512 135.889C47.5962 135.889 48.1412 136.052 48.4137 136.146" stroke="#0038FF" stroke-width="0.5"/>
<path d="M47.3238 89.0711L48.4138 88.2993C48.4138 88.2993 50.0488 87.7849 50.8664 88.5566L53.3188 90.8718C54.4088 91.9007 56.7322 94.9108 57.4063 95.7593C58.2238 96.7883 61.5884 100.068 62.9356 101.419C64.2188 102.705 66.5261 104.859 66.9438 105.277C68.2271 106.563 72.5755 110.851 75.3914 112.994C75.3914 112.994 77.9347 114.023 77.8439 114.538C77.7531 115.052 77.4624 116.133 77.0264 116.339C76.4814 116.596 74.3013 115.824 71.5763 114.023C67.6776 111.447 66.3988 110.937 63.9463 109.136C61.4938 107.335 59.0413 105.277 57.6788 103.991C56.5553 102.93 54.0097 100.013 53.0463 99.1035C51.9563 98.0745 50.3213 96.2738 48.9588 94.7304C47.4581 93.0304 46.7788 91.129 46.7788 90.6145C46.7788 90.2029 46.9605 89.4141 47.3238 89.0711Z" stroke="#0038FF" stroke-width="0.5"/>
<path d="M29.0661 87.5276C28.7027 87.6991 27.9761 88.145 27.9761 88.5566C27.9761 89.071 27.9761 89.8428 27.9761 90.1C27.9761 90.3572 28.7936 92.6724 28.7936 93.4441C28.7936 94.0615 31.1552 98.5032 32.3361 100.647C33.5169 101.933 35.9331 104.608 36.1511 105.02C36.3691 105.432 39.5119 108.45 41.0561 109.908C43.4178 111.537 48.1956 114.898 48.4136 115.31C48.6861 115.824 51.1386 117.882 51.6836 118.139C52.2286 118.397 53.0461 118.911 53.8636 119.425C54.5176 119.837 55.5894 120.454 56.0436 120.712" stroke="#0038FF" stroke-width="0.5"/>
<path d="M80.5688 133.059C80.0238 133.231 77.0985 133.473 75.9363 133.317C74.0288 133.059 72.3938 132.545 71.3038 132.03C70.2138 131.516 66.1263 129.715 65.3088 129.201C64.4913 128.686 57.3488 124.916 56.8613 124.57C55.7713 123.799 52.4698 121.526 51.6838 120.969C50.5938 120.197 47.0513 117.625 45.4163 116.339C44.9426 115.966 42.4188 113.595 41.3288 112.48L40.2388 111.194" stroke="#0038FF" stroke-width="0.5"/>
<path d="M31.7912 86.2413L30.9737 88.8137C30.9737 88.8137 30.8812 91.0322 30.9737 91.6434C31.2462 93.4441 31.2462 94.2158 31.7912 95.502C32.196 96.4574 33.6987 98.8461 34.2437 99.6179C34.7887 100.39 40.2387 106.306 40.2387 106.306C40.2387 106.306 43.7812 110.422 45.9612 112.223C47.7254 113.68 50.5937 116.853 53.5913 118.911C56.5888 120.969 59.3548 122.967 61.4938 124.313C63.1288 125.342 65.3088 127.4 67.2163 128.429C69.1238 129.458 69.7528 130.264 71.5763 131.001C73.4838 131.773 74.5738 132.03 76.4813 132.287C78.1874 132.518 78.9338 132.545 80.2963 132.545C81.3863 132.545 84.3838 131.773 85.2013 130.744" stroke="#0038FF" stroke-width="0.5"/>
<path d="M21.1636 84.1834L21.7086 84.9552C21.9811 85.2124 22.6172 85.6127 22.7986 85.7269C23.6161 86.2414 23.8886 86.4986 24.4336 86.7558C24.9786 87.0131 25.2511 87.2703 25.7961 87.5276C26.0718 87.6577 26.0686 87.7848 26.6136 87.7848L27.4311 87.7848C27.7036 87.7848 27.9761 87.7848 28.5211 87.5276C28.7648 87.4125 29.0661 87.2703 29.6111 87.0131C29.8061 86.9211 29.8836 86.7558 30.4286 86.7558L30.9736 86.7558C31.5186 86.7558 31.6936 86.4254 31.7911 86.2414C32.0636 85.7269 32.2499 84.942 32.3361 84.6979C32.6086 83.9262 33.5059 82.5646 33.6986 82.3827C34.2436 81.8683 35.5153 81.0108 36.4236 80.3248C37.5136 79.5531 38.6623 79.3362 38.8761 79.2958C40.2386 79.0386 41.0561 79.2958 42.6911 79.2958C44.0536 79.2958 45.2344 79.8103 46.2336 80.0676C47.7082 80.4472 49.7761 81.611 50.3211 81.8683C51.0919 82.2321 54.1749 84.0511 54.4086 84.1834C55.7711 84.9552 57.9933 86.5318 59.5861 87.7848C61.2211 89.071 64.0006 91.1804 64.2186 91.3862C64.4911 91.6434 70.8384 97.6353 71.0311 97.8172C72.1211 98.8462 76.3903 102.962 78.9336 105.534L84.6561 111.708C86.0186 113.509 87.4356 116.699 87.6536 117.11C87.9261 117.625 88.4711 119.94 88.7437 121.226C88.7971 121.478 88.7437 123.541 88.7437 123.799C88.7437 124.056 88.4711 126.114 88.1986 126.885C88.1125 127.129 86.8843 128.742 86.5636 128.943C85.7461 129.458 84.3836 129.972 83.2936 130.23C82.6592 130.379 81.1136 130.23 80.8411 129.972" stroke="#0038FF" stroke-width="0.5"/>
<path d="M27.7037 89.5857C27.7037 89.7572 27.1587 91.3349 27.1587 92.1581C27.1587 93.9588 27.844 95.0031 27.9762 95.5022C28.5212 97.5602 29.3387 99.3609 30.7012 100.904C32.0637 102.448 36.8847 107.909 37.5137 108.622C38.8762 110.165 40.4961 111.451 41.8737 113.252C43.0545 114.795 44.5987 117.368 45.9612 118.654C46.517 119.179 50.1396 122.255 51.9562 124.056C53.0462 124.999 55.7167 127.297 56.5887 127.915C57.4607 128.532 61.5846 131.43 63.6737 132.545C65.3087 133.317 66.5077 133.728 68.0337 134.346C69.9412 135.117 72.9387 134.86 73.7562 134.86C76.2087 134.86 77.6621 133.66 78.9337 133.317" stroke="#0038FF" stroke-width="0.5"/>
<path d="M12.4438 89.071C12.4438 89.071 12.5974 90.1249 12.7163 90.6145C12.921 91.4568 13.2613 91.9007 14.0788 92.4152C14.8055 92.8439 16.3678 93.7528 16.8038 93.9586C17.3488 94.2159 18.7114 94.7303 19.5288 95.2448C20.0358 95.5639 21.1639 96.531 21.4364 97.0455C21.6544 97.4571 23.0732 99.7559 23.8888 101.676C24.4276 102.944 25.1424 103.734 25.7964 104.763C26.6139 106.049 27.1589 107.592 27.4314 108.107C27.8708 108.936 29.3389 110.937 30.4289 112.223L32.6088 114.795C32.6088 114.795 33.9132 116.415 35.0614 116.339C35.633 116.3 36.4239 115.824 36.4239 115.824L36.9689 115.31C37.2414 115.052 37.5139 114.486 37.5139 114.281C37.5139 114.075 37.5138 113.509 37.5139 112.994C37.5139 112.48 37.2414 111.708 37.2414 111.708" stroke="#0038FF" stroke-width="0.5"/>
<path d="M34.7886 116.339C34.8794 116.51 35.0611 116.596 35.6061 116.853C35.9508 117.016 36.4236 117.11 36.6961 117.11C36.9141 117.11 37.2411 117.11 37.5136 117.11C38.0586 117.11 38.4494 116.999 38.6036 116.853C38.8761 116.596 39.1773 116.284 39.4211 115.824C39.6936 115.31 39.6936 115.052 39.6936 114.795C39.6936 114.795 39.6936 114.482 39.6936 114.281C39.6936 113.979 39.7562 113.726 39.6936 113.509C39.631 113.292 39.4211 112.995 39.4211 112.995" stroke="#0038FF" stroke-width="0.5"/>
<path d="M21.7088 49.4561L20.8914 54.0864C20.8914 55.8871 20.3464 57.945 20.3464 58.974C20.3464 60.0029 19.8013 61.8036 19.8013 63.3471C19.8013 64.5818 20.3464 67.2057 20.3464 68.2347L15.4413 69.2636L12.1713 70.5498C12.1713 70.5498 8.08382 72.0933 7.26632 71.836C6.44882 71.5788 5.35882 71.3216 4.26882 70.5498C3.17881 69.7781 1.72549 67.7202 0.998823 66.434C0.998823 66.434 0.40253 64.6675 0.453811 63.3471C0.514338 61.7886 1.04974 60.7083 1.54381 59.4885C2.1625 57.961 2.90631 56.916 2.90631 56.916C2.90631 56.916 3.72737 55.1165 4.54132 55.3726C5.35882 55.6298 7.60679 55.8718 8.90132 55.8871C10.3009 55.9036 12.1713 55.6298 12.1713 55.6298C12.1713 55.6298 11.8713 58.1012 11.6263 59.4885C11.3538 61.0319 11.0813 61.8036 11.0813 63.3471C11.0813 64.157 11.0813 64.3378 11.0813 65.1478C11.0813 68.2347 11.3538 70.8636 11.3538 70.8636" stroke="#0038FF" stroke-width="0.5"/>
<path d="M7.81152 71.8359C8.08402 72.1789 8.68352 72.9678 8.90152 73.3794C9.17403 73.8938 9.44653 74.4083 9.44653 75.6945C9.44653 76.9807 9.17403 78.5242 9.17403 79.5531C9.17403 80.5821 8.76713 82.9078 8.90152 83.669C9.17403 85.2125 10.264 85.9842 10.809 86.7559C11.354 87.5276 12.1715 88.5566 12.444 89.0711C12.662 89.4827 13.3524 88.4708 13.8065 88.2993L15.4415 87.2704L16.5315 86.7559L17.6215 86.2414C17.894 86.1557 18.7633 85.5617 19.2565 85.2125C20.3465 84.4407 20.8007 84.4407 21.164 84.1835C21.3457 83.669 21.4365 82.4342 21.4365 81.6111C21.4365 80.5821 21.4365 79.5531 21.4365 78.5242C21.4365 77.4952 21.4721 76.4588 20.8915 75.1801C20.074 73.3794 19.8015 73.8938 19.2565 72.6076C19.0541 72.13 18.439 71.3214 17.894 70.5497C17.6236 70.1668 16.804 69.092 16.5315 68.749" stroke="#0038FF" stroke-width="0.5"/>
<path d="M11.3535 71.0641C11.4443 71.6643 11.735 72.9677 12.171 73.3793C12.716 73.8937 13.806 75.4372 14.0785 76.4662C14.351 77.4951 15.1685 79.2958 15.1685 79.8103C15.1685 80.3248 16.2585 84.4406 16.2585 84.6979C16.2585 84.9037 16.4402 86.1556 16.531 86.7558C16.531 86.7558 15.8675 87.9929 15.986 88.8137C16.0635 89.3498 16.531 90.0999 16.531 90.0999C17.076 90.6144 18.275 90.8717 18.711 90.8717C19.801 90.8717 22.526 91.3861 22.526 91.3861C22.526 91.3861 23.9794 91.5576 24.161 91.6434L25.251 94.7303C26.2502 96.7882 28.151 100.463 28.2485 100.647C28.7935 101.676 30.2148 103.945 30.4285 104.248C30.9735 105.02 32.881 108.107 35.061 110.165C36.1721 111.214 37.5135 112.137 38.6035 112.737C39.2421 113.039 39.6058 113.082 39.966 113.252C40.3263 113.422 41.056 113.252 41.056 113.252L41.3285 112.737" stroke="#0038FF" stroke-width="0.5"/>
<path d="M15.4414 81.3537L16.2589 80.582L17.3489 79.8103C17.6214 79.553 18.4389 79.0386 18.9839 78.5241C19.3693 78.1603 19.5289 78.0096 20.0739 77.4951C20.4186 77.1697 20.8006 76.8949 20.8914 76.7234L21.4364 75.9517" stroke="#0038FF" stroke-width="0.5"/>
<path d="M15.9863 83.4116L16.8038 82.6399L17.8938 81.8681C18.1663 81.6109 18.9838 81.0964 19.5288 80.5819C19.9142 80.2181 20.0738 80.0675 20.6188 79.553C20.9635 79.2276 21.3455 78.9527 21.4363 78.7812" stroke="#0038FF" stroke-width="0.5"/>
<path d="M4.26855 54.858C4.72272 53.4003 6.23528 50.0879 6.72106 48.9415C8.35606 45.0828 11.6261 39.6808 12.1711 38.9091C14.3511 35.8222 17.6211 31.7063 19.2561 30.1629C20.8911 28.6194 26.1226 23.7617 27.4311 22.7029C29.3386 21.1594 35.8786 16.7863 36.9686 16.0146C37.8406 15.3972 41.3286 13.9567 44.3261 12.4132C44.3261 12.4132 51.7387 9.81408 56.8611 9.06909C61.1734 8.44193 67.7611 8.29736 67.7611 8.29736C70.7586 8.64035 78.1162 9.48067 80.2962 10.0981C82.4762 10.7154 85.4737 11.127 89.0162 12.4132C92.5587 13.6994 95.8287 16.0146 95.8287 16.0146L97.7362 17.8153L99.3712 20.3877" stroke="#0038FF" stroke-width="0.5"/>
<path d="M20.0737 20.9021C21.8296 19.0477 23.1843 17.8143 25.2512 16.2718C26.8264 15.0963 28.1747 14.3006 29.0662 13.6994C32.8812 11.127 36.6963 9.58354 36.6963 9.58354L44.0538 6.49664C44.0538 6.49664 49.9484 4.29199 54.9538 3.15251C59.2567 2.17295 63.0761 1.42201 67.4888 1.09458C71.3081 0.811187 77.5713 1.09458 77.5713 1.09458L84.6563 1.60906C89.2888 2.63803 93.1038 3.15251 97.1913 4.69596C99.2709 5.4812 103.186 7.35412 104.821 8.04009C106.456 8.72607 110.544 10.8697 110.544 13.4422C110.544 16.0146 107.546 16.2718 107.546 16.2718C104.821 17.0435 103.731 17.8153 102.096 18.8442C101.416 19.2723 100.189 20.1304 98.8263 20.9021C97.8917 21.4315 95.5563 22.1884 93.9213 22.1884C92.8313 22.1884 90.1063 21.6739 87.3813 20.9021C84.2275 20.009 81.9313 18.8442 78.1163 17.8153C75.4187 17.0877 72.3938 16.7863 71.3038 16.7863H62.0388L54.9538 18.3297C52.9555 19.0157 49.0149 20.659 48.4138 20.9021C46.5063 21.6739 44.4171 23.1316 42.4188 23.989C40.5113 25.1895 37.2413 27.5904 35.8788 28.6194C34.8862 29.369 33.4263 31.0203 32.6088 31.7063C29.6113 34.7932 26.6138 38.6518 25.2512 41.2242C24.6419 42.3746 23.6163 45.8545 22.5263 48.1697C22.0836 49.11 19.8012 51.7711 18.9837 52.8C18.3298 53.6232 14.8054 55.1152 13.5337 55.3725L7.26623 55.8869L4.5412 55.3725L4.5412 54.0862C4.35953 53.0573 4.54116 50.3069 4.54116 49.1987C4.54116 46.8835 7.12432 40.7097 6.17622 42.2532C5.22811 43.7966 8.17455 38.223 9.17372 36.0794L11.6262 31.7063L14.6237 27.0759C14.6237 27.0759 17.8582 23.2421 20.0737 20.9021Z" stroke="#0038FF" stroke-width="0.5"/>
<path d="M46.9591 90.3569C48.8452 89.5972 50.7047 88.9907 51.8903 90.1001C53.5969 91.5286 52.5982 91.2188 51.6386 91.117C50.6789 91.0153 49.4177 90.4856 49.018 90.9111C48.6184 91.3366 51.6717 91.8411 52.0224 92.0814C53.9484 93.4013 47.6978 91.4429 47.942 92.0566C48.5014 93.4621 52.2418 92.7644 53.9832 93.4889C56.3437 94.471 51.5067 93.6959 52.653 94.6554C53.3094 95.2049 61.6591 95.1781 60.3369 96.5858C59.7835 97.1749 50.1779 94.0451 50.7013 95.3602C50.9288 95.9317 56.1169 96.2103 56.9968 96.7715C57.9022 97.3489 53.4237 96.5262 53.591 96.9022C54.0056 97.8338 58.2539 97.1807 59.6323 98.3345C61.0106 99.4883 54.9528 97.5744 55.5336 98.7036C55.8413 99.302 63.9858 99.571 65.1941 100.652C67.233 102.475 59.6915 99.4695 60.3734 100.416C61.6454 102.183 66.6605 101.587 67.1615 103.176C67.4872 104.208 58.0036 100.387 58.3809 101.789C58.5637 102.468 69.5469 104.177 70.195 105.189C71.8118 107.711 62.9681 102.647 63.9469 104.226C64.4739 105.077 71.3582 106.572 71.9921 107.395C72.8211 108.471 65.4133 105.161 65.5205 106.42C65.5638 106.929 68.215 106.922 70.2024 108.176C72.1898 109.431 67.6947 108.005 68.0845 108.684C68.7966 109.923 73.9488 108.682 75.4053 110.252C77.3088 111.845 68.3205 109.057 70.0395 110.846C71.8408 113.173 77.7611 111.041 78.3258 111.761C79.1259 112.781 73.8581 111.904 74.6026 112.854C74.8693 113.194 77.6968 112.93 78.3349 113.873C78.9339 114.608 73.5548 113.645 73.6928 114.197C73.9886 115.38 76.8016 115.006 77.2281 115.051" stroke="#0038FF" stroke-width="0.5"/>
<path d="M35.2605 213.109C34.616 211.38 34.1011 209.723 35.0389 209.171C36.2464 208.32 35.985 208.995 35.8997 209.71C35.8144 210.426 35.3673 211.232 35.7277 211.688C36.0881 212.143 36.5124 209.929 36.7155 209.736C37.8308 208.677 36.1789 212.898 36.698 212.915C37.8869 212.952 37.2933 209.795 37.905 208.679C38.734 207.167 38.0822 210.683 38.8933 210.112C39.3577 209.784 39.328 203.254 40.5204 204.761C41.0194 205.392 38.3789 211.839 39.4914 211.874C39.9748 211.889 40.2062 207.931 40.6803 207.433C41.1682 206.92 40.4757 210.141 40.7938 210.137C41.5819 210.127 41.0255 206.589 42.0008 205.901C42.9761 205.214 41.3615 209.3 42.3167 209.227C42.8227 209.189 43.0435 202.918 43.957 202.339C45.4985 201.362 42.9613 206.238 43.762 206.025C45.2557 205.627 44.7472 201.509 46.0911 201.654C46.9647 201.747 43.7388 207.866 44.9249 208.044C45.4995 208.13 46.937 200.128 47.7922 199.963C49.9256 199.551 45.6474 204.75 46.983 204.519C47.7022 204.394 48.9615 199.521 49.6574 199.304C50.5674 199.019 47.7732 203.689 48.8385 204.03C49.2688 204.167 49.2608 202.094 50.3206 200.965C51.3804 199.836 50.1778 202.866 50.7516 202.79C51.7996 202.652 50.7449 198.21 52.0723 197.601C53.4191 196.652 51.067 202.732 52.5801 201.993C54.5472 201.371 52.738 196.028 53.3471 195.83C54.21 195.549 53.4719 199.367 54.275 199.106C54.5626 199.012 54.3368 196.715 55.1346 196.535C55.7563 196.315 54.9454 200.191 55.4123 200.27C56.4132 200.438 56.0947 198.114 56.1326 197.797" stroke="#0038FF" stroke-width="0.5"/>
<path d="M44.7714 120.454C44.7714 121.126 44.3133 121.641 43.7814 121.641C43.2495 121.641 42.7914 121.126 42.7914 120.454C42.7914 119.783 43.2495 119.268 43.7814 119.268C44.3133 119.268 44.7714 119.783 44.7714 120.454Z" stroke="#0038FF" stroke-width="0.2"/>
<path d="M46.9515 122.77C46.9515 123.305 46.61 123.699 46.234 123.699C45.858 123.699 45.5165 123.305 45.5165 122.77C45.5165 122.234 45.858 121.841 46.234 121.841C46.61 121.841 46.9515 122.234 46.9515 122.77Z" stroke="#0038FF" stroke-width="0.2"/>
<path d="M51.3114 125.857C51.3114 126.392 50.9699 126.786 50.5939 126.786C50.2178 126.786 49.8764 126.392 49.8764 125.857C49.8764 125.321 50.2178 124.928 50.5939 124.928C50.9699 124.928 51.3114 125.321 51.3114 125.857Z" stroke="#0038FF" stroke-width="0.2"/>
<path d="M55.1263 128.429C55.1263 128.965 54.7848 129.358 54.4088 129.358C54.0328 129.358 53.6913 128.965 53.6913 128.429C53.6913 127.893 54.0328 127.5 54.4088 127.5C54.7848 127.5 55.1263 127.893 55.1263 128.429Z" stroke="#0038FF" stroke-width="0.2"/>
<path d="M58.9412 130.744C58.9412 130.939 58.8852 131.111 58.7999 131.232C58.7143 131.353 58.6055 131.416 58.4962 131.416C58.3869 131.416 58.278 131.353 58.1925 131.232C58.1071 131.111 58.0512 130.939 58.0512 130.744C58.0512 130.549 58.1071 130.377 58.1925 130.256C58.278 130.135 58.3869 130.072 58.4962 130.072C58.6055 130.072 58.7143 130.135 58.7999 130.256C58.8852 130.377 58.9412 130.549 58.9412 130.744Z" stroke="#0038FF" stroke-width="0.2"/>
<path d="M62.2112 133.316C62.2112 133.511 62.1552 133.683 62.0699 133.804C61.9843 133.925 61.8755 133.988 61.7662 133.988C61.6569 133.988 61.548 133.925 61.4625 133.804C61.3771 133.683 61.3212 133.511 61.3212 133.316C61.3212 133.121 61.3771 132.949 61.4625 132.828C61.548 132.707 61.6569 132.645 61.7662 132.645C61.8755 132.645 61.9843 132.707 62.0699 132.828C62.1552 132.949 62.2112 133.121 62.2112 133.316Z" stroke="#0038FF" stroke-width="0.2"/>
<path d="M112.896 97.0454C112.896 97.5812 112.555 97.9744 112.179 97.9744C111.803 97.9744 111.461 97.5812 111.461 97.0454C111.461 96.5097 111.803 96.1165 112.179 96.1165C112.555 96.1165 112.896 96.5097 112.896 97.0454Z" stroke="#0038FF" stroke-width="0.2"/>
<path d="M112.351 101.161C112.351 101.697 112.01 102.09 111.634 102.09C111.258 102.09 110.916 101.697 110.916 101.161C110.916 100.625 111.258 100.232 111.634 100.232C112.01 100.232 112.351 100.625 112.351 101.161Z" stroke="#0038FF" stroke-width="0.2"/>
<path d="M112.351 104.506C112.351 104.701 112.295 104.873 112.21 104.994C112.124 105.115 112.016 105.177 111.906 105.177C111.797 105.177 111.688 105.115 111.603 104.994C111.517 104.873 111.461 104.701 111.461 104.506C111.461 104.311 111.517 104.139 111.603 104.018C111.688 103.897 111.797 103.834 111.906 103.834C112.016 103.834 112.124 103.897 112.21 104.018C112.295 104.139 112.351 104.311 112.351 104.506Z" stroke="#0038FF" stroke-width="0.2"/>
<path d="M112.896 108.107C112.896 108.302 112.84 108.474 112.755 108.595C112.669 108.716 112.561 108.779 112.451 108.779C112.342 108.779 112.233 108.716 112.148 108.595C112.062 108.474 112.006 108.302 112.006 108.107C112.006 107.912 112.062 107.74 112.148 107.619C112.233 107.498 112.342 107.435 112.451 107.435C112.561 107.435 112.669 107.498 112.755 107.619C112.84 107.74 112.896 107.912 112.896 108.107Z" stroke="#0038FF" stroke-width="0.2"/>
<path d="M113.442 115.309C113.442 115.504 113.386 115.677 113.3 115.797C113.215 115.919 113.106 115.981 112.997 115.981C112.887 115.981 112.779 115.919 112.693 115.797C112.608 115.677 112.552 115.504 112.552 115.309C112.552 115.115 112.608 114.942 112.693 114.821C112.779 114.7 112.887 114.638 112.997 114.638C113.106 114.638 113.215 114.7 113.3 114.821C113.386 114.942 113.442 115.115 113.442 115.309Z" stroke="#0038FF" stroke-width="0.2"/>
<path d="M113.441 111.451C113.441 111.987 113.1 112.38 112.724 112.38C112.348 112.38 112.006 111.987 112.006 111.451C112.006 110.915 112.348 110.522 112.724 110.522C113.1 110.522 113.441 110.915 113.441 111.451Z" stroke="#0038FF" stroke-width="0.2"/>
</svg>
