<svg width="96" height="33" viewBox="0 0 96 33" fill="none" xmlns="http://www.w3.org/2000/svg">
<path d="M39.3909 22.8958L39.3637 22.767M39.3637 22.767C39.6933 22.903 40.4074 23.203 40.6272 23.3147C40.847 23.4264 42.4589 23.9198 43.2373 24.0129C44.7485 24.2922 47.8256 24.4319 48.0454 24.4319C48.3202 24.4319 50.7706 24.4319 51.205 24.4319C51.7545 24.4319 53.403 24.1526 53.9525 23.8733C54.1982 23.7484 55.4636 22.8958 55.601 22.6165C55.7109 22.3931 55.8757 21.4993 55.8757 20.6615C55.8299 20.196 55.8757 19.265 55.7384 18.8461C55.6412 18.5499 54.6394 17.5893 54.3646 17.31C54.0899 17.0307 51.7545 16.0532 51.0676 15.9136C50.582 15.8148 49.1444 15.355 48.1828 15.2154C47.6388 15.1364 46.5329 14.9558 46.3969 14.9361C45.4353 14.7964 42.4459 14.4529 41.1767 14.2379C40.3525 14.0982 39.5283 14.0982 38.9788 14.2379C38.5789 14.3395 37.9851 14.368 37.8797 14.7964C37.7424 15.355 37.9172 17.3225 38.0172 17.729C38.1546 18.2875 38.3691 18.5399 38.4293 18.8461C38.5667 19.5443 38.704 20.2425 38.9788 20.9408L39.2437 22.1976L39.3637 22.767Z" stroke="#BF07C3" stroke-width="0.5"/>
<path d="M41.4512 18.8461C41.4512 18.9578 41.4512 19.1254 41.5885 19.4047C41.5885 19.4047 41.8042 19.7776 42.0007 19.9633C42.2298 20.1797 42.6875 20.3822 42.6875 20.3822C43.237 20.8011 43.7664 20.9805 44.0613 21.0804C44.4734 21.22 45.4696 21.3627 45.9275 21.3627H47.5759C48.0451 21.3597 48.4572 21.0804 48.5946 20.9408C48.6723 20.8617 48.7319 20.2891 48.7319 19.9632L48.5946 19.1254C48.4572 18.8461 48.1 18.2317 47.7703 18.0082C47.3582 17.729 47.3582 17.729 46.9461 17.5893C46.7618 17.5269 46.1218 17.31 45.435 17.1704C44.953 17.0724 44.4734 17.0307 44.0612 17.0307C43.6491 17.0307 43.294 16.9147 42.8249 17.0307C42.5442 17.1001 42.138 17.31 42.138 17.31C41.8633 17.4497 41.7259 17.5893 41.5885 17.8686C41.4512 18.1477 41.4512 18.7058 41.4512 18.8459V18.8461Z" stroke="#BF07C3" stroke-width="0.5"/>
<path d="M41.4512 18.1479C41.5428 18.1013 41.7809 18.1479 42.0007 18.1479C42.2754 18.1479 42.9741 18.2304 43.237 18.2875C43.8803 18.4272 44.6108 18.5668 44.8855 18.5668C45.435 18.5668 45.9845 18.7065 46.1219 18.7065C46.534 18.7065 46.9461 18.8461 47.2209 18.8461C47.4407 18.8461 47.8162 18.9392 48.0451 18.9857L48.4572 19.265L48.5946 19.4047L48.732 19.684" stroke-width="0.5"/>
<path d="M1.88774 17.0307L2.84936 18.7065C3.81098 19.9633 4.47037 21.0525 4.90997 21.4993C5.45946 22.0579 6.32634 23.1146 7.24532 24.1526C8.48168 25.549 10.8984 27.235 11.916 28.0626C13.2898 29.1797 15.0756 29.7849 16.4494 30.2969C18.2352 30.7158 20.2331 30.8917 20.9827 30.7158C22.7686 30.2969 24.1423 28.4815 24.1423 27.2247C24.1423 25.9679 23.1807 22.8958 23.1807 21.4993C23.1807 20.1029 23.4186 18.1508 24.1423 17.31C25.1039 16.1929 27.1645 16.0532 28.5383 16.0532C29.912 16.0532 32.9342 16.4722 34.8574 17.0307L37.8797 17.729V13.9586C37.5133 12.4225 37.7423 9.71341 37.7423 8.9314C37.7423 8.1494 38.1086 5.81269 38.9787 4.60245C39.9403 4.04387 42.4405 3.76459 43.0999 3.76459C43.9241 3.76459 47.2916 3.06637 48.5948 3.06637C49.8312 3.06637 54.0898 2.36815 55.0514 2.36815C56.013 2.36815 60.9585 1.53029 62.3322 1.39064C63.4312 1.27893 71.582 0.645875 75.5201 0.692423C77.3059 0.713532 80.3648 1.30997 81.8393 1.80957C83.4878 2.36815 86.6474 3.62494 88.8453 5.02138L92.9666 9.21069L94.615 12.5621C95.1187 13.4465 94.2215 18.087 93.3787 19.265C92.2797 20.8011 89.3459 23.4824 88.708 24.0129C87.1969 25.2697 84.8615 26.3869 83.0756 27.2247C81.2898 28.0626 70.8494 31.414 68.514 31.833C67.7261 31.9743 65.2171 32.5312 62.7443 32.5312H59.31H54.6393C54.6393 32.5312 45.0231 31.833 42.8251 30.1572C41.9403 29.4827 41.1766 27.923 41.1766 27.923L39.8029 24.7111L38.9787 21.4993L38.5665 19.265L36.7807 18.9857C35.5901 18.753 34.308 18.4272 32.9342 18.1479C32.6932 18.0989 30.4615 17.4497 28.4009 17.4497C28.4009 17.4497 27.4657 17.4476 26.8898 17.5893C26.3282 17.7275 25.3787 18.4272 25.3787 18.4272C24.8292 19.1254 24.6918 19.5715 24.6918 20.3822C24.6918 21.7786 24.831 22.6279 24.9665 23.4543C25.1039 24.2922 25.4308 25.6746 25.516 26.1076C25.6534 26.8058 25.6534 28.3419 25.3787 29.3194C24.9665 30.2969 24.1603 30.9768 24.0049 31.1348C23.3181 31.833 22.3564 32.1123 21.2574 32.2519L17.9605 32.1123C16.7699 31.833 14.6586 31.2915 14.3888 31.1348C13.4271 30.5762 12.1908 30.0669 11.2292 29.3194C10.4507 28.7143 8.75643 27.6437 8.34431 27.2247C7.99678 26.8715 5.87158 24.8973 4.90997 23.8733L3.12411 21.9183L1.88774 20.5218L0.239258 18.7065" stroke="#BF07C3" stroke-width="0.5"/>
<path d="M39.6655 4.32317C40.7645 4.04388 41.1766 3.90424 42.5504 3.90424C43.9241 3.90424 45.5726 4.04388 46.3968 4.04388C47.2211 4.04388 49.9686 4.18353 51.617 4.04388C52.4498 3.97334 53.4029 3.76459 54.3645 3.76459C54.914 3.76459 55.6009 3.76459 56.4251 3.76459C57.0845 3.76459 60.2716 3.20602 61.7827 2.92673L66.0413 2.36816C67.8272 2.08887 69.3108 1.94923 69.7504 1.94923C70.2999 1.94923 75.7948 1.94923 76.3443 1.94923C76.8938 1.94923 78.8171 2.08887 79.916 2.22852C80.4613 2.2978 81.7019 2.5078 83.0756 2.92673C83.8651 3.16749 84.5868 3.34566 85.6857 3.76459C86.3416 4.01461 87.1969 4.32317 88.1585 4.88175L90.4938 6.69711" stroke-width="0.5"/>
<path d="M54.0898 3.76458C54.0898 3.76458 55.2804 3.95077 55.601 4.4628C55.9215 4.97483 56.346 5.95621 56.5626 6.83674C56.8373 7.95389 57.1121 9.07104 57.3868 9.76926C57.6066 10.3278 58.0279 12.1432 58.3484 13.1207C58.669 14.0982 58.636 14.4166 59.0353 15.6343C59.31 16.4722 59.4585 16.6683 59.5848 17.31C59.7222 18.0082 59.8076 18.769 59.5848 19.265C59.3128 19.8706 57.6616 20.3822 57.6616 20.3822H56.7686M55.8757 20.3822H56.7686M56.7686 20.3822C57.0663 20.3822 57.8096 20.3521 58.3484 20.2425C59.0353 20.1029 59.7814 20.1932 59.9969 20.5218C60.2717 20.9408 60.5464 24.5715 60.5464 24.5715C60.5464 24.5715 60.6838 25.9121 60.6838 26.2472C60.6838 26.6662 60.6838 27.6437 60.6838 28.0626C60.6838 28.3977 60.5464 29.3194 60.5464 29.7383C60.5464 29.7383 60.4695 30.5632 60.409 30.9951C60.3206 31.6271 59.9969 32.5312 59.9969 32.5312" stroke="#BF07C3" stroke-width="0.5"/>
</svg>
