<svg width="72" height="25" viewBox="0 0 72 25" fill="none" xmlns="http://www.w3.org/2000/svg">
<path d="M1 24.5L8.08333 13.3526C13.5 7.43061 18.5365 10.286 20.1667 13.3526C21.8333 16.4879 22.25 19.9714 28.5 22.0615C33.0833 22.0615 35.1667 21.0862 36.8333 18.578C38.5 16.0698 39.6111 9.86909 40.5833 8.12732C41.5556 6.38555 44.4752 6.41602 46.8333 7.08225C50.0076 7.97906 51 13.3526 51 13.3526C52.1111 15.0944 54.9167 17.5329 57.25 13.3526C60.1667 8.12732 61.4167 3.25034 63.9167 1.85692C65.9167 0.742181 69.1944 2.66969 71 1.85686" stroke="#E90442" stroke-width="1.5"/>
</svg>
