<svg width="96" height="95" viewBox="0 0 96 95" fill="none" xmlns="http://www.w3.org/2000/svg">
<g filter="url(#filter0_f_159_3135)">
<ellipse cx="47.6077" cy="47.4685" rx="26.1878" ry="24.4649" transform="rotate(-11.8004 47.6077 47.4685)" fill="#FCE308" fill-opacity="0.5"/>
</g>
<path d="M74.5525 39.332C71.2588 47.2906 71.2839 49.2722 67.9902 57.2307C65.7445 62.657 62.2223 73.4567 57.4361 74.5624C52.6499 75.6682 44.646 69.2691 35.0634 65.3032C30.7333 63.5111 17.6975 60.2861 18.9378 53.2045C19.9358 47.5064 21.6029 43.3035 23.8486 37.8772C28.0655 27.6877 33.2058 22.2201 35.9643 22.2768C43.7941 22.4376 54.9139 29.1138 65.9372 33.5965C68.4802 34.6307 72.7708 37.5097 74.5525 39.332ZM74.5525 39.332C75.6126 40.8557 74.7692 43.2365 74.4174 45.786C73.8382 49.984 72.4421 54.395 70.877 58.4255M20.0149 47.1404C18.7881 50.1046 16.6676 57.3283 16.6376 58.7625C16.6075 60.1967 17.4735 61.9173 19.096 63.0349C23.0428 65.7533 24.7386 66.455 29.5381 68.4414C37.4768 71.7269 36.0337 71.2492 43.9721 74.4151C47.0887 75.658 51.5346 78.6096 54.7975 78.8953C56.7786 79.0688 59.7791 79.1009 61.3829 77.2809C63.8876 74.4386 66.6599 68.615 66.6599 68.615C66.6599 68.615 69.3798 62.043 70.877 58.4255M70.877 58.4255C71.6256 56.6167 70.1685 60.2499 70.877 58.4255Z" stroke="black" stroke-width="0.5"/>
<path d="M47.2036 57.0583L40.2504 53.6582L35.8073 57.9641L33.5973 56.8835L50.1091 41.214L51.1332 41.7148L48.9321 64.3821L46.5874 63.2355L47.2036 57.0583ZM41.9269 52.0736L47.4787 54.7884L48.1836 48.02L48.9068 44.8338L48.8798 44.8207L46.7828 47.4018L41.9269 52.0736Z" fill="black"/>
<defs>
<filter id="filter0_f_159_3135" x="9.48486" y="10.9239" width="76.2456" height="73.0893" filterUnits="userSpaceOnUse" color-interpolation-filters="sRGB">
<feFlood flood-opacity="0" result="BackgroundImageFix"/>
<feBlend mode="normal" in="SourceGraphic" in2="BackgroundImageFix" result="shape"/>
<feGaussianBlur stdDeviation="6" result="effect1_foregroundBlur_159_3135"/>
</filter>
</defs>
</svg>
