<svg width="52" height="49" viewBox="0 0 52 49" fill="none" xmlns="http://www.w3.org/2000/svg">
<path d="M47.6731 3.55662C47.6731 12.1698 48.4542 13.9912 48.4542 22.6044C48.4542 28.477 49.3295 39.8027 45.33 42.6547C41.3304 45.5067 31.4878 42.6547 21.1169 42.6547C16.4306 42.6547 3.15242 44.6598 1.59036 37.6421C0.333474 31.9955 0.266682 27.4745 0.266635 21.6019C0.266546 10.5743 2.9253 3.55651 5.49573 2.55404C12.792 -0.291482 25.6196 1.62498 37.5193 1.55158C40.2645 1.53465 45.33 2.55411 47.6731 3.55662ZM47.6731 3.55662C49.2353 4.55915 49.3664 7.0814 50.0163 9.57173C51.0864 13.6721 51.4833 18.2818 51.5784 22.6044M0.266602 31.6271C0.266602 34.8351 1.06965 42.3206 1.59036 43.6573C2.11107 44.994 3.56917 46.2527 5.49573 46.6648C10.1821 47.6674 12.0173 47.6673 17.2117 47.6673C25.8034 47.6673 24.2873 47.7777 32.8329 47.6673C36.188 47.624 41.4246 48.651 44.5489 47.6673C46.4458 47.07 49.2304 45.9522 50.0163 43.6573C51.2438 40.0732 51.5784 33.6321 51.5784 33.6321C51.5784 33.6321 51.5784 26.5195 51.5784 22.6044M51.5784 22.6044C51.5784 20.6469 51.6215 24.5611 51.5784 22.6044Z" stroke="black" stroke-width="0.5"/>
</svg>
