<svg width="140" height="97" viewBox="0 0 140 97" fill="none" xmlns="http://www.w3.org/2000/svg">
<path d="M1.61279 71.7501C4.61438 42.0133 7.91613 14.5068 13.6192 15.9937C21.4233 15.9937 18.1215 22.6844 15.4201 31.6055C12.7187 40.5265 8.21629 47.2173 8.21629 56.8817C8.21629 66.5462 17.2462 40.4599 18.7219 39.7831C26.8262 36.066 6.11518 77.6974 8.21629 82.9014C13.0282 94.8193 20.926 46.1331 27.1263 36.8094C35.5308 24.1713 21.2839 65.8027 26.526 65.8027C29.5276 65.8027 50.8389 -23.4163 50.8389 8.55949C50.8389 21.9409 18.7219 84.388 23.2243 95.5397C25.181 100.386 39.1327 48.704 42.7346 46.4737C46.4409 44.1788 32.9975 81.3876 34.3301 84.3881C37.6319 91.8223 46.9368 38.2962 53.2402 38.2962C59.5435 38.2962 39.4328 78.4408 43.6351 86.6184C45.8617 90.9514 67.3588 7.6784 73.0507 8.55949C82.6558 10.0463 56.1211 52.0992 60.1438 56.8817C67.6478 65.8031 79.0539 4.84212 84.1566 19.7106C87.4733 29.3751 54.0054 81.7276 58.3429 95.5397C60.444 102.231 92.6726 7.0601 96.7632 13.0199C106.969 27.8882 72.1502 57.6249 78.4535 67.2895C81.8476 72.4934 103.067 18.2238 106.668 21.9409C111.379 26.8017 84.4567 63.5724 87.7585 78.4408C89.0921 84.4463 95.8628 56.1383 103.967 50.9344C112.071 45.7304 97.1355 75.4505 99.7648 79.9276C104.567 88.1052 114.773 17.4804 122.277 21.9409C130.981 21.9409 101.266 82.1579 109.97 86.6184C120.176 97.0262 130.205 6.89818 133.383 10.0462C137.885 14.5067 122.289 59.4217 126.479 63.5724C127.98 65.0592 134.583 31.6055 138.485 36.8094C141.787 39.7831 125.699 84.7869 127.379 90.3355C130.981 102.23 137.285 67.5373 138.485 63.5724" stroke="#747260" stroke-opacity="0.49" stroke-width="2"/>
</svg>
