<svg width="92" height="60" viewBox="0 0 92 60" fill="none" xmlns="http://www.w3.org/2000/svg">
<g id="&#208;&#160;&#209;&#131;&#208;&#186;&#208;&#176;">
<path id="Vector 15" d="M14.6653 24.8328C17.6972 24.6193 22.1602 29.5024 24.5869 29.4898C27.6203 29.474 29.5642 21.6564 32.0454 19.9653C35.0276 17.9328 35.9909 19.1015 38.5115 17.2752C41.5045 15.1066 40.5039 15.7351 43.9688 11.6371C45.3279 10.0296 47.255 7.44776 48.7366 6.40737C52.7855 3.5642 50.9549 4.98224 52.8244 1.98092C53.4968 0.901407 54.8884 0.55854 55.8975 3.50671C56.8727 6.35559 54.5027 10.882 52.1895 13.6618C50.8985 15.2132 50.2553 17.0599 48.3753 19.6655C47.363 21.0687 47.0859 21.7257 47.7613 23.0389C48.4713 24.4194 49.5196 24.5807 50.1447 24.973C51.5447 24.9657 56.1164 24.8437 57.6098 24.8359C59.4765 24.8262 64.0775 24.8038 66.647 25.1859C68.7027 25.4915 75.3413 24.5838 77.9187 24.9789C80.4961 25.374 85.01 25.0354 86.5623 25.293C88.1146 25.5506 91.9332 25.4092 92.4551 27.5582C92.977 29.7071 87.8772 30.7499 85.825 30.9188C83.7728 31.0877 81.0361 31.6376 78.9361 31.6485C75.2128 32.082 72.9085 32.3322 69.464 32.3322C66.1639 32.3322 66.9304 32.2994 63.4362 33.108C60.8781 34.3084 59.3895 33.2524 59.9373 33.7109M59.9373 33.7109L64.6351 33.6069C65.2573 33.6036 67.813 34.6075 68.4007 36.1089C69.2002 38.1511 67.965 39.1083 66.107 40.3045C67.9838 41.6789 67.962 46.6644 65.3982 47.0733C66.8125 49.0433 66.3548 49.2393 66.3625 50.3005C66.3726 51.6846 61.8514 53.5168 64.0522 53.4764C64.3959 53.4701 67.097 55.5842 65.249 57.6227C63.6286 59.4103 63.7966 59.5678 61.0654 59.5821C56.1654 59.6076 60.3656 59.5949 54.067 59.7105C51.7341 59.7534 51.734 59.7534 48.6919 59.4382M59.9373 33.7109C55.5049 33.7923 55.043 33.9807 54.1098 33.9979C53.1766 34.015 51.9358 34.1696 49.4542 34.4789C49.4542 34.4789 46.2138 34.5674 46.2138 36.7566C46.2138 38.9458 46.5489 39.5164 47.4861 39.6574C48.6575 39.8337 48.6675 40.2291 50.5439 40.5902C52.0451 40.8791 55.6864 40.8914 58.0242 41.0462L60.5904 40.9991C59.3529 41.2855 56.6347 41.4673 56.6347 41.4673C55.9348 41.4801 54.5817 41.505 53.8352 41.5187C51.9689 41.553 51.0257 41.1747 50.0926 41.1918C49.1596 41.209 49.1544 41.0113 47.2932 41.2432C45.8044 41.4288 45.4295 41.3763 44.9705 41.6814C44.5115 41.9865 43.6305 42.5944 43.6305 43.3242C43.6305 44.0539 43.0201 44.3893 45.0715 45.6353C46.9681 46.7871 49.0947 46.423 51.1673 46.7101C55.1491 47.2614 59.3423 46.9555 60.2907 47.5315C61.0494 47.9922 57.5013 47.9783 58.2011 47.9654C57.7295 47.7763 55.1199 47.6264 53.5254 47.6557C51.4258 47.6942 50.4928 47.7114 49.093 47.7371C47.6932 47.7628 45.3995 47.4267 44.4916 48.4323C43.9244 49.0606 43.6305 49.8917 43.6305 50.6214C43.6305 52.1441 44.5626 52.2602 46.2138 52.9494C47.865 53.6387 51.3392 52.8406 52.9721 52.8106C54.2784 52.7866 59.197 53.4459 60.214 53.6642C60.2985 53.9263 57.516 54.0288 56.9561 54.0391C55.0898 54.0734 55.63 54.3396 53.5254 54.1804C51.4208 54.0213 50.9199 54.1499 49.2577 54.1805C48.3245 54.1976 46.2398 54.8143 45.3394 56.1129C44.6191 57.1517 44.4416 57.5138 46.105 58.67L48.6919 59.4382M48.6919 59.4382C45.6497 59.1231 44.0262 59.5239 40.5162 59.1682C37.0062 58.8125 35.84 58.8404 33.0232 58.2144C30.2065 57.5883 28.5682 57.4097 26.4029 54.8783C25.3074 53.5975 23.5977 54.7008 23.4772 49.9874C22.5087 48.6207 21.0859 44.9262 18.3146 48.8955C18.4694 54.9518 14.1741 54.2567 15.3122 50.1373C15.01 46.7256 15.4268 44.9678 13.1868 44.9795C10.9468 44.9912 13.8317 50.9698 12.8421 53.9411C9.28072 59.7523 10.3713 42.6481 9.23755 40.7557C7.82032 38.3902 15.0814 25.6524 4.3782 29.8608C-4.18441 33.2275 4.99702 50.8181 7.3519 53.772" stroke="black" stroke-width="0.5"/>
<path id="Vector 16" d="M50.5194 35.2974C49.8305 35.2974 48.7973 35.2978 47.9361 36.0278C47.075 36.7575 46.5583 37.779 47.936 38.9465C48.5573 39.473 49.6583 39.6763 50.5194 39.6763L51.3803 39.6757C52.2412 39.6757 52.2414 38.9464 52.2419 37.4884L52.2419 37.4873C52.2421 36.7578 52.3975 36.1593 52.2419 36.0271C51.3828 35.2974 51.3805 35.2974 50.5224 35.2974H50.5194Z" stroke="black" stroke-width="0.2"/>
<path id="Vector 17" d="M47.3768 41.8671C46.7853 41.8671 46.1506 41.8671 45.2895 42.5969C45.3526 42.5945 44.0388 43.7613 45.2218 44.9286C45.7552 45.455 46.3355 45.5129 47.0749 45.5129L48.5454 45.825C49.2848 45.8256 49.6582 45.5131 49.6582 43.324C49.6582 42.5947 49.6582 41.8651 48.9188 41.8648C47.8732 41.8644 48.1162 41.8671 47.3768 41.8671Z" stroke="black" stroke-width="0.2"/>
<path id="Vector 19" d="M48.7971 54.9999C48.2056 54.9999 47.873 55.0172 47.0119 55.7469C47.075 55.7445 45.0309 56.7516 46.2139 57.9189C46.7474 58.4453 48.0578 58.6629 48.7972 58.6629L49.6584 58.6487C50.7713 57.5926 50.3336 57.9186 50.3337 57.1892C50.3337 56.4599 50.4534 55.2453 49.6583 54.9999C49.1177 54.8331 49.6582 54.9999 48.7971 54.9999Z" stroke="black" stroke-width="0.2"/>
<path id="Vector 18" d="M47.0739 48.4325C46.4829 48.4325 46.0824 48.4325 45.2218 49.1619C45.2849 49.1595 44.0388 50.4145 45.2218 51.5818C45.7552 52.1082 46.2138 52.0808 47.0749 52.0808H48.7971C48.7971 52.0808 49.6582 52.0099 49.6582 50.6215C49.6582 49.8922 49.5365 48.4325 48.7971 48.4322C47.7514 48.4319 47.8143 48.4325 47.0749 48.4325L47.0739 48.4325Z" stroke="black" stroke-width="0.2"/>
</g>
</svg>
