<svg width="92" height="82" viewBox="0 0 92 82" fill="none" xmlns="http://www.w3.org/2000/svg">
<g id="Adapter">
<path id="Vector 301" d="M2.14697 74.4507V73.8394L2.94091 74.9746L4.70521 76.8957V77.5943L4.52878 79.2535L4.35235 78.7296C4.17592 78.3803 4.07006 78.0834 3.99949 77.9436L3.55841 77.0704C3.38198 76.7211 3.0776 76.4198 2.85269 76.1971C2.67626 76.0225 2.47043 75.9352 2.41162 75.8478L2.14697 75.6732V75.1493V74.4507Z" stroke="#277DFF" stroke-opacity="0.5" stroke-width="0.5"/>
<path id="Vector 302" d="M6.29313 72.6169C6.22255 72.547 6.1167 72.3549 6.02848 72.2676L5.85205 72.0929C5.96967 72.0929 6.27548 72.0056 6.55777 72.0056C6.84006 72.0056 6.99885 72.0056 7.26349 71.9183L7.79278 71.7436C7.85159 71.8891 7.82807 72.1278 7.96921 72.2676C8.11035 72.4073 8.23386 72.6751 8.23386 72.7915H7.79278C7.61635 72.7915 7.27781 72.8788 6.99885 72.8788C6.82242 72.8788 6.7342 72.8788 6.55777 72.9661C6.52837 72.8788 6.3637 72.6867 6.29313 72.6169Z" stroke="#277DFF" stroke-opacity="0.5" stroke-width="0.5"/>
<path id="Vector 303" d="M8.09601 75.1021C8.01915 75.0498 7.89549 74.8964 7.79942 74.8311L7.60728 74.7004C7.72419 74.6876 8.01975 74.5793 8.30032 74.5485C8.5809 74.5178 8.73872 74.5004 8.99337 74.3966L9.50266 74.189C9.57509 74.3076 9.57464 74.515 9.72835 74.6196C9.88206 74.7241 10.0305 74.9405 10.0417 75.0405L9.60332 75.0885C9.42796 75.1078 9.09987 75.2196 8.8226 75.25C8.64725 75.2693 8.55957 75.2789 8.3926 75.3731C8.35498 75.3013 8.17286 75.1543 8.09601 75.1021Z" stroke="#277DFF" stroke-opacity="0.5" stroke-width="0.5"/>
<path id="Vector 299" d="M14.144 75.0619C13.997 74.8873 13.65 74.4681 13.4383 74.1887C13.1737 73.8394 12.609 73.4586 12.3797 73.1408C11.9387 72.5295 11.3212 71.9183 10.9683 71.4816C10.8124 71.2888 10.439 70.6957 10.3508 70.6084C10.2802 70.5385 10.1744 70.3464 9.99793 69.9971C9.90971 70.2009 9.59214 70.3814 9.38042 70.5211C9.11578 70.6957 8.49827 71.045 7.96898 71.2197C7.56728 71.3522 6.2929 71.569 5.76361 71.569L3.73466 71.6563C3.11716 71.6563 2.49965 71.7436 1.88215 71.9183C1.78619 71.9454 1.38226 72.1802 1.17643 72.2676C1.17643 72.7042 1.08821 73.8743 1.08821 74.014C1.08821 74.1538 1.05881 75.3821 1 76.1098L1.52929 76.4591C1.79393 76.692 2.32391 77.1151 2.41144 77.245C2.58787 77.507 3.53487 78.7167 3.64645 78.9376C3.82288 79.2869 4.46823 80.3141 4.5286 80.4221C4.70503 80.738 4.85205 80.9127 4.88146 81" stroke="#277DFF" stroke-opacity="0.5" stroke-width="0.5"/>
<path id="Vector 300" d="M1.17627 72.2676C1.17627 72.3258 1.2292 72.4946 1.44091 72.7042C1.70556 72.9662 1.9702 73.2281 2.14663 73.4028C2.28611 73.5409 2.76414 74.0141 2.94057 74.1887C3.117 74.3633 3.82272 75.0619 4.08736 75.3239C4.28462 75.5192 4.50507 75.8889 4.61665 76.1098C4.70487 76.2845 4.96951 76.5465 5.05773 76.8084L5.14594 77.0704" stroke="#277DFF" stroke-opacity="0.5" stroke-width="0.5"/>
<path id="Vector 295" d="M16.2612 79.4281C16.2612 79.3408 16.2612 79.0963 16.2612 78.8169C16.2612 78.4676 16.4377 77.9436 16.5259 77.507C16.6141 77.0704 16.7358 76.6426 16.7905 76.3718C16.8787 75.9352 16.8787 75.4112 16.8787 75.2366C16.8787 75.0969 16.8787 74.7708 16.8787 74.6253V73.8394" stroke="#277DFF" stroke-opacity="0.5" stroke-width="0.5"/>
<path id="Vector 296" d="M17.4961 78.6422C17.4961 78.5713 17.4961 78.3726 17.4961 78.1456C17.4961 77.8618 17.5969 77.4361 17.6473 77.0813C17.6977 76.7266 17.7673 76.379 17.7985 76.1589C17.849 75.8042 17.849 75.3785 17.849 75.2366C17.849 75.1231 17.849 74.8582 17.849 74.7399V74.1014" stroke="#277DFF" stroke-opacity="0.5" stroke-width="0.5"/>
<path id="Vector 297" d="M18.3784 78.4676C18.3784 78.3994 18.3784 78.2083 18.3784 77.99C18.3784 77.7171 18.4792 77.3078 18.5296 76.9667C18.5801 76.6256 18.6496 76.2914 18.6809 76.0798C18.7313 75.7387 18.7313 75.3294 18.7313 75.1929C18.7313 75.0838 18.7313 74.8291 18.7313 74.7154V74.1014" stroke="#277DFF" stroke-opacity="0.5" stroke-width="0.5"/>
<path id="Vector 298" d="M19.2607 77.769C19.2607 77.7062 19.2607 77.5305 19.2607 77.3296C19.2607 77.0786 19.3616 76.702 19.412 76.3882C19.4624 76.0744 19.5319 75.7669 19.5632 75.5722C19.6136 75.2584 19.6136 74.8818 19.6136 74.7563C19.6136 74.6559 19.6136 74.4216 19.6136 74.317V73.7521" stroke="#277DFF" stroke-opacity="0.5" stroke-width="0.5"/>
<path id="Vector 293" d="M9.55664 67.814C9.67426 67.9304 9.95203 68.1612 10.0859 68.3379C10.3506 68.6872 11.5856 69.9971 11.762 70.2591C11.9384 70.5211 12.8206 71.569 13.0852 71.9182C13.3499 72.2675 13.8792 73.1408 14.0556 73.4028C14.232 73.6647 14.5849 74.1887 14.6731 74.4507C14.7437 74.6602 14.7025 74.9455 14.6731 75.0619" stroke="#277DFF" stroke-opacity="0.5" stroke-width="0.5"/>
<path id="Vector 294" d="M13.8793 78.1183C13.8793 78.0019 13.9675 77.6467 13.9675 77.507C13.9675 77.1577 13.9675 76.9831 13.9675 76.8084C13.9675 76.6338 13.9675 76.2845 14.0557 75.8479C14.0753 75.751 14.1439 75.3239 14.1439 75.1493H13.4382C12.8795 75.1784 12.115 75.1493 11.6739 75.2366C11.5874 75.2537 9.64496 75.5277 8.93924 75.7605C8.51581 75.9003 7.43958 76.2845 7.17494 76.3718L5.67528 76.8958L5.14599 77.0704C5.11659 77.2159 5.05778 77.6293 5.05778 77.769C5.05778 77.9436 4.88135 79.6028 4.88135 79.7775C4.88135 79.9521 4.88135 80.6507 4.88135 80.738C4.88135 80.8079 4.88135 80.9418 4.88135 81L5.32242 80.738C5.52826 80.6507 5.79022 80.4381 5.93993 80.3887C6.46922 80.2141 7.26315 79.9521 7.79244 79.7775C7.9108 79.7384 9.51943 79.1662 9.69586 79.0789C9.87229 78.9915 11.5484 78.4676 11.7248 78.4676C11.866 78.4676 12.5266 78.3221 12.8207 78.2929L13.4382 78.2056H13.8793L14.2321 78.7296C14.4086 78.9042 14.5726 79.2168 14.6732 79.5155C14.7614 79.7775 14.7908 80.0394 14.8496 80.2141H15.0261L15.2025 78.2056C15.2025 77.769 15.3147 77.2372 15.3789 76.9831C15.4671 76.6338 15.5353 76.1323 15.5554 76.0472C15.6436 75.6732 15.6436 75.2366 15.6436 75.1493C15.6436 75.0794 15.6436 74.7126 15.6436 74.538" stroke="#277DFF" stroke-opacity="0.5" stroke-width="0.5"/>
<path id="Vector 292" d="M14.3203 75.0619C14.4085 74.9164 14.6639 74.6605 14.8496 74.538C15.1142 74.3633 15.4671 74.2026 15.82 74.0862C16.261 74.014 16.808 74.014 17.2314 74.014C17.7607 74.014 17.8042 74.1735 18.4217 74.0862C18.8635 74.0237 19.3486 74.026 19.7014 73.764L20.4954 72.7042C20.613 72.4713 21.1861 72.0319 21.3775 71.9183C21.8186 71.6563 22.4451 71.5369 22.6125 71.4816C23.1418 71.307 23.6711 71.045 24.2886 70.9577C24.4283 70.9379 25.2296 70.9577 25.3472 70.9577" stroke="#277DFF" stroke-opacity="0.5" stroke-width="0.5"/>
<path id="Vector 290" d="M25.5239 30.2645L24.9946 30.7885C24.9946 30.7885 24.4653 31.3124 24.2889 31.9237C24.1125 32.535 23.936 34.1592 23.936 34.3688C23.936 34.5783 24.04 35.9832 24.4653 36.9012C24.9251 37.8936 26.0885 38.8572 26.2296 38.997C26.3708 39.1367 27.9351 39.8993 28.6996 40.2195C28.6996 40.2195 30.463 40.6504 31.6107 40.8308C33.5549 41.1363 36.639 41.1801 36.639 41.1801C36.639 41.1801 39.828 40.9489 41.8437 40.6561C43.7292 40.3822 44.7365 40.0551 46.6073 39.6956C48.2196 39.3857 49.1511 39.0924 50.7534 38.735C52.4661 38.353 53.3695 38.0957 55.0759 37.6871C57.0198 37.2217 60.1924 36.6392 60.1924 36.6392C60.1924 36.6392 64.7208 35.7951 65.9264 35.6786C67.132 35.5622 69.9843 35.4167 70.3371 35.4167C70.69 35.4167 74.7773 35.6495 76.865 35.766C77.7178 35.8533 79.5644 36.0803 80.129 36.2899C80.8347 36.5519 82.8636 37.1631 83.3929 37.3378C83.9222 37.5124 86.1961 38.7025 87.539 39.8702C88.6469 40.8335 89.6022 42.121 89.7444 42.4026C90.009 42.9266 90.5677 44.7604 90.8912 45.8083C91.2147 46.8562 90.7148 49.4759 90.7148 49.4759C90.5089 50.582 89.7444 52.3576 89.4798 52.9689C89.1849 53.6499 88.1056 54.921 87.0097 55.9379C85.9571 56.9146 85.2454 57.5097 84.2751 58.121C83.0107 58.6741 80.8347 59.7802 79.9525 60.0421C79.5217 60.1701 76.8449 60.8928 74.6596 61.352C72.9916 61.7025 70.69 61.9633 70.3371 62.0506C70.0548 62.1205 67.3966 62.2835 66.1028 62.3999L62.3095 62.5745C61.0157 62.691 59.5714 62.6761 57.8106 62.7492C55.7798 62.8335 54.135 62.7492 52.6059 62.7492C51.1062 62.8656 48.3558 63.1066 47.6659 63.2773C46.9601 63.452 44.9969 63.8563 43.3433 64.4126C42.1864 64.8017 40.5557 65.3864 40.344 65.4563C40.0794 65.5436 37.7858 66.4168 37.7858 66.4168C37.7858 66.4168 35.5216 67.4647 34.4336 67.814C34.4336 67.814 32.4992 68.4923 31.1697 68.9492C29.8106 69.4163 28.5232 69.7352 27.6411 70.0844C26.7589 70.4337 26.6707 70.3464 25.965 70.6957C25.2593 71.045 24.9064 71.307 24.9064 71.307" stroke="#277DFF" stroke-opacity="0.5" stroke-width="0.5"/>
<path id="Vector 289" d="M24.2006 29.7406L22.7009 31.3124C22.2598 31.8364 21.5414 33.8222 21.8188 35.5913C22.0077 36.797 22.5258 38.1697 22.7009 38.473C23.0538 39.0843 24.4652 40.3068 25.4356 41.0054C26.4059 41.704 27.2761 42.0867 28.5231 42.4899C31.2283 43.3647 32.9116 43.3007 35.7567 43.3632C40.9547 43.4773 48.9008 41.2674 48.9008 41.2674L57.8987 39.2589C60.9568 38.7932 66.7994 37.6158 67.4259 37.5124C69.0138 37.2505 75.3693 37.2728 75.8945 37.3378C77.306 37.5124 81.0992 38.5603 82.3342 39.0843C83.5692 39.6082 86.512 41.7443 87.0978 42.4899C87.7153 43.2759 88.4454 45.1801 88.7739 45.8956C89.215 46.8562 88.5975 49.6505 88.4211 50.4365C88.2446 51.2224 86.2157 53.7548 85.6864 54.366C85.1571 54.9773 81.9814 56.9858 81.011 57.5097C80.0406 58.0337 74.8654 59.4891 72.1895 60.1295C69.5137 60.7698 64.3384 60.8281 64.3384 60.8281C62.7505 60.8281 57.9869 61.0027 57.1047 61.0027C56.3001 61.0027 50.1358 61.5267 48.9008 61.5267C47.6657 61.5267 42.2141 62.9937 41.5789 63.2731C40.785 63.6224 35.051 65.6309 34.4335 65.9802C33.9431 66.2576 30.111 67.552 29.317 67.814C28.5231 68.076 26.8684 68.5638 26.4942 68.6873C25.9649 68.8619 24.8475 69.0074 23.9359 69.2112" stroke="#277DFF" stroke-opacity="0.5" stroke-width="0.5"/>
<path id="Vector 251" d="M63.2702 6.72143C63.5348 6.72142 64.1523 6.6438 64.5052 6.72143C65.0345 6.83787 66.0578 7.26284 65.9166 8.0313C65.8364 8.46792 65.4756 8.81722 64.9463 8.90454C64.5112 8.97632 64.5052 9.07919 63.7113 8.90454C62.9173 8.72989 62.5645 8.64257 62.2998 8.3806C62.0352 8.11862 62.1234 7.59468 62.2998 7.3327C62.4763 7.07073 63.0056 6.72145 63.2702 6.72143Z" stroke="#277DFF" stroke-opacity="0.5" stroke-width="0.5"/>
<path id="Vector 252" d="M38.9851 26.0886C39.0588 26.0886 39.231 26.0534 39.3294 26.0886C39.4769 26.1413 39.7622 26.3338 39.7229 26.6818C39.7005 26.8795 39.5999 27.0377 39.4523 27.0773C39.331 27.1098 39.3294 27.1564 39.108 27.0773C38.8867 26.9982 38.7883 26.9586 38.7145 26.84C38.6408 26.7214 38.6653 26.4841 38.7145 26.3654C38.7637 26.2468 38.9113 26.0886 38.9851 26.0886Z" stroke="#277DFF" stroke-opacity="0.5" stroke-width="0.5"/>
<path id="Vector 253" d="M42.3371 24.866C42.4109 24.866 42.583 24.8309 42.6814 24.866C42.829 24.9188 43.1143 25.1112 43.0749 25.4593C43.0526 25.657 42.9519 25.8152 42.8044 25.8548C42.6831 25.8873 42.6814 25.9339 42.4601 25.8548C42.2387 25.7757 42.1404 25.7361 42.0666 25.6175C41.9928 25.4988 42.0174 25.2615 42.0666 25.1429C42.1158 25.0242 42.2633 24.866 42.3371 24.866Z" stroke="#277DFF" stroke-opacity="0.5" stroke-width="0.5"/>
<path id="Vector 254" d="M49.2708 21.3731C49.3569 21.373 49.5577 21.3379 49.6725 21.3731C49.8447 21.4258 50.1775 21.6183 50.1316 21.9663C50.1055 22.164 49.9881 22.3222 49.816 22.3618C49.6745 22.3943 49.6725 22.4409 49.4143 22.3618C49.156 22.2827 49.0413 22.2431 48.9552 22.1245C48.8691 22.0058 48.8978 21.7685 48.9552 21.6499C49.0126 21.5312 49.1847 21.3731 49.2708 21.3731Z" stroke="#277DFF" stroke-opacity="0.5" stroke-width="0.5"/>
<path id="Vector 255" d="M52.9231 19.9759C52.9968 19.9759 53.169 19.9407 53.2674 19.9759C53.4149 20.0286 53.7002 20.2211 53.6609 20.5691C53.6385 20.7668 53.5379 20.925 53.3903 20.9646C53.269 20.9971 53.2674 21.0437 53.046 20.9646C52.8247 20.8855 52.7263 20.8459 52.6525 20.7273C52.5787 20.6086 52.6033 20.3714 52.6525 20.2527C52.7017 20.1341 52.8493 19.9759 52.9231 19.9759Z" stroke="#277DFF" stroke-opacity="0.5" stroke-width="0.5"/>
<path id="Vector 256" d="M60.5095 16.4829C60.5833 16.4829 60.7554 16.4477 60.8538 16.4829C61.0013 16.5356 61.2866 16.7281 61.2473 17.0761C61.2249 17.2739 61.1243 17.4321 60.9767 17.4716C60.8555 17.5041 60.8538 17.5507 60.6324 17.4716C60.4111 17.3925 60.3127 17.353 60.2389 17.2343C60.1652 17.1157 60.1898 16.8784 60.2389 16.7597C60.2881 16.6411 60.4357 16.4829 60.5095 16.4829Z" stroke="#277DFF" stroke-opacity="0.5" stroke-width="0.5"/>
<path id="Vector 257" d="M64.0378 15.2603C64.1116 15.2603 64.2837 15.2252 64.3821 15.2603C64.5297 15.3131 64.8149 15.5056 64.7756 15.8536C64.7532 16.0513 64.6526 16.2095 64.5051 16.2491C64.3838 16.2816 64.3821 16.3282 64.1608 16.2491C63.9394 16.17 63.841 16.1304 63.7673 16.0118C63.6935 15.8931 63.7181 15.6558 63.7673 15.5372C63.8165 15.4185 63.964 15.2604 64.0378 15.2603Z" stroke="#277DFF" stroke-opacity="0.5" stroke-width="0.5"/>
<path id="Vector 258" d="M70.9187 12.1141C70.9924 12.1141 71.1646 12.0848 71.263 12.1141C71.4105 12.158 71.6958 12.3184 71.6565 12.6084C71.6341 12.7732 71.5335 12.905 71.3859 12.938C71.2646 12.9651 71.263 13.0039 71.0416 12.938C70.8203 12.8721 70.7219 12.8391 70.6481 12.7403C70.5743 12.6414 70.5989 12.4436 70.6481 12.3448C70.6973 12.2459 70.8449 12.1141 70.9187 12.1141Z" stroke="#277DFF" stroke-opacity="0.5" stroke-width="0.5"/>
<path id="Vector 259" d="M74.5709 10.7169C74.6324 10.7169 74.7758 10.6876 74.8578 10.7169C74.9808 10.7608 75.2185 10.9212 75.1857 11.2112C75.1671 11.376 75.0832 11.5079 74.9603 11.5408C74.8592 11.5679 74.8578 11.6067 74.6734 11.5408C74.4889 11.4749 74.4069 11.4419 74.3454 11.3431C74.284 11.2442 74.3045 11.0464 74.3454 10.9476C74.3864 10.8487 74.5094 10.7169 74.5709 10.7169Z" stroke="#277DFF" stroke-opacity="0.5" stroke-width="0.5"/>
<path id="Vector 260" d="M49.6416 10.8889C49.6908 10.8889 49.8055 10.8655 49.8711 10.8889C49.9695 10.9241 50.1597 11.0524 50.1334 11.2844C50.1185 11.4162 50.0515 11.5217 49.9531 11.5481C49.8722 11.5697 49.8711 11.6008 49.7235 11.5481C49.576 11.4953 49.5104 11.469 49.4612 11.3899C49.412 11.3108 49.4284 11.1526 49.4612 11.0735C49.494 10.9944 49.5924 10.8889 49.6416 10.8889Z" stroke="#277DFF" stroke-opacity="0.5" stroke-width="0.5"/>
<path id="Vector 261" d="M51.0527 11.7622C51.1019 11.7622 51.2167 11.7387 51.2822 11.7622C51.3806 11.7973 51.5708 11.9256 51.5446 12.1577C51.5297 12.2895 51.4626 12.3949 51.3642 12.4213C51.2834 12.443 51.2822 12.474 51.1347 12.4213C50.9871 12.3686 50.9215 12.3422 50.8724 12.2631C50.8232 12.184 50.8396 12.0258 50.8724 11.9467C50.9051 11.8676 51.0035 11.7622 51.0527 11.7622Z" stroke="#277DFF" stroke-opacity="0.5" stroke-width="0.5"/>
<path id="Vector 262" d="M52.6406 12.8101C52.6898 12.8101 52.8046 12.7866 52.8701 12.8101C52.9685 12.8452 53.1587 12.9735 53.1325 13.2055C53.1176 13.3374 53.0505 13.4428 52.9521 13.4692C52.8712 13.4909 52.8701 13.5219 52.7226 13.4692C52.575 13.4165 52.5094 13.3901 52.4602 13.311C52.4111 13.2319 52.4275 13.0737 52.4602 12.9946C52.493 12.9155 52.5914 12.8101 52.6406 12.8101Z" stroke="#277DFF" stroke-opacity="0.5" stroke-width="0.5"/>
<path id="Vector 264" d="M49.8178 14.0326C49.867 14.0326 49.9818 14.0092 50.0474 14.0326C50.1458 14.0677 50.3359 14.1961 50.3097 14.4281C50.2948 14.5599 50.2277 14.6654 50.1294 14.6917C50.0485 14.7134 50.0474 14.7445 49.8998 14.6917C49.7523 14.639 49.6867 14.6126 49.6375 14.5335C49.5883 14.4545 49.6047 14.2963 49.6375 14.2172C49.6703 14.1381 49.7687 14.0326 49.8178 14.0326Z" stroke="#277DFF" stroke-opacity="0.5" stroke-width="0.5"/>
<path id="Vector 265" d="M51.2295 14.9058C51.2786 14.9058 51.3934 14.8824 51.459 14.9058C51.5574 14.941 51.7476 15.0693 51.7213 15.3013C51.7064 15.4332 51.6393 15.5386 51.541 15.565C51.4601 15.5867 51.459 15.6177 51.3114 15.565C51.1639 15.5123 51.0983 15.4859 51.0491 15.4068C50.9999 15.3277 51.0163 15.1695 51.0491 15.0904C51.0819 15.0113 51.1803 14.9058 51.2295 14.9058Z" stroke="#277DFF" stroke-opacity="0.5" stroke-width="0.5"/>
<path id="Vector 266" d="M48.371 15.9703C48.4199 15.9652 48.5316 15.93 48.5993 15.9464C48.7008 15.9712 48.9036 16.079 48.9022 16.3124C48.9013 16.4451 48.8458 16.5569 48.7508 16.5934C48.6727 16.6234 48.6749 16.6544 48.5225 16.6173C48.3702 16.5802 48.3022 16.5608 48.2449 16.4873C48.1875 16.4138 48.187 16.2547 48.2113 16.1727C48.2355 16.0906 48.3221 15.9755 48.371 15.9703Z" stroke="#277DFF" stroke-opacity="0.5" stroke-width="0.5"/>
<path id="Vector 267" d="M45.7597 17.2277C45.8086 17.2226 45.9202 17.1873 45.9879 17.2038C46.0895 17.2285 46.2923 17.3363 46.2908 17.5698C46.29 17.7024 46.2345 17.8143 46.1395 17.8507C46.0614 17.8807 46.0636 17.9117 45.9112 17.8746C45.7589 17.8376 45.6909 17.8182 45.6335 17.7446C45.5762 17.6711 45.5757 17.5121 45.5999 17.43C45.6241 17.3479 45.7108 17.2328 45.7597 17.2277Z" stroke="#277DFF" stroke-opacity="0.5" stroke-width="0.5"/>
<path id="Vector 268" d="M42.9369 18.4502C42.9858 18.4451 43.0975 18.4098 43.1652 18.4263C43.2667 18.451 43.4695 18.5588 43.4681 18.7923C43.4673 18.925 43.4118 19.0368 43.3167 19.0733C43.2386 19.1033 43.2408 19.1343 43.0885 19.0972C42.9361 19.0601 42.8681 19.0407 42.8108 18.9672C42.7535 18.8936 42.753 18.7346 42.7772 18.6525C42.8014 18.5705 42.888 18.4553 42.9369 18.4502Z" stroke="#277DFF" stroke-opacity="0.5" stroke-width="0.5"/>
<path id="Vector 269" d="M40.1142 19.8474C40.1631 19.8423 40.2747 19.807 40.3424 19.8235C40.444 19.8482 40.6468 19.956 40.6453 20.1895C40.6445 20.3222 40.589 20.434 40.494 20.4705C40.4159 20.5004 40.4181 20.5314 40.2657 20.4944C40.1134 20.4573 40.0453 20.4379 39.988 20.3644C39.9307 20.2908 39.9302 20.1318 39.9544 20.0497C39.9786 19.9676 40.0652 19.8525 40.1142 19.8474Z" stroke="#277DFF" stroke-opacity="0.5" stroke-width="0.5"/>
<path id="Vector 270" d="M37.2985 21.0692C37.3448 21.0643 37.4505 21.0297 37.5148 21.0465C37.6112 21.0718 37.804 21.1806 37.804 21.414C37.8039 21.5465 37.7519 21.658 37.662 21.6939C37.5881 21.7235 37.5904 21.7545 37.4457 21.7166C37.3011 21.6787 37.2365 21.6589 37.1817 21.5851C37.127 21.5113 37.1256 21.3524 37.1481 21.2705C37.1706 21.1886 37.2521 21.074 37.2985 21.0692Z" stroke="#277DFF" stroke-opacity="0.5" stroke-width="0.5"/>
<path id="Vector 271" d="M35.6925 20.194C35.7389 20.1891 35.8445 20.1545 35.9088 20.1714C36.0052 20.1966 36.1981 20.3055 36.198 20.5388C36.198 20.6713 36.146 20.7828 36.0561 20.8188C35.9822 20.8483 35.9844 20.8793 35.8398 20.8414C35.6951 20.8035 35.6305 20.7838 35.5758 20.71C35.521 20.6362 35.5197 20.4772 35.5422 20.3953C35.5647 20.3134 35.6462 20.1989 35.6925 20.194Z" stroke="#277DFF" stroke-opacity="0.5" stroke-width="0.5"/>
<path id="Vector 272" d="M34.2809 18.9715C34.3272 18.9666 34.4329 18.932 34.4972 18.9488C34.5936 18.9741 34.7865 19.0829 34.7864 19.3162C34.7864 19.4488 34.7344 19.5603 34.6445 19.5962C34.5706 19.6258 34.5728 19.6567 34.4281 19.6189C34.2835 19.581 34.2189 19.5612 34.1641 19.4874C34.1094 19.4136 34.108 19.2547 34.1305 19.1728C34.153 19.0909 34.2345 18.9763 34.2809 18.9715Z" stroke="#277DFF" stroke-opacity="0.5" stroke-width="0.5"/>
<path id="Vector 273" d="M32.8693 18.0982C32.9156 18.0934 33.0213 18.0587 33.0856 18.0756C33.182 18.1008 33.3748 18.2097 33.3748 18.443C33.3747 18.5756 33.3227 18.6871 33.2328 18.723C33.1589 18.7525 33.1612 18.7835 33.0165 18.7456C32.8719 18.7077 32.8073 18.688 32.7525 18.6142C32.6978 18.5404 32.6964 18.3814 32.7189 18.2995C32.7414 18.2177 32.8229 18.1031 32.8693 18.0982Z" stroke="#277DFF" stroke-opacity="0.5" stroke-width="0.5"/>
<path id="Vector 274" d="M35.8688 16.701C35.9151 16.6962 36.0208 16.6615 36.0851 16.6784C36.1815 16.7036 36.3744 16.8125 36.3743 17.0458C36.3742 17.1784 36.3222 17.2899 36.2323 17.3258C36.1584 17.3553 36.1607 17.3863 36.016 17.3484C35.8714 17.3105 35.8068 17.2908 35.752 17.217C35.6973 17.1432 35.6959 16.9842 35.7184 16.9024C35.7409 16.8205 35.8224 16.7059 35.8688 16.701Z" stroke="#277DFF" stroke-opacity="0.5" stroke-width="0.5"/>
<path id="Vector 275" d="M37.2804 17.9236C37.3267 17.9187 37.4324 17.8841 37.4967 17.9009C37.5931 17.9262 37.786 18.035 37.7859 18.2683C37.7859 18.4009 37.7339 18.5124 37.644 18.5483C37.5701 18.5779 37.5723 18.6089 37.4277 18.571C37.283 18.5331 37.2184 18.5133 37.1637 18.4395C37.1089 18.3657 37.1075 18.2068 37.13 18.1249C37.1525 18.043 37.234 17.9284 37.2804 17.9236Z" stroke="#277DFF" stroke-opacity="0.5" stroke-width="0.5"/>
<path id="Vector 276" d="M38.6915 18.7968C38.7379 18.792 38.8435 18.7573 38.9078 18.7742C39.0043 18.7994 39.1971 18.9083 39.197 19.1416C39.197 19.2742 39.145 19.3857 39.0551 19.4216C38.9812 19.4511 38.9835 19.4821 38.8388 19.4442C38.6941 19.4063 38.6295 19.3866 38.5748 19.3128C38.52 19.239 38.5187 19.08 38.5412 18.9981C38.5637 18.9162 38.6452 18.8017 38.6915 18.7968Z" stroke="#277DFF" stroke-opacity="0.5" stroke-width="0.5"/>
<path id="Vector 277" d="M41.5148 17.5743C41.5611 17.5694 41.6668 17.5348 41.7311 17.5516C41.8275 17.5769 42.0204 17.6857 42.0203 17.919C42.0202 18.0516 41.9682 18.1631 41.8783 18.199C41.8044 18.2286 41.8067 18.2596 41.662 18.2217C41.5174 18.1838 41.4528 18.164 41.398 18.0902C41.3433 18.0164 41.3419 17.8575 41.3644 17.7756C41.3869 17.6937 41.4684 17.5791 41.5148 17.5743Z" stroke="#277DFF" stroke-opacity="0.5" stroke-width="0.5"/>
<path id="Vector 278" d="M39.9269 16.701C39.9732 16.6962 40.0789 16.6615 40.1432 16.6784C40.2396 16.7036 40.4325 16.8125 40.4324 17.0458C40.4324 17.1784 40.3804 17.2899 40.2905 17.3258C40.2166 17.3553 40.2188 17.3863 40.0741 17.3484C39.9295 17.3105 39.8649 17.2908 39.8101 17.217C39.7554 17.1432 39.754 16.9842 39.7765 16.9024C39.799 16.8205 39.8805 16.7059 39.9269 16.701Z" stroke="#277DFF" stroke-opacity="0.5" stroke-width="0.5"/>
<path id="Vector 279" d="M38.6915 15.6531C38.7379 15.6483 38.8435 15.6137 38.9078 15.6305C39.0043 15.6557 39.1971 15.7646 39.197 15.9979C39.197 16.1305 39.145 16.242 39.0551 16.2779C38.9812 16.3074 38.9835 16.3384 38.8388 16.3005C38.6941 16.2627 38.6295 16.2429 38.5748 16.1691C38.52 16.0953 38.5187 15.9364 38.5412 15.8545C38.5637 15.7726 38.6452 15.658 38.6915 15.6531Z" stroke="#277DFF" stroke-opacity="0.5" stroke-width="0.5"/>
<path id="Vector 280" d="M41.5148 14.6052C41.5611 14.6004 41.6668 14.5658 41.7311 14.5826C41.8275 14.6079 42.0204 14.7167 42.0203 14.95C42.0202 15.0826 41.9682 15.1941 41.8783 15.23C41.8044 15.2595 41.8067 15.2905 41.662 15.2526C41.5174 15.2148 41.4528 15.195 41.398 15.1212C41.3433 15.0474 41.3419 14.8885 41.3644 14.8066C41.3869 14.7247 41.4684 14.6101 41.5148 14.6052Z" stroke="#277DFF" stroke-opacity="0.5" stroke-width="0.5"/>
<path id="Vector 281" d="M42.9259 15.3038C42.9722 15.299 43.0779 15.2644 43.1422 15.2812C43.2386 15.3065 43.4315 15.4153 43.4314 15.6486C43.4314 15.7812 43.3794 15.8927 43.2895 15.9286C43.2156 15.9581 43.2178 15.9891 43.0732 15.9512C42.9285 15.9134 42.8639 15.8936 42.8092 15.8198C42.7544 15.746 42.7531 15.5871 42.7756 15.5052C42.7981 15.4233 42.8795 15.3087 42.9259 15.3038Z" stroke="#277DFF" stroke-opacity="0.5" stroke-width="0.5"/>
<path id="Vector 282" d="M44.3375 16.1771C44.3839 16.1722 44.4895 16.1376 44.5538 16.1544C44.6503 16.1797 44.8431 16.2885 44.843 16.5219C44.843 16.6544 44.791 16.7659 44.7011 16.8018C44.6272 16.8314 44.6294 16.8624 44.4848 16.8245C44.3401 16.7866 44.2755 16.7669 44.2208 16.693C44.166 16.6192 44.1647 16.4603 44.1872 16.3784C44.2097 16.2965 44.2912 16.1819 44.3375 16.1771Z" stroke="#277DFF" stroke-opacity="0.5" stroke-width="0.5"/>
<path id="Vector 283" d="M47.1603 15.1292C47.2066 15.1243 47.3123 15.0897 47.3766 15.1065C47.473 15.1318 47.6659 15.2406 47.6658 15.474C47.6658 15.6065 47.6138 15.718 47.5239 15.754C47.45 15.7835 47.4522 15.8145 47.3075 15.7766C47.1629 15.7387 47.0983 15.719 47.0435 15.6452C46.9888 15.5713 46.9874 15.4124 47.0099 15.3305C47.0324 15.2486 47.1139 15.134 47.1603 15.1292Z" stroke="#277DFF" stroke-opacity="0.5" stroke-width="0.5"/>
<path id="Vector 284" d="M45.5724 14.0813C45.6187 14.0764 45.7244 14.0418 45.7887 14.0587C45.8851 14.0839 46.078 14.1928 46.0779 14.4261C46.0779 14.5586 46.0259 14.6701 45.936 14.7061C45.8621 14.7356 45.8643 14.7666 45.7197 14.7287C45.575 14.6908 45.5104 14.6711 45.4556 14.5973C45.4009 14.5235 45.3995 14.3645 45.422 14.2826C45.4445 14.2007 45.526 14.0861 45.5724 14.0813Z" stroke="#277DFF" stroke-opacity="0.5" stroke-width="0.5"/>
<path id="Vector 285" d="M43.9845 13.208C44.0308 13.2032 44.1365 13.1686 44.2008 13.1854C44.2972 13.2107 44.4901 13.3195 44.49 13.5528C44.49 13.6854 44.438 13.7969 44.3481 13.8328C44.2742 13.8623 44.2764 13.8933 44.1318 13.8555C43.9871 13.8176 43.9225 13.7978 43.8678 13.724C43.813 13.6502 43.8116 13.4913 43.8341 13.4094C43.8566 13.3275 43.9381 13.2129 43.9845 13.208Z" stroke="#277DFF" stroke-opacity="0.5" stroke-width="0.5"/>
<path id="Vector 286" d="M46.8072 12.1602C46.8536 12.1553 46.9593 12.1207 47.0236 12.1375C47.12 12.1628 47.3128 12.2716 47.3128 12.5049C47.3127 12.6375 47.2607 12.749 47.1708 12.7849C47.0969 12.8145 47.0992 12.8454 46.9545 12.8076C46.8099 12.7697 46.7453 12.7499 46.6905 12.6761C46.6358 12.6023 46.6344 12.4434 46.6569 12.3615C46.6794 12.2796 46.7609 12.165 46.8072 12.1602Z" stroke="#277DFF" stroke-opacity="0.5" stroke-width="0.5"/>
<path id="Vector 287" d="M48.3951 13.0334C48.4415 13.0285 48.5471 12.9939 48.6114 13.0108C48.7079 13.036 48.9007 13.1449 48.9007 13.3782C48.9006 13.5107 48.8486 13.6222 48.7587 13.6582C48.6848 13.6877 48.6871 13.7187 48.5424 13.6808C48.3978 13.6429 48.3332 13.6232 48.2784 13.5494C48.2236 13.4756 48.2223 13.3166 48.2448 13.2347C48.2673 13.1528 48.3488 13.0383 48.3951 13.0334Z" stroke="#277DFF" stroke-opacity="0.5" stroke-width="0.5"/>
<path id="Vector 263" d="M53.8759 13.8579C53.9251 13.8579 54.0399 13.8345 54.1055 13.8579C54.2039 13.8931 54.394 14.0214 54.3678 14.2534C54.3529 14.3853 54.2858 14.4907 54.1875 14.5171C54.1066 14.5388 54.1055 14.5698 53.9579 14.5171C53.8104 14.4644 53.7448 14.438 53.6956 14.3589C53.6464 14.2798 53.6628 14.1216 53.6956 14.0425C53.7284 13.9634 53.8268 13.8579 53.8759 13.8579Z" stroke="#277DFF" stroke-opacity="0.5" stroke-width="0.5"/>
<path id="Vector 247" d="M38.1387 27.2082C38.1387 26.6493 37.9622 26.2185 37.874 26.0729L39.0208 25.6363L41.5791 24.7631C42.2554 24.6175 43.6786 24.2741 43.9609 24.0645C44.2431 23.8549 44.9606 23.5114 45.2841 23.3659V24.3265V25.3744L43.1669 26.0729L40.4323 27.2082L39.0208 27.9941L38.1387 28.3434V27.2082Z" stroke="#277DFF" stroke-opacity="0.5" stroke-width="0.5"/>
<path id="Vector 248" d="M48.2834 22.7546C48.2834 22.1957 48.1951 21.5903 48.1069 21.4448L49.5184 21.0081L52.0766 19.9602C52.7529 19.8147 54.2643 19.4712 54.5466 19.2616C54.8289 19.0521 55.8993 18.7086 56.2227 18.563V19.6983L56.3109 20.5715L53.7527 21.7067L51.1062 22.58L49.6948 23.3659L48.1069 24.1518C48.1069 24.0063 48.2834 23.3135 48.2834 22.7546Z" stroke="#277DFF" stroke-opacity="0.5" stroke-width="0.5"/>
<path id="Vector 249" d="M59.5747 17.8645C59.5747 17.3056 59.6629 16.6128 59.5747 16.4673L61.5154 15.7687L62.6622 15.4194C63.3385 15.2738 64.6735 14.7557 64.9558 14.5461C65.2381 14.3365 65.9556 13.9931 66.279 13.8475L66.3673 14.9827V16.0306L64.2501 16.7292L61.6919 17.8645L60.5451 18.4757L59.8394 18.9997C59.6629 18.6504 59.5747 18.4233 59.5747 17.8645Z" stroke="#277DFF" stroke-opacity="0.5" stroke-width="0.5"/>
<path id="Vector 250" d="M69.543 13.4109C69.543 12.852 69.6312 12.5959 69.543 12.4503L70.6015 12.0137L73.248 10.8785C73.9243 10.7329 74.8182 10.3021 75.1005 10.0926C75.3828 9.88298 75.8356 9.8015 76.1591 9.65596V10.6165V11.5771L74.8359 12.1883L72.1012 13.3236L70.6898 14.1095L69.543 14.7208L69.543 13.4109Z" stroke="#277DFF" stroke-opacity="0.5" stroke-width="0.5"/>
<path id="Vector 242" d="M30.4636 34.98L31.5222 34.8927C33.0218 34.5434 33.9519 34.1016 34.7861 33.7575C35.8447 33.3209 38.0501 32.273 39.6379 31.749C40.9612 31.1378 43.343 30.0899 45.1073 29.3039C46.1063 28.8589 51.3117 26.3349 53.9288 25.025L62.3092 20.9208C63.8382 20.3386 67.0904 19.1045 67.8667 18.825C68.8371 18.4757 71.7482 17.0785 73.1596 16.3799C74.5711 15.6813 75.8061 15.0701 76.8646 14.2841C77.7115 13.6554 78.1585 12.7123 78.4525 12.0137L79.1582 9.21933C79.1582 9.21933 79.1853 7.8992 78.8054 7.21087C78.5274 6.70721 78.0609 6.07837 77.6586 5.66511M30.4636 34.98L28.4346 32.1856M30.4636 34.98C30.4636 34.98 28.3153 34.3968 27.5525 33.9321C26.4057 33.2335 24.2885 31.3997 24.2885 31.3997C24.2885 31.3997 21.201 28.6927 20.9364 28.3434C20.6717 27.9941 20.5835 27.6448 20.5835 26.9462M28.4346 32.1856C28.4346 32.1856 27.9936 30.0899 28.4346 29.1293C28.8757 28.1687 29.6696 27.1208 30.4636 26.5096C31.2575 25.8983 38.4911 22.6673 38.4911 22.6673L45.1073 19.9602C45.1073 19.9602 51.0351 17.4225 54.7227 15.6813C58.3201 13.9828 63.897 11.6644 63.897 11.6644L72.0128 7.82214C72.0128 7.82214 74.9174 6.50524 76.8646 5.901C77.1735 5.80515 77.3474 5.75349 77.6586 5.66511M28.4346 32.1856C28.0112 32.4651 27.5525 32.2555 27.4643 32.1856C26.4718 31.3997 25.7 30.2645 25.0825 29.5659C24.4765 28.8804 24.0475 28.0905 23.7592 28.3434C23.4709 28.5962 23.7592 29.3039 23.7592 29.3039C23.7592 29.3039 22.8409 28.3917 22.1714 27.9068C21.5849 27.4819 20.5835 26.9462 20.5835 26.9462M28.4346 32.1856L37.2561 28.2561L37.0797 25.025L46.1658 21.2701L46.2541 24.5011L48.1066 23.7152L48.0184 20.3095L56.3988 16.7292L56.487 19.7856L58.957 18.825L58.7806 15.6813L66.2789 12.5377L66.3671 15.0701L69.4546 13.7602L69.5428 11.1405L76.2471 8.43341V10.6165L78.4525 9.48131M20.5835 26.9462C20.5835 26.2476 20.6591 24.2295 21.5539 22.8419C22.6955 21.0716 24.447 20.4057 25.7 19.7856C26.7585 19.2616 37.1679 14.1968 38.3147 13.4982C39.4615 12.7996 45.3719 10.1799 46.2541 9.74328C46.9642 9.39181 53.1517 6.82443 54.2816 6.42495C55.5166 5.98833 59.2116 4.31118 59.8392 3.97987C61.1624 3.28128 64.0735 2.23338 64.691 1.97141C65.185 1.76183 67.0728 1.15638 67.8667 1.01084C68.6607 0.8653 71.3953 2.23338 71.3953 2.23338L75.2768 4.32916C75.2768 4.32916 76.6882 5.11508 77.6586 5.66511" stroke="#277DFF" stroke-opacity="0.5" stroke-width="0.5"/>
<path id="Vector 243" d="M37.2563 28.1687C37.3446 28.4598 37.4328 28.9546 37.4328 29.2166C37.4328 29.2865 37.521 29.8861 37.521 30.0899L42.1082 27.8194C43.402 27.2082 45.1075 26.4656 45.9896 26.029C46.0528 25.9977 46.2249 25.9125 46.3425 25.8543L46.2543 24.5011" stroke="#277DFF" stroke-opacity="0.5" stroke-width="0.5"/>
<path id="Vector 244" d="M48.1069 23.7152C48.1951 24.0063 48.1069 24.2391 48.1069 24.5011C48.1069 24.8612 48.1069 25.1706 48.1069 25.3743L52.253 23.5405C53.5469 22.9293 54.3702 22.7113 55.2523 22.2307C55.5826 22.0507 56.3697 21.7649 56.4874 21.7067V19.7856" stroke="#277DFF" stroke-opacity="0.5" stroke-width="0.5"/>
<path id="Vector 245" d="M58.957 18.825C59.0452 19.1161 59.1335 19.3348 59.1335 19.6109C59.1335 19.9602 59.1335 20.3677 59.1335 20.5715L62.7503 18.825C64.0441 18.2137 63.8971 18.345 64.7792 17.8645C65.1095 17.6845 66.4259 17.0494 66.5435 16.9912L66.3671 15.0701" stroke="#277DFF" stroke-opacity="0.5" stroke-width="0.5"/>
<path id="Vector 246" d="M69.4546 13.7602C69.5252 14.0604 69.4546 14.5379 69.4546 14.8081C69.4546 15.1794 69.5428 15.6459 69.5428 15.856L72.4539 14.4588C73.5125 14.0222 74.2795 13.5944 75.1003 13.3236C75.365 13.2363 76.153 12.8597 76.2471 12.7996V10.6165" stroke="#277DFF" stroke-opacity="0.5" stroke-width="0.5"/>
<path id="Vector 97" d="M22.2795 21.9037C22.7564 21.6235 23.2259 21.3852 23.5172 21.6309C23.9373 21.9398 23.6886 21.8989 23.4486 21.9117C23.2085 21.9244 22.8952 21.836 22.7927 21.9656C22.6902 22.0953 23.453 22.1028 23.5396 22.1521C24.0154 22.4231 22.4589 22.1618 22.5168 22.3148C22.6495 22.6652 23.591 22.3246 24.0237 22.4449C24.6102 22.6081 23.4017 22.6027 23.6839 22.8102C23.8455 22.929 25.939 22.5755 25.5999 23.0046C25.458 23.1841 23.0667 22.7506 23.1908 23.0785C23.2448 23.221 24.544 23.0798 24.7616 23.1925C24.9854 23.3084 23.8671 23.2755 23.907 23.3685C24.006 23.599 25.0745 23.2491 25.4139 23.4987C25.7533 23.7482 24.2448 23.4907 24.3843 23.7668C24.4583 23.9131 26.4987 23.6468 26.7958 23.8839C27.2972 24.2841 25.4226 23.7979 25.5885 24.0214C25.8979 24.4381 27.1584 24.0717 27.2755 24.4732C27.3516 24.7342 24.9945 24.1117 25.0816 24.4688C25.1238 24.6417 27.8682 24.6406 28.0252 24.8825C28.417 25.486 26.2271 24.5066 26.4639 24.8859C26.5915 25.0901 28.3094 25.2019 28.4639 25.3943C28.666 25.646 26.8266 25.0736 26.8467 25.4039C26.8548 25.5372 27.5195 25.4254 28.011 25.6764C28.5025 25.9274 27.3833 25.735 27.4773 25.8991C27.6492 26.199 28.9476 25.6553 29.3043 26.0122C29.7729 26.3568 27.5345 25.9885 27.9559 26.3929C28.395 26.9366 29.8906 26.1243 30.0283 26.2923C30.2235 26.5304 28.9075 26.5157 29.0891 26.7372C29.1541 26.8166 29.8644 26.6291 30.0193 26.8534C30.1655 27.024 28.8221 26.991 28.8538 27.132C28.9216 27.4342 29.6288 27.2182 29.7355 27.2125" stroke="#277DFF" stroke-opacity="0.5" stroke-width="0.5"/>
<path id="Vector 288" d="M20.7099 25.1746C21.1408 24.8347 21.5685 24.5367 21.8718 24.7369C22.3049 24.981 22.0622 24.9753 21.833 25.021C21.6038 25.0666 21.2944 25.0233 21.2085 25.1643C21.1226 25.3053 21.8556 25.2073 21.9436 25.2436C22.4264 25.4429 20.9069 25.4023 20.9773 25.5439C21.1384 25.8683 22.0095 25.4052 22.4364 25.4632C23.0152 25.5417 21.8545 25.7033 22.1454 25.8674C22.312 25.9613 24.2877 25.3265 24.0036 25.7929C23.8846 25.9882 21.5471 25.8943 21.6979 26.1979C21.7634 26.3298 22.9971 26.0123 23.2168 26.0925C23.4429 26.175 22.3661 26.2972 22.4134 26.3827C22.5306 26.5944 23.5227 26.1047 23.8725 26.3019C24.2224 26.4991 22.7495 26.4556 22.91 26.7063C22.9951 26.8392 24.9282 26.297 25.2363 26.4879C25.7562 26.8101 23.9098 26.5934 24.0905 26.789C24.4277 27.154 25.6025 26.6215 25.7536 26.9981C25.8518 27.2428 23.529 26.9595 23.647 27.2967C23.7041 27.46 26.3387 27.08 26.5127 27.2949C26.947 27.8311 24.7503 27.1755 25.0142 27.5138C25.1563 27.6959 26.8163 27.568 26.9832 27.735C27.2014 27.9532 25.3804 27.6474 25.4315 27.9676C25.4522 28.0969 26.0795 27.8958 26.5756 28.0734C27.0716 28.2511 25.9785 28.2173 26.0847 28.3649C26.2785 28.6345 27.4726 27.9235 27.8494 28.2233C28.3325 28.4957 26.1481 28.4444 26.5916 28.7818C27.0655 29.253 28.4232 28.2519 28.5715 28.3973C28.7818 28.6032 27.517 28.7705 27.7127 28.9621C27.7827 29.0308 28.4466 28.7494 28.6169 28.9474C28.7737 29.0941 27.4808 29.2472 27.5248 29.3808C27.619 29.667 28.2771 29.3581 28.379 29.3378" stroke="#277DFF" stroke-opacity="0.5" stroke-width="0.5"/>
<path id="Vector 291" d="M9.46875 70.2591C9.46875 70.2591 9.64518 68.5999 9.64518 68.1633C9.64518 67.7267 9.64518 67.3774 9.64518 67.3774L11.0566 67.1154C11.4389 67.0281 12.0799 66.8709 12.6445 66.5915C13.2091 66.312 14.0559 66.1548 14.9381 66.1548L16.5259 66.3295C16.967 66.5332 17.4588 66.6701 17.9374 66.9408C18.5549 67.2901 18.8195 67.6394 19.3488 67.9013C19.7952 68.1222 20.9073 68.3671 21.2896 68.4253C21.5652 68.4253 21.7197 68.4253 21.9953 68.4253L23.0539 68.076C23.0539 68.076 24.2074 69.2672 24.6417 69.9098C24.9674 70.3916 25.3474 71.2197 25.3474 71.2197C25.3474 71.2197 25.2417 71.9241 25.3474 72.3549C25.4276 72.6812 25.4357 72.7042 25.4357 72.7042L24.2889 72.9661C23.8478 73.3154 23.3185 74.1014 23.0539 74.7126C22.7787 75.3483 22.4364 76.6338 21.8188 77.245C21.4072 77.4779 20.5838 77.9436 19.9663 78.031C19.1379 78.1481 17.6727 78.4676 17.0552 78.7296C16.6498 78.9016 16.0849 79.1662 15.9084 79.4282C15.7673 79.6377 15.4674 79.8648 15.2909 80.2141" stroke="#277DFF" stroke-opacity="0.5" stroke-width="0.5"/>
</g>
</svg>
