<svg width="271" height="191" viewBox="0 0 271 191" fill="none" xmlns="http://www.w3.org/2000/svg">
<path d="M55.824 72.4818C72.6299 50.6651 88.6373 30.7642 92.944 34.9698C99.8067 39.123 93.7158 42.634 87.0904 48.2206C80.4649 53.8073 73.3182 56.6794 68.7141 64.289C64.11 71.8986 84.4779 56.1642 86.098 56.4166C94.9955 57.8027 56.95 79.5607 56.3185 84.7763C54.8723 96.721 85.0111 62.5894 94.9053 58.5478C108.317 53.0694 75.9554 78.2674 80.5651 81.0571C83.2046 82.6544 144.448 23.7465 129.215 48.9235C122.841 59.4597 64.8485 91.5376 63.4952 102.714C62.907 107.572 99.7967 74.3027 104.027 74.4635C108.379 74.6289 78.8314 96.7722 78.5738 99.8439C77.9357 107.454 111.618 70.261 117.161 73.6155C122.703 76.9699 85.8943 97.8766 85.6938 106.552C85.5876 111.148 144.162 57.0211 148.748 60.7439C156.486 67.0262 113.118 86.0167 114.377 91.9232C116.726 102.941 155.797 61.0117 153.201 75.4343C151.514 84.809 97.143 108.22 94.3772 121.403C93.0374 127.79 166.717 70.0055 167.475 76.875C169.366 94.0131 124.581 98.8978 125.52 109.862C126.026 115.766 170.538 84.3269 171.935 89.1705C173.761 95.5044 132.57 110.13 128.39 123.594C126.702 129.032 146.141 110.346 155.747 110.562C165.353 110.777 138.06 126.23 138.24 131.154C138.567 140.149 181.187 89.9713 185.66 97.4768C193.315 102.109 138.497 133.709 144.027 141.853C148.043 155.479 199.799 89.8517 201.093 94.0214C202.927 99.9295 167.816 126.995 169.523 132.493C170.134 134.462 191.878 111.636 192.83 117.81C194.317 121.908 158.731 148.782 157.565 154.045C155.066 165.327 177.136 141.365 180.081 138.882" stroke="#747260" stroke-opacity="0.49" stroke-width="2"/>
<path d="M164.97 64.5382C176.906 50.4793 188.214 37.6586 190.591 40.4111C194.556 43.1438 190.536 45.3874 186.04 48.9745C181.544 52.5615 176.914 54.3847 173.53 59.2955C170.147 64.2062 183.868 54.113 184.855 54.2858C190.274 55.2349 165.175 69.1368 164.421 72.5167C162.693 80.2575 183.751 58.2842 190.166 55.7177C198.861 52.2388 177.046 68.4042 179.71 70.2398C181.235 71.2908 223.299 33.4187 212.104 49.6664C207.419 56.4658 169.238 76.9507 167.621 84.1938C166.918 87.3416 192.101 65.9658 194.712 66.0938C197.399 66.2255 177.541 80.4249 177.168 82.4161C176.242 87.3498 199.71 63.41 202.913 65.6172C206.115 67.8243 181.842 81.1809 181.114 86.8076C180.728 89.789 220.806 55.0032 223.389 57.444C227.749 61.5628 199.544 73.6396 199.913 77.4783C200.602 84.639 227.741 57.6571 225.128 66.999C223.429 73.0711 188.095 87.9537 185.463 96.4908C184.188 100.626 233.883 63.5528 233.875 68.0135C233.854 79.142 205.753 82.06 205.572 89.178C205.474 93.0107 235.256 72.8649 235.784 76.0149C236.476 80.1341 209.923 89.3913 206.395 98.1024C204.97 101.621 218.321 89.6078 224.261 89.8013C230.2 89.9948 212.206 99.8665 211.975 103.062C211.551 108.899 241.464 76.5862 243.714 81.4803C248.137 84.5283 211.956 104.721 214.817 110.035C216.358 118.897 253.009 76.6129 253.521 79.3251C254.247 83.1681 230.598 100.53 231.273 104.106C231.515 105.387 246.583 90.7003 246.744 94.7109C247.38 97.378 223.45 114.612 222.361 118.02C220.026 125.325 235.375 109.904 237.373 108.31" stroke="#747260" stroke-opacity="0.49" stroke-width="2"/>
<path d="M72.522 130.657C84.4584 116.598 95.7664 103.777 98.1434 106.53C102.108 109.262 98.0883 111.506 93.5924 115.093C89.0965 118.68 84.4664 120.503 81.0827 125.414C77.699 130.325 91.4201 120.232 92.4068 120.404C97.8258 121.353 72.7273 135.255 71.9728 138.635C70.2449 146.376 91.3034 124.403 97.718 121.836C106.413 118.357 84.5986 134.523 87.2619 136.358C88.7869 137.409 130.852 99.5372 119.656 115.785C114.971 122.584 76.7898 143.069 75.1729 150.312C74.4702 153.46 99.6535 132.084 102.264 132.212C104.951 132.344 85.0933 146.543 84.7199 148.535C83.7945 153.468 107.262 129.529 110.465 131.736C113.668 133.943 89.3946 147.299 88.6665 152.926C88.2807 155.907 128.358 121.122 130.941 123.563C135.301 127.681 107.096 139.758 107.465 143.597C108.154 150.758 135.293 123.776 132.68 133.117C130.981 139.19 95.6477 154.072 93.0156 162.609C91.7405 166.745 141.436 129.671 141.427 134.132C141.407 145.261 113.305 148.179 113.124 155.297C113.026 159.129 142.808 138.983 143.337 142.133C144.028 146.253 117.476 155.51 113.947 164.221C112.522 167.74 125.873 155.726 131.813 155.92C137.752 156.113 119.758 165.985 119.527 169.181C119.104 175.017 149.016 142.705 151.267 147.599C155.689 150.647 119.508 170.839 122.369 176.154C123.91 185.016 160.561 142.731 161.074 145.444C161.799 149.287 138.15 166.648 138.826 170.224C139.068 171.505 154.135 156.819 154.296 160.829C154.932 163.497 131.002 180.731 129.913 184.139C127.578 191.444 142.928 176.023 144.926 174.428" stroke="#747260" stroke-opacity="0.49" stroke-width="2"/>
<g filter="url(#filter0_f_864_2476)">
<ellipse cx="16.1588" cy="15.0968" rx="16.1588" ry="15.0968" transform="matrix(0.978823 -0.204499 0.204507 0.978909 86.8862 17.8185)" fill="#FCE308" fill-opacity="0.5"/>
</g>
<path d="M122.416 24.272C120.384 29.183 120.399 30.4059 118.367 35.3169C116.981 38.6653 114.808 45.3295 111.855 46.0118C108.902 46.6941 103.963 42.7451 98.0503 40.2977C95.3785 39.1918 87.335 37.2015 88.1002 32.8315C88.7159 29.3153 89.7445 26.7218 91.13 23.3734C93.7318 17.0857 96.9035 13.7118 98.6055 13.7468C103.437 13.8462 110.298 17.9662 117.1 20.7326C118.669 21.3708 121.316 23.1474 122.416 24.272ZM122.416 24.272C123.07 25.2123 122.55 26.6814 122.333 28.2547C121.975 30.8452 121.114 33.5671 120.148 36.0542M88.7647 29.0895C88.0078 30.9186 86.6995 35.3762 86.681 36.2612C86.6625 37.1463 87.1968 38.208 88.198 38.8977C90.6333 40.5753 91.6797 41.0083 94.6411 42.2341C99.5396 44.2617 98.6492 43.9669 103.547 45.9206C105.47 46.6877 108.214 48.5091 110.227 48.6855C111.449 48.7926 113.301 48.8124 114.29 47.6894C115.836 45.9355 117.546 42.3419 117.546 42.3419C117.546 42.3419 119.224 38.2865 120.148 36.0542M120.148 36.0542C120.61 34.9381 119.711 37.18 120.148 36.0542Z" stroke="black" stroke-width="0.5"/>
<path d="M105.268 36.5931L101.405 34.7039L99.0912 37.0232L96.6298 35.8194L107.351 25.3666L109.165 26.2541L107.5 41.1353L104.912 39.8701L105.268 36.5931ZM103 33.035L105.695 34.353L106.131 31.0932L106.72 28.9323L106.631 28.8883L105.278 30.6982L103 33.035Z" fill="black"/>
<g filter="url(#filter1_f_864_2476)">
<ellipse cx="16.1591" cy="15.0964" rx="16.1591" ry="15.0964" transform="matrix(0.789494 -0.613758 0.613672 0.789561 111.585 82.7788)" fill="#FF0000" fill-opacity="0.5"/>
</g>
<path d="M146.337 72.9658C146.669 78.2706 147.22 79.3623 147.551 84.6671C147.777 88.284 148.752 95.2257 146.399 97.1361C144.045 99.0465 137.874 97.6688 131.488 98.0679C128.602 98.2482 120.502 99.9941 119.27 95.7321C118.279 92.3028 118.064 89.5209 117.838 85.904C117.413 79.1122 118.781 74.6877 120.325 73.9714C124.709 71.9381 132.682 72.6248 140.007 72.1217C141.697 72.0056 144.856 72.4385 146.337 72.9658ZM146.337 72.9658C147.338 73.5231 147.516 75.0715 148.012 76.5803C148.828 79.0645 149.25 81.8883 149.475 84.5468M118.223 92.0784C118.347 94.0542 119.129 98.6336 119.501 99.4368C119.874 100.24 120.82 100.959 122.022 101.139C124.947 101.576 126.077 101.505 129.276 101.305C134.567 100.975 133.637 101.101 138.896 100.704C140.96 100.548 144.224 100.979 146.111 100.253C147.256 99.8125 148.927 99.0169 149.323 97.5732C149.941 95.3186 149.899 91.3387 149.899 91.3387C149.899 91.3387 149.626 86.9581 149.475 84.5468M149.475 84.5468C149.4 83.3412 149.577 85.7503 149.475 84.5468Z" stroke="black" stroke-width="0.5"/>
<path d="M134.385 87.368H139.605V93.608C139.045 94.0746 138.372 94.4146 137.585 94.628C136.812 94.8413 136.045 94.948 135.285 94.948C134.392 94.948 133.558 94.808 132.785 94.528C132.025 94.248 131.365 93.8146 130.805 93.228C130.245 92.628 129.805 91.868 129.485 90.948C129.165 90.028 129.005 88.9346 129.005 87.668C129.005 86.348 129.192 85.228 129.565 84.308C129.952 83.3746 130.452 82.6213 131.065 82.048C131.692 81.4613 132.392 81.0413 133.165 80.788C133.938 80.5213 134.725 80.388 135.525 80.388C136.325 80.388 137.025 80.448 137.625 80.568C138.238 80.688 138.725 80.8146 139.085 80.948L138.525 83.248C138.192 83.1146 137.818 83.0146 137.405 82.948C136.992 82.868 136.465 82.828 135.825 82.828C135.252 82.828 134.725 82.9146 134.245 83.088C133.765 83.2613 133.345 83.548 132.985 83.948C132.638 84.3346 132.365 84.8346 132.165 85.448C131.978 86.0613 131.885 86.808 131.885 87.688C131.885 88.528 131.978 89.2546 132.165 89.868C132.352 90.468 132.612 90.968 132.945 91.368C133.278 91.7546 133.665 92.0413 134.105 92.228C134.558 92.4146 135.038 92.508 135.545 92.508C135.892 92.508 136.232 92.468 136.565 92.388C136.898 92.2946 137.178 92.1613 137.405 91.988V89.348L134.385 89.028V87.368Z" fill="black"/>
<g filter="url(#filter2_f_864_2476)">
<ellipse cx="16.1596" cy="15.0959" rx="16.1596" ry="15.0959" transform="matrix(0.511169 -0.859523 0.859416 0.511204 110.522 52.6937)" fill="#6AA5FF" fill-opacity="0.5"/>
</g>
<path d="M139.299 30.8758C141.543 35.6938 142.454 36.5092 144.698 41.3272C146.227 44.6122 149.667 50.7195 148.173 53.357C146.679 55.9944 140.431 56.9636 134.63 59.6657C132.009 60.8867 125.104 65.468 122.402 61.9494C120.228 59.1183 119.013 56.6068 117.483 53.3218C114.61 47.1532 114.269 42.5348 115.446 41.3043C118.786 37.8116 126.46 35.5413 133.097 32.3998C134.628 31.6751 137.727 30.9255 139.299 30.8758ZM139.299 30.8758C140.434 31.0296 141.164 32.4063 142.176 33.63C143.843 35.6449 145.266 38.12 146.445 40.5132M120.095 58.9296C120.93 60.7242 123.329 64.7022 123.969 65.3142C124.608 65.9262 125.752 66.2504 126.937 65.979C129.819 65.3188 130.846 64.8406 133.751 63.4872C138.557 61.2486 137.738 61.7053 142.489 59.417C144.354 58.5186 147.551 57.7287 149.042 56.3644C149.947 55.5361 151.214 54.1853 151.056 52.6967C150.809 50.3721 149.318 46.6819 149.318 46.6819C149.318 46.6819 147.465 42.7032 146.445 40.5132M146.445 40.5132C145.935 39.4182 146.979 41.5965 146.445 40.5132Z" stroke="black" stroke-width="0.5"/>
<path d="M135.739 51.5415C135.584 51.1443 135.308 50.8799 134.913 50.7484C134.53 50.612 134.077 50.5321 133.552 50.5086C133.035 50.4678 132.474 50.4441 131.87 50.4374C131.273 50.4134 130.691 50.3338 130.122 50.1986C129.561 50.0461 129.04 49.7924 128.557 49.4374C128.086 49.0775 127.708 48.5314 127.421 47.7989C127.173 47.1658 127.064 46.5782 127.095 46.0362C127.122 45.4817 127.266 44.9739 127.529 44.5127C127.805 44.0466 128.181 43.6345 128.656 43.2763C129.132 42.9182 129.698 42.6101 130.356 42.3523C131.113 42.0555 131.854 41.844 132.578 41.7179C133.297 41.5793 133.922 41.549 134.454 41.627L134.492 44.0823C134.151 44.0155 133.681 44.0209 133.081 44.0984C132.476 44.1635 131.858 44.3201 131.224 44.5683C130.629 44.8018 130.215 45.0998 129.985 45.4621C129.767 45.8196 129.736 46.197 129.892 46.5943C130.038 46.9667 130.302 47.2211 130.685 47.3575C131.08 47.489 131.536 47.5752 132.053 47.6159C132.583 47.6518 133.146 47.6818 133.743 47.7057C134.351 47.7249 134.936 47.8107 135.497 47.9632C136.066 48.0984 136.585 48.3459 137.056 48.7057C137.534 49.0483 137.909 49.5672 138.181 50.2624C138.453 50.9576 138.571 51.6059 138.535 52.2074C138.506 52.7915 138.346 53.3339 138.056 53.8345C137.777 54.3303 137.372 54.7756 136.839 55.1705C136.319 55.5606 135.705 55.8943 134.997 56.1716C134.066 56.5365 133.213 56.7707 132.437 56.8742C131.662 56.9777 131.072 57.0083 130.669 56.9658L130.635 54.466C130.8 54.487 131.006 54.4995 131.251 54.5037C131.508 54.5031 131.788 54.4864 132.09 54.4539C132.393 54.4213 132.703 54.3715 133.02 54.3044C133.35 54.2324 133.676 54.1332 133.999 54.0067C134.756 53.7099 135.285 53.3595 135.585 52.9555C135.892 52.5343 135.944 52.063 135.739 51.5415Z" fill="black"/>
<g filter="url(#filter3_f_864_2476)">
<ellipse cx="16.1587" cy="15.0968" rx="16.1587" ry="15.0968" transform="matrix(0.956573 -0.291369 0.291359 0.956652 152.798 42.594)" fill="#FF0000" fill-opacity="0.5"/>
</g>
<path d="M188.763 45.8386C187.179 50.9119 187.304 52.1284 185.72 57.2018C184.64 60.6608 183.072 67.493 180.192 68.437C177.312 69.3811 172.039 65.8905 165.931 63.9826C163.171 63.1205 154.981 61.8587 155.352 57.4378C155.65 53.8806 156.443 51.2054 157.523 47.7463C159.551 41.2507 162.407 37.6063 164.106 37.4887C168.926 37.1549 176.129 40.6436 183.151 42.7896C184.771 43.2846 187.567 44.817 188.763 45.8386ZM188.763 45.8386C189.499 46.7165 189.112 48.2263 189.037 49.8127C188.913 52.4248 188.299 55.2129 187.56 57.7765M155.679 53.6513C155.089 55.5409 154.185 60.0977 154.246 60.9808C154.307 61.864 154.934 62.8736 155.993 63.4708C158.569 64.9235 159.65 65.2611 162.709 66.2167C167.769 67.7973 166.856 67.5834 171.91 69.0905C173.894 69.6822 176.789 71.2505 178.81 71.2459C180.037 71.243 181.883 71.0969 182.768 69.8897C184.15 68.0044 185.532 64.2721 185.532 64.2721C185.532 64.2721 186.84 60.0826 187.56 57.7765M187.56 57.7765C187.92 56.6235 187.225 58.937 187.56 57.7765Z" stroke="black" stroke-width="0.5"/>
<path d="M177.333 49.7144L179.761 50.6429L176.534 59.0872C176.21 59.9341 175.82 60.6199 175.362 61.1444C174.905 61.669 174.401 62.0544 173.85 62.3006C173.299 62.5468 172.701 62.6538 172.057 62.6216C171.413 62.5894 170.748 62.4424 170.063 62.1805C166.75 60.914 165.672 58.7675 166.829 55.741L170.178 46.9791L172.737 47.9576L169.581 56.215C169.386 56.7257 169.263 57.1783 169.212 57.5728C169.178 57.9596 169.218 58.3032 169.332 58.6035C169.45 58.8915 169.64 59.1424 169.901 59.3563C170.166 59.5577 170.498 59.7346 170.897 59.887C171.682 60.187 172.332 60.1856 172.847 59.883C173.362 59.5804 173.806 58.9434 174.177 57.9719L177.333 49.7144Z" fill="black"/>
<g filter="url(#filter4_f_864_2476)">
<ellipse cx="16.1596" cy="15.0959" rx="16.1596" ry="15.0959" transform="matrix(0.511764 -0.859169 0.859062 0.511799 81.5181 112.537)" fill="#6AA5FF" fill-opacity="0.5"/>
</g>
<path d="M110.31 90.7388C112.55 95.5584 113.461 96.3744 115.701 101.194C117.229 104.48 120.665 110.59 119.169 113.226C117.673 115.863 111.424 116.827 105.621 119.526C102.999 120.745 96.0908 125.321 93.3914 121.801C91.2194 118.968 90.0061 116.456 88.4786 113.17C85.6101 106.999 85.2724 102.381 86.4499 101.151C89.7921 97.6604 97.468 95.3955 104.107 92.2586C105.639 91.5349 108.738 90.7875 110.31 90.7388ZM110.31 90.7388C111.445 90.8934 112.174 92.2706 113.186 93.495C114.851 95.5111 116.272 97.9872 117.449 100.381M91.0862 118.779C91.9206 120.575 94.317 124.554 94.956 125.167C95.5951 125.779 96.7383 126.104 97.9235 125.834C100.806 125.175 101.833 124.698 104.74 123.346C109.547 121.111 108.727 121.567 113.48 119.282C115.346 118.385 118.543 117.597 120.035 116.234C120.941 115.407 122.209 114.057 122.051 112.568C121.806 110.243 120.318 106.552 120.318 106.552C120.318 106.552 118.468 102.572 117.449 100.381M117.449 100.381C116.94 99.2859 117.982 101.465 117.449 100.381Z" stroke="black" stroke-width="0.5"/>
<path d="M97.3821 104.065C97.6283 103.926 97.908 103.781 98.2211 103.63C98.5467 103.474 98.8809 103.322 99.2237 103.173C99.5665 103.025 99.8994 102.888 100.222 102.761C100.553 102.618 100.848 102.495 101.109 102.393C102.264 101.941 103.314 101.717 104.26 101.719C105.206 101.721 106.047 101.915 106.785 102.299C107.522 102.684 108.166 103.233 108.718 103.948C109.269 104.663 109.734 105.505 110.113 106.474C110.458 107.355 110.679 108.25 110.776 109.157C110.873 110.064 110.784 110.936 110.51 111.773C110.236 112.61 109.746 113.389 109.04 114.109C108.346 114.824 107.372 115.427 106.118 115.918C105.919 115.995 105.65 116.094 105.31 116.212C104.982 116.326 104.633 116.441 104.264 116.557C103.911 116.681 103.568 116.793 103.236 116.895C102.908 117.008 102.659 117.084 102.488 117.123L97.3821 104.065ZM102.202 104.585C101.929 104.692 101.652 104.808 101.372 104.932C101.103 105.051 100.906 105.15 100.779 105.228L104.195 113.964C104.249 113.957 104.335 113.938 104.451 113.907C104.575 113.858 104.708 113.813 104.85 113.772C104.986 113.719 105.119 113.674 105.248 113.638C105.372 113.589 105.465 113.553 105.528 113.529C106.248 113.247 106.795 112.89 107.17 112.457C107.552 112.006 107.797 111.517 107.906 110.988C108.026 110.454 108.035 109.892 107.934 109.302C107.827 108.699 107.659 108.106 107.431 107.523C107.232 107.013 106.983 106.524 106.685 106.053C106.382 105.571 106.013 105.178 105.58 104.875C105.159 104.567 104.668 104.373 104.106 104.292C103.545 104.211 102.91 104.309 102.202 104.585Z" fill="black"/>
<g filter="url(#filter5_f_864_2476)">
<ellipse cx="16.1591" cy="15.0964" rx="16.1591" ry="15.0964" transform="matrix(0.789494 -0.613758 0.613671 0.789561 78.2661 148.191)" fill="#FCE308" fill-opacity="0.5"/>
</g>
<path d="M113.018 138.378C113.349 143.682 113.9 144.774 114.232 150.079C114.458 153.696 115.433 160.637 113.079 162.548C110.726 164.458 104.555 163.081 98.1684 163.48C95.2825 163.66 87.1827 165.406 85.9507 161.144C84.9594 157.714 84.7443 154.933 84.5183 151.316C84.0939 144.524 85.4612 140.099 87.0056 139.383C91.3892 137.35 99.3625 138.037 106.688 137.533C108.378 137.417 111.536 137.85 113.018 138.378ZM113.018 138.378C114.018 138.935 114.196 140.483 114.692 141.992C115.509 144.476 115.931 147.3 116.156 149.959M84.904 157.49C85.0275 159.466 85.81 164.045 86.1821 164.849C86.5542 165.652 87.5006 166.371 88.7029 166.551C91.6274 166.988 92.7576 166.917 95.9564 166.717C101.247 166.386 100.318 166.513 105.576 166.116C107.641 165.96 110.905 166.391 112.791 165.665C113.936 165.224 115.608 164.429 116.004 162.985C116.622 160.73 116.58 156.75 116.58 156.75C116.58 156.75 116.306 152.37 116.156 149.959M116.156 149.959C116.08 148.753 116.258 151.162 116.156 149.959Z" stroke="black" stroke-width="0.5"/>
<path d="M99.4858 154.88L94.8858 146.08H98.1458L100.706 151.34L100.986 152.82H101.086L101.386 151.3L103.866 146.08H106.806L102.226 154.86V160.08H99.4858V154.88Z" fill="black"/>
<g filter="url(#filter6_f_864_2476)">
<ellipse cx="16.1587" cy="15.0968" rx="16.1587" ry="15.0968" transform="matrix(0.932635 -0.360738 0.36071 0.93271 133.249 109.092)" fill="#277DFF" fill-opacity="0.72"/>
</g>
<path d="M169.355 109.691C168.147 114.866 168.361 116.071 167.153 121.246C166.329 124.775 165.267 131.704 162.464 132.857C159.661 134.01 154.146 130.915 147.915 129.46C145.099 128.803 136.839 128.145 136.885 123.709C136.921 120.139 137.515 117.413 138.339 113.884C139.885 107.257 142.467 103.413 144.152 103.171C148.935 102.485 156.374 105.436 163.535 107.061C165.187 107.436 168.088 108.759 169.355 109.691ZM169.355 109.691C170.153 110.512 169.878 112.046 169.919 113.634C169.987 116.248 169.579 119.074 169.03 121.685M136.933 119.908C136.483 121.836 135.916 126.447 136.041 127.323C136.166 128.2 136.866 129.161 137.966 129.679C140.641 130.938 141.744 131.196 144.865 131.924C150.028 133.13 149.101 132.983 154.252 134.116C156.274 134.56 159.276 135.912 161.292 135.759C162.515 135.667 164.345 135.386 165.139 134.117C166.379 132.135 167.484 128.311 167.484 128.311C167.484 128.311 168.481 124.037 169.03 121.685M169.03 121.685C169.305 120.508 168.782 122.867 169.03 121.685Z" stroke="black" stroke-width="0.5"/>
<path d="M152.198 120.745L151.734 123.195L151.811 123.218L152.803 120.885L157.377 114.135L159.101 114.653L159.151 122.833L158.706 125.289L158.783 125.312L159.795 122.985L163.66 116.022L166.323 116.822L158.571 129.216L156.809 128.687L156.652 120.516L156.942 118.369L156.846 118.34L155.899 120.311L151.293 127.03L149.435 126.472L149.811 111.863L152.665 112.72L152.198 120.745Z" fill="black"/>
<g filter="url(#filter7_f_864_2476)">
<ellipse cx="16.1587" cy="15.0968" rx="16.1587" ry="15.0968" transform="matrix(0.946542 -0.322475 0.322457 0.94662 46.1885 121.982)" fill="#A6FEEE" fill-opacity="0.5"/>
</g>
<path d="M82.2395 124.05C80.822 129.172 80.9866 130.384 79.5691 135.506C78.6026 138.999 77.2592 145.879 74.4114 146.916C71.5635 147.954 66.1797 144.638 60.0125 142.93C57.2256 142.159 48.9994 141.165 49.2254 136.735C49.4073 133.17 50.1116 130.47 51.0781 126.977C52.893 120.419 55.629 116.683 57.3226 116.51C62.1298 116.019 69.4427 119.271 76.5313 121.186C78.1665 121.628 81.0111 123.068 82.2395 124.05ZM82.2395 124.05C83.0035 124.903 82.6664 126.425 82.643 128.013C82.6045 130.628 82.0819 133.434 81.427 136.021M49.4282 132.94C48.9002 134.847 48.1458 139.431 48.2355 140.312C48.3251 141.193 48.9851 142.181 50.0629 142.744C52.6848 144.111 53.7762 144.413 56.8651 145.269C61.9744 146.683 61.0547 146.499 66.1547 147.84C68.1571 148.367 71.1021 149.84 73.1219 149.769C74.3482 149.726 76.1882 149.52 77.0333 148.284C78.353 146.355 79.6121 142.579 79.6121 142.579C79.6121 142.579 80.7827 138.349 81.427 136.021M81.427 136.021C81.7492 134.857 81.1306 137.192 81.427 136.021Z" stroke="black" stroke-width="0.5"/>
<path d="M68.3406 141.596C67.8372 141.747 67.2487 141.776 66.5751 141.685C65.914 141.598 65.2558 141.441 64.6004 141.215C63.8064 140.941 63.0916 140.56 62.4558 140.072C61.8371 139.576 61.3503 138.964 60.9954 138.235C60.6449 137.493 60.4559 136.631 60.4284 135.648C60.4178 134.657 60.6279 133.538 61.0586 132.29C61.5067 130.992 62.0573 129.969 62.7104 129.221C63.3804 128.465 64.0904 127.92 64.8402 127.587C65.6071 127.245 66.3825 127.082 67.1666 127.099C67.9551 127.103 68.7022 127.227 69.4079 127.471C70.1641 127.732 70.7832 128.002 71.2651 128.282C71.7596 128.565 72.1531 128.835 72.4456 129.091L71.1781 131.108C70.9361 130.869 70.6243 130.649 70.2428 130.447C69.8738 130.249 69.4058 130.052 68.8386 129.856C67.7926 129.495 66.8198 129.575 65.9204 130.097C65.0335 130.623 64.3204 131.667 63.7809 133.23C63.546 133.911 63.4063 134.561 63.3617 135.18C63.3215 135.787 63.3831 136.344 63.5463 136.852C63.7265 137.351 64.0044 137.793 64.3798 138.176C64.7721 138.552 65.2708 138.844 65.8757 139.052C66.4429 139.248 66.9414 139.357 67.3712 139.378C67.8011 139.4 68.1914 139.372 68.5422 139.296L68.3406 141.596Z" fill="black"/>
<g filter="url(#filter8_f_864_2476)">
<ellipse cx="16.1591" cy="15.0964" rx="16.1591" ry="15.0964" transform="matrix(0.789494 -0.613758 0.613671 0.789562 14.7129 85.2472)" fill="#277DFF" fill-opacity="0.72"/>
</g>
<path d="M49.4646 75.4342C49.796 80.7389 50.3471 81.8307 50.6785 87.1355C50.9045 90.7523 51.8793 97.6941 49.5261 99.6045C47.1728 101.515 41.0018 100.137 34.6152 100.536C31.7293 100.717 23.6294 102.462 22.3975 98.2005C21.4062 94.7711 21.1911 91.9893 20.9651 88.3724C20.5407 81.5806 21.908 77.1561 23.4523 76.4398C27.836 74.4065 35.8093 75.0932 43.1345 74.5901C44.8244 74.474 47.9831 74.9069 49.4646 75.4342ZM49.4646 75.4342C50.4652 75.9915 50.643 77.5399 51.1391 79.0487C51.9558 81.5329 52.3776 84.3566 52.6025 87.0152M21.3508 94.5468C21.4742 96.5226 22.2568 101.102 22.6289 101.905C23.001 102.708 23.9474 103.428 25.1496 103.607C28.0742 104.044 29.2043 103.974 32.4031 103.774C37.6941 103.443 36.7647 103.569 42.023 103.173C44.0875 103.017 47.3518 103.448 49.2379 102.722C50.3831 102.281 52.0549 101.485 52.4506 100.042C53.0686 97.787 53.0268 93.8071 53.0268 93.8071C53.0268 93.8071 52.7531 89.4265 52.6025 87.0152M52.6025 87.0152C52.5272 85.8096 52.7043 88.2187 52.6025 87.0152Z" stroke="black" stroke-width="0.5"/>
<path d="M45.4126 101.176C44.7726 101.35 44.1259 101.436 43.4726 101.436C42.7926 101.436 42.1326 101.363 41.4926 101.216C40.8526 101.083 40.2326 100.936 39.6326 100.776C39.0326 100.616 38.4526 100.463 37.8926 100.316C37.3326 100.183 36.8059 100.116 36.3126 100.116C35.9926 100.116 35.6859 100.156 35.3926 100.236V97.8764C35.7659 97.7964 36.1526 97.7564 36.5526 97.7564C37.1126 97.7564 37.6659 97.823 38.2126 97.9564C38.7726 98.0897 39.3392 98.2297 39.9126 98.3764C40.4859 98.5364 41.0726 98.683 41.6726 98.8164C42.2726 98.9497 42.9059 99.0164 43.5726 99.0164C43.8659 99.0164 44.1659 98.9964 44.4726 98.9564C44.7792 98.9297 45.0926 98.8764 45.4126 98.7964V101.176ZM32.1326 90.1364C32.1326 87.803 32.6459 86.0097 33.6726 84.7564C34.6992 83.4897 36.1659 82.8564 38.0726 82.8564C39.0726 82.8564 39.9459 83.0297 40.6926 83.3764C41.4392 83.723 42.0592 84.2164 42.5526 84.8564C43.0459 85.4964 43.4126 86.263 43.6526 87.1564C43.8926 88.0497 44.0126 89.043 44.0126 90.1364C44.0126 92.4697 43.4926 94.2697 42.4526 95.5364C41.4259 96.7897 39.9659 97.4164 38.0726 97.4164C37.0592 97.4164 36.1792 97.243 35.4326 96.8964C34.6859 96.5497 34.0659 96.0564 33.5726 95.4164C33.0926 94.7764 32.7326 94.0097 32.4926 93.1164C32.2526 92.223 32.1326 91.2297 32.1326 90.1364ZM35.0126 90.1364C35.0126 90.843 35.0726 91.4964 35.1926 92.0964C35.3126 92.683 35.4926 93.1897 35.7326 93.6164C35.9859 94.043 36.3059 94.3764 36.6926 94.6164C37.0792 94.8564 37.5392 94.9764 38.0726 94.9764C39.0459 94.9764 39.7992 94.5964 40.3326 93.8364C40.8659 93.0764 41.1326 91.843 41.1326 90.1364C41.1326 89.4564 41.0726 88.823 40.9526 88.2364C40.8459 87.6497 40.6726 87.1364 40.4326 86.6964C40.1926 86.2564 39.8792 85.9164 39.4926 85.6764C39.1059 85.423 38.6326 85.2964 38.0726 85.2964C37.0992 85.2964 36.3459 85.6897 35.8126 86.4764C35.2792 87.2497 35.0126 88.4697 35.0126 90.1364Z" fill="black"/>
<g filter="url(#filter9_f_864_2476)">
<ellipse cx="16.1591" cy="15.0964" rx="16.1591" ry="15.0964" transform="matrix(0.789494 -0.613758 0.613671 0.789562 6.07471 124.124)" fill="#FF0000" fill-opacity="0.5"/>
</g>
<path d="M40.8264 114.311C41.1579 119.616 41.7089 120.707 42.0403 126.012C42.2663 129.629 43.2412 136.571 40.8879 138.481C38.5346 140.392 32.3636 139.014 25.977 139.413C23.0911 139.593 14.9912 141.339 13.7593 137.077C12.768 133.648 12.5529 130.866 12.3269 127.249C11.9025 120.457 13.2698 116.033 14.8142 115.317C19.1978 113.283 27.1711 113.97 34.4964 113.467C36.1863 113.351 39.3449 113.784 40.8264 114.311ZM40.8264 114.311C41.827 114.868 42.0048 116.417 42.5009 117.925C43.3176 120.41 43.7394 123.233 43.9643 125.892M12.7126 133.424C12.8361 135.399 13.6186 139.979 13.9907 140.782C14.3628 141.585 15.3092 142.304 16.5115 142.484C19.436 142.921 20.5662 142.85 23.7649 142.65C29.0559 142.32 28.1265 142.446 33.3848 142.049C35.4493 141.893 38.7136 142.325 40.5998 141.598C41.7449 141.158 43.4167 140.362 43.8124 138.918C44.4304 136.664 44.3886 132.684 44.3886 132.684C44.3886 132.684 44.1149 128.303 43.9643 125.892M43.9643 125.892C43.889 124.686 44.0661 127.095 43.9643 125.892Z" stroke="black" stroke-width="0.5"/>
<path d="M27.3944 130.033H26.6744V136.013H23.9344V122.013H26.6744V128.213L27.3144 127.933L31.1744 122.013H34.2944L30.2144 127.893L29.1344 128.653L30.2544 129.433L34.9144 136.013H31.5344L27.3944 130.033Z" fill="black"/>
<g filter="url(#filter10_f_864_2476)">
<ellipse cx="16.1591" cy="15.0964" rx="16.1591" ry="15.0964" transform="matrix(0.789494 -0.613758 0.613671 0.789561 49.8833 98.8232)" fill="#FCE308" fill-opacity="0.5"/>
</g>
<path d="M84.635 89.0102C84.9665 94.315 85.5175 95.4068 85.8489 100.712C86.0749 104.328 87.0498 111.27 84.6965 113.181C82.3432 115.091 76.1722 113.713 69.7856 114.112C66.8997 114.293 58.7998 116.039 57.5679 111.777C56.5766 108.347 56.3615 105.565 56.1355 101.948C55.7111 95.1567 57.0784 90.7322 58.6228 90.0159C63.0064 87.9826 70.9797 88.6692 78.305 88.1661C79.9948 88.05 83.1535 88.483 84.635 89.0102ZM84.635 89.0102C85.6356 89.5676 85.8134 91.116 86.3095 92.6247C87.1262 95.1089 87.548 97.9327 87.7729 100.591M56.5212 108.123C56.6447 110.099 57.4272 114.678 57.7993 115.481C58.1714 116.284 59.1178 117.004 60.3201 117.183C63.2446 117.62 64.3748 117.55 67.5735 117.35C72.8645 117.019 71.9351 117.146 77.1934 116.749C79.2579 116.593 82.5222 117.024 84.4084 116.298C85.5535 115.857 87.2253 115.061 87.621 113.618C88.239 111.363 88.1972 107.383 88.1972 107.383C88.1972 107.383 87.9235 103.003 87.7729 100.591M87.7729 100.591C87.6976 99.3857 87.8747 101.795 87.7729 100.591Z" stroke="black" stroke-width="0.5"/>
<path d="M75.603 104.852H70.483V110.712H67.743V96.7124H70.483V102.412H75.603V96.7124H78.343V110.712H75.603V104.852Z" fill="black"/>
<g filter="url(#filter11_f_864_2476)">
<ellipse cx="16.1591" cy="15.0964" rx="16.1591" ry="15.0964" transform="matrix(0.789494 -0.613758 0.613671 0.789561 196.117 46.9875)" fill="#A6FEEE" fill-opacity="0.5"/>
</g>
<path d="M230.869 37.1745C231.2 42.4793 231.751 43.5711 232.083 48.8758C232.309 52.4927 233.284 59.4344 230.93 61.3448C228.577 63.2553 222.406 61.8775 216.019 62.2766C213.134 62.457 205.034 64.2029 203.802 59.9409C202.81 56.5115 202.595 53.7297 202.369 50.1128C201.945 43.321 203.312 38.8965 204.857 38.1802C209.24 36.1469 217.214 36.8335 224.539 36.3304C226.229 36.2143 229.387 36.6473 230.869 37.1745ZM230.869 37.1745C231.869 37.7319 232.047 39.2803 232.543 40.789C233.36 43.2732 233.782 46.097 234.007 48.7556M202.755 56.2872C202.879 58.263 203.661 62.8423 204.033 63.6455C204.405 64.4487 205.352 65.1679 206.554 65.3476C209.478 65.7847 210.609 65.714 213.807 65.5141C219.098 65.1835 218.169 65.3098 223.427 64.913C225.492 64.7572 228.756 65.1882 230.642 64.4621C231.787 64.0213 233.459 63.2257 233.855 61.782C234.473 59.5273 234.431 55.5475 234.431 55.5475C234.431 55.5475 234.157 51.1668 234.007 48.7556M234.007 48.7556C233.931 47.55 234.109 49.9591 234.007 48.7556Z" stroke="black" stroke-width="0.5"/>
<path d="M213.977 45.0167C214.537 44.91 215.15 44.83 215.817 44.7767C216.497 44.71 217.17 44.6767 217.837 44.6767C218.53 44.6767 219.224 44.7367 219.917 44.8567C220.624 44.9634 221.257 45.19 221.817 45.5367C222.377 45.87 222.83 46.3434 223.177 46.9567C223.537 47.5567 223.717 48.3434 223.717 49.3167C223.717 50.1967 223.564 50.9434 223.257 51.5567C222.95 52.1567 222.544 52.65 222.037 53.0367C221.53 53.4234 220.95 53.7034 220.297 53.8767C219.657 54.05 218.99 54.1367 218.297 54.1367C218.23 54.1367 218.124 54.1367 217.977 54.1367C217.83 54.1367 217.677 54.1367 217.517 54.1367C217.357 54.1234 217.197 54.11 217.037 54.0967C216.89 54.0834 216.784 54.07 216.717 54.0567V58.8767H213.977V45.0167ZM218.057 47.0367C217.79 47.0367 217.537 47.05 217.297 47.0767C217.057 47.09 216.864 47.11 216.717 47.1367V51.6767C216.77 51.69 216.85 51.7034 216.957 51.7167C217.064 51.73 217.177 51.7434 217.297 51.7567C217.417 51.7567 217.53 51.7567 217.637 51.7567C217.757 51.7567 217.844 51.7567 217.897 51.7567C218.257 51.7567 218.61 51.7234 218.957 51.6567C219.317 51.59 219.637 51.47 219.917 51.2967C220.197 51.11 220.417 50.8567 220.577 50.5367C220.75 50.2167 220.837 49.7967 220.837 49.2767C220.837 48.8367 220.757 48.4767 220.597 48.1967C220.437 47.9034 220.224 47.67 219.957 47.4967C219.704 47.3234 219.41 47.2034 219.077 47.1367C218.744 47.07 218.404 47.0367 218.057 47.0367Z" fill="black"/>
<g filter="url(#filter12_f_864_2476)">
<ellipse cx="16.1594" cy="15.0961" rx="16.1594" ry="15.0961" transform="matrix(0.666341 -0.745673 0.745571 0.666397 220.797 92.324)" fill="#FF0000" fill-opacity="0.5"/>
</g>
<path d="M253.22 76.4238C254.499 81.5825 255.237 82.5574 256.517 87.7161C257.389 91.2334 259.595 97.8867 257.624 100.189C255.652 102.491 249.334 102.245 243.123 103.786C240.316 104.482 232.662 107.656 230.684 103.685C229.093 100.489 228.381 97.7917 227.509 94.2744C225.871 87.6695 226.421 83.0714 227.812 82.0891C231.758 79.3009 239.725 78.5431 246.841 76.7313C248.483 76.3134 251.668 76.1714 253.22 76.4238ZM253.22 76.4238C254.304 76.7922 254.757 78.2833 255.517 79.6783C256.766 81.9752 257.689 84.6771 258.388 87.252M228.998 100.279C229.474 102.2 231.067 106.564 231.577 107.287C232.088 108.011 233.148 108.548 234.363 108.509C237.318 108.413 238.418 108.14 241.528 107.368C246.674 106.092 245.782 106.383 250.884 105.048C252.887 104.523 256.175 104.361 257.9 103.307C258.948 102.668 260.449 101.585 260.579 100.093C260.782 97.7643 260.026 93.8569 260.026 93.8569C260.026 93.8569 258.969 89.5968 258.388 87.252M258.388 87.252C258.097 86.0795 258.704 88.4175 258.388 87.252Z" stroke="black" stroke-width="0.5"/>
<path d="M238.811 94.0022C238.392 91.7069 238.575 89.8505 239.359 88.433C240.142 87.0024 241.471 86.1157 243.346 85.773C244.33 85.5932 245.22 85.6067 246.017 85.8135C246.814 86.0203 247.512 86.3942 248.113 86.9351C248.713 87.476 249.211 88.1642 249.608 88.9999C250.005 89.8355 250.301 90.7911 250.498 91.8667C250.917 94.162 250.729 96.0262 249.933 97.4592C249.149 98.8767 247.825 99.7556 245.963 100.096C244.966 100.278 244.069 100.266 243.272 100.059C242.475 99.8522 241.777 99.4783 241.177 98.9374C240.589 98.3941 240.097 97.7047 239.701 96.869C239.304 96.0334 239.008 95.0778 238.811 94.0022ZM241.644 93.4845C241.771 94.1797 241.948 94.8116 242.174 95.3803C242.397 95.9358 242.665 96.4019 242.978 96.7784C243.304 97.1526 243.678 97.423 244.102 97.5896C244.525 97.7562 245 97.7915 245.524 97.6957C246.482 97.5207 247.154 97.0115 247.543 96.168C247.931 95.3245 247.971 94.0633 247.665 92.3844C247.542 91.7154 247.37 91.1032 247.146 90.5477C246.936 89.9897 246.673 89.5159 246.358 89.1262C246.043 88.7365 245.673 88.4584 245.25 88.2918C244.824 88.1121 244.336 88.0726 243.785 88.1732C242.827 88.3482 242.157 88.8706 241.774 89.7403C241.388 90.5969 241.345 91.845 241.644 93.4845Z" fill="black"/>
<g filter="url(#filter13_f_864_2476)">
<ellipse cx="16.1593" cy="15.0962" rx="16.1593" ry="15.0962" transform="matrix(0.6893 -0.724499 0.724398 0.689359 209.639 127.427)" fill="#277DFF" fill-opacity="0.72"/>
</g>
<path d="M242.543 112.547C243.66 117.743 244.368 118.74 245.485 123.937C246.247 127.479 248.245 134.198 246.202 136.438C244.159 138.678 237.852 138.234 231.596 139.58C228.769 140.189 221.02 143.121 219.167 139.091C217.676 135.847 217.049 133.128 216.287 129.586C214.856 122.933 215.549 118.354 216.97 117.416C221.002 114.752 228.989 114.244 236.157 112.655C237.811 112.288 240.999 112.246 242.543 112.547ZM242.543 112.547C243.615 112.949 244.021 114.453 244.737 115.871C245.914 118.206 246.752 120.936 247.37 123.531M217.588 135.634C218.004 137.569 219.46 141.981 219.947 142.719C220.435 143.458 221.478 144.028 222.693 144.027C225.65 144.024 226.757 143.785 229.891 143.111C235.073 141.996 234.173 142.26 239.314 141.084C241.332 140.622 244.624 140.562 246.381 139.563C247.448 138.957 248.983 137.921 249.159 136.435C249.435 134.113 248.801 130.184 248.801 130.184C248.801 130.184 247.878 125.893 247.37 123.531M247.37 123.531C247.116 122.35 247.65 124.706 247.37 123.531Z" stroke="black" stroke-width="0.5"/>
<path d="M228.054 134.209L232.675 125.139L233.578 124.153L226.696 125.19L226.333 122.777L235.924 121.333L236.288 123.745L231.639 132.9L230.743 133.803L237.646 132.764L238.009 135.177L228.417 136.621L228.054 134.209Z" fill="black"/>
<g filter="url(#filter14_f_864_2476)">
<ellipse cx="16.1588" cy="15.0968" rx="16.1588" ry="15.0968" transform="matrix(0.917792 -0.396994 0.396957 0.917866 115.869 136.579)" fill="#A6FEEE" fill-opacity="0.5"/>
</g>
<path d="M151.97 135.763C150.966 140.982 151.227 142.177 150.222 147.396C149.538 150.955 148.748 157.92 145.992 159.181C143.236 160.443 137.604 157.567 131.321 156.357C128.481 155.811 120.202 155.477 120.074 151.042C119.97 147.474 120.457 144.727 121.142 141.168C122.428 134.486 124.857 130.544 126.531 130.236C131.284 129.363 138.833 132.02 146.052 133.364C147.717 133.674 150.667 134.882 151.97 135.763ZM151.97 135.763C152.8 136.553 152.585 138.096 152.689 139.681C152.859 142.291 152.562 145.13 152.115 147.761M119.973 147.243C119.599 149.187 119.213 153.817 119.372 154.687C119.532 155.558 120.269 156.491 121.388 156.965C124.111 158.119 125.223 158.333 128.37 158.939C133.576 159.941 132.644 159.831 137.835 160.761C139.873 161.126 142.926 162.359 144.934 162.128C146.153 161.987 147.97 161.635 148.714 160.336C149.876 158.307 150.83 154.443 150.83 154.443C150.83 154.443 151.659 150.133 152.115 147.761M152.115 147.761C152.344 146.574 151.913 148.951 152.115 147.761Z" stroke="black" stroke-width="0.5"/>
<path d="M138.771 154.769L130.192 152.555L133.689 138.999L136.342 139.684L133.454 150.877L139.38 152.407L138.771 154.769Z" fill="black"/>
<g filter="url(#filter15_f_864_2476)">
<ellipse cx="16.1591" cy="15.0964" rx="16.1591" ry="15.0964" transform="matrix(0.789494 -0.613758 0.613671 0.789561 152.309 148.191)" fill="#FF0000" fill-opacity="0.5"/>
</g>
<path d="M187.06 138.378C187.392 143.682 187.943 144.774 188.274 150.079C188.5 153.696 189.475 160.637 187.122 162.548C184.768 164.458 178.597 163.081 172.211 163.48C169.325 163.66 161.225 165.406 159.993 161.144C159.002 157.714 158.787 154.933 158.561 151.316C158.136 144.524 159.504 140.099 161.048 139.383C165.432 137.35 173.405 138.037 180.73 137.533C182.42 137.417 185.579 137.85 187.06 138.378ZM187.06 138.378C188.061 138.935 188.239 140.483 188.735 141.992C189.552 144.476 189.973 147.3 190.198 149.959M158.947 157.49C159.07 159.466 159.853 164.045 160.225 164.849C160.597 165.652 161.543 166.371 162.745 166.551C165.67 166.988 166.8 166.917 169.999 166.717C175.29 166.386 174.36 166.513 179.619 166.116C181.683 165.96 184.948 166.391 186.834 165.665C187.979 165.224 189.651 164.429 190.046 162.985C190.664 160.73 190.623 156.75 190.623 156.75C190.623 156.75 190.349 152.37 190.198 149.959M190.198 149.959C190.123 148.753 190.3 151.162 190.198 149.959Z" stroke="black" stroke-width="0.5"/>
<path d="M170.168 146.08H178.468V148.52H172.908V151.78H177.968V154.22H172.908V157.64H178.568V160.08H170.168V146.08Z" fill="black"/>
<g filter="url(#filter16_f_864_2476)">
<ellipse cx="16.1587" cy="15.0968" rx="16.1587" ry="15.0968" transform="matrix(0.937403 -0.348156 0.348131 0.937479 195.268 152.773)" fill="#FCE308" fill-opacity="0.5"/>
</g>
<path d="M231.362 153.857C230.084 159.016 230.282 160.223 229.005 165.382C228.134 168.9 226.978 175.813 224.16 176.928C221.341 178.043 215.869 174.875 209.658 173.336C206.851 172.641 198.601 171.872 198.706 167.437C198.79 163.868 199.421 161.15 200.292 157.633C201.927 151.027 204.561 147.218 206.249 146.999C211.041 146.377 218.44 149.428 225.578 151.15C227.224 151.547 230.107 152.909 231.362 153.857ZM231.362 153.857C232.149 154.689 231.853 156.219 231.873 157.808C231.906 160.422 231.46 163.242 230.876 165.846M198.805 163.638C198.329 165.559 197.7 170.162 197.814 171.04C197.927 171.918 198.614 172.888 199.707 173.421C202.365 174.717 203.464 174.989 206.575 175.759C211.721 177.034 210.797 176.875 215.931 178.077C217.947 178.549 220.931 179.941 222.949 179.815C224.173 179.739 226.007 179.482 226.818 178.224C228.085 176.259 229.24 172.451 229.24 172.451C229.24 172.451 230.295 168.191 230.876 165.846M230.876 165.846C231.166 164.673 230.611 167.024 230.876 165.846Z" stroke="black" stroke-width="0.5"/>
<path d="M212.936 156.127L220.852 158.621L220.119 160.948L214.816 159.277L213.777 162.578L218.66 164.116L217.927 166.443L213.044 164.905L211.343 170.303L208.73 169.48L212.936 156.127Z" fill="black"/>
<g filter="url(#filter17_f_864_2476)">
<ellipse cx="16.1591" cy="15.0964" rx="16.1591" ry="15.0964" transform="matrix(0.789494 -0.613758 0.613671 0.789562 76.415 67.3516)" fill="#0066FF" fill-opacity="0.5"/>
</g>
<path d="M111.167 57.5386C111.498 62.8433 112.049 63.9351 112.381 69.2398C112.607 72.8567 113.581 79.7984 111.228 81.7089C108.875 83.6193 102.704 82.2415 96.3173 82.6406C93.4314 82.821 85.3316 84.5669 84.0996 80.3049C83.1083 76.8755 82.8932 74.0937 82.6672 70.4768C82.2429 63.685 83.6101 59.2605 85.1545 58.5442C89.5382 56.5109 97.5115 57.1976 104.837 56.6944C106.527 56.5784 109.685 57.0113 111.167 57.5386ZM111.167 57.5386C112.167 58.0959 112.345 59.6443 112.841 61.153C113.658 63.6373 114.08 66.461 114.305 69.1196M83.053 76.6512C83.1764 78.627 83.959 83.2063 84.3311 84.0095C84.7032 84.8128 85.6495 85.5319 86.8518 85.7116C89.7763 86.1487 90.9065 86.078 94.1053 85.8781C99.3962 85.5475 98.4668 85.6738 103.725 85.277C105.79 85.1212 109.054 85.5522 110.94 84.8261C112.085 84.3853 113.757 83.5897 114.153 82.146C114.771 79.8913 114.729 75.9115 114.729 75.9115C114.729 75.9115 114.455 71.5309 114.305 69.1196M114.305 69.1196C114.229 67.914 114.406 70.3231 114.305 69.1196Z" stroke="black" stroke-width="0.5"/>
<path d="M97.5747 72.1207L93.6747 65.2407H96.9747L99.1347 69.2807L99.6147 70.7007L100.075 69.2807L102.335 65.2407H105.315L101.275 71.9807L105.515 79.2407H102.255L99.7947 74.9207L99.2547 73.4407L98.7347 74.9207L96.2547 79.2407H93.2747L97.5747 72.1207Z" fill="black"/>
<g filter="url(#filter18_f_864_2476)">
<ellipse cx="16.1587" cy="15.0968" rx="16.1587" ry="15.0968" transform="matrix(0.934936 -0.354729 0.354703 0.935012 181.523 116.46)" fill="#6AA5FF" fill-opacity="0.5"/>
</g>
<path d="M217.624 117.291C216.383 122.459 216.589 123.664 215.348 128.832C214.501 132.356 213.395 139.278 210.584 140.412C207.773 141.547 202.279 138.417 196.057 136.922C193.245 136.247 184.99 135.536 185.064 131.1C185.124 127.531 185.735 124.809 186.581 121.285C188.17 114.668 190.777 110.841 192.463 110.61C197.251 109.954 204.671 112.953 211.821 114.624C213.47 115.01 216.363 116.352 217.624 117.291ZM217.624 117.291C218.417 118.118 218.132 119.65 218.163 121.238C218.214 123.852 217.788 126.675 217.222 129.283M185.137 127.3C184.674 129.225 184.077 133.832 184.197 134.709C184.317 135.586 185.01 136.552 186.107 137.077C188.774 138.354 189.875 138.618 192.992 139.367C198.146 140.605 197.221 140.453 202.364 141.619C204.383 142.076 207.377 143.447 209.393 143.307C210.617 143.223 212.449 142.953 213.251 141.69C214.504 139.716 215.633 135.9 215.633 135.9C215.633 135.9 216.658 131.632 217.222 129.283M217.222 129.283C217.504 128.108 216.966 130.463 217.222 129.283Z" stroke="black" stroke-width="0.5"/>
<path d="M200.166 128.373L199.478 128.161L197.722 133.878L195.102 133.073L199.214 119.69L201.833 120.495L200.012 126.422L200.706 126.342L206.135 121.817L209.117 122.734L203.49 127.156L202.235 127.565L203.076 128.64L205.598 136.299L202.367 135.306L200.166 128.373Z" fill="black"/>
<g filter="url(#filter19_f_864_2476)">
<ellipse cx="16.1591" cy="15.0964" rx="16.1591" ry="15.0964" transform="matrix(0.789494 -0.613758 0.613671 0.789561 187.479 84.6301)" fill="#FCE308" fill-opacity="0.5"/>
</g>
<path d="M222.231 74.8171C222.562 80.1219 223.113 81.2136 223.445 86.5184C223.671 90.1353 224.645 97.077 222.292 98.9874C219.939 100.898 213.768 99.5201 207.381 99.9192C204.495 100.1 196.396 101.845 195.164 97.5834C194.172 94.1541 193.957 91.3722 193.731 87.7554C193.307 80.9635 194.674 76.5391 196.218 75.8227C200.602 73.7894 208.575 74.4761 215.901 73.973C217.591 73.8569 220.749 74.2899 222.231 74.8171ZM222.231 74.8171C223.231 75.3745 223.409 76.9228 223.905 78.4316C224.722 80.9158 225.144 83.7396 225.369 86.3982M194.117 93.9297C194.24 95.9056 195.023 100.485 195.395 101.288C195.767 102.091 196.713 102.81 197.916 102.99C200.84 103.427 201.97 103.357 205.169 103.157C210.46 102.826 209.531 102.952 214.789 102.556C216.854 102.4 220.118 102.831 222.004 102.105C223.149 101.664 224.821 100.868 225.217 99.4246C225.835 97.1699 225.793 93.19 225.793 93.19C225.793 93.19 225.519 88.8094 225.369 86.3982M225.369 86.3982C225.293 85.1926 225.47 87.6016 225.369 86.3982Z" stroke="black" stroke-width="0.5"/>
<path d="M211.379 92.7593C211.379 92.3326 211.219 91.986 210.899 91.7193C210.592 91.4526 210.199 91.2126 209.719 90.9993C209.252 90.7726 208.739 90.546 208.179 90.3193C207.632 90.0793 207.119 89.7926 206.639 89.4593C206.172 89.1126 205.779 88.686 205.459 88.1793C205.152 87.6726 204.999 87.026 204.999 86.2393C204.999 85.5593 205.112 84.9726 205.339 84.4793C205.565 83.9726 205.885 83.5526 206.299 83.2193C206.725 82.886 207.225 82.6393 207.799 82.4793C208.372 82.3193 209.012 82.2393 209.719 82.2393C210.532 82.2393 211.299 82.3126 212.019 82.4593C212.739 82.5926 213.332 82.7926 213.799 83.0593L212.939 85.3593C212.645 85.1726 212.205 85.006 211.619 84.8593C211.032 84.6993 210.399 84.6193 209.719 84.6193C209.079 84.6193 208.585 84.746 208.239 84.9993C207.905 85.2526 207.739 85.5926 207.739 86.0193C207.739 86.4193 207.892 86.7526 208.199 87.0193C208.519 87.286 208.912 87.5326 209.379 87.7593C209.859 87.986 210.372 88.2193 210.919 88.4593C211.479 88.6993 211.992 88.9926 212.459 89.3393C212.939 89.6726 213.332 90.0926 213.639 90.5993C213.959 91.0926 214.119 91.7126 214.119 92.4593C214.119 93.206 213.992 93.8526 213.739 94.3993C213.499 94.9326 213.152 95.3793 212.699 95.7393C212.259 96.0993 211.719 96.366 211.079 96.5393C210.452 96.7126 209.759 96.7993 208.999 96.7993C207.999 96.7993 207.119 96.706 206.359 96.5193C205.599 96.3326 205.039 96.146 204.679 95.9593L205.559 93.6193C205.705 93.6993 205.892 93.786 206.119 93.8793C206.359 93.9726 206.625 94.0593 206.919 94.1393C207.212 94.2193 207.519 94.286 207.839 94.3393C208.172 94.3926 208.512 94.4193 208.859 94.4193C209.672 94.4193 210.292 94.286 210.719 94.0193C211.159 93.7393 211.379 93.3193 211.379 92.7593Z" fill="black"/>
<g filter="url(#filter20_f_864_2476)">
<ellipse cx="16.1591" cy="15.0964" rx="16.1591" ry="15.0964" transform="matrix(0.789494 -0.613758 0.613672 0.789561 42.479 50.6901)" fill="#FF0000" fill-opacity="0.5"/>
</g>
<path d="M77.2307 40.8772C77.5622 46.1819 78.1132 47.2737 78.4446 52.5785C78.6706 56.1953 79.6455 63.1371 77.2922 65.0475C74.9389 66.9579 68.7679 65.5802 62.3813 65.9793C59.4954 66.1596 51.3955 67.9055 50.1636 63.6435C49.1723 60.2141 48.9572 57.4323 48.7312 53.8154C48.3068 47.0236 49.6741 42.5991 51.2185 41.8828C55.6021 39.8495 63.5754 40.5362 70.9007 40.033C72.5906 39.917 75.7492 40.3499 77.2307 40.8772ZM77.2307 40.8772C78.2313 41.4345 78.4091 42.9829 78.9052 44.4917C79.7219 46.9759 80.1437 49.7996 80.3686 52.4582M49.1169 59.9898C49.2404 61.9656 50.0229 66.5449 50.395 67.3482C50.7671 68.1514 51.7135 68.8705 52.9158 69.0502C55.8403 69.4873 56.9705 69.4166 60.1692 69.2167C65.4602 68.8861 64.5308 69.0124 69.7891 68.6156C71.8536 68.4598 75.1179 68.8908 77.0041 68.1647C78.1492 67.7239 79.821 66.9283 80.2167 65.4846C80.8347 63.23 80.7929 59.2501 80.7929 59.2501C80.7929 59.2501 80.5192 54.8695 80.3686 52.4582M80.3686 52.4582C80.2933 51.2526 80.4704 53.6617 80.3686 52.4582Z" stroke="black" stroke-width="0.5"/>
<path d="M65.1232 55.0705L65.4832 57.4505H65.5832L65.9832 55.0505L68.6632 46.8505H71.5432L66.3432 60.9505H64.3832L59.1432 46.8505H62.3232L65.1232 55.0705Z" fill="black"/>
<defs>
<filter id="filter0_f_864_2476" x="77.6719" y="2.14581" width="56.2363" height="54.2932" filterUnits="userSpaceOnUse" color-interpolation-filters="sRGB">
<feFlood flood-opacity="0" result="BackgroundImageFix"/>
<feBlend mode="normal" in="SourceGraphic" in2="BackgroundImageFix" result="shape"/>
<feGaussianBlur stdDeviation="6" result="effect1_foregroundBlur_864_2476"/>
</filter>
<filter id="filter1_f_864_2476" x="105.84" y="57.2742" width="55.5347" height="55.0128" filterUnits="userSpaceOnUse" color-interpolation-filters="sRGB">
<feFlood flood-opacity="0" result="BackgroundImageFix"/>
<feBlend mode="normal" in="SourceGraphic" in2="BackgroundImageFix" result="shape"/>
<feGaussianBlur stdDeviation="6" result="effect1_foregroundBlur_864_2476"/>
</filter>
<filter id="filter2_f_864_2476" x="104.374" y="18.629" width="54.7642" height="55.7846" filterUnits="userSpaceOnUse" color-interpolation-filters="sRGB">
<feFlood flood-opacity="0" result="BackgroundImageFix"/>
<feBlend mode="normal" in="SourceGraphic" in2="BackgroundImageFix" result="shape"/>
<feGaussianBlur stdDeviation="6" result="effect1_foregroundBlur_864_2476"/>
</filter>
<filter id="filter3_f_864_2476" x="144.579" y="25.1337" width="56.1494" height="54.3892" filterUnits="userSpaceOnUse" color-interpolation-filters="sRGB">
<feFlood flood-opacity="0" result="BackgroundImageFix"/>
<feBlend mode="normal" in="SourceGraphic" in2="BackgroundImageFix" result="shape"/>
<feGaussianBlur stdDeviation="6" result="effect1_foregroundBlur_864_2476"/>
</filter>
<filter id="filter4_f_864_2476" x="75.3735" y="78.4874" width="54.7656" height="55.7833" filterUnits="userSpaceOnUse" color-interpolation-filters="sRGB">
<feFlood flood-opacity="0" result="BackgroundImageFix"/>
<feBlend mode="normal" in="SourceGraphic" in2="BackgroundImageFix" result="shape"/>
<feGaussianBlur stdDeviation="6" result="effect1_foregroundBlur_864_2476"/>
</filter>
<filter id="filter5_f_864_2476" x="72.5205" y="122.686" width="55.5347" height="55.0128" filterUnits="userSpaceOnUse" color-interpolation-filters="sRGB">
<feFlood flood-opacity="0" result="BackgroundImageFix"/>
<feBlend mode="normal" in="SourceGraphic" in2="BackgroundImageFix" result="shape"/>
<feGaussianBlur stdDeviation="6" result="effect1_foregroundBlur_864_2476"/>
</filter>
<filter id="filter6_f_864_2476" x="125.736" y="90.1002" width="56.0566" height="54.4875" filterUnits="userSpaceOnUse" color-interpolation-filters="sRGB">
<feFlood flood-opacity="0" result="BackgroundImageFix"/>
<feBlend mode="normal" in="SourceGraphic" in2="BackgroundImageFix" result="shape"/>
<feGaussianBlur stdDeviation="6" result="effect1_foregroundBlur_864_2476"/>
</filter>
<filter id="filter7_f_864_2476" x="38.2964" y="103.847" width="56.1104" height="54.4308" filterUnits="userSpaceOnUse" color-interpolation-filters="sRGB">
<feFlood flood-opacity="0" result="BackgroundImageFix"/>
<feBlend mode="normal" in="SourceGraphic" in2="BackgroundImageFix" result="shape"/>
<feGaussianBlur stdDeviation="6" result="effect1_foregroundBlur_864_2476"/>
</filter>
<filter id="filter8_f_864_2476" x="8.96729" y="59.7426" width="55.5347" height="55.0128" filterUnits="userSpaceOnUse" color-interpolation-filters="sRGB">
<feFlood flood-opacity="0" result="BackgroundImageFix"/>
<feBlend mode="normal" in="SourceGraphic" in2="BackgroundImageFix" result="shape"/>
<feGaussianBlur stdDeviation="6" result="effect1_foregroundBlur_864_2476"/>
</filter>
<filter id="filter9_f_864_2476" x="0.329102" y="98.6193" width="55.5347" height="55.0128" filterUnits="userSpaceOnUse" color-interpolation-filters="sRGB">
<feFlood flood-opacity="0" result="BackgroundImageFix"/>
<feBlend mode="normal" in="SourceGraphic" in2="BackgroundImageFix" result="shape"/>
<feGaussianBlur stdDeviation="6" result="effect1_foregroundBlur_864_2476"/>
</filter>
<filter id="filter10_f_864_2476" x="44.1377" y="73.3186" width="55.5347" height="55.0128" filterUnits="userSpaceOnUse" color-interpolation-filters="sRGB">
<feFlood flood-opacity="0" result="BackgroundImageFix"/>
<feBlend mode="normal" in="SourceGraphic" in2="BackgroundImageFix" result="shape"/>
<feGaussianBlur stdDeviation="6" result="effect1_foregroundBlur_864_2476"/>
</filter>
<filter id="filter11_f_864_2476" x="190.372" y="21.4829" width="55.5347" height="55.0128" filterUnits="userSpaceOnUse" color-interpolation-filters="sRGB">
<feFlood flood-opacity="0" result="BackgroundImageFix"/>
<feBlend mode="normal" in="SourceGraphic" in2="BackgroundImageFix" result="shape"/>
<feGaussianBlur stdDeviation="6" result="effect1_foregroundBlur_864_2476"/>
</filter>
<filter id="filter12_f_864_2476" x="215.243" y="62.637" width="55.1528" height="55.3948" filterUnits="userSpaceOnUse" color-interpolation-filters="sRGB">
<feFlood flood-opacity="0" result="BackgroundImageFix"/>
<feBlend mode="normal" in="SourceGraphic" in2="BackgroundImageFix" result="shape"/>
<feGaussianBlur stdDeviation="6" result="effect1_foregroundBlur_864_2476"/>
</filter>
<filter id="filter13_f_864_2476" x="204.104" y="98.4615" width="55.2188" height="55.3284" filterUnits="userSpaceOnUse" color-interpolation-filters="sRGB">
<feFlood flood-opacity="0" result="BackgroundImageFix"/>
<feBlend mode="normal" in="SourceGraphic" in2="BackgroundImageFix" result="shape"/>
<feGaussianBlur stdDeviation="6" result="effect1_foregroundBlur_864_2476"/>
</filter>
<filter id="filter14_f_864_2476" x="108.693" y="116.748" width="55.999" height="54.5466" filterUnits="userSpaceOnUse" color-interpolation-filters="sRGB">
<feFlood flood-opacity="0" result="BackgroundImageFix"/>
<feBlend mode="normal" in="SourceGraphic" in2="BackgroundImageFix" result="shape"/>
<feGaussianBlur stdDeviation="6" result="effect1_foregroundBlur_864_2476"/>
</filter>
<filter id="filter15_f_864_2476" x="146.563" y="122.686" width="55.5347" height="55.0128" filterUnits="userSpaceOnUse" color-interpolation-filters="sRGB">
<feFlood flood-opacity="0" result="BackgroundImageFix"/>
<feBlend mode="normal" in="SourceGraphic" in2="BackgroundImageFix" result="shape"/>
<feGaussianBlur stdDeviation="6" result="effect1_foregroundBlur_864_2476"/>
</filter>
<filter id="filter16_f_864_2476" x="187.633" y="134.066" width="56.0752" height="54.4683" filterUnits="userSpaceOnUse" color-interpolation-filters="sRGB">
<feFlood flood-opacity="0" result="BackgroundImageFix"/>
<feBlend mode="normal" in="SourceGraphic" in2="BackgroundImageFix" result="shape"/>
<feGaussianBlur stdDeviation="6" result="effect1_foregroundBlur_864_2476"/>
</filter>
<filter id="filter17_f_864_2476" x="70.6694" y="41.8469" width="55.5347" height="55.0128" filterUnits="userSpaceOnUse" color-interpolation-filters="sRGB">
<feFlood flood-opacity="0" result="BackgroundImageFix"/>
<feBlend mode="normal" in="SourceGraphic" in2="BackgroundImageFix" result="shape"/>
<feGaussianBlur stdDeviation="6" result="effect1_foregroundBlur_864_2476"/>
</filter>
<filter id="filter18_f_864_2476" x="173.953" y="97.605" width="56.0654" height="54.4781" filterUnits="userSpaceOnUse" color-interpolation-filters="sRGB">
<feFlood flood-opacity="0" result="BackgroundImageFix"/>
<feBlend mode="normal" in="SourceGraphic" in2="BackgroundImageFix" result="shape"/>
<feGaussianBlur stdDeviation="6" result="effect1_foregroundBlur_864_2476"/>
</filter>
<filter id="filter19_f_864_2476" x="181.733" y="59.1255" width="55.5347" height="55.0128" filterUnits="userSpaceOnUse" color-interpolation-filters="sRGB">
<feFlood flood-opacity="0" result="BackgroundImageFix"/>
<feBlend mode="normal" in="SourceGraphic" in2="BackgroundImageFix" result="shape"/>
<feGaussianBlur stdDeviation="6" result="effect1_foregroundBlur_864_2476"/>
</filter>
<filter id="filter20_f_864_2476" x="36.7334" y="25.1854" width="55.5347" height="55.0128" filterUnits="userSpaceOnUse" color-interpolation-filters="sRGB">
<feFlood flood-opacity="0" result="BackgroundImageFix"/>
<feBlend mode="normal" in="SourceGraphic" in2="BackgroundImageFix" result="shape"/>
<feGaussianBlur stdDeviation="6" result="effect1_foregroundBlur_864_2476"/>
</filter>
</defs>
</svg>
