<svg width="78" height="97" viewBox="0 0 78 97" fill="none" xmlns="http://www.w3.org/2000/svg">
<path d="M13.1768 85.9229C13.1827 85.9455 13.1908 85.9681 13.2009 85.9907M13.2009 85.9907C13.3783 86.3877 13.5058 86.3431 13.9445 86.8683C14.0542 86.9995 14.4198 87.3585 14.6026 87.3935L14.9317 86.8683L16.0285 86.9733C16.2479 87.0784 17.062 86.8461 17.4544 86.6582C18.1125 86.3431 18.7705 85.9229 19.0996 85.7128C19.4286 85.5027 19.9771 85.2926 20.7448 84.7674C21.4644 84.2752 22.3901 83.2968 22.7191 82.9816C23.0482 82.6665 23.3772 82.2463 23.4869 81.9312C23.5746 81.6791 23.6331 80.9858 23.5966 80.7757L23.8159 80.6707L24.145 80.9858C24.145 80.9858 24.4722 80.4996 24.8031 80.3555C25.193 80.1858 25.8999 80.3555 25.8999 80.3555C25.7536 80.0404 25.4612 79.5152 25.2418 79.3051C25.1031 79.1722 24.5837 78.8499 24.3643 78.6748C24.3643 78.6748 24.0792 78.8429 23.8159 79.095C23.5527 79.3471 23.2675 79.3051 23.1578 79.3051C22.8653 79.3051 22.1926 79.3051 21.8416 79.3051C21.4029 79.3051 20.0867 79.5152 19.4286 79.7253C19.196 79.7995 18.1125 80.3555 17.6737 80.6707C17.3574 80.8979 15.9188 81.8261 15.3704 82.3514C14.9182 82.7845 14.0542 83.927 13.8349 84.6624C13.7866 84.824 13.6155 85.9907 13.2009 85.9907Z" stroke="#0038FF" stroke-opacity="0.65" stroke-width="0.5"/>
<path d="M41.146 47.4764C41.2557 47.6865 41.8041 48.0017 42.2428 48.0017C43.3835 48.0017 43.9612 47.7916 44.1074 47.7916" stroke="#0038FF" stroke-opacity="0.65" stroke-width="0.5"/>
<path d="M40.978 44.9554C41.0184 45.1871 41.4459 45.6426 41.8653 45.7661C42.9556 46.0872 43.5722 46.0489 43.712 46.0901" stroke="#0038FF" stroke-opacity="0.65" stroke-width="0.5"/>
<path d="M41.6943 47.0564C41.7837 47.2244 42.2306 47.4765 42.5881 47.4765C43.5175 47.4765 43.9882 47.3085 44.1073 47.3085" stroke="#0038FF" stroke-opacity="0.65" stroke-width="0.5"/>
<path d="M40.8169 44.115C40.9063 44.283 41.3531 44.5351 41.7106 44.5351C42.6401 44.5351 43.1107 44.3671 43.2299 44.3671" stroke="#0038FF" stroke-opacity="0.65" stroke-width="0.5"/>
<path d="M41.4746 43.2747C41.5315 43.3588 41.8158 43.4848 42.0433 43.4848C42.6348 43.4848 42.9343 43.4008 43.0102 43.4008" stroke="#0038FF" stroke-opacity="0.65" stroke-width="0.5"/>
<path d="M41.4751 42.6443C41.532 42.7284 41.8163 42.8544 42.0438 42.8544C42.6353 42.8544 42.9348 42.7704 43.0106 42.7704" stroke="#0038FF" stroke-opacity="0.65" stroke-width="0.5"/>
<path d="M41.2554 41.5939C41.3122 41.678 41.5966 41.804 41.8241 41.804C42.4156 41.804 42.7151 41.72 42.7909 41.72" stroke="#0038FF" stroke-opacity="0.65" stroke-width="0.5"/>
<path d="M41.2554 40.9637C41.3122 41.0477 41.5966 41.1738 41.8241 41.1738C42.4156 41.1738 42.7151 41.0897 42.7909 41.0897" stroke="#0038FF" stroke-opacity="0.65" stroke-width="0.5"/>
<path d="M41.4746 40.1233C41.5234 40.2073 41.7671 40.3334 41.9621 40.3334C42.4691 40.3334 42.7258 40.2494 42.7908 40.2494" stroke="#0038FF" stroke-opacity="0.65" stroke-width="0.5"/>
<path d="M41.4746 39.283C41.5234 39.3671 41.7671 39.4931 41.9621 39.4931C42.4691 39.4931 42.7258 39.4091 42.7908 39.4091" stroke="#0038FF" stroke-opacity="0.65" stroke-width="0.5"/>
<path d="M41.6943 38.2325C41.735 38.4005 41.9381 38.6526 42.1006 38.6526C42.523 38.6526 42.737 38.4846 42.7912 38.4846" stroke="#0038FF" stroke-opacity="0.65" stroke-width="0.5"/>
<path d="M41.6943 37.3922C41.735 37.5603 41.9381 37.8124 42.1006 37.8124C42.523 37.8124 42.737 37.6443 42.7912 37.6443" stroke="#0038FF" stroke-opacity="0.65" stroke-width="0.5"/>
<path d="M42.1328 36.3417C42.1653 36.5097 42.3278 36.7618 42.4578 36.7618C42.7958 36.7618 42.9669 36.5938 43.0103 36.5938" stroke="#0038FF" stroke-opacity="0.65" stroke-width="0.5"/>
<path d="M42.1328 35.2912C42.1653 35.4593 42.3278 35.7114 42.4578 35.7114C42.7958 35.7114 42.9669 35.5433 43.0103 35.5433" stroke="#0038FF" stroke-opacity="0.65" stroke-width="0.5"/>
<path d="M42.1328 34.2409C42.1653 34.409 42.3278 34.6611 42.4578 34.6611C42.7958 34.6611 42.9669 34.493 43.0103 34.493" stroke="#0038FF" stroke-opacity="0.65" stroke-width="0.5"/>
<path d="M42.3521 33.4005C42.3845 33.5686 42.547 33.8207 42.677 33.8207C43.015 33.8207 43.1862 33.6526 43.2295 33.6526" stroke="#0038FF" stroke-opacity="0.65" stroke-width="0.5"/>
<path d="M42.3984 32.4887C42.3992 32.6596 42.5122 32.9354 42.6401 32.9575C42.9727 33.0152 43.1724 32.8789 43.215 32.8863" stroke="#0038FF" stroke-opacity="0.65" stroke-width="0.5"/>
<path d="M42.6499 31.7197C42.6506 31.8906 42.7637 32.1664 42.8916 32.1886C43.2242 32.2462 43.4239 32.11 43.4665 32.1174" stroke="#0038FF" stroke-opacity="0.65" stroke-width="0.5"/>
<path d="M42.8691 30.6693C42.8699 30.8402 42.9829 31.116 43.1109 31.1382C43.4434 31.1958 43.6431 31.0596 43.6857 31.0669" stroke="#0038FF" stroke-opacity="0.65" stroke-width="0.5"/>
<path d="M43.0884 29.6189C43.0891 29.7898 43.2022 30.0656 43.3301 30.0878C43.6627 30.1454 43.8623 30.0092 43.905 30.0165" stroke="#0038FF" stroke-opacity="0.65" stroke-width="0.5"/>
<path d="M43.3613 28.8356C43.3666 28.9193 43.4457 29.0572 43.5272 29.0714C43.7392 29.1081 43.8616 29.0465 43.8888 29.0512" stroke="#0038FF" stroke-opacity="0.65" stroke-width="0.5"/>
<path d="M43.7061 27.9382C43.7113 28.0219 43.7905 28.1598 43.872 28.1739C44.0839 28.2106 44.2064 28.149 44.2335 28.1537" stroke="#0038FF" stroke-opacity="0.65" stroke-width="0.5"/>
<path d="M43.9214 27.1205C43.9301 27.186 44.0144 27.2966 44.0959 27.3107C44.3078 27.3474 44.4268 27.304 44.454 27.3087" stroke="#0038FF" stroke-opacity="0.65" stroke-width="0.5"/>
<path d="M44.1362 26.4675C44.1449 26.533 44.2292 26.6436 44.3107 26.6577C44.5227 26.6944 44.6417 26.651 44.6689 26.6557" stroke="#0038FF" stroke-opacity="0.65" stroke-width="0.5"/>
<path d="M44.356 25.8371C44.3646 25.9026 44.449 26.0132 44.5305 26.0273C44.7424 26.0641 44.8614 26.0207 44.8886 26.0254" stroke="#0038FF" stroke-opacity="0.65" stroke-width="0.5"/>
<path d="M44.5752 25.207C44.5839 25.2725 44.6682 25.3831 44.7497 25.3972C44.9616 25.4339 45.0807 25.3905 45.1078 25.3952" stroke="#0038FF" stroke-opacity="0.65" stroke-width="0.5"/>
<path d="M45.0137 24.5767C45.0223 24.6422 45.1067 24.7528 45.1882 24.7669C45.4001 24.8036 45.5191 24.7602 45.5463 24.765" stroke="#0038FF" stroke-opacity="0.65" stroke-width="0.5"/>
<path d="M42.1328 48.5268C42.2222 48.6949 42.669 48.947 43.0265 48.947C43.956 48.947 44.4267 48.7789 44.5458 48.7789" stroke="#0038FF" stroke-opacity="0.65" stroke-width="0.5"/>
<path d="M41.2554 46.0059C41.3447 46.1739 41.7916 46.4261 42.1491 46.4261C43.0785 46.4261 43.5492 46.258 43.6684 46.258" stroke="#0038FF" stroke-opacity="0.65" stroke-width="0.5"/>
<path d="M29.8486 55.1447L30.5067 56.0901L31.3842 56.6153L32.9197 56.9304H36.2102C37.307 56.9304 39.149 57.0412 39.391 57.1405C40.1588 57.4557 41.2556 57.6657 41.9137 58.296C42.5718 58.9263 44.4364 61.0272 44.6557 61.6574C45.0944 62.918 45.8622 67.4349 45.8622 67.8551C45.8622 68.2753 45.8622 69.8509 45.3138 71.0064C45.0233 71.6185 44.1804 73.5275 43.7783 74.2628L43.1202 75.1032" stroke="#0038FF" stroke-opacity="0.65" stroke-width="0.5"/>
<path d="M58.0369 30.8794C58.1465 31.4046 58.5853 32.3501 58.5853 32.9803C58.5853 33.6106 58.5853 34.0308 58.5853 34.556C58.5853 35.0812 58.5853 35.659 58.2562 36.4468C58.0369 36.972 57.5981 38.4427 57.5981 38.7578C57.5981 39.0729 57.1594 39.7032 56.94 40.1234C56.7207 40.5435 56.2819 41.2789 56.0626 41.594C55.8871 41.8461 55.6238 42.1892 55.5142 42.3293" stroke="#0038FF" stroke-opacity="0.65" stroke-width="0.5"/>
<path d="M58.1467 35.5013C57.9273 35.8164 57.4886 36.4887 57.4886 36.6568C57.4886 36.8669 56.8305 38.3375 56.8305 38.5476C56.8305 38.7157 56.6111 39.1779 56.5015 39.388L57.5983 38.8627" stroke="#0038FF" stroke-opacity="0.65" stroke-width="0.5"/>
<path d="M44.5459 37.2872C44.619 37.3222 44.8749 37.3922 45.4234 37.5928C45.8816 37.7603 46.7395 37.8124 47.3976 37.8124C47.9241 37.8124 49.0429 37.8124 50.1397 37.8124C50.8709 37.8124 52.3333 37.7074 52.7721 37.7074C53.3205 37.7074 54.0882 37.5928 54.6367 37.2872C55.0606 37.0509 55.1851 36.2367 55.2947 35.9216C55.4044 35.6065 55.6238 34.451 55.7335 34.1358C55.8432 33.8207 56.2819 32.8753 56.3916 32.14C56.4071 32.036 56.6109 31.6148 56.8303 31.2996C57.0497 30.9845 57.1593 30.8794 57.3787 30.7744C57.5981 30.6343 58.3658 31.0895 58.5852 31.5097C59.0267 32.3553 58.9143 34.0308 58.9143 34.451C58.9143 34.8712 59.1336 37.0771 59.1336 37.3922C59.1336 38.6528 58.4755 40.2284 57.8174 40.7537C57.1593 41.2789 57.0497 41.594 56.5013 42.0142C56.33 42.1454 55.1851 43.0646 54.7463 43.5899C54.3076 44.1151 54.0882 44.3252 53.1011 44.8504C52.7757 45.0236 52.2236 45.2443 51.4559 45.7958C51.0171 46.1109 51.0391 46.132 50.2494 46.6362C49.2622 47.2664 48.8235 47.5816 48.1654 47.7917C47.6451 47.9578 47.3976 48.1068 46.8492 48.3169C46.4105 48.485 45.789 48.597 45.533 48.632" stroke="#0038FF" stroke-opacity="0.65" stroke-width="0.5"/>
<path d="M52.6623 38.3375C52.6257 38.3725 52.5307 38.5476 52.4429 38.9678C52.3332 39.493 52.3332 39.493 52.2236 40.1233C52.1139 40.7535 52.0042 40.7535 51.8945 41.4888C51.8014 42.1128 51.7848 42.3292 51.8945 43.1696C51.9678 43.7309 52.0042 44.0099 52.4429 44.5351C52.58 44.6992 52.9913 45.0604 53.3204 45.2705C53.3934 45.3171 53.686 45.5156 53.8688 45.5856" stroke="#0038FF" stroke-opacity="0.65" stroke-width="0.5"/>
<path d="M53.6944 37.6022C53.6592 37.6336 53.5677 37.7909 53.4832 38.1685C53.3776 38.6404 53.3776 38.6404 53.272 39.2068C53.1664 39.7731 53.0608 39.7731 52.9552 40.4338C52.8656 40.9945 52.8496 41.1889 52.9552 41.944C53.0257 42.4484 53.0608 42.6991 53.4832 43.1711C53.6151 43.3185 54.0112 43.643 54.3281 43.8318C54.3984 43.8737 54.6801 44.052 54.8561 44.115" stroke="#0038FF" stroke-opacity="0.65" stroke-width="0.5"/>
<path d="M53.6318 37.5541C53.6114 37.5855 53.5683 37.7349 53.559 38.0807C53.5473 38.513 53.5473 38.513 53.548 39.0298C53.5488 39.5466 53.4752 39.5565 53.4883 40.1577C53.4994 40.6679 53.5138 40.8435 53.6864 41.5094C53.8016 41.9543 53.8589 42.1754 54.215 42.5583C54.3262 42.6779 54.6446 42.9313 54.89 43.0706C54.9444 43.1015 55.164 43.2348 55.2948 43.2746" stroke="#0038FF" stroke-opacity="0.65" stroke-width="0.5"/>
<path d="M54.7156 37.2305C54.7084 37.2574 54.6987 37.3887 54.7174 37.6981C54.7407 38.0849 54.7407 38.0849 54.7752 38.5482C54.8097 39.0115 54.777 39.0159 54.8227 39.5556C54.8615 40.0136 54.8797 40.1718 55.002 40.7793C55.0838 41.185 55.1244 41.3867 55.3113 41.7515C55.3696 41.8655 55.5309 42.112 55.6514 42.2517C55.6782 42.2827 55.7866 42.4155 55.8486 42.4592" stroke="#0038FF" stroke-opacity="0.65" stroke-width="0.5"/>
<path d="M48.8236 23.2111C48.8236 23.2111 48.3849 22.6858 47.7268 22.8959C47.0687 23.106 46.7397 23.6312 46.7397 23.6312C46.5569 23.8063 45.8622 25.1019 45.7525 25.5221C45.6428 25.9422 44.9847 27.2028 44.7654 27.9381C44.6147 28.4431 44.217 30.3541 44.1073 30.9844C44.067 31.2161 43.7782 32.7701 43.6686 33.6105C43.5808 34.2828 43.632 36.2016 43.6686 37.077V40.8586C43.7417 41.839 43.6686 42.9595 43.9976 44.3251C44.0993 44.7471 44.546 46.2159 44.7654 46.7411C44.9847 47.2663 45.6428 48.842 45.9719 49.1571C46.3009 49.4723 47.2881 50.3126 47.6171 50.6278" stroke="#0038FF" stroke-opacity="0.65" stroke-width="0.5"/>
<path d="M48.6039 23.3162C48.4942 23.6314 48.0893 24.8919 48.0893 24.8919C48.0893 24.8919 47.6167 26.9928 47.5408 27.8332C47.503 28.2518 47.0683 30.0391 46.9586 30.8795C46.8978 31.3456 46.6296 33.4005 46.5199 34.3459C46.4317 35.106 46.7393 35.3964 46.9586 35.6065C47.1341 35.7745 47.6167 35.9566 47.8361 36.0266C48.0555 36.0967 49.0615 36.0543 49.591 35.6065C50.0218 35.2422 50.4685 34.1358 50.4685 34.1358C50.6147 33.5756 50.7975 32.8753 50.8251 32.14C50.8376 31.808 51.0835 29.4047 51.1265 29.1987C51.2362 28.6735 51.5653 27.6231 51.8943 27.0978C52.2234 26.5726 52.6621 26.2575 53.3202 26.0474C53.9783 25.8373 54.5267 25.6272 54.7461 25.6272C54.9654 25.6272 55.0751 25.7323 55.0751 26.0474C55.0751 26.3625 54.7461 26.3625 54.7461 26.3625C54.2708 26.3975 53.8266 26.5068 53.3202 26.7827C52.3894 27.2898 52.0969 27.4451 51.675 28.2533C51.4556 28.6735 51.3054 29.4088 51.2362 29.724C51.1809 29.9761 51.2132 30.3892 51.2362 30.5643" stroke="#0038FF" stroke-opacity="0.65" stroke-width="0.5"/>
<path d="M49.2622 22.2658C49.445 22.4058 49.3719 22.6859 48.9331 23.1061C48.3847 23.6313 48.0557 24.0515 47.7266 24.4717C47.3976 24.8919 46.7395 26.0474 46.4105 26.8877C46.2716 27.2424 45.4233 29.4088 45.204 31.1946C45.1629 31.5284 44.8383 36.0967 44.6555 38.3376C44.6555 39.8082 44.6555 42.8125 44.6555 43.0646C44.6555 43.3798 44.4362 44.8504 44.8749 46.5311C45.0112 47.0531 45.4233 48.1068 46.3008 48.8421L48.275 49.5774C48.6041 49.7175 49.1445 50.2973 49.2622 50.5228C49.4815 50.943 50.03 52.4136 49.2622 53.8843C48.9188 54.5419 47.7266 55.9851 46.9589 56.7205C46.6792 56.9883 43.7781 58.5062 43.12 58.7163C42.4619 58.9264 41.0881 59.4839 40.4876 59.9769C39.7198 60.6071 39.6102 62.3929 39.6102 62.708C39.6102 63.0232 40.259 66.187 40.3779 66.6997C40.5973 67.6451 42.7909 72.3721 43.12 73.2125C43.274 73.6059 43.0103 75.5235 42.6813 76.5739C42.454 77.2995 41.8038 78.2547 41.4748 78.7799C41.2115 79.2001 40.6339 79.9354 40.3779 80.2505C38.7693 82.0363 35.508 85.6498 35.3326 85.8179C35.1571 85.9859 33.4109 87.7087 31.384 89.1793C30.081 90.1247 28.2032 91.7004 27.3258 92.3307C26.7053 92.7763 22.6094 95.2719 21.1836 95.7971C20.8764 95.9103 18.9899 96.6375 17.0156 96.7425C15.0414 96.8476 12.5552 94.6416 12.1896 94.1164C11.9703 93.8013 11.4219 91.9389 11.4219 91.4136C11.4219 90.8884 11.7509 88.4724 12.08 87.9472C12.5584 87.1835 13.3961 86.6232 13.8349 86.2381L15.0414 85.0826C16.0285 84.2422 17.3217 82.9614 17.7834 82.6665C18.7705 82.0363 20.8545 80.2505 22.9385 80.0404C24.1383 79.9195 25.2418 79.3051 26.1193 79.095C26.9967 78.8849 31.1157 77.8408 31.4937 77.7294C32.9195 77.3092 39.0617 75.8386 40.4876 75.6285C41.0947 75.5391 43.8512 74.9632 44.8749 74.6831C50.5784 72.8974 57.1129 70.9024 58.0368 70.5864C59.5723 70.0612 63.5209 68.9057 65.0564 68.1703C66.592 67.435 68.7856 66.3846 70.1018 65.7543C71.418 65.124 72.1858 64.4938 73.3923 63.7585C74.4753 63.0984 75.3665 62.708 75.9149 62.2878C76.3537 61.9517 77.3408 61.3424 77.7795 61.1323" stroke="#0038FF" stroke-opacity="0.65" stroke-width="0.5"/>
<path d="M52.8818 19.7446C52.6259 20.0597 52.2511 20.3749 52.114 20.9001C52.0043 21.3203 51.6753 22.4758 51.6753 22.8959C51.6753 23.3161 51.8947 24.5767 52.114 24.8918C52.3334 25.2069 53.6496 26.0473 53.7593 26.1523" stroke="#0038FF" stroke-opacity="0.65" stroke-width="0.5"/>
<path d="M46.7395 22.7909C46.7395 22.7909 46.3028 22.4646 45.9717 22.3707C45.561 22.2541 44.6555 22.5808 44.6555 22.5808C44.2534 22.7909 43.7925 23.0922 43.6684 23.211C43.449 23.4211 42.3522 24.7867 42.0232 25.7321C41.8497 26.2304 40.9263 29.0935 40.8166 29.6188C40.707 30.144 39.3835 34.9649 39.1714 38.5476C39.0769 40.1449 39.1714 41.4188 39.1714 42.6443C39.3177 43.7648 39.4785 45.8377 39.8295 46.4259C40.2683 47.1613 40.4969 47.9055 40.8167 48.2117C41.036 48.4218 42.0597 49.1221 42.4619 49.3672C42.4619 49.3672 43.1829 49.4211 43.6684 49.4722C44.009 49.5082 44.5458 49.4722 44.5458 49.4722" stroke="#0038FF" stroke-opacity="0.65" stroke-width="0.5"/>
<path d="M49.9204 19.7447C50.1763 19.7797 50.7321 19.8497 50.9075 19.8497C51.1269 19.8497 51.456 19.8497 51.785 19.8497C52.1141 19.8497 52.5528 19.8497 52.7721 19.8497C52.9476 19.8497 53.2109 19.7797 53.3206 19.7447" stroke="#0038FF" stroke-opacity="0.65" stroke-width="0.5"/>
<path d="M38.7329 9.135C38.806 9.17002 39.1716 9.38711 39.6104 9.55518C40.1588 9.76527 40.7072 10.0804 41.0362 10.5006C41.3653 10.9208 42.0234 11.8662 42.2427 12.2863C42.4621 12.7065 43.0105 13.862 43.1202 14.1772C43.2079 14.4293 43.303 14.7724 43.3396 14.9125L43.7783 14.2822L44.3267 13.862L44.7654 13.6519L45.6429 14.3872C45.8622 14.6674 46.2352 15.3116 46.4107 15.6478C46.63 16.068 46.7397 16.4881 46.8494 17.0134C46.9591 17.5386 47.2494 18.3192 47.5075 18.484C47.8365 18.6941 48.4946 19.1143 48.9333 19.2193C49.1741 19.277 49.6646 19.6395 49.9205 19.7445L49.5914 21.1101L49.2624 22.3706C49.2624 22.3706 48.2753 22.0555 47.6172 22.3706C46.9591 22.6858 46.279 23.5682 46.1913 23.7362C45.9719 24.1564 45.5332 24.6816 45.3138 25.2069C45.2324 25.4019 44.3267 27.938 44.217 28.2532C44.1073 28.5683 43.7546 30.5723 43.6686 30.9843C43.5589 31.5095 43.3396 32.2449 43.2299 32.8751C43.1158 33.5305 43.0105 34.871 42.9008 35.7113C42.8131 36.3836 42.5151 39.3981 42.7911 41.8039C43.084 44.356 44.1073 47.9176 44.1073 48.0016C44.1073 48.0856 44.9982 50.147 46.0816 50.3126C46.3354 50.3514 46.652 50.3126 46.7397 50.3126C46.8494 50.3126 47.3978 50.2075 47.5075 49.9974C47.5952 49.8294 47.8 49.5072 47.8365 49.3672C48.129 49.3672 48.7824 49.4028 49.043 49.3672C49.8108 49.2621 50.9719 48.3602 51.127 48.2117C51.6754 47.6865 52.619 47.0295 52.7722 46.8461C53.211 46.3209 53.9787 45.1654 54.1981 44.7452C54.2675 44.6123 54.9895 43.6083 55.0755 43.4847C55.2949 43.1695 55.953 42.5393 55.953 42.5393C55.953 42.5393 57.0133 41.7339 57.3789 41.2787C57.7079 40.9636 58.1819 40.3233 58.2563 40.2283C58.5854 39.8081 58.8269 39.3714 59.0241 38.7576C59.3768 37.6598 59.0241 36.7268 59.0241 35.8164C58.9875 34.5909 59.332 33.3018 58.8047 31.8247C58.6064 31.2689 58.3295 30.8093 58.1466 30.4591C57.9638 30.0739 57.6537 29.253 57.5982 29.0935C57.3789 28.4632 56.8305 27.4128 56.8305 27.4128C56.5745 26.9226 55.9014 26.7688 55.4046 26.2573C55.1767 26.0227 55.051 25.8875 54.8562 25.627C54.7662 25.5068 54.6368 25.3119 54.6368 25.3119H55.0755L54.3078 24.5766C54.0518 24.2615 53.6897 23.9364 53.54 23.4211C53.4023 22.9468 53.3206 22.4057 53.3206 22.0555C53.3206 22.0555 53.4303 21.2152 53.869 20.5849C54.0816 20.2796 54.3078 19.7445 54.3078 19.7445H53.211L53.54 18.2739C53.6497 17.7837 53.7594 16.9083 53.7594 16.5932C53.7594 15.9288 53.0281 15.3072 52.6625 14.887C52.1141 14.5368 50.6883 14.0721 50.6883 14.0721C50.6883 14.0721 49.043 13.3368 48.714 13.1267C48.3849 12.9166 48.2753 12.6015 48.1656 12.2863C48.0559 11.9712 48.2469 11.1858 48.1656 10.8157C47.9684 9.91807 47.8 9.45014 47.5075 9.02996C47.215 8.60978 46.5494 7.79725 46.4107 7.66437C46.1913 7.45428 45.6063 7.06912 45.3138 6.82402C45.0214 6.57891 44.3267 6.50888 44.3267 6.50888" stroke="#0038FF" stroke-opacity="0.65" stroke-width="0.5"/>
<path d="M42.2427 7.66443C42.4986 7.80449 43.0763 8.12663 43.3395 8.2947C43.6685 8.50479 44.875 9.66028 45.0944 9.97542C45.3138 10.2905 46.3009 11.5511 46.4106 12.0763C46.5203 12.6015 46.4106 13.5469 46.4106 13.8621" stroke="#0038FF" stroke-opacity="0.65" stroke-width="0.5"/>
<path d="M44.7651 13.652C44.8017 13.582 44.9656 13.4948 45.4232 13.2318C45.9716 12.9167 45.862 12.8116 46.6297 12.7066C47.244 12.6226 47.6169 12.4965 47.9459 12.4965H48.275" stroke="#0038FF" stroke-opacity="0.65" stroke-width="0.5"/>
<path d="M46.5205 13.8621C46.4839 13.8971 46.4766 14.0301 46.7399 14.2823C47.0689 14.5974 47.1786 14.7024 47.5076 14.9125C47.8367 15.1226 48.7141 15.6478 48.9335 15.7529C49.1529 15.8579 49.8109 16.2781 50.14 16.4882C50.469 16.6983 50.469 16.8033 50.6884 17.3286C50.9078 17.8538 50.9078 18.379 51.0174 18.6941C51.1052 18.9462 51.054 19.4995 51.0174 19.7446V19.9547" stroke="#0038FF" stroke-opacity="0.65" stroke-width="0.5"/>
<path d="M50.3589 16.6983C50.3954 16.6983 50.6283 16.7815 51.2363 16.6983C52.0041 16.5932 52.2041 16.4655 52.3332 16.3831C52.6622 16.173 52.8816 15.9279 53.1009 15.7529L53.3203 15.5428" stroke="#0038FF" stroke-opacity="0.65" stroke-width="0.5"/>
<path d="M50.9077 18.0248C50.9429 18.0248 51.1671 18.1127 51.7527 18.0248C52.492 17.9137 52.6846 17.7788 52.8089 17.6917C53.1257 17.4696 53.337 17.2105 53.5482 17.0254L53.7595 16.8033" stroke="#0038FF" stroke-opacity="0.65" stroke-width="0.5"/>
<path d="M50.996 19.0944C51.0268 19.0978 51.2127 19.2019 51.7339 19.1753C52.3919 19.1417 52.5753 19.0333 52.6936 18.9634C52.9952 18.785 53.2088 18.5617 53.414 18.408L53.6235 18.2195" stroke="#0038FF" stroke-opacity="0.65" stroke-width="0.5"/>
<path d="M14.054 36.762C13.9443 37.0771 13.9443 37.0771 13.9443 37.3923C13.9443 37.6444 13.9443 38.5478 13.9443 38.9679V39.5982" stroke="#0038FF" stroke-opacity="0.65" stroke-width="0.5"/>
<path d="M14.3831 37.182C14.2734 37.4972 14.2734 37.4972 14.2734 37.8123C14.2734 38.0644 14.2734 38.9678 14.2734 39.388V40.0182" stroke="#0038FF" stroke-opacity="0.65" stroke-width="0.5"/>
<path d="M14.9316 38.8628C14.9316 39.1149 14.9316 40.0183 14.9316 40.4385V41.0688" stroke="#0038FF" stroke-opacity="0.65" stroke-width="0.5"/>
<path d="M16.248 40.3335C16.248 40.5856 16.248 41.489 16.248 41.9091V42.5394" stroke="#0038FF" stroke-opacity="0.65" stroke-width="0.5"/>
<path d="M17.7832 42.0142C17.7832 42.2663 17.7832 43.1697 17.7832 43.5899V44.2201" stroke="#0038FF" stroke-opacity="0.65" stroke-width="0.5"/>
<path d="M18.6611 42.8544C18.6611 43.1065 18.6611 44.0099 18.6611 44.4301V45.0604" stroke="#0038FF" stroke-opacity="0.65" stroke-width="0.5"/>
<path d="M15.5898 40.3334V41.699" stroke="#0038FF" stroke-opacity="0.65" stroke-width="0.5"/>
<path d="M16.9058 41.804V43.1696" stroke="#0038FF" stroke-opacity="0.65" stroke-width="0.5"/>
<path d="M19.5386 44.5353V45.9009" stroke="#0038FF" stroke-opacity="0.65" stroke-width="0.5"/>
<path d="M20.416 45.3755V46.7411" stroke="#0038FF" stroke-opacity="0.65" stroke-width="0.5"/>
<path d="M21.2935 46.2159V47.5815" stroke="#0038FF" stroke-opacity="0.65" stroke-width="0.5"/>
<path d="M22.3901 46.8462V48.2118" stroke="#0038FF" stroke-opacity="0.65" stroke-width="0.5"/>
<path d="M23.9258 48.3169V49.6825" stroke="#0038FF" stroke-opacity="0.65" stroke-width="0.5"/>
<path d="M24.8032 48.9471V50.3127" stroke="#0038FF" stroke-opacity="0.65" stroke-width="0.5"/>
<path d="M25.6807 49.3673V50.7328" stroke="#0038FF" stroke-opacity="0.65" stroke-width="0.5"/>
<path d="M26.3389 49.7874V51.153" stroke="#0038FF" stroke-opacity="0.65" stroke-width="0.5"/>
<path d="M26.7773 50.2076V51.5732" stroke="#0038FF" stroke-opacity="0.65" stroke-width="0.5"/>
<path d="M27.2163 50.6278V51.9933" stroke="#0038FF" stroke-opacity="0.65" stroke-width="0.5"/>
<path d="M28.0938 51.0479V52.4135" stroke="#0038FF" stroke-opacity="0.65" stroke-width="0.5"/>
<path d="M28.752 51.6783V53.0438" stroke="#0038FF" stroke-opacity="0.65" stroke-width="0.5"/>
<path d="M29.4097 51.6783V53.0439" stroke="#0038FF" stroke-opacity="0.65" stroke-width="0.5"/>
<path d="M30.0679 52.3086V53.6742" stroke="#0038FF" stroke-opacity="0.65" stroke-width="0.5"/>
<path d="M31.1646 52.7287V54.0943" stroke="#0038FF" stroke-opacity="0.65" stroke-width="0.5"/>
<path d="M32.7002 52.9389V54.3045" stroke="#0038FF" stroke-opacity="0.65" stroke-width="0.5"/>
<path d="M33.3584 53.1489V54.5145" stroke="#0038FF" stroke-opacity="0.65" stroke-width="0.5"/>
<path d="M15.3705 50.9429C15.3339 50.9079 15.4144 50.7748 15.5898 50.5227C15.8092 50.2076 15.9189 50.2076 16.2479 49.6823C16.577 49.1571 17.0157 48.5268 17.1254 48.4218C17.2351 48.3168 17.6738 47.4764 17.7835 47.3714C17.8712 47.2873 18.1125 46.9862 18.2222 46.8461" stroke="#0038FF" stroke-opacity="0.65" stroke-width="0.5"/>
<path d="M11.0927 42.3292C11.0196 42.5043 10.7637 43.2746 10.7637 43.6948C10.7637 44.22 10.9448 45.0738 11.2024 45.6906C11.4218 46.2159 12.5186 47.5814 13.1767 48.6319C13.5057 49.1571 15.2606 50.8378 15.48 51.0479C15.6994 51.258 17.0156 52.3085 17.3446 52.5185C17.6736 52.7286 18.6608 53.4639 19.5382 53.9892C20.4157 54.5144 21.1835 54.9346 21.7319 55.2497C22.2803 55.5648 23.2206 56.0236 23.7062 56.0901C24.4739 56.1951 25.687 55.9309 25.8998 55.88C26.3385 55.7749 27.3988 55.3197 27.7644 55.1447L28.3128 54.8295" stroke="#0038FF" stroke-opacity="0.65" stroke-width="0.5"/>
<path d="M12.2994 47.3715C12.1532 47.5816 12.0801 47.9742 12.0801 48.2118C12.0801 48.632 12.4204 49.0738 12.6285 49.4724C12.8479 49.8926 13.7253 50.6279 13.9447 50.838C14.0755 50.9633 14.3625 51.2381 14.7124 51.5287M22.8289 55.67C22.6096 55.7401 22.127 55.8801 21.9515 55.8801C21.7321 55.8801 21.4031 55.9852 21.074 55.8801C20.745 55.7751 20.0869 55.4599 19.8675 55.3549C19.6481 55.2499 18.7707 54.4095 18.4416 54.1994C18.0335 53.9388 17.6739 53.6742 17.2351 53.359C16.7964 53.0439 16.1383 52.5187 15.4802 52.0985C15.2147 51.929 14.9492 51.7252 14.7124 51.5287M14.7124 51.5287C14.6759 51.6486 14.4931 51.5733 14.3834 51.8884C14.2793 52.1874 14.4931 52.4136 14.6028 52.5187C14.7124 52.6237 15.2609 53.0439 15.3705 53.149C15.4802 53.254 16.0286 53.6742 16.248 53.7792C16.4674 53.8843 16.9061 54.0944 17.2351 54.3044C17.4933 54.4693 17.5642 54.5764 18.1126 54.7865C18.661 54.9966 19.2094 55.3117 19.4288 55.4168C19.6481 55.5218 19.7578 55.565 19.9772 55.565C20.1966 55.565 20.4159 55.6317 20.5256 55.67" stroke="#0038FF" stroke-opacity="0.65" stroke-width="0.5"/>
<path d="M20.0866 36.4468L20.5253 36.1317C20.5253 36.1317 21.1834 35.9216 21.5124 36.2367L22.4996 37.1821C22.9383 37.6023 23.8735 38.8315 24.1448 39.178C24.4738 39.5981 25.8281 40.9375 26.3703 41.489C26.8868 42.0142 27.8155 42.8936 27.9837 43.0646C28.5002 43.5898 30.2504 45.3406 31.3838 46.216C31.3838 46.216 32.4075 46.6362 32.371 46.8462C32.3344 47.0563 32.2174 47.4975 32.0419 47.5816C31.8226 47.6866 30.9451 47.3715 29.8483 46.6361C28.279 45.5841 27.7643 45.3756 26.7772 44.6403C25.79 43.905 24.8029 43.0646 24.2545 42.5394C23.8022 42.1063 22.7777 40.9149 22.3899 40.5435C21.9511 40.1234 21.2931 39.3881 20.7446 38.7578C20.1406 38.0636 19.8672 37.2872 19.8672 37.0771C19.8672 36.909 19.9403 36.5869 20.0866 36.4468Z" stroke="#0038FF" stroke-opacity="0.65" stroke-width="0.5"/>
<path d="M12.738 35.8165C12.5918 35.8865 12.2993 36.0686 12.2993 36.2366C12.2993 36.4467 12.2993 36.7619 12.2993 36.8669C12.2993 36.972 12.6284 37.9174 12.6284 38.2325C12.6284 38.4846 13.5789 40.2984 14.0542 41.1738C14.5295 41.699 15.502 42.7914 15.5898 42.9595C15.6775 43.1276 16.9425 44.3601 17.5641 44.9554C18.5146 45.6207 20.4377 46.9932 20.5255 47.1613C20.6352 47.3714 21.6223 48.2118 21.8417 48.3168C22.061 48.4218 22.3901 48.6319 22.7191 48.842C22.9824 49.0101 23.4138 49.2622 23.5966 49.3673" stroke="#0038FF" stroke-opacity="0.65" stroke-width="0.5"/>
<path d="M33.4678 54.4095C33.2485 54.4795 32.071 54.5785 31.6032 54.5145C30.8354 54.4095 30.1774 54.1994 29.7386 53.9893C29.2999 53.7792 27.6547 53.0439 27.3256 52.8338C26.9966 52.6237 24.1217 51.0839 23.9255 50.943C23.4867 50.6278 22.1579 49.6996 21.8415 49.4724C21.4028 49.1572 19.9769 48.1068 19.3188 47.5815C19.1282 47.4294 18.1123 46.4611 17.6736 46.0059L17.2349 45.4807" stroke="#0038FF" stroke-opacity="0.65" stroke-width="0.5"/>
<path d="M13.8348 35.2913L13.5058 36.3417C13.5058 36.3417 13.4686 37.2476 13.5058 37.4972C13.6155 38.2325 13.6155 38.5476 13.8348 39.0729C13.9978 39.463 14.6026 40.4385 14.822 40.7536C15.0414 41.0687 17.235 43.4848 17.235 43.4848C17.235 43.4848 18.6609 45.1655 19.5383 45.9008C20.2484 46.4958 21.4029 47.7916 22.6094 48.632C23.8159 49.4723 24.9292 50.2882 25.7902 50.8379C26.4483 51.2581 27.3258 52.0984 28.0935 52.5186C28.8613 52.9388 29.1145 53.2678 29.8484 53.5691C30.6162 53.8842 31.0549 53.9892 31.8227 54.0943C32.5094 54.1882 32.8099 54.1993 33.3583 54.1993C33.797 54.1993 35.0035 53.8842 35.3325 53.464" stroke="#0038FF" stroke-opacity="0.65" stroke-width="0.5"/>
<path d="M9.55713 34.4509L9.77649 34.766C9.88618 34.8711 10.1422 35.0346 10.2152 35.0812C10.5443 35.2913 10.654 35.3963 10.8733 35.5014C11.0927 35.6064 11.2024 35.7115 11.4217 35.8165C11.5327 35.8696 11.5314 35.9215 11.7508 35.9215L12.0798 35.9215C12.1895 35.9215 12.2992 35.9215 12.5185 35.8165C12.6166 35.7695 12.7379 35.7114 12.9573 35.6064C13.0358 35.5688 13.067 35.5014 13.2863 35.5014L13.5057 35.5014C13.7251 35.5014 13.7955 35.3664 13.8347 35.2913C13.9444 35.0812 14.0194 34.7607 14.0541 34.661C14.1638 34.3459 14.525 33.7899 14.6025 33.7156C14.8219 33.5055 15.3337 33.1554 15.6993 32.8752C16.1381 32.5601 16.6004 32.4715 16.6865 32.4551C17.2349 32.35 17.5639 32.4551 18.222 32.4551C18.7704 32.4551 19.2457 32.6651 19.6479 32.7702C20.2414 32.9252 21.0738 33.4005 21.2931 33.5055C21.6033 33.6541 22.8443 34.3969 22.9384 34.4509C23.4868 34.766 24.3812 35.4099 25.0223 35.9215C25.6804 36.4468 26.7992 37.3081 26.8869 37.3922C26.9966 37.4972 29.5514 39.944 29.629 40.0183C30.0677 40.4385 31.786 42.1192 32.8097 43.1696L35.1131 45.6907C35.6615 46.426 36.2318 47.7286 36.3196 47.8966C36.4293 48.1067 36.6486 49.0521 36.7583 49.5774C36.7798 49.6804 36.7583 50.5228 36.7583 50.6278C36.7583 50.7329 36.6486 51.5732 36.5389 51.8884C36.5043 51.988 36.0099 52.6463 35.8808 52.7287C35.5518 52.9388 35.0034 53.1489 34.5647 53.2539C34.3093 53.3151 33.6872 53.2539 33.5775 53.1489" stroke="#0038FF" stroke-opacity="0.65" stroke-width="0.5"/>
<path d="M12.1896 36.6569C12.1896 36.7269 11.9702 37.3712 11.9702 37.7074C11.9702 38.4427 12.2461 38.8691 12.2993 39.0729C12.5186 39.9133 12.8477 40.6486 13.3961 41.2789C13.9445 41.9091 15.885 44.1393 16.1381 44.4302C16.6865 45.0605 17.3385 45.5857 17.8931 46.321C18.3683 46.9513 18.9899 48.0017 19.5383 48.527C19.762 48.7412 21.2201 49.9976 21.9513 50.7329C22.39 51.1181 23.4649 52.0565 23.8159 52.3086C24.1669 52.5607 25.8267 53.7442 26.6676 54.1994C27.3257 54.5145 27.8083 54.6826 28.4225 54.9347C29.1903 55.2498 30.3968 55.1448 30.7259 55.1448C31.713 55.1448 32.298 54.6546 32.8098 54.5145" stroke="#0038FF" stroke-opacity="0.65" stroke-width="0.5"/>
<path d="M6.04736 36.4468C6.04736 36.4468 6.10916 36.8771 6.15704 37.077C6.23941 37.421 6.37641 37.6023 6.70545 37.8124C6.99793 37.9874 7.62678 38.3586 7.80227 38.4426C8.02163 38.5477 8.57005 38.7578 8.89909 38.9679C9.10315 39.0981 9.55719 39.4931 9.66687 39.7032C9.75462 39.8712 10.3257 40.81 10.654 41.594C10.8709 42.1118 11.1586 42.4343 11.4218 42.8545C11.7508 43.3797 11.9702 44.01 12.0799 44.2201C12.2567 44.5589 12.8477 45.3756 13.2864 45.9008L14.1638 46.9513C14.1638 46.9513 14.6888 47.6129 15.151 47.5815C15.3811 47.5659 15.6994 47.3714 15.6994 47.3714L15.9188 47.1614C16.0284 47.0563 16.1381 46.8252 16.1381 46.7412C16.1381 46.6571 16.1381 46.426 16.1381 46.2159C16.1381 46.0059 16.0284 45.6907 16.0284 45.6907" stroke="#0038FF" stroke-opacity="0.65" stroke-width="0.5"/>
<path d="M15.0415 47.5815C15.0781 47.6516 15.1512 47.6866 15.3706 47.7916C15.5093 47.8581 15.6996 47.8967 15.8093 47.8967C15.897 47.8967 16.0286 47.8967 16.1383 47.8967C16.3577 47.8967 16.515 47.8511 16.5771 47.7916C16.6867 47.6866 16.808 47.5594 16.9061 47.3715C17.0158 47.1614 17.0158 47.0563 17.0158 46.9513C17.0158 46.9513 17.0158 46.8232 17.0158 46.7412C17.0158 46.6181 17.041 46.5145 17.0158 46.426C16.9906 46.3376 16.9061 46.216 16.9061 46.216" stroke="#0038FF" stroke-opacity="0.65" stroke-width="0.5"/>
<path d="M9.77668 20.2699L9.44764 22.1608C9.44764 22.8961 9.22828 23.7364 9.22828 24.1566C9.22828 24.5768 9.00891 25.3121 9.00891 25.9424C9.00891 26.4466 9.22828 27.518 9.22828 27.9382L7.25399 28.3584L5.93781 28.8836C5.93781 28.8836 4.29257 29.5139 3.96353 29.4088C3.63448 29.3038 3.19575 29.1988 2.75702 28.8836C2.3183 28.5685 1.73333 27.7281 1.44084 27.2029C1.44084 27.2029 1.20083 26.4816 1.22147 25.9424C1.24584 25.306 1.46134 24.8648 1.6602 24.3667C1.90923 23.7429 2.20861 23.3162 2.20861 23.3162C2.20861 23.3162 2.53909 22.5814 2.86671 22.686C3.19575 22.791 4.10057 22.8898 4.62162 22.8961C5.18496 22.9028 5.93781 22.791 5.93781 22.791C5.93781 22.791 5.81703 23.8002 5.71844 24.3667C5.60876 24.997 5.49908 25.3121 5.49908 25.9424C5.49908 26.2731 5.49908 26.3469 5.49908 26.6777C5.49908 27.9382 5.60876 29.0117 5.60876 29.0117" stroke="#0038FF" stroke-opacity="0.65" stroke-width="0.5"/>
<path d="M4.18311 29.4087C4.29279 29.5488 4.53409 29.8709 4.62183 30.039C4.73152 30.2491 4.8412 30.4592 4.8412 30.9844C4.8412 31.5096 4.73152 32.1399 4.73152 32.5601C4.73152 32.9803 4.56774 33.93 4.62183 34.2408C4.73152 34.8711 5.17024 35.1862 5.38961 35.5013C5.60897 35.8165 5.93802 36.2367 6.0477 36.4467C6.13545 36.6148 6.41331 36.2016 6.59611 36.1316L7.25421 35.7114L7.69293 35.5013L8.13166 35.2913C8.24134 35.2562 8.59121 35.0137 8.78976 34.8711C9.22848 34.5559 9.41129 34.5559 9.55753 34.4509C9.63065 34.2408 9.66721 33.7366 9.66721 33.4004C9.66721 32.9803 9.66721 32.5601 9.66721 32.1399C9.66721 31.7197 9.68152 31.2965 9.44785 30.7743C9.1188 30.039 9.00912 30.2491 8.78976 29.7239C8.70829 29.5288 8.46071 29.1987 8.24134 28.8835C8.13251 28.7272 7.80262 28.2883 7.69293 28.1482" stroke="#0038FF" stroke-opacity="0.65" stroke-width="0.5"/>
<path d="M5.60889 29.0936C5.64545 29.3387 5.76244 29.8709 5.93793 30.039C6.1573 30.2491 6.59603 30.8794 6.70571 31.2996C6.81539 31.7197 7.14444 32.455 7.14444 32.6651C7.14444 32.8752 7.58317 34.5559 7.58317 34.661C7.58317 34.745 7.65629 35.2562 7.69285 35.5013C7.69285 35.5013 7.42576 36.0065 7.47348 36.3417C7.50465 36.5606 7.69285 36.8669 7.69285 36.8669C7.91221 37.077 8.39481 37.1821 8.5703 37.1821C9.00903 37.1821 10.1059 37.3922 10.1059 37.3922C10.1059 37.3922 10.6908 37.4622 10.7639 37.4972L11.2027 38.7577C11.6048 39.5981 12.3699 41.0986 12.4092 41.1738C12.6285 41.5939 13.2006 42.5208 13.2866 42.6444C13.506 42.9595 14.2738 44.2201 15.1512 45.0604C15.5984 45.4887 16.1384 45.8658 16.5771 46.1109C16.8341 46.2339 16.9805 46.2515 17.1255 46.321C17.2705 46.3904 17.5642 46.321 17.5642 46.321L17.6739 46.1109" stroke="#0038FF" stroke-opacity="0.65" stroke-width="0.5"/>
<path d="M7.25391 33.2954L7.58295 32.9803L8.02168 32.6651C8.13136 32.5601 8.46041 32.35 8.67977 32.1399C8.83489 31.9913 8.89914 31.9298 9.1185 31.7197C9.25724 31.5868 9.41099 31.4746 9.44755 31.4046L9.66691 31.0894" stroke="#0038FF" stroke-opacity="0.65" stroke-width="0.5"/>
<path d="M7.47314 34.1357L7.80219 33.8206L8.24092 33.5055C8.3506 33.4004 8.67965 33.1903 8.89901 32.9802C9.05413 32.8317 9.11838 32.7701 9.33774 32.5601C9.47648 32.4272 9.63023 32.3149 9.66679 32.2449" stroke="#0038FF" stroke-opacity="0.65" stroke-width="0.5"/>
<path d="M2.75684 22.4758C2.93964 21.8806 3.54845 20.5279 3.74398 20.0598C4.40207 18.4841 5.71825 16.2782 5.93762 15.963C6.81508 14.7025 8.13126 13.0218 8.78935 12.3915C9.44745 11.7612 11.5531 9.77756 12.0798 9.3452C12.8476 8.71493 15.48 6.92917 15.9187 6.61404C16.2697 6.36193 17.6736 5.77368 18.8801 5.14341C18.8801 5.14341 21.8637 4.08204 23.9255 3.77783C25.6612 3.52173 28.3128 3.46269 28.3128 3.46269C29.5193 3.60275 32.4807 3.9459 33.3582 4.19801C34.2356 4.45011 35.4421 4.61819 36.868 5.14341C38.2939 5.66863 39.61 6.61404 39.61 6.61404L40.3778 7.34935L41.0359 8.3998" stroke="#0038FF" stroke-opacity="0.65" stroke-width="0.5"/>
<path d="M9.11837 8.60989C9.8251 7.85262 10.3704 7.34896 11.2023 6.71908C11.8363 6.23907 12.379 5.91412 12.7379 5.66863C14.2734 4.61818 15.809 3.98791 15.809 3.98791L18.7704 2.72738C18.7704 2.72738 21.143 1.8271 23.1577 1.36179C24.8896 0.961789 26.427 0.655139 28.2031 0.521434C29.7403 0.40571 32.2613 0.521433 32.2613 0.521433L35.113 0.731524C36.9776 1.1517 38.5132 1.36179 40.1584 1.99206C40.9954 2.31272 42.5714 3.07753 43.2295 3.35765C43.8876 3.63776 45.5328 4.51314 45.5328 5.56359C45.5328 6.61404 44.3263 6.71908 44.3263 6.71908C43.2295 7.03421 42.7908 7.34935 42.1327 7.76953C41.8589 7.94433 41.3649 8.29475 40.8165 8.60989C40.4403 8.82607 39.5003 9.13511 38.8422 9.13511C38.4035 9.13511 37.3067 8.92502 36.2099 8.60989C34.9405 8.24517 34.0162 7.76953 32.4807 7.34935C31.3949 7.05224 30.1773 6.92917 29.7386 6.92917H26.0094L23.1577 7.55944C22.3534 7.83956 20.7673 8.51058 20.5253 8.60989C19.7575 8.92502 18.9167 9.52028 18.1123 9.87043C17.3445 10.3606 16.0284 11.3411 15.4799 11.7612C15.0804 12.0673 14.4928 12.7417 14.1638 13.0218C12.9573 14.2823 11.7508 15.858 11.2023 16.9084C10.9571 17.3782 10.5442 18.7992 10.1055 19.7446C9.92734 20.1286 9.00869 21.2153 8.67965 21.6354C8.41642 21.9716 6.99787 22.5808 6.48601 22.6859L3.96332 22.896L2.86649 22.6859L2.86649 22.1607C2.79337 21.7405 2.86647 20.6174 2.86647 20.1648C2.86647 19.2194 3.9062 16.6983 3.52459 17.3286C3.14297 17.9589 4.32892 15.6829 4.73109 14.8075L5.71823 13.0218L6.92473 11.131C6.92473 11.131 8.2266 9.56542 9.11837 8.60989Z" stroke="#0038FF" stroke-opacity="0.65" stroke-width="0.5"/>
<path d="M19.94 36.9719C20.6991 36.6616 21.4476 36.4139 21.9248 36.867C22.6117 37.4503 22.2097 37.3238 21.8235 37.2822C21.4372 37.2407 20.9295 37.0244 20.7687 37.1982C20.6078 37.3719 21.8368 37.5779 21.978 37.6761C22.7532 38.215 20.2373 37.4153 20.3356 37.6659C20.5607 38.2399 22.0663 37.955 22.7672 38.2508C23.7173 38.6518 21.7704 38.3353 22.2318 38.7272C22.496 38.9515 25.8568 38.9406 25.3245 39.5155C25.1018 39.756 21.2355 38.4779 21.4462 39.015C21.5378 39.2483 23.626 39.3621 23.9801 39.5913C24.3446 39.827 22.542 39.4911 22.6093 39.6446C22.7762 40.0251 24.4861 39.7584 25.0409 40.2295C25.5957 40.7007 23.1574 39.9191 23.3912 40.3803C23.5151 40.6246 26.7933 40.7344 27.2796 41.1758C28.1002 41.9204 25.0648 40.693 25.3392 41.0797C25.8512 41.801 27.8698 41.5577 28.0715 42.2064C28.2026 42.628 24.3854 41.0675 24.5373 41.64C24.6108 41.9174 29.0316 42.6155 29.2925 43.0284C29.9432 44.0586 26.3836 41.9905 26.7776 42.6354C26.9897 42.9827 29.7607 43.5931 30.0158 43.9292C30.3495 44.3687 27.3678 43.0173 27.411 43.5314C27.4284 43.7391 28.4955 43.7363 29.2955 44.2485C30.0954 44.7607 28.2861 44.1786 28.443 44.4556C28.7296 44.9616 30.8034 44.4548 31.3896 45.0959C32.1558 45.7466 28.538 44.6079 29.2299 45.3387C29.9549 46.2887 32.3378 45.4181 32.5651 45.7122C32.8872 46.1289 30.7669 45.7706 31.0666 46.1584C31.1739 46.2973 32.312 46.1895 32.5688 46.5748C32.8099 46.875 30.6448 46.4815 30.7004 46.7069C30.8194 47.1899 31.9517 47.0374 32.1233 47.0559" stroke="#0038FF" stroke-opacity="0.65" stroke-width="0.5"/>
<path d="M15.231 87.0978C14.9716 86.3917 14.7644 85.7151 15.1419 85.4897C15.6279 85.1422 15.5227 85.418 15.4883 85.7101C15.454 86.0021 15.2741 86.3314 15.4191 86.5175C15.5642 86.7036 15.735 85.7992 15.8167 85.7205C16.2656 85.288 15.6007 87.0118 15.8097 87.0184C16.2882 87.0336 16.0493 85.7446 16.2955 85.2889C16.6292 84.6714 16.3668 86.1073 16.6933 85.8739C16.8802 85.7402 16.8682 83.0735 17.3482 83.6891C17.549 83.9467 16.4862 86.5792 16.934 86.5934C17.1286 86.5996 17.2217 84.9833 17.4125 84.7799C17.6089 84.5707 17.3302 85.8857 17.4582 85.8841C17.7754 85.8802 17.5515 84.4353 17.944 84.1546C18.3366 83.8739 17.6867 85.5424 18.0712 85.5127C18.2749 85.497 18.3637 82.9364 18.7314 82.6999C19.3519 82.3008 18.3306 84.2921 18.6529 84.205C19.2542 84.0426 19.0495 82.361 19.5904 82.42C19.942 82.4584 18.6436 84.9567 19.121 85.0295C19.3523 85.0647 19.9309 81.7972 20.2751 81.7298C21.1338 81.5616 19.4118 83.6846 19.9494 83.59C20.2389 83.539 20.7457 81.5493 21.0258 81.4604C21.3921 81.3442 20.2675 83.2511 20.6962 83.3903C20.8694 83.4465 20.8662 82.6 21.2928 82.1389C21.7194 81.6778 21.2353 82.9151 21.4663 82.8842C21.8881 82.8278 21.4636 81.0136 21.9979 80.7653C22.5399 80.3777 21.5932 82.8603 22.2022 82.5586C22.994 82.3045 22.2658 80.1227 22.5109 80.0418C22.8583 79.9271 22.5612 81.4864 22.8844 81.3797C23.0002 81.3415 22.9093 80.4034 23.2304 80.3298C23.4807 80.24 23.1543 81.8229 23.3422 81.8549C23.7451 81.9235 23.6169 80.9748 23.6321 80.845" stroke="#0038FF" stroke-opacity="0.65" stroke-width="0.5"/>
<path d="M18.9996 49.2622C18.9996 49.5146 18.8319 49.6874 18.6609 49.6874C18.4899 49.6874 18.3222 49.5146 18.3222 49.2622C18.3222 49.0097 18.4899 48.8369 18.6609 48.8369C18.8319 48.8369 18.9996 49.0097 18.9996 49.2622Z" stroke="#0038FF" stroke-opacity="0.65" stroke-width="0.2"/>
<path d="M19.8769 50.2076C19.8769 50.4086 19.753 50.5278 19.6479 50.5278C19.5428 50.5278 19.4188 50.4086 19.4188 50.2076C19.4188 50.0066 19.5428 49.8874 19.6479 49.8874C19.753 49.8874 19.8769 50.0066 19.8769 50.2076Z" stroke="#0038FF" stroke-opacity="0.65" stroke-width="0.2"/>
<path d="M21.6318 51.4682C21.6318 51.6692 21.5079 51.7884 21.4028 51.7884C21.2977 51.7884 21.1737 51.6692 21.1737 51.4682C21.1737 51.2672 21.2977 51.148 21.4028 51.148C21.5079 51.148 21.6318 51.2672 21.6318 51.4682Z" stroke="#0038FF" stroke-opacity="0.65" stroke-width="0.2"/>
<path d="M23.1675 52.5187C23.1675 52.7196 23.0435 52.8388 22.9384 52.8388C22.8333 52.8388 22.7094 52.7196 22.7094 52.5187C22.7094 52.3177 22.8333 52.1985 22.9384 52.1985C23.0435 52.1985 23.1675 52.3177 23.1675 52.5187Z" stroke="#0038FF" stroke-opacity="0.65" stroke-width="0.2"/>
<path d="M24.703 53.464C24.703 53.5331 24.6833 53.5914 24.6567 53.6297C24.6298 53.6683 24.6024 53.6791 24.5836 53.6791C24.5649 53.6791 24.5375 53.6683 24.5106 53.6297C24.4839 53.5914 24.4643 53.5331 24.4643 53.464C24.4643 53.3948 24.4839 53.3366 24.5106 53.2983C24.5375 53.2596 24.5649 53.2488 24.5836 53.2488C24.6024 53.2488 24.6298 53.2596 24.6567 53.2983C24.6833 53.3366 24.703 53.3948 24.703 53.464Z" stroke="#0038FF" stroke-opacity="0.65" stroke-width="0.2"/>
<path d="M26.0194 54.5144C26.0194 54.5835 25.9997 54.6418 25.9731 54.6801C25.9462 54.7187 25.9188 54.7295 25.9 54.7295C25.8813 54.7295 25.8539 54.7187 25.827 54.6801C25.8003 54.6418 25.7807 54.5835 25.7807 54.5144C25.7807 54.4452 25.8003 54.387 25.827 54.3487C25.8539 54.31 25.8813 54.2992 25.9 54.2992C25.9188 54.2992 25.9462 54.31 25.9731 54.3487C25.9997 54.387 26.0194 54.4452 26.0194 54.5144Z" stroke="#0038FF" stroke-opacity="0.65" stroke-width="0.2"/>
<path d="M46.4204 39.7031C46.4204 39.9041 46.2965 40.0233 46.1914 40.0233C46.0862 40.0233 45.9623 39.9041 45.9623 39.7031C45.9623 39.5021 46.0862 39.3829 46.1914 39.3829C46.2965 39.3829 46.4204 39.5021 46.4204 39.7031Z" stroke="#0038FF" stroke-opacity="0.65" stroke-width="0.2"/>
<path d="M46.2007 41.3838C46.2007 41.5847 46.0767 41.704 45.9716 41.704C45.8665 41.704 45.7426 41.5847 45.7426 41.3838C45.7426 41.1828 45.8665 41.0636 45.9716 41.0636C46.0767 41.0636 46.2007 41.1828 46.2007 41.3838Z" stroke="#0038FF" stroke-opacity="0.65" stroke-width="0.2"/>
<path d="M46.2005 42.7495C46.2005 42.8187 46.1809 42.877 46.1542 42.9152C46.1273 42.9539 46.0999 42.9647 46.0812 42.9647C46.0624 42.9647 46.035 42.9539 46.0081 42.9152C45.9815 42.877 45.9618 42.8187 45.9618 42.7495C45.9618 42.6804 45.9815 42.6221 46.0081 42.5838C46.035 42.5452 46.0624 42.5344 46.0812 42.5344C46.0999 42.5344 46.1273 42.5452 46.1542 42.5838C46.1809 42.6221 46.2005 42.6804 46.2005 42.7495Z" stroke="#0038FF" stroke-opacity="0.65" stroke-width="0.2"/>
<path d="M46.4203 44.2201C46.4203 44.2893 46.4006 44.3475 46.3739 44.3858C46.347 44.4245 46.3196 44.4353 46.3009 44.4353C46.2822 44.4353 46.2548 44.4245 46.2279 44.3858C46.2012 44.3475 46.1815 44.2893 46.1815 44.2201C46.1815 44.151 46.2012 44.0927 46.2279 44.0544C46.2548 44.0158 46.2822 44.005 46.3009 44.005C46.3196 44.005 46.347 44.0158 46.3739 44.0544C46.4006 44.0927 46.4203 44.151 46.4203 44.2201Z" stroke="#0038FF" stroke-opacity="0.65" stroke-width="0.2"/>
<path d="M46.6395 47.1613C46.6395 47.2304 46.6198 47.2887 46.5932 47.327C46.5663 47.3656 46.5389 47.3764 46.5201 47.3764C46.5014 47.3764 46.474 47.3656 46.4471 47.327C46.4205 47.2887 46.4008 47.2304 46.4008 47.1613C46.4008 47.0921 46.4205 47.0339 46.4471 46.9956C46.474 46.9569 46.5014 46.9461 46.5201 46.9461C46.5389 46.9461 46.5663 46.9569 46.5932 46.9956C46.6198 47.0339 46.6395 47.0921 46.6395 47.1613Z" stroke="#0038FF" stroke-opacity="0.65" stroke-width="0.2"/>
<path d="M46.6396 45.5857C46.6396 45.7866 46.5157 45.9058 46.4106 45.9058C46.3055 45.9058 46.1815 45.7866 46.1815 45.5857C46.1815 45.3847 46.3055 45.2655 46.4106 45.2655C46.5157 45.2655 46.6396 45.3847 46.6396 45.5857Z" stroke="#0038FF" stroke-opacity="0.65" stroke-width="0.2"/>
</svg>
