<svg width="129" height="48" viewBox="0 0 129 48" fill="none" xmlns="http://www.w3.org/2000/svg">
<path d="M128.091 33.669C128.131 34.8058 117.209 36.7942 114.099 37.4911C110.41 38.3174 105.114 46.3778 94.9846 47.2722L77.8278 45.6165C71.4152 42.9288 84.3206 43.4746 86.2878 43.0339C88.7468 42.483 99.9874 37.9027 99.2542 34.63C98.5211 31.3573 85.7859 32.148 81.336 32.4575C76.886 32.7669 62.8932 36.5891 61.0489 37.0022C59.2046 37.4154 51.6809 38.4135 51.8557 36.3121C52.0306 34.2107 64.597 31.5502 65.1154 29.2173C66.0799 24.8769 51.3539 25.4262 46.7573 25.0811C42.1607 24.736 32.2062 23.5291 39.6115 19.1206C47.0168 14.712 56.5033 16.7113 59.9268 11.8199C61.7835 9.16718 60.1084 5.28296 58.1672 3.96532C55.1216 1.89805 48.0942 -0.65209 38.2581 1.55142C24.7334 4.58126 19.8153 5.68302 14.2824 6.92249C9.36437 8.02425 3.10021 10.8024 0.729514 12.7083" stroke="#FF8A00" stroke-width="0.5"/>
</svg>
