<svg width="1601" height="498" viewBox="0 0 1601 498" fill="none" xmlns="http://www.w3.org/2000/svg">
<path d="M38.6812 107.041L584.741 104.363L640 166.488H695.259L737.457 211.475H831.899L917.802 301.449H1005.21" stroke="#CACACA" stroke-opacity="0.5" stroke-width="0.5"/>
<path d="M1042.39 239.86L1080.06 279.491V337.332L1122.26 381.783H1161.44V487.289" stroke="#CACACA" stroke-opacity="0.5" stroke-width="0.5"/>
<path d="M743.485 73.3007L768.1 101.15H814.819M913.281 179.342H998.179L1095.64 280.027V328.227L1129.29 361.432" stroke="#CACACA" stroke-opacity="0.5" stroke-width="0.5"/>
<path d="M1028.82 148.815L1076.55 200.764H1126.78V279.491L1155.92 307.876" stroke="#CACACA" stroke-opacity="0.5" stroke-width="0.5"/>
<path d="M942.92 95.2585H1064.49L1107.69 141.852" stroke="#CACACA" stroke-opacity="0.5" stroke-width="0.5"/>
<path d="M845.965 54.0205L904.741 119.359H1027.82L1073.03 168.63H1119.75" stroke="#CACACA" stroke-opacity="0.5" stroke-width="0.5"/>
<path d="M1171.99 99.0076V183.091L1196.11 206.12V313.767L1284.52 408.561" stroke="#CACACA" stroke-opacity="0.5" stroke-width="0.5"/>
<path d="M1038.37 5.82007L1052.94 23.4936H1222.23L1249.86 51.3427V130.606L1216.7 164.881V273.065L1300.09 361.432H1389.01" stroke="#CACACA" stroke-opacity="0.5" stroke-width="0.5"/>
<path d="M1223.74 316.981L1312.15 411.239H1461.85" stroke="#CACACA" stroke-opacity="0.5" stroke-width="0.5"/>
<path d="M1289.54 4.7489V71.6939L1268.95 90.9741V172.915L1332.75 235.04V324.478L1345.31 339.474" stroke="#CACACA" stroke-opacity="0.5" stroke-width="0.5"/>
<path d="M1320.69 4.7489V98.472L1299.09 123.108V152.564" stroke="#CACACA" stroke-opacity="0.5" stroke-width="0.5"/>
<path d="M1357.36 219.509L1374.44 204.513V117.752" stroke="#CACACA" stroke-opacity="0.5" stroke-width="0.5"/>
<path d="M1372.94 4.7489V77.0496L1413.63 121.501V280.027" stroke="#CACACA" stroke-opacity="0.5" stroke-width="0.5"/>
<path d="M1378.96 258.069V330.905L1426.69 378.034" stroke="#CACACA" stroke-opacity="0.5" stroke-width="0.5"/>
<path d="M1430.71 287.525V348.579" stroke="#CACACA" stroke-opacity="0.5" stroke-width="0.5"/>
<path d="M1246.34 186.839V254.32L1302.61 312.696V235.04" stroke="#CACACA" stroke-opacity="0.5" stroke-width="0.5"/>
<path d="M1445.78 135.426V256.462L1496.52 310.018V331.976L1458.34 370.537" stroke="#CACACA" stroke-opacity="0.5" stroke-width="0.5"/>
<path d="M1462.86 138.104V246.822L1508.07 291.274" stroke="#CACACA" stroke-opacity="0.5" stroke-width="0.5"/>
<path d="M1521.63 311.625V382.855L1467.88 441.231" stroke="#CACACA" stroke-opacity="0.5" stroke-width="0.5"/>
<path d="M1496.51 4.7489V39.0248" stroke="#CACACA" stroke-opacity="0.5" stroke-width="0.5"/>
<path d="M1539.21 5.82007V245.216L1568.85 275.742" stroke="#CACACA" stroke-opacity="0.5" stroke-width="0.5"/>
<path d="M1554.79 4.7489V233.969L1584.43 267.173V352.328" stroke="#CACACA" stroke-opacity="0.5" stroke-width="0.5"/>
<rect x="0.25" y="10.8901" width="38.6837" height="8.06897" stroke="#CACACA" stroke-opacity="0.5" stroke-width="0.5"/>
<rect x="0.25" y="43.0237" width="38.6837" height="8.06897" stroke="#CACACA" stroke-opacity="0.5" stroke-width="0.5"/>
<rect x="0.25" y="74.0862" width="38.6837" height="8.06897" stroke="#CACACA" stroke-opacity="0.5" stroke-width="0.5"/>
<rect x="0.25" y="103.006" width="38.6837" height="8.06897" stroke="#CACACA" stroke-opacity="0.5" stroke-width="0.5"/>
<path d="M697.018 74.9074C697.018 77.7424 694.866 80.013 692.245 80.013C689.623 80.013 687.471 77.7424 687.471 74.9074C687.471 72.0723 689.623 69.8018 692.245 69.8018C694.866 69.8018 697.018 72.0723 697.018 74.9074Z" stroke="#CACACA" stroke-opacity="0.5" stroke-width="0.5"/>
<path d="M745.244 69.5516C745.244 72.3867 743.092 74.6573 740.471 74.6573C737.849 74.6573 735.697 72.3867 735.697 69.5516C735.697 66.7166 737.849 64.446 740.471 64.446C743.092 64.446 745.244 66.7166 745.244 69.5516Z" stroke="#CACACA" stroke-opacity="0.5" stroke-width="0.5"/>
<path d="M824.616 100.614C824.616 103.449 822.464 105.72 819.843 105.72C817.221 105.72 815.069 103.449 815.069 100.614C815.069 97.7791 817.221 95.5085 819.843 95.5085C822.464 95.5085 824.616 97.7791 824.616 100.614Z" stroke="#CACACA" stroke-opacity="0.5" stroke-width="0.5"/>
<path d="M847.725 51.3427C847.725 54.1777 845.573 56.4483 842.951 56.4483C840.33 56.4483 838.178 54.1777 838.178 51.3427C838.178 48.5076 840.33 46.2371 842.951 46.2371C845.573 46.2371 847.725 48.5076 847.725 51.3427Z" stroke="#CACACA" stroke-opacity="0.5" stroke-width="0.5"/>
<path d="M1014.51 301.985C1014.51 304.82 1012.35 307.09 1009.73 307.09C1007.11 307.09 1004.96 304.82 1004.96 301.985C1004.96 299.15 1007.11 296.879 1009.73 296.879C1012.35 296.879 1014.51 299.15 1014.51 301.985Z" stroke="#CACACA" stroke-opacity="0.5" stroke-width="0.5"/>
<path d="M914.036 178.806C914.036 181.641 911.884 183.912 909.262 183.912C906.641 183.912 904.489 181.641 904.489 178.806C904.489 175.971 906.641 173.7 909.262 173.7C911.884 173.7 914.036 175.971 914.036 178.806Z" stroke="#CACACA" stroke-opacity="0.5" stroke-width="0.5"/>
<path d="M1010.49 205.584C1010.49 208.419 1008.34 210.69 1005.71 210.69C1003.09 210.69 1000.94 208.419 1000.94 205.584C1000.94 202.749 1003.09 200.479 1005.71 200.479C1008.34 200.479 1010.49 202.749 1010.49 205.584Z" stroke="#CACACA" stroke-opacity="0.5" stroke-width="0.5"/>
<path d="M1030.58 145.601C1030.58 148.436 1028.43 150.707 1025.81 150.707C1023.19 150.707 1021.04 148.436 1021.04 145.601C1021.04 142.766 1023.19 140.496 1025.81 140.496C1028.43 140.496 1030.58 142.766 1030.58 145.601Z" stroke="#CACACA" stroke-opacity="0.5" stroke-width="0.5"/>
<path d="M943.172 94.1875C943.172 97.0226 941.02 99.2931 938.399 99.2931C935.777 99.2931 933.625 97.0226 933.625 94.1875C933.625 91.3525 935.777 89.0819 938.399 89.0819C941.02 89.0819 943.172 91.3525 943.172 94.1875Z" stroke="#CACACA" stroke-opacity="0.5" stroke-width="0.5"/>
<path d="M1115.98 145.601C1115.98 148.436 1113.83 150.707 1111.21 150.707C1108.59 150.707 1106.44 148.436 1106.44 145.601C1106.44 142.766 1108.59 140.496 1111.21 140.496C1113.83 140.496 1115.98 142.766 1115.98 145.601Z" stroke="#CACACA" stroke-opacity="0.5" stroke-width="0.5"/>
<path d="M1163.2 311.625C1163.2 314.46 1161.05 316.731 1158.43 316.731C1155.81 316.731 1153.66 314.46 1153.66 311.625C1153.66 308.79 1155.81 306.519 1158.43 306.519C1161.05 306.519 1163.2 308.79 1163.2 311.625Z" stroke="#CACACA" stroke-opacity="0.5" stroke-width="0.5"/>
<path d="M1137.08 365.181C1137.08 368.016 1134.93 370.287 1132.31 370.287C1129.69 370.287 1127.53 368.016 1127.53 365.181C1127.53 362.346 1129.69 360.075 1132.31 360.075C1134.93 360.075 1137.08 362.346 1137.08 365.181Z" stroke="#CACACA" stroke-opacity="0.5" stroke-width="0.5"/>
<path d="M1292.81 412.31C1292.81 415.145 1290.66 417.416 1288.04 417.416C1285.42 417.416 1283.26 415.145 1283.26 412.31C1283.26 409.475 1285.42 407.205 1288.04 407.205C1290.66 407.205 1292.81 409.475 1292.81 412.31Z" stroke="#CACACA" stroke-opacity="0.5" stroke-width="0.5"/>
<path d="M1225.5 313.767C1225.5 316.602 1223.34 318.873 1220.72 318.873C1218.1 318.873 1215.95 316.602 1215.95 313.767C1215.95 310.932 1218.1 308.662 1220.72 308.662C1223.34 308.662 1225.5 310.932 1225.5 313.767Z" stroke="#CACACA" stroke-opacity="0.5" stroke-width="0.5"/>
<path d="M1216.45 137.032C1216.45 139.867 1214.3 142.138 1211.68 142.138C1209.06 142.138 1206.91 139.867 1206.91 137.032C1206.91 134.197 1209.06 131.927 1211.68 131.927C1214.3 131.927 1216.45 134.197 1216.45 137.032Z" stroke="#CACACA" stroke-opacity="0.5" stroke-width="0.5"/>
<path d="M1250.61 182.019C1250.61 184.854 1248.46 187.125 1245.84 187.125C1243.22 187.125 1241.07 184.854 1241.07 182.019C1241.07 179.184 1243.22 176.914 1245.84 176.914C1248.46 176.914 1250.61 179.184 1250.61 182.019Z" stroke="#CACACA" stroke-opacity="0.5" stroke-width="0.5"/>
<path d="M1303.86 157.384C1303.86 160.219 1301.71 162.489 1299.09 162.489C1296.47 162.489 1294.32 160.219 1294.32 157.384C1294.32 154.549 1296.47 152.278 1299.09 152.278C1301.71 152.278 1303.86 154.549 1303.86 157.384Z" stroke="#CACACA" stroke-opacity="0.5" stroke-width="0.5"/>
<path d="M1330.99 191.66C1330.99 194.495 1328.84 196.765 1326.22 196.765C1323.6 196.765 1321.44 194.495 1321.44 191.66C1321.44 188.824 1323.6 186.554 1326.22 186.554C1328.84 186.554 1330.99 188.824 1330.99 191.66Z" stroke="#CACACA" stroke-opacity="0.5" stroke-width="0.5"/>
<path d="M1434.48 381.248C1434.48 384.083 1432.32 386.353 1429.7 386.353C1427.08 386.353 1424.93 384.083 1424.93 381.248C1424.93 378.413 1427.08 376.142 1429.7 376.142C1432.32 376.142 1434.48 378.413 1434.48 381.248Z" stroke="#CACACA" stroke-opacity="0.5" stroke-width="0.5"/>
<path d="M1470.64 411.239C1470.64 414.074 1468.49 416.345 1465.87 416.345C1463.25 416.345 1461.1 414.074 1461.1 411.239C1461.1 408.404 1463.25 406.134 1465.87 406.134C1468.49 406.134 1470.64 408.404 1470.64 411.239Z" stroke="#CACACA" stroke-opacity="0.5" stroke-width="0.5"/>
<path d="M1469.64 444.444C1469.64 447.279 1467.49 449.55 1464.87 449.55C1462.24 449.55 1460.09 447.279 1460.09 444.444C1460.09 441.609 1462.24 439.338 1464.87 439.338C1467.49 439.338 1469.64 441.609 1469.64 444.444Z" stroke="#CACACA" stroke-opacity="0.5" stroke-width="0.5"/>
<path d="M1558.05 388.746C1558.05 391.581 1555.9 393.851 1553.28 393.851C1550.66 393.851 1548.51 391.581 1548.51 388.746C1548.51 385.911 1550.66 383.64 1553.28 383.64C1555.9 383.64 1558.05 385.911 1558.05 388.746Z" stroke="#CACACA" stroke-opacity="0.5" stroke-width="0.5"/>
<path d="M1589.2 356.612C1589.2 359.447 1587.05 361.718 1584.43 361.718C1581.81 361.718 1579.65 359.447 1579.65 356.612C1579.65 353.777 1581.81 351.506 1584.43 351.506C1587.05 351.506 1589.2 353.777 1589.2 356.612Z" stroke="#CACACA" stroke-opacity="0.5" stroke-width="0.5"/>
<path d="M1577.14 279.491C1577.14 282.326 1574.99 284.597 1572.37 284.597C1569.75 284.597 1567.6 282.326 1567.6 279.491C1567.6 276.656 1569.75 274.386 1572.37 274.386C1574.99 274.386 1577.14 276.656 1577.14 279.491Z" stroke="#CACACA" stroke-opacity="0.5" stroke-width="0.5"/>
<path d="M1515.86 294.487C1515.86 297.322 1513.7 299.593 1511.08 299.593C1508.46 299.593 1506.31 297.322 1506.31 294.487C1506.31 291.652 1508.46 289.381 1511.08 289.381C1513.7 289.381 1515.86 291.652 1515.86 294.487Z" stroke="#CACACA" stroke-opacity="0.5" stroke-width="0.5"/>
<path d="M1398.31 361.968C1398.31 364.803 1396.15 367.073 1393.53 367.073C1390.91 367.073 1388.76 364.803 1388.76 361.968C1388.76 359.133 1390.91 356.862 1393.53 356.862C1396.15 356.862 1398.31 359.133 1398.31 361.968Z" stroke="#CACACA" stroke-opacity="0.5" stroke-width="0.5"/>
<path d="M1435.48 282.705C1435.48 285.54 1433.33 287.81 1430.71 287.81C1428.08 287.81 1425.93 285.54 1425.93 282.705C1425.93 279.87 1428.08 277.599 1430.71 277.599C1433.33 277.599 1435.48 279.87 1435.48 282.705Z" stroke="#CACACA" stroke-opacity="0.5" stroke-width="0.5"/>
<path d="M1467.63 132.748C1467.63 135.583 1465.48 137.853 1462.86 137.853C1460.24 137.853 1458.08 135.583 1458.08 132.748C1458.08 129.913 1460.24 127.642 1462.86 127.642C1465.48 127.642 1467.63 129.913 1467.63 132.748Z" stroke="#CACACA" stroke-opacity="0.5" stroke-width="0.5"/>
<path d="M1501.79 43.8449C1501.79 46.6799 1499.64 48.9505 1497.02 48.9505C1494.4 48.9505 1492.24 46.6799 1492.24 43.8449C1492.24 41.0098 1494.4 38.7393 1497.02 38.7393C1499.64 38.7393 1501.79 41.0098 1501.79 43.8449Z" stroke="#CACACA" stroke-opacity="0.5" stroke-width="0.5"/>
<path d="M1456.58 68.4806C1456.58 71.3157 1454.43 73.5862 1451.81 73.5862C1449.18 73.5862 1447.03 71.3157 1447.03 68.4806C1447.03 65.6455 1449.18 63.375 1451.81 63.375C1454.43 63.375 1456.58 65.6455 1456.58 68.4806Z" stroke="#CACACA" stroke-opacity="0.5" stroke-width="0.5"/>
<path d="M1493.75 65.2672C1493.75 68.1023 1491.6 70.3728 1488.98 70.3728C1486.36 70.3728 1484.21 68.1023 1484.21 65.2672C1484.21 62.4322 1486.36 60.1616 1488.98 60.1616C1491.6 60.1616 1493.75 62.4322 1493.75 65.2672Z" stroke="#CACACA" stroke-opacity="0.5" stroke-width="0.5"/>
<path d="M1525.9 198.086C1525.9 200.921 1523.75 203.192 1521.13 203.192C1518.51 203.192 1516.36 200.921 1516.36 198.086C1516.36 195.251 1518.51 192.981 1521.13 192.981C1523.75 192.981 1525.9 195.251 1525.9 198.086Z" stroke="#CACACA" stroke-opacity="0.5" stroke-width="0.5"/>
<path d="M1599.25 135.961C1599.25 138.796 1597.1 141.067 1594.47 141.067C1591.85 141.067 1589.7 138.796 1589.7 135.961C1589.7 133.126 1591.85 130.856 1594.47 130.856C1597.1 130.856 1599.25 133.126 1599.25 135.961Z" stroke="#CACACA" stroke-opacity="0.5" stroke-width="0.5"/>
<path d="M1359.12 224.864C1359.12 228.882 1356.07 232.112 1352.34 232.112C1348.61 232.112 1345.56 228.882 1345.56 224.864C1345.56 220.846 1348.61 217.616 1352.34 217.616C1356.07 217.616 1359.12 220.846 1359.12 224.864Z" stroke="#CACACA" stroke-opacity="0.5" stroke-width="0.5"/>
<path d="M1386.25 250.036C1386.25 254.35 1382.97 257.819 1378.96 257.819C1374.96 257.819 1371.68 254.35 1371.68 250.036C1371.68 245.722 1374.96 242.252 1378.96 242.252C1382.97 242.252 1386.25 245.722 1386.25 250.036Z" stroke="#CACACA" stroke-opacity="0.5" stroke-width="0.5"/>
<path d="M1420.41 287.525C1420.41 291.839 1417.13 295.308 1413.12 295.308C1409.12 295.308 1405.84 291.839 1405.84 287.525C1405.84 283.211 1409.12 279.741 1413.12 279.741C1417.13 279.741 1420.41 283.211 1420.41 287.525Z" stroke="#CACACA" stroke-opacity="0.5" stroke-width="0.5"/>
<path d="M1437.49 356.076C1437.49 360.39 1434.21 363.86 1430.2 363.86C1426.2 363.86 1422.92 360.39 1422.92 356.076C1422.92 351.763 1426.2 348.293 1430.2 348.293C1434.21 348.293 1437.49 351.763 1437.49 356.076Z" stroke="#CACACA" stroke-opacity="0.5" stroke-width="0.5"/>
<path d="M1452.56 127.928C1452.56 132.242 1449.28 135.711 1445.27 135.711C1441.27 135.711 1437.99 132.242 1437.99 127.928C1437.99 123.614 1441.27 120.144 1445.27 120.144C1449.28 120.144 1452.56 123.614 1452.56 127.928Z" stroke="#CACACA" stroke-opacity="0.5" stroke-width="0.5"/>
<path d="M1460.6 376.428C1460.6 380.742 1457.32 384.211 1453.31 384.211C1449.3 384.211 1446.03 380.742 1446.03 376.428C1446.03 372.114 1449.3 368.644 1453.31 368.644C1457.32 368.644 1460.6 372.114 1460.6 376.428Z" stroke="#CACACA" stroke-opacity="0.5" stroke-width="0.5"/>
<path d="M1541.98 451.406C1541.98 455.72 1538.7 459.19 1534.69 459.19C1530.69 459.19 1527.41 455.72 1527.41 451.406C1527.41 447.092 1530.69 443.623 1534.69 443.623C1538.7 443.623 1541.98 447.092 1541.98 451.406Z" stroke="#CACACA" stroke-opacity="0.5" stroke-width="0.5"/>
<path d="M1528.92 303.592C1528.92 307.906 1525.64 311.375 1521.63 311.375C1517.62 311.375 1514.35 307.906 1514.35 303.592C1514.35 299.278 1517.62 295.808 1521.63 295.808C1525.64 295.808 1528.92 299.278 1528.92 303.592Z" stroke="#CACACA" stroke-opacity="0.5" stroke-width="0.5"/>
<path d="M1381.23 110.79C1381.23 115.104 1377.95 118.573 1373.94 118.573C1369.93 118.573 1366.66 115.104 1366.66 110.79C1366.66 106.476 1369.93 103.006 1373.94 103.006C1377.95 103.006 1381.23 106.476 1381.23 110.79Z" stroke="#CACACA" stroke-opacity="0.5" stroke-width="0.5"/>
<path d="M1354.1 342.688C1354.1 345.523 1351.95 347.793 1349.32 347.793C1346.7 347.793 1344.55 345.523 1344.55 342.688C1344.55 339.852 1346.7 337.582 1349.32 337.582C1351.95 337.582 1354.1 339.852 1354.1 342.688Z" stroke="#CACACA" stroke-opacity="0.5" stroke-width="0.5"/>
<path d="M1166.22 492.644C1166.22 495.479 1164.07 497.75 1161.44 497.75C1158.82 497.75 1156.67 495.479 1156.67 492.644C1156.67 489.809 1158.82 487.539 1161.44 487.539C1164.07 487.539 1166.22 489.809 1166.22 492.644Z" stroke="#CACACA" stroke-opacity="0.5" stroke-width="0.5"/>
<path d="M1142.1 434.268C1142.1 438.582 1138.83 442.052 1134.82 442.052C1130.81 442.052 1127.53 438.582 1127.53 434.268C1127.53 429.954 1130.81 426.485 1134.82 426.485C1138.83 426.485 1142.1 429.954 1142.1 434.268Z" stroke="#CACACA" stroke-opacity="0.5" stroke-width="0.5"/>
<path d="M1205.4 393.566C1205.4 397.88 1202.13 401.349 1198.12 401.349C1194.11 401.349 1190.83 397.88 1190.83 393.566C1190.83 389.252 1194.11 385.782 1198.12 385.782C1202.13 385.782 1205.4 389.252 1205.4 393.566Z" stroke="#CACACA" stroke-opacity="0.5" stroke-width="0.5"/>
<path d="M1235.54 457.833C1235.54 462.147 1232.27 465.616 1228.26 465.616C1224.25 465.616 1220.97 462.147 1220.97 457.833C1220.97 453.519 1224.25 450.05 1228.26 450.05C1232.27 450.05 1235.54 453.519 1235.54 457.833Z" stroke="#CACACA" stroke-opacity="0.5" stroke-width="0.5"/>
<path d="M1308.89 227.542C1308.89 231.856 1305.61 235.325 1301.6 235.325C1297.59 235.325 1294.32 231.856 1294.32 227.542C1294.32 223.228 1297.59 219.759 1301.6 219.759C1305.61 219.759 1308.89 223.228 1308.89 227.542Z" stroke="#CACACA" stroke-opacity="0.5" stroke-width="0.5"/>
<path d="M1133.06 170.237C1133.06 174.255 1130.01 177.485 1126.28 177.485C1122.55 177.485 1119.5 174.255 1119.5 170.237C1119.5 166.219 1122.55 162.989 1126.28 162.989C1130.01 162.989 1133.06 166.219 1133.06 170.237Z" stroke="#CACACA" stroke-opacity="0.5" stroke-width="0.5"/>
<path d="M1570.36 3.14221V200.764L1600 237.718V382.854L1539.21 445.515" stroke="#CACACA" stroke-opacity="0.5" stroke-width="0.5"/>
<path d="M1593.97 1V131.677" stroke="#CACACA" stroke-opacity="0.5" stroke-width="0.5"/>
<path d="M1516.61 3.14221V41.7026L1492.5 62.0538" stroke="#CACACA" stroke-opacity="0.5" stroke-width="0.5"/>
<path d="M1441.26 1L1451.81 13.3179V64.1961" stroke="#CACACA" stroke-opacity="0.5" stroke-width="0.5"/>
<path d="M1474.91 3.14221V83.4763L1521.13 132.212V193.266" stroke="#CACACA" stroke-opacity="0.5" stroke-width="0.5"/>
<path d="M1399.56 2.07104V40.0958L1493 143.459V230.22L1553.28 295.023V383.926" stroke="#CACACA" stroke-opacity="0.5" stroke-width="0.5"/>
<path d="M1347.82 3.14221V154.706L1326.22 176.664V186.839" stroke="#CACACA" stroke-opacity="0.5" stroke-width="0.5"/>
<path d="M937.896 1L984.615 55.0916H1192.59L1211.68 75.9784V132.212" stroke="#CACACA" stroke-opacity="0.5" stroke-width="0.5"/>
<path d="M38.6812 78.1206H633.972L709.827 152.563H834.914L925.337 245.751H1000.69L1063.48 313.767V365.181L1128.79 428.913" stroke="#CACACA" stroke-opacity="0.5" stroke-width="0.5"/>
<path d="M38.6812 47.0582H799.749L904.741 154.17H993.658L1057.46 216.295H1115.73V309.483L1192.59 388.21M38.6812 15.9957L834.913 13.3179L894.694 78.1207H1108.19L1143.36 118.288V205.584L1178.02 240.931V329.298L1227.75 388.21V450.335M695.259 78.1207L741.978 130.606H841.444L911.774 205.584H1001.19" stroke="#CACACA" stroke-opacity="0.5" stroke-width="0.5"/>
</svg>
