<svg width="76" height="75" viewBox="0 0 76 75" fill="none" xmlns="http://www.w3.org/2000/svg">
<g filter="url(#filter0_f_159_3179)">
<ellipse cx="37.6904" cy="37.3875" rx="26.1878" ry="24.4649" transform="rotate(-37.8586 37.6904 37.3875)" fill="#A6FEEE" fill-opacity="0.5"/>
</g>
<path d="M58.3221 18.2417C58.8592 26.838 59.7523 28.6072 60.2894 37.2036C60.6557 43.0648 62.2356 54.3139 58.4217 57.4098C54.6077 60.5056 44.6064 58.273 34.2558 58.9197C29.5786 59.212 16.4513 62.0412 14.4546 55.1346C12.8481 49.5773 12.4995 45.0693 12.1332 39.2081C11.4454 28.202 13.6614 21.0321 16.1643 19.8713C23.2688 16.5763 36.1911 17.6891 48.063 16.8737C50.8018 16.6856 55.921 17.3872 58.3221 18.2417ZM58.3221 18.2417C59.9437 19.1448 60.2319 21.654 61.0359 24.0989C62.3596 28.1246 63.0431 32.7005 63.4076 37.0088M12.7583 49.2138C12.9584 52.4156 14.2267 59.8364 14.8297 61.1381C15.4328 62.4397 16.9666 63.605 18.9151 63.8962C23.6548 64.6046 25.4865 64.49 30.6707 64.1661C39.2457 63.6303 37.7394 63.835 46.2616 63.1919C49.6075 62.9394 54.8979 63.638 57.9547 62.4613C59.8107 61.7469 62.5202 60.4576 63.1615 58.1182C64.163 54.4645 64.0953 48.0151 64.0953 48.0151C64.0953 48.0151 63.6518 40.9163 63.4076 37.0088M63.4076 37.0088C63.2855 35.0551 63.5726 38.9591 63.4076 37.0088Z" stroke="black" stroke-width="0.5"/>
<path d="M31.55 31.21C32.31 31.03 33.13 30.91 34.01 30.85C34.89 30.79 35.76 30.76 36.62 30.76C37.54 30.76 38.47 30.85 39.41 31.03C40.37 31.21 41.24 31.54 42.02 32.02C42.8 32.5 43.43 33.16 43.91 34C44.41 34.84 44.66 35.91 44.66 37.21C44.66 38.49 44.43 39.57 43.97 40.45C43.51 41.33 42.9 42.05 42.14 42.61C41.38 43.15 40.51 43.54 39.53 43.78C38.55 44.02 37.54 44.14 36.5 44.14C36.4 44.14 36.23 44.14 35.99 44.14C35.77 44.14 35.53 44.14 35.27 44.14C35.03 44.12 34.79 44.1 34.55 44.08C34.31 44.06 34.14 44.04 34.04 44.02V52H31.55V31.21ZM36.68 32.92C36.16 32.92 35.66 32.93 35.18 32.95C34.7 32.97 34.32 33.02 34.04 33.1V41.8C34.14 41.84 34.3 41.87 34.52 41.89C34.74 41.89 34.97 41.9 35.21 41.92C35.45 41.92 35.68 41.92 35.9 41.92C36.12 41.92 36.28 41.92 36.38 41.92C37.06 41.92 37.73 41.86 38.39 41.74C39.07 41.6 39.68 41.36 40.22 41.02C40.76 40.68 41.19 40.2 41.51 39.58C41.85 38.96 42.02 38.17 42.02 37.21C42.02 36.39 41.86 35.71 41.54 35.17C41.24 34.61 40.83 34.17 40.31 33.85C39.81 33.51 39.24 33.27 38.6 33.13C37.96 32.99 37.32 32.92 36.68 32.92Z" fill="black"/>
<defs>
<filter id="filter0_f_159_3179" x="0.13623" y="0.259186" width="75.1084" height="74.2566" filterUnits="userSpaceOnUse" color-interpolation-filters="sRGB">
<feFlood flood-opacity="0" result="BackgroundImageFix"/>
<feBlend mode="normal" in="SourceGraphic" in2="BackgroundImageFix" result="shape"/>
<feGaussianBlur stdDeviation="6" result="effect1_foregroundBlur_159_3179"/>
</filter>
</defs>
</svg>
