<svg width="770" height="175" viewBox="0 0 770 175" fill="none" xmlns="http://www.w3.org/2000/svg">
<rect width="29" height="139" transform="translate(18.5 35)" fill="url(#paint0_linear_426_535)" fill-opacity="0.5"/>
<rect width="29" height="83" transform="translate(57.5 91)" fill="url(#paint1_linear_426_535)" fill-opacity="0.5"/>
<rect width="29" height="41" transform="translate(96.5 133)" fill="url(#paint2_linear_426_535)" fill-opacity="0.5"/>
<rect width="29" height="113" transform="translate(135.5 61)" fill="url(#paint3_linear_426_535)" fill-opacity="0.5"/>
<rect width="29" height="93" transform="translate(174.5 81)" fill="url(#paint4_linear_426_535)" fill-opacity="0.5"/>
<rect width="29" height="74" transform="translate(213.5 100)" fill="url(#paint5_linear_426_535)" fill-opacity="0.5"/>
<rect width="29" height="83" transform="translate(252.5 91)" fill="url(#paint6_linear_426_535)" fill-opacity="0.5"/>
<rect width="29" height="41" transform="translate(291.5 133)" fill="url(#paint7_linear_426_535)" fill-opacity="0.5"/>
<g opacity="0.6">
<rect width="29" height="150" transform="translate(330.5 24)" fill="#13578E"/>
</g>
<rect width="29" height="93" transform="translate(369.5 81)" fill="url(#paint8_linear_426_535)" fill-opacity="0.5"/>
<rect width="29" height="61" transform="translate(408.5 113)" fill="url(#paint9_linear_426_535)" fill-opacity="0.5"/>
<rect width="29" height="126" transform="translate(447.5 48)" fill="url(#paint10_linear_426_535)" fill-opacity="0.5"/>
<rect width="29" height="93" transform="translate(486.5 81)" fill="url(#paint11_linear_426_535)" fill-opacity="0.5"/>
<rect width="29" height="21" transform="translate(525.5 153)" fill="url(#paint12_linear_426_535)" fill-opacity="0.5"/>
<rect width="29" height="113" transform="translate(564.5 61)" fill="url(#paint13_linear_426_535)" fill-opacity="0.5"/>
<rect width="29" height="139" transform="translate(603.5 35)" fill="url(#paint14_linear_426_535)" fill-opacity="0.5"/>
<rect width="29" height="21" transform="translate(642.5 153)" fill="url(#paint15_linear_426_535)" fill-opacity="0.5"/>
<rect width="29" height="139" transform="translate(681.5 35)" fill="url(#paint16_linear_426_535)" fill-opacity="0.5"/>
<rect width="29" height="174" transform="translate(720.5)" fill="url(#paint17_linear_426_535)" fill-opacity="0.5"/>
<path d="M316.624 15.5V14.684L321.28 10.124C321.707 9.708 322.027 9.34533 322.24 9.036C322.453 8.716 322.597 8.41733 322.672 8.14C322.747 7.86267 322.784 7.60133 322.784 7.356C322.784 6.70533 322.56 6.19333 322.112 5.82C321.675 5.44667 321.024 5.26 320.16 5.26C319.499 5.26 318.912 5.36133 318.4 5.564C317.899 5.76667 317.467 6.08133 317.104 6.508L316.288 5.804C316.725 5.292 317.285 4.89733 317.968 4.62C318.651 4.34267 319.413 4.204 320.256 4.204C321.013 4.204 321.669 4.32667 322.224 4.572C322.779 4.80667 323.205 5.15333 323.504 5.612C323.813 6.07067 323.968 6.60933 323.968 7.228C323.968 7.59067 323.915 7.948 323.808 8.3C323.712 8.652 323.531 9.02533 323.264 9.42C323.008 9.804 322.629 10.2413 322.128 10.732L317.856 14.924L317.536 14.476H324.48V15.5H316.624ZM330.182 15.596C329.286 15.596 328.512 15.468 327.862 15.212C327.222 14.956 326.726 14.588 326.374 14.108C326.032 13.6173 325.862 13.0413 325.862 12.38C325.862 11.74 326.027 11.196 326.358 10.748C326.699 10.2893 327.19 9.93733 327.83 9.692C328.48 9.44667 329.264 9.324 330.182 9.324C331.088 9.324 331.867 9.44667 332.518 9.692C333.168 9.93733 333.664 10.2893 334.006 10.748C334.358 11.196 334.534 11.74 334.534 12.38C334.534 13.0413 334.358 13.6173 334.006 14.108C333.654 14.588 333.152 14.956 332.502 15.212C331.851 15.468 331.078 15.596 330.182 15.596ZM330.182 14.62C331.174 14.62 331.947 14.4173 332.502 14.012C333.067 13.6067 333.35 13.0573 333.35 12.364C333.35 11.6707 333.067 11.1267 332.502 10.732C331.947 10.3267 331.174 10.124 330.182 10.124C329.19 10.124 328.416 10.3267 327.862 10.732C327.307 11.1267 327.03 11.6707 327.03 12.364C327.03 13.0573 327.307 13.6067 327.862 14.012C328.416 14.4173 329.19 14.62 330.182 14.62ZM330.182 9.98C329.35 9.98 328.64 9.868 328.054 9.644C327.478 9.42 327.035 9.1 326.726 8.684C326.416 8.25733 326.262 7.75067 326.262 7.164C326.262 6.54533 326.422 6.01733 326.742 5.58C327.072 5.132 327.531 4.79067 328.118 4.556C328.704 4.32133 329.392 4.204 330.182 4.204C330.971 4.204 331.659 4.32133 332.246 4.556C332.843 4.79067 333.307 5.132 333.638 5.58C333.968 6.01733 334.134 6.54533 334.134 7.164C334.134 7.75067 333.979 8.25733 333.67 8.684C333.36 9.1 332.907 9.42 332.31 9.644C331.723 9.868 331.014 9.98 330.182 9.98ZM330.182 9.212C331.056 9.212 331.739 9.03067 332.23 8.668C332.72 8.30533 332.966 7.82 332.966 7.212C332.966 6.572 332.71 6.076 332.198 5.724C331.696 5.36133 331.024 5.18 330.182 5.18C329.339 5.18 328.667 5.36133 328.166 5.724C327.664 6.076 327.414 6.56667 327.414 7.196C327.414 7.81467 327.654 8.30533 328.134 8.668C328.624 9.03067 329.307 9.212 330.182 9.212ZM343.66 15.596C342.85 15.596 342.082 15.468 341.356 15.212C340.642 14.9453 340.066 14.5933 339.628 14.156L340.188 13.244C340.551 13.6173 341.036 13.9267 341.644 14.172C342.263 14.4173 342.935 14.54 343.66 14.54C344.588 14.54 345.298 14.3373 345.788 13.932C346.29 13.5267 346.54 12.9827 346.54 12.3C346.54 11.6173 346.295 11.0733 345.804 10.668C345.324 10.2627 344.562 10.06 343.516 10.06H342.716V9.212L346.172 4.876L346.332 5.324H340.092V4.3H347.292V5.116L343.836 9.452L343.276 9.084H343.708C345.052 9.084 346.055 9.38267 346.716 9.98C347.388 10.5773 347.724 11.3453 347.724 12.284C347.724 12.9133 347.575 13.4787 347.276 13.98C346.978 14.4813 346.524 14.876 345.916 15.164C345.319 15.452 344.567 15.596 343.66 15.596ZM353.94 15.596C352.948 15.596 352.11 15.3773 351.428 14.94C350.745 14.492 350.228 13.852 349.876 13.02C349.524 12.1773 349.348 11.1693 349.348 9.996C349.348 8.72667 349.561 7.66533 349.988 6.812C350.425 5.948 351.028 5.29733 351.796 4.86C352.564 4.42267 353.454 4.204 354.468 4.204C354.969 4.204 355.449 4.252 355.908 4.348C356.366 4.444 356.772 4.59867 357.124 4.812L356.66 5.74C356.372 5.548 356.041 5.41467 355.668 5.34C355.294 5.25467 354.9 5.212 354.484 5.212C353.278 5.212 352.313 5.596 351.588 6.364C350.873 7.132 350.516 8.27867 350.516 9.804C350.516 10.0387 350.526 10.332 350.548 10.684C350.58 11.0253 350.644 11.3667 350.74 11.708L350.34 11.404C350.457 10.8493 350.686 10.38 351.028 9.996C351.369 9.60133 351.796 9.30267 352.308 9.1C352.82 8.89733 353.38 8.796 353.988 8.796C354.734 8.796 355.39 8.93467 355.956 9.212C356.521 9.48933 356.964 9.87867 357.284 10.38C357.604 10.8813 357.764 11.4733 357.764 12.156C357.764 12.8493 357.598 13.4573 357.268 13.98C356.937 14.492 356.478 14.892 355.892 15.18C355.316 15.4573 354.665 15.596 353.94 15.596ZM353.892 14.62C354.425 14.62 354.894 14.524 355.3 14.332C355.716 14.1293 356.041 13.8467 356.276 13.484C356.51 13.1107 356.628 12.6787 356.628 12.188C356.628 11.452 356.372 10.8653 355.86 10.428C355.358 9.99067 354.676 9.772 353.812 9.772C353.236 9.772 352.734 9.87867 352.308 10.092C351.881 10.3053 351.545 10.5987 351.3 10.972C351.054 11.3347 350.932 11.7507 350.932 12.22C350.932 12.6253 351.044 13.0147 351.268 13.388C351.492 13.7507 351.822 14.0493 352.26 14.284C352.708 14.508 353.252 14.62 353.892 14.62ZM363.562 15.596C362.698 15.596 361.93 15.372 361.258 14.924C360.586 14.4653 360.058 13.8147 359.674 12.972C359.29 12.1187 359.098 11.0947 359.098 9.9C359.098 8.70533 359.29 7.68667 359.674 6.844C360.058 5.99067 360.586 5.34 361.258 4.892C361.93 4.43333 362.698 4.204 363.562 4.204C364.426 4.204 365.194 4.43333 365.866 4.892C366.538 5.34 367.066 5.99067 367.45 6.844C367.844 7.68667 368.042 8.70533 368.042 9.9C368.042 11.0947 367.844 12.1187 367.45 12.972C367.066 13.8147 366.538 14.4653 365.866 14.924C365.194 15.372 364.426 15.596 363.562 15.596ZM363.562 14.54C364.223 14.54 364.799 14.364 365.29 14.012C365.78 13.6493 366.164 13.1267 366.442 12.444C366.719 11.7507 366.858 10.9027 366.858 9.9C366.858 8.89733 366.719 8.05467 366.442 7.372C366.164 6.67867 365.78 6.156 365.29 5.804C364.799 5.44133 364.223 5.26 363.562 5.26C362.922 5.26 362.351 5.44133 361.85 5.804C361.348 6.156 360.959 6.67867 360.682 7.372C360.404 8.05467 360.266 8.89733 360.266 9.9C360.266 10.9027 360.404 11.7507 360.682 12.444C360.959 13.1267 361.348 13.6493 361.85 14.012C362.351 14.364 362.922 14.54 363.562 14.54Z" fill="black"/>
<defs>
<linearGradient id="paint0_linear_426_535" x1="14.5" y1="0" x2="14.5" y2="139" gradientUnits="userSpaceOnUse">
<stop stop-color="#1C2E5B"/>
<stop offset="1" stop-color="#02C3F5"/>
</linearGradient>
<linearGradient id="paint1_linear_426_535" x1="14.5" y1="0" x2="14.5" y2="83" gradientUnits="userSpaceOnUse">
<stop stop-color="#1C2E5B"/>
<stop offset="1" stop-color="#02C3F5"/>
</linearGradient>
<linearGradient id="paint2_linear_426_535" x1="14.5" y1="0" x2="14.5" y2="41" gradientUnits="userSpaceOnUse">
<stop stop-color="#1C2E5B"/>
<stop offset="1" stop-color="#02C3F5"/>
</linearGradient>
<linearGradient id="paint3_linear_426_535" x1="14.5" y1="0" x2="14.5" y2="113" gradientUnits="userSpaceOnUse">
<stop stop-color="#1C2E5B"/>
<stop offset="1" stop-color="#02C3F5"/>
</linearGradient>
<linearGradient id="paint4_linear_426_535" x1="14.5" y1="0" x2="14.5" y2="93" gradientUnits="userSpaceOnUse">
<stop stop-color="#1C2E5B"/>
<stop offset="1" stop-color="#02C3F5"/>
</linearGradient>
<linearGradient id="paint5_linear_426_535" x1="14.5" y1="0" x2="14.5" y2="74" gradientUnits="userSpaceOnUse">
<stop stop-color="#1C2E5B"/>
<stop offset="1" stop-color="#02C3F5"/>
</linearGradient>
<linearGradient id="paint6_linear_426_535" x1="14.5" y1="0" x2="14.5" y2="83" gradientUnits="userSpaceOnUse">
<stop stop-color="#1C2E5B"/>
<stop offset="1" stop-color="#02C3F5"/>
</linearGradient>
<linearGradient id="paint7_linear_426_535" x1="14.5" y1="0" x2="14.5" y2="41" gradientUnits="userSpaceOnUse">
<stop stop-color="#1C2E5B"/>
<stop offset="1" stop-color="#02C3F5"/>
</linearGradient>
<linearGradient id="paint8_linear_426_535" x1="14.5" y1="0" x2="14.5" y2="93" gradientUnits="userSpaceOnUse">
<stop stop-color="#1C2E5B"/>
<stop offset="1" stop-color="#02C3F5"/>
</linearGradient>
<linearGradient id="paint9_linear_426_535" x1="14.5" y1="0" x2="14.5" y2="61" gradientUnits="userSpaceOnUse">
<stop stop-color="#1C2E5B"/>
<stop offset="1" stop-color="#02C3F5"/>
</linearGradient>
<linearGradient id="paint10_linear_426_535" x1="14.5" y1="0" x2="14.5" y2="126" gradientUnits="userSpaceOnUse">
<stop stop-color="#1C2E5B"/>
<stop offset="1" stop-color="#02C3F5"/>
</linearGradient>
<linearGradient id="paint11_linear_426_535" x1="14.5" y1="0" x2="14.5" y2="93" gradientUnits="userSpaceOnUse">
<stop stop-color="#1C2E5B"/>
<stop offset="1" stop-color="#02C3F5"/>
</linearGradient>
<linearGradient id="paint12_linear_426_535" x1="14.5" y1="0" x2="14.5" y2="21" gradientUnits="userSpaceOnUse">
<stop stop-color="#1C2E5B"/>
<stop offset="1" stop-color="#02C3F5"/>
</linearGradient>
<linearGradient id="paint13_linear_426_535" x1="14.5" y1="0" x2="14.5" y2="113" gradientUnits="userSpaceOnUse">
<stop stop-color="#1C2E5B"/>
<stop offset="1" stop-color="#02C3F5"/>
</linearGradient>
<linearGradient id="paint14_linear_426_535" x1="14.5" y1="0" x2="14.5" y2="139" gradientUnits="userSpaceOnUse">
<stop stop-color="#1C2E5B"/>
<stop offset="1" stop-color="#02C3F5"/>
</linearGradient>
<linearGradient id="paint15_linear_426_535" x1="14.5" y1="0" x2="14.5" y2="21" gradientUnits="userSpaceOnUse">
<stop stop-color="#1C2E5B"/>
<stop offset="1" stop-color="#02C3F5"/>
</linearGradient>
<linearGradient id="paint16_linear_426_535" x1="14.5" y1="0" x2="14.5" y2="139" gradientUnits="userSpaceOnUse">
<stop stop-color="#1C2E5B"/>
<stop offset="1" stop-color="#02C3F5"/>
</linearGradient>
<linearGradient id="paint17_linear_426_535" x1="14.5" y1="0" x2="14.5" y2="174" gradientUnits="userSpaceOnUse">
<stop stop-color="#1C2E5B"/>
<stop offset="1" stop-color="#02C3F5"/>
</linearGradient>
</defs>
</svg>
