<svg width="25" height="37" viewBox="0 0 25 37" fill="none" xmlns="http://www.w3.org/2000/svg">
<path d="M10.4528 29.6519C11.8053 28.0356 11.054 26.9778 9.85185 23.9216C8.34913 20.1014 7.59752 20.689 6.24526 18.485C5.24028 16.847 4.59225 13.4894 6.69605 10.9915C8.18213 9.22712 8.95022 8.78747 10.6031 8.34673C13.0847 7.68502 13.9091 8.05283 16.1632 8.78744C17.0648 9.08128 18.5675 10.1098 19.4691 12.3138C20.0702 13.7832 19.672 15.8769 19.4691 16.8687C19.1686 18.3382 19.0183 18.1912 17.9664 20.1012C17.2539 21.3949 14.961 22.4522 14.961 24.6562C15.5621 27.4479 14.6604 27.5948 15.8626 29.6519M12.8572 28.9172C13.1577 28.1825 13.6086 25.9786 13.6086 24.2154C13.6086 22.4522 9.82114 17.8973 13.1577 17.8973C16.9145 17.8973 10.3024 16.1341 12.5566 16.1341C13.9421 16.1341 17.2151 15.198 14.961 14.7572C11.8282 14.1446 11.2043 15.3995 11.2043 14.0771C11.2043 12.7547 12.7069 13.0485 14.6604 13.0485" stroke="black" stroke-width="0.5"/>
<path d="M10.4536 29.6519C11.0046 29.6519 12.0164 28.9172 12.8579 28.9172C13.9099 28.9172 14.9618 29.6519 15.8634 29.6519C16.4645 29.7988 17.5164 30.0927 16.164 30.6804C15.8634 30.811 14.0602 30.3865 13.0083 30.2396C12.7108 30.1981 9.25148 29.505 9.10121 30.9743C9.70229 32.7375 10.0028 31.4151 11.5056 31.4151C13.0083 31.4151 13.6093 31.7089 14.5109 31.7089C15.4126 31.7089 16.7964 30.9898 17.0653 31.1212C17.6663 31.4151 17.6663 31.4151 17.3658 31.7089C17.0653 32.0028 16.0137 32.8844 14.2104 32.5905C12.4072 32.2967 11.5052 32.1497 10.9041 32.2967C10.303 32.4436 9.70194 33.1783 10.7538 33.3252C11.9532 33.4927 12.2566 32.8844 13.609 33.1783C14.9614 33.4721 16.4642 32.2967 17.3658 32.8844C17.6159 33.0474 16.6144 34.0599 14.9615 34.0599C11.6555 34.0599 13.1582 34.6476 11.956 35.3823C11.4463 35.6937 8.39958 36.1169 8.19922 35.97" stroke="black" stroke-width="0.5"/>
<path d="M10.7539 1.07451C10.804 0.927575 10.9643 0.898188 11.2047 1.9561C11.5053 3.2785 11.8058 3.2785 11.5053 4.30703C11.2648 5.12985 11.4051 6.41306 11.5053 6.95181" stroke="black" stroke-width="0.5"/>
<path d="M16.7355 3.10909C16.8385 3.03068 16.9898 3.0874 16.7714 3.94159C16.4984 5.00932 16.7599 5.15413 16.0827 5.72716C15.5409 6.18558 15.1442 7.14874 15.0136 7.57302" stroke="black" stroke-width="0.5"/>
<path d="M8.31029 8.33247C8.35336 8.45294 8.25001 8.57504 7.49206 8.09964C6.54463 7.50539 6.3207 7.70139 5.9819 6.89074C5.71086 6.24222 4.90429 5.56685 4.53488 5.31023" stroke="black" stroke-width="0.5"/>
<path d="M18.9717 8.76763C18.837 8.76454 18.6976 8.58214 19.2183 7.87726C19.8691 6.99615 19.6443 6.63259 20.5501 6.59362C21.2747 6.56244 22.0194 5.89057 22.3012 5.55853" stroke="black" stroke-width="0.5"/>
<path d="M1.18749 10.0607C1.11962 9.94681 1.20559 9.73523 2.09238 9.79984C3.20087 9.8806 3.39995 9.50299 3.90819 10.2371C4.31478 10.8244 5.29014 11.093 5.727 11.1539" stroke="black" stroke-width="0.5"/>
</svg>
