<svg width="44" height="52" viewBox="0 0 44 52" fill="none" xmlns="http://www.w3.org/2000/svg">
<path d="M13.9053 8.11894C13.5334 8.29651 12.5567 8.66411 10.0795 11.0265C8.69798 12.3439 8.75117 14.2974 8.32603 16.1146C7.94667 17.7362 7.69649 18.2346 8.69795 21.2028C9.495 23.5652 9.43291 25.8465 14.543 28.1991C15.2337 28.5171 17.3061 29.3802 19.8035 29.562C22.3009 29.7437 27.9334 28.5625 29.1556 27.563C33.5794 23.9452 34.2035 24.1558 35.0537 21.2028C35.4176 19.9388 34.7922 14.888 34.2035 13.5706C32.9044 10.663 33.9379 10.6176 27.1895 7.52835C20.4411 4.4391 17.9969 6.16545 13.9053 8.11894Z" stroke="black" stroke-width="0.5"/>
<path d="M14.3302 16.3872C13.0549 15.4423 12.4527 14.57 12.311 14.252L14.7553 12.2531L15.5524 13.0254C16.1192 13.4343 16.8944 14.6987 17.6247 15.206C18.4749 15.7966 19.4136 17.4018 20.1221 17.7956L21.7694 20.0671C21.9642 19.8702 23.1947 18.477 23.3635 18.2044C23.8417 17.4321 24.4262 16.5084 24.7982 15.7966L27.7207 11.8896L30.5369 12.6165L29.8993 14.252L27.0299 17.7956L21.7694 23.6106C20.8306 22.7474 18.8575 20.9212 18.4749 20.5214C17.9967 20.0216 15.9243 17.5684 14.3302 16.3872Z" stroke="black" stroke-width="0.5"/>
<path d="M15.8446 37.7685L12.3759 36.4219L10.8605 39.1151C10.4901 40.8246 8.97463 42.4673 8.40214 43.5561C7.58947 45.1016 6.03358 46.765 5.77539 47.3094L10.1533 44.9027L13.3189 43.155L14.3292 42.2668C15.1711 43.728 15.0364 43.4415 15.5752 44.2437C16.1977 45.1705 16.5855 45.7909 17.0906 46.7077L18.5387 49.6875C18.5387 48.9903 18.7407 43.8311 18.7407 43.5561C18.7407 43.2123 17.9325 38.3129 18.5387 38.3129C18.7407 38.3129 16.9559 38.1983 15.8446 37.7685Z" stroke="black" stroke-width="0.5"/>
<path d="M31.4513 37.313L27.9602 38.196L28.8517 40.958C29.8437 42.3943 29.9615 44.3956 30.3508 45.4906C30.9034 47.045 31.0073 49.083 31.2221 49.6155L32.6043 45.5276L33.5982 42.5663L33.6721 41.382C35.3548 41.9891 35.0468 41.8538 36.0258 42.146C37.157 42.4837 37.8932 42.7251 38.9324 43.1184L42.1703 44.5004C41.6568 43.9955 38.003 40.1515 37.8004 39.9524C37.5472 39.7034 33.3567 36.5887 33.7935 36.264C33.9391 36.1557 32.5686 37.0289 31.4513 37.313Z" stroke="black" stroke-width="0.5"/>
</svg>
