<svg width="44" height="38" viewBox="0 0 44 38" fill="none" xmlns="http://www.w3.org/2000/svg">
<path d="M25.7015 2.16808C22.9915 3.16754 25.0639 6.02964 20.6535 5.52991L18.4218 2.94039C16.19 0.260016 14.649 1.21405 12.8424 1.21405C10.3444 1.21405 8.37892 3.53098 8.37892 5.52991C8.37892 7.52883 10.1856 8.30115 9.22915 9.8912C8.27268 11.4813 6.35973 9.80034 3.75603 10.7998C1.15233 11.7993 0.320206 14.1832 0.62097 15.7063C1.31175 19.2044 4.2874 18.6592 5.61582 19.9767C6.94423 21.2942 5.66895 23.7928 4.12799 24.7014C2.58703 25.61 2.97517 28.6345 3.75603 29.9259C4.8719 31.7713 6.20011 34.2485 10.2387 32.9697C13.1081 32.0611 12.7361 32.0329 15.8712 32.9697C19.0063 33.9065 18.1818 34.4968 18.4218 35.6046C18.9531 38.0579 27.0287 37.9415 28.3583 35.6046C29.3148 33.9237 27.8801 34.1963 28.3583 32.9697C28.7409 31.9884 31.1392 30.7891 31.9185 31.1979C33.3355 31.7279 36.5888 33.2759 39.3576 32.0329C41.2174 31.1979 41.9613 29.835 41.9613 27.2001C41.9613 26.1914 40.7923 25.0194 39.3576 23.6111C37.9229 22.2028 38.0292 21.2942 38.2949 19.9767C38.5606 18.6592 39.599 18.5952 41.9613 17.5235C44.3237 16.4518 43.4135 11.1647 41.9613 10.3909C38.2949 8.43744 36.2225 11.6175 34.3096 8.9826C33.796 7.96799 33.7782 8.39201 34.3096 6.98367C34.8058 5.6687 34.5753 3.93985 33.5126 2.94039C32.4499 1.94093 28.4114 1.16862 25.7015 2.16808Z" stroke="black" stroke-width="0.5"/>
</svg>
